<?xml version="1.0" encoding="UTF-8"?>
<svg width="502px" height="502px" viewBox="0 0 502 502" version="1.1" xmlns="http://www.w3.org/2000/svg" xmlns:xlink="http://www.w3.org/1999/xlink">
    <!-- Generator: Sketch 51.2 (57519) - http://www.bohemiancoding.com/sketch -->
    <title>finally_bg</title>
    <desc>Created with Sketch.</desc>
    <defs></defs>
    <g id="Page-1" stroke="none" stroke-width="1" fill="none" fill-rule="evenodd">
        <g id="切图" transform="translate(-976.000000, -39.000000)">
            <g id="finally_bg" transform="translate(976.000000, 39.000000)">
                <rect id="Rectangle-5" fill="#F59A55" fill-rule="nonzero" x="0" y="0" width="502" height="502" rx="251"></rect>
                <g id="Group-7" stroke-width="1" fill-rule="evenodd" transform="translate(32.823077, 30.892308)">
                    <ellipse id="Oval-3" stroke="#E6713B" stroke-width="9.89835685" fill-rule="nonzero" cx="218.176923" cy="220.590385" rx="218.176923" ry="220.590385"></ellipse>
                    <ellipse id="Oval-3" stroke="#E6713B" stroke-width="9.89835685" fill-rule="nonzero" cx="218.774668" cy="219.992579" rx="114.767039" ry="115.974349"></ellipse>
                    <g id="Group" transform="translate(22.714310, 22.716625)" fill="#E6713B">
                        <path d="M382.117919,212.721828 L336.973084,209.257845 C331.491842,208.907899 327.079249,212.16385 326.209567,216.456738 C323.191354,238.461418 314.861983,259.756531 301.401169,277.498963 C298.821006,281.024228 300.115901,286.784632 304.164254,290.277644 L338.827978,319.566688 C343.110599,323.208063 349.731093,321.887299 353.692799,316.539734 C360.107906,308.37486 365.223305,299.298837 370.221569,290.221201 C373.11623,284.226961 371.36082,277.58766 366.333673,275.357357 L359.552722,272.330403 C354.525575,270.125904 348.505194,272.446515 346.055002,277.498963 C345.150019,279.587352 343.951399,281.49351 342.781661,283.433535 C342.483209,283.933458 342.037136,284.254376 341.502811,284.402741 C340.963672,284.522077 340.429348,284.459183 339.954392,284.197933 L334.327133,280.850061 C333.845759,280.554945 333.539285,280.145331 333.399686,279.614767 C333.269715,279.114844 333.32748,278.585893 333.605072,278.144026 C335.955781,274.620374 337.505804,270.65808 339.399208,266.894143 C340.318632,264.984759 339.44895,262.691563 337.44804,261.812666 C335.453548,260.932156 333.122094,261.696555 332.252412,263.486602 C330.455284,267.069922 329.001535,270.830634 326.75031,274.178506 C324.163729,278.469782 325.763494,284.402741 330.309267,287.51839 L335.766441,291.100098 C340.326655,294.183494 346.517121,292.541811 349.630004,287.399054 C350.857508,285.370334 352.10587,283.377092 353.065408,281.200007 C353.328559,280.642029 353.742541,280.288857 354.262424,280.082437 C354.788726,279.87763 355.323051,279.87763 355.809239,280.145331 L362.431337,283.520618 C362.912711,283.754453 363.251277,284.197933 363.411735,284.78494 C363.541706,285.341306 363.498382,285.958953 363.206349,286.547572 C358.413471,295.241396 353.509877,303.969086 347.341875,311.811429 C346.963194,312.309739 346.449729,312.630658 345.886521,312.749994 C345.316896,312.867718 344.784175,312.779022 344.338102,312.42585 L308.329742,284.872023 C307.882064,284.522077 307.612495,284.078597 307.49536,283.580286 C307.394272,283.080363 307.466478,282.607855 307.74407,282.230494 C322.000756,263.428547 330.85001,240.8675 334.0351,217.540442 C334.10891,217.074385 334.394525,216.693798 334.824553,216.426097 C335.248161,216.132594 335.760022,216.016483 336.315207,216.072926 L381.240214,221.683353 C381.795398,221.773662 382.233448,222.067165 382.555969,222.567088 C382.862443,223.034758 382.994019,223.623378 382.907372,224.26844 C381.766516,234.199171 379.327555,243.863813 376.696046,253.497816 C376.521147,254.115463 376.184185,254.616998 375.686765,254.908889 C375.176509,255.202392 374.635766,255.292701 374.107859,255.145949 L367.034875,252.883394 C366.508573,252.73503 366.113846,252.354443 365.895623,251.85452 C365.661355,251.323956 365.573103,250.76759 365.71912,250.182197 L367.487366,243.305835 C368.992461,237.459959 365.776885,231.967256 360.253923,230.910967 L353.838816,229.648258 C348.577401,228.706467 343.221315,231.789864 341.942466,236.637505 C340.984532,240.367577 340.159778,244.158929 338.669124,247.711609 C337.98076,249.591965 339.086315,251.765824 341.12413,252.531835 C343.169969,253.293008 345.421193,252.294775 346.151277,250.298308 C347.707719,246.537596 348.585423,242.572077 349.591495,238.633972 C349.731093,238.108247 350.053613,237.724435 350.520546,237.430932 C350.98106,237.166456 351.508967,237.079373 352.041687,237.222899 L358.382984,238.782337 C358.938168,238.927476 359.34894,239.251619 359.624928,239.724127 C359.90252,240.190185 359.976331,240.751389 359.844755,241.309367 L358.148715,247.889001 C356.497603,253.265593 358.894845,259.0518 364.082449,261.048267 L371.039904,263.633354 C376.095933,265.573378 382.279981,262.165838 384.250404,255.820039 C387.01349,245.77481 389.542306,235.668299 390.740927,225.326341 C391.880178,218.746708 387.583115,213.10564 382.117919,212.721828" id="Fill-1"></path>
                        <path d="M296.480254,298.616098 C292.635138,294.910742 286.90563,294.205191 283.677513,297.114581 C267.535343,312.320263 247.417659,322.790517 226.155028,327.968328 C222.041168,329.259955 219.259899,333.90497 220.129741,339.408916 L227.87881,384.28812 C228.769325,389.701653 234.765988,393.523255 241.110906,391.700446 C251.153051,389.465931 260.813546,385.965621 270.38817,382.227975 C276.43572,379.614044 279.180414,373.083254 276.790336,368.202517 L273.576531,361.494128 C271.103763,356.497145 265.180249,354.671107 260.06933,356.845884 L253.789611,359.20149 C253.253711,359.375859 252.717812,359.346798 252.218488,359.141752 C251.725524,358.909259 251.356597,358.526614 251.175314,357.993818 L249.017405,351.792393 C248.837712,351.257982 248.874287,350.731644 249.088965,350.231138 C249.306823,349.761309 249.67734,349.378664 250.168714,349.20268 C254.088569,347.760901 258.033868,346.380474 261.713602,344.378452 C263.609126,343.46624 264.364474,341.113864 263.40717,339.144133 C262.445096,337.172787 260.2204,336.289636 258.43937,337.143725 C254.940919,339.055333 251.197576,340.348575 247.468546,341.732231 C242.84741,343.498531 240.306262,349.142942 241.7613,354.320753 L243.62343,360.610978 C245.180241,366.055187 250.924061,368.759531 256.491369,366.641263 L263.058915,364.200087 C263.617077,363.995041 264.189551,364.027332 264.717499,364.200087 C265.231135,364.3793 265.636638,364.732883 265.852906,365.259221 L268.743898,372.111304 C268.960166,372.613424 268.925182,373.172053 268.685061,373.729067 C268.433808,374.260249 267.991731,374.641279 267.396995,374.877001 C258.20879,378.46611 248.931534,381.817883 239.291712,383.965213 C238.684253,384.142812 238.089517,384.050784 237.583831,383.789229 C237.082917,383.524446 236.744203,383.111125 236.618577,382.552496 L226.764077,338.115674 C226.640041,337.582878 226.7116,337.05654 226.937409,336.586711 C227.167989,336.144328 227.516244,335.823036 227.964681,335.703561 C250.52492,330.202843 271.836847,319.112608 288.934731,302.999558 C289.282986,302.702484 289.725063,302.557176 290.222797,302.615299 C290.723712,302.702484 291.186461,302.93982 291.56175,303.32085 L322.080964,336.733633 C322.456252,337.143725 322.602551,337.673292 322.545304,338.231921 C322.472154,338.817997 322.211361,339.349178 321.74066,339.789946 C314.656297,346.730828 306.562153,352.467268 298.495044,358.142355 C297.957554,358.463647 297.364408,358.584738 296.790344,358.495938 C296.213099,358.407139 295.74876,358.111679 295.451391,357.645079 L291.504502,351.346781 C291.208724,350.876952 291.149887,350.347385 291.286644,349.821047 C291.439304,349.259189 291.765296,348.818421 292.272571,348.497129 C294.315985,347.320133 296.13995,345.878354 298.016392,344.43819 C302.758383,340.849081 303.788836,334.466827 300.341272,330.202843 L296.270347,325.083155 C292.794159,320.849847 286.797496,319.819774 282.829934,322.821193 C279.889645,325.289816 276.507279,327.085178 273.285524,329.143709 C271.591955,330.175396 271.08309,332.584281 272.154888,334.495889 C273.220325,336.409112 275.537254,337.05654 277.332595,335.939282 C280.729273,333.791952 284.277021,331.878729 287.37633,329.292246 C287.805686,328.967724 288.30342,328.878925 288.828187,328.967724 C289.340233,329.058138 289.796622,329.321307 290.114663,329.762075 L293.945467,335.085194 C294.263508,335.522733 294.373232,336.055529 294.285771,336.614158 C294.19831,337.143725 293.923204,337.613554 293.466815,337.967137 C291.677835,339.320117 289.93338,340.732834 287.979018,341.848477 C283.249748,344.791773 281.553,351.025489 284.19115,355.878778 L287.84067,362.349831 C290.497903,367.17083 297.183124,368.289702 302.788597,364.789392 C311.18965,358.909259 319.617736,352.878974 327.004239,345.70237 C331.884578,341.231725 332.538152,334.437766 328.532426,330.496688 L296.480254,298.616098 Z" id="Fill-3"></path>
                        <path d="M209.628705,339.679637 C209.029108,334.223635 205.075266,329.914569 200.765164,330.146534 C178.708894,331.259642 156.735327,326.182194 137.134701,316.265705 C133.160183,314.566241 128.053269,316.384909 125.257269,321.138573 L102.789074,360.459804 C100.037607,365.182863 102.240371,371.991992 108.228391,374.748183 C117.33368,379.588834 126.97972,383.140793 136.66552,386.573548 C142.973219,388.424432 149.171177,385.31224 150.448303,380.001216 L152.235962,372.781316 C153.497184,367.381694 150.144529,362.043285 144.819724,360.459804 L138.532701,358.138547 C138.004674,357.933967 137.613425,357.553803 137.365315,357.081819 C137.142653,356.584062 137.106073,356.026702 137.295336,355.530555 L139.56808,349.367383 C139.765295,348.835798 140.134278,348.457244 140.605049,348.222058 C141.082182,348.017478 141.597486,347.957876 142.096885,348.13346 C145.98711,349.65895 149.902781,351.068457 153.990221,351.978597 C156.024398,352.503739 158.090384,351.213435 158.602507,349.070984 C159.108268,346.931754 157.972692,344.816688 156.053026,344.320541 C152.170754,343.468393 148.447526,342.118488 144.754516,340.679985 C140.113602,338.9773 134.556592,341.706106 132.39677,346.60797 L129.834566,352.622943 C127.588859,357.817985 130.311699,363.509173 135.87666,365.592022 L142.451554,368.027651 C143.008209,368.262838 143.445581,368.615617 143.733451,369.055384 C144.01655,369.524145 144.104024,370.084727 143.94339,370.609869 L141.813786,377.742782 C141.654741,378.267924 141.277806,378.680306 140.748189,378.915492 C140.2138,379.178063 139.617383,379.240887 139.033691,379.00409 C129.732777,375.688928 120.468444,372.312554 111.741681,367.645876 C111.178664,367.354309 110.77151,366.909711 110.547258,366.384568 C110.337319,365.856204 110.337319,365.298845 110.590199,364.830083 L131.167357,324.42635 C131.420238,323.926982 131.811487,323.57098 132.274306,323.369622 C132.738715,323.194038 133.209487,323.165042 133.630954,323.369622 C154.394194,333.872466 177.710095,339.243093 201.053034,338.068771 C201.523805,338.039776 201.945273,338.244356 202.285628,338.597135 C202.625983,338.9773 202.835921,339.446062 202.856597,340.006643 L205.059361,385.400838 C205.08958,385.958197 204.870098,386.454344 204.458174,386.866725 C204.036706,387.279107 203.494365,387.511072 202.864549,387.540067 C193.064236,388.305228 183.21462,387.306492 173.457249,386.426959 C172.833795,386.338361 172.307359,386.045184 171.930424,385.605418 C171.553488,385.136656 171.370587,384.635676 171.437386,384.076706 L172.393243,376.686054 C172.466403,376.128695 172.763816,375.688928 173.218683,375.363534 C173.668778,375.03975 174.211119,374.923767 174.797993,375.012365 C177.102546,375.452131 179.427774,375.571335 181.751412,375.656711 C187.677404,375.980495 192.485315,371.755194 192.550523,366.236369 L192.672987,359.667258 C192.709568,354.18065 188.763677,349.512361 183.815808,349.24979 C179.992382,349.24979 176.267563,348.341262 172.495031,347.840283 C170.540376,347.545494 168.628663,349.041988 168.243776,351.213435 C167.846165,353.355887 169.213946,355.35336 171.292656,355.702918 C175.262403,356.203897 179.179665,357.172028 183.200306,357.172028 C183.728333,357.201023 184.176838,357.432988 184.526736,357.845369 C184.867091,358.227145 185.038859,358.726513 185.003869,359.283872 L184.57604,365.827209 C184.533098,366.384568 184.286579,366.856552 183.866702,367.236716 C183.453187,367.589496 182.939473,367.794076 182.373275,367.766691 C180.143474,367.678093 177.920034,367.562111 175.725222,367.117512 C170.228649,366.299192 164.977005,369.965523 163.935264,375.392529 L162.62951,382.701027 C161.622759,388.128033 166.03465,393.323075 172.537973,394.320201 C182.692955,395.228729 192.948134,396.227466 203.1556,395.492911 C209.701866,395.144964 214.517729,390.418684 213.946759,384.932076 L209.628705,339.679637 Z" id="Fill-5"></path>
                        <path d="M115.537082,303.157258 C97.9437037,289.801182 84.6467699,271.184549 75.6177332,251.044869 C73.9064508,247.052712 68.7852915,245.173482 63.6070367,246.99308 L21.5497741,262.557172 C16.5031563,264.375158 13.9877774,270.979864 16.5665959,277.115569 C20.8122891,286.571355 25.4068999,295.848243 31.0117858,304.567487 C34.2836816,310.350231 41.2905821,311.76046 45.572753,308.559643 L51.5091108,304.183905 C55.9451227,300.838036 56.4558112,294.790974 53.7548715,289.857591 L50.287899,284.044225 C50.000835,283.575223 49.9278795,283.017578 50.0500007,282.488944 C50.1816378,281.960309 50.4829757,281.55094 50.9603585,281.254389 L56.5874483,278.024562 C57.0632451,277.763468 57.5897935,277.700612 58.111584,277.819877 C58.6317884,277.937531 59.0568335,278.23247 59.3312097,278.701472 C61.5563526,282.252025 63.4849155,286.039497 65.9463708,289.417599 C67.2040603,291.148555 69.6385537,291.472504 71.3783839,290.150919 C73.1134562,288.859955 73.5607051,286.511722 72.3759712,284.896809 C70.0207771,281.666982 68.2143354,278.084194 66.0843519,274.707704 C63.3326605,270.539873 57.9656729,268.688041 53.0253165,271.15715 L47.2554876,274.09365 C42.4594562,276.501515 40.3215427,282.985344 43.5426868,288.067003 L47.1603283,294.114065 C47.4727681,294.642699 47.5584116,295.200344 47.4569083,295.7596 C47.3569909,296.317245 47.0746848,296.78947 46.611576,297.110197 L40.4817276,301.161986 C40.0186187,301.485935 39.4920703,301.542344 38.949662,301.369894 C38.4009097,301.189384 37.9378008,300.838036 37.6063291,300.30779 C32.2187237,291.941506 27.8112596,283.017578 23.7305093,273.945374 C23.4640631,273.357107 23.4212414,272.770452 23.5798403,272.211195 C23.7527131,271.685785 24.1349365,271.244181 24.6345231,271.039497 L65.8972051,253.425335 C66.4094796,253.217427 66.9011363,253.217427 67.3785191,253.364091 C67.8606598,253.512366 68.2444692,253.805694 68.4474758,254.218287 C78.0094049,275.560288 92.1215372,295.259976 110.742637,309.439626 C111.11693,309.703943 111.312007,310.145546 111.340555,310.643559 C111.370689,311.139959 111.224778,311.641195 110.901236,312.081186 L83.8458453,348.310369 C83.5127876,348.750361 83.0290609,348.987279 82.4517608,349.043688 C81.8792187,349.07431 81.3019186,348.898636 80.803918,348.518277 C73.0690485,342.438982 65.7164023,335.744021 59.1139292,328.405996 C58.688884,327.933771 58.4731895,327.376126 58.4589156,326.791082 C58.4509856,326.206039 58.6397184,325.704803 59.0425596,325.324444 L64.444439,320.300806 C64.8488662,319.918836 65.3690707,319.775395 65.919409,319.802794 C66.4697472,319.862426 66.9804358,320.096121 67.3785191,320.536113 C68.9819542,322.239669 70.4267904,324.1189 72.1571046,325.674181 C76.5360209,329.727582 82.9212136,329.608317 86.4532116,325.413087 L90.7052488,320.479704 C94.2166289,316.281251 94.1293995,310.174557 90.4752803,306.796454 C87.7664107,304.098485 85.3398472,301.132975 82.7483408,298.309294 C81.4176958,296.842656 78.9768584,296.757236 77.3147416,298.164242 C75.6557969,299.547072 75.4448603,301.951714 76.8595627,303.54084 C79.5842922,306.503127 82.1472508,309.616912 84.9861716,312.464769 C85.3763249,312.817729 85.5777456,313.283507 85.5920195,313.815365 C85.5920195,314.340776 85.4191466,314.842012 85.0369232,315.251381 L80.5580896,319.98008 C80.1742802,320.391061 79.6857956,320.595745 79.1370433,320.595745 C78.5787751,320.595745 78.0680865,320.420071 77.6462134,320.039712 C75.9872687,318.544064 74.605872,316.750253 73.0753924,315.106329 C69.3356298,310.967508 62.9425072,310.409864 58.7253618,313.871774 L53.0839981,318.629483 C48.8890565,322.120404 49.0111777,328.93463 53.4154698,333.868014 C60.2907332,341.497755 67.9542332,348.45381 76.0015426,354.797422 C81.244823,358.792802 87.9329396,358.262556 90.966937,353.711143 L116.288841,316.192608 C119.300635,311.612185 118.989781,305.769808 115.537082,303.157258" id="Fill-7"></path>
                        <path d="M59.1326302,236.162634 C64.3173729,234.60764 67.6749005,229.968441 66.5836251,225.773987 C62.0384866,204.023413 63.1455548,181.009508 69.0788714,159.753631 C70.2080493,155.543063 67.58962,150.774953 62.4554138,148.791329 L20.5763373,133.234947 C15.604796,131.343173 9.42037542,134.733542 7.62474566,141.13077 C4.86102351,151.155242 2.54581398,161.266729 1.35188601,171.600588 C0.206915404,178.158955 4.62413304,183.82461 9.9336381,184.163002 L17.2172304,184.693151 C22.6830832,185.029932 26.9265812,180.714623 27.9704785,175.16821 L28.968577,168.471264 C29.0554368,167.913722 29.3444432,167.444807 29.7740046,167.12414 C30.2004074,166.80025 30.7089323,166.68423 31.2427255,166.772856 L37.5708596,167.974955 C38.1030735,168.065193 38.5484276,168.38586 38.8658608,168.795154 C39.1738185,169.236675 39.3191113,169.749098 39.2385685,170.293749 C38.6858241,174.464032 37.8298599,178.602087 37.5140059,182.82877 C37.4129326,184.938082 39.0664281,186.787961 41.2094972,186.923318 C43.3541456,187.055452 45.1718852,185.558468 45.2666413,183.534559 C45.5603855,179.539918 46.3895022,175.606509 46.9059234,171.627981 C47.430241,166.624608 44.4675308,161.721141 39.1738185,160.374017 L32.9104344,158.875422 C27.7177953,157.581474 22.0292655,161.163599 21.3028014,167.12414 L20.252587,174.140142 C20.1657271,174.725077 19.8798793,175.22622 19.4471594,175.606509 C19.0081224,175.959404 18.4980182,176.135046 17.9594872,176.078647 L10.7090596,175.197215 C10.1689493,175.12148 9.7299123,174.816927 9.41563761,174.344789 C9.10452146,173.843646 8.97502133,173.271602 9.06819825,172.64477 C10.2131689,162.721816 12.4352015,153.003509 15.0883747,143.391553 C15.2463017,142.777613 15.5937411,142.292584 16.0596257,141.968694 C16.5255102,141.672198 17.0514071,141.572291 17.5709869,141.735042 L60.1244116,155.206282 C60.6503085,155.381924 61.0593393,155.705814 61.3467664,156.131221 C61.6278765,156.556629 61.7352668,157.025544 61.6199801,157.497682 C55.3139558,180.037838 54.1547718,204.400479 58.9731239,227.412773 C59.0899899,227.884911 58.9873374,228.32321 58.7014895,228.738949 C58.4140624,229.119238 57.9955559,229.412511 57.463342,229.528531 L14.0097335,239.596511 C13.4775195,239.744759 12.953202,239.596511 12.4699454,239.275844 C12.0040608,238.922949 11.6645178,238.421806 11.5081701,237.806254 C9.83098557,228.002543 7.9469167,218.137599 7.78109337,208.187251 C7.75266651,207.544305 7.93902035,206.988375 8.28488043,206.516237 C8.64495395,206.077938 9.11241781,205.810447 9.66042443,205.779831 L16.9519131,205.457552 C17.4904441,205.426936 17.9863348,205.662199 18.3811523,206.047322 C18.777549,206.455004 19.0160187,206.956147 19.0428663,207.573311 L19.4124154,214.647323 C20.0378063,220.606252 25.2367625,224.652458 30.5083651,223.775861 L36.8728224,222.776797 C42.2533946,221.838967 45.7783248,217.140147 45.2808548,212.152888 L44.7123176,200.589536 C44.5749212,198.59141 42.8077183,196.947789 40.7057102,196.931675 C38.5042081,196.918784 36.7938589,198.618803 36.9296761,200.761955 L37.5282193,212.913465 C37.5566462,213.442001 37.3481826,213.943144 37.0244323,214.352438 C36.7085783,214.732727 36.2616449,215.000218 35.7152176,215.085622 L29.3207542,215.762406 C28.7822232,215.818805 28.272119,215.643163 27.8346613,215.290268 C27.4082584,214.937374 27.1918985,214.468458 27.1571545,213.883523 L26.8191908,207.131789 C26.5522942,201.527366 21.8776556,196.918784 16.6281628,196.799541 L9.32877777,196.772148 C3.77606515,196.712526 -0.271603345,201.993059 0.0142444886,208.630384 C0.200598325,218.991637 2.14467945,229.264263 3.89608966,239.448263 C5.4943107,245.909946 11.0185965,249.869137 16.2112356,248.370542 L59.1326302,236.162634 Z" id="Fill-9"></path>
                        <path d="M25.5805827,120.16408 L66.7180716,138.832565 C71.7343307,141.034218 77.3223665,139.67837 79.1738337,135.775512 C89.568317,116.347561 104.937417,99.4874064 123.295132,87.224022 C127.015684,85.0111766 127.8245,79.3303677 125.140193,74.5529241 L102.507767,35.4987614 C99.8010371,30.7516965 93.0630416,29.6436749 87.4173477,33.1100396 C79.0008593,39.0210868 70.5683548,45.0200723 63.1352582,52.1862377 C58.1766572,56.5559678 57.6577339,63.3719792 61.7002109,67.2444586 L67.007964,72.3816495 C70.9111004,76.0702581 77.2775212,75.8959805 81.5089888,72.2265584 L86.4980205,67.7097317 C86.9208469,67.3323968 87.4317622,67.1549215 87.9634985,67.1853002 C88.4968364,67.2172777 88.977321,67.4475159 89.3280747,67.8856082 L93.4842664,72.8948889 C93.8270121,73.3313822 93.9743607,73.8254351 93.9519381,74.3802454 C93.9151009,74.9334567 93.7036877,75.3987298 93.3096903,75.7760647 L83.9962974,84.2229304 C82.449137,85.6507273 82.6605502,88.2457042 84.2141171,89.700682 C85.8109275,91.2404003 88.0868229,91.1844396 89.5458944,89.8174 L98.402827,81.7750502 C102.169826,78.5277316 102.94661,72.7781709 99.6777127,68.2917228 L95.7761779,63.063396 C92.5809554,58.7096547 85.9438616,57.836668 81.4064855,61.6803676 L76.183618,66.4146416 C75.7383689,66.8079653 75.205031,67.0110226 74.6444657,67.0110226 C74.0758923,67.0110226 73.5729851,66.8079653 73.1950038,66.3986528 L68.1322979,61.0120372 C67.7527151,60.6027247 67.59896,60.0942819 67.6566182,59.5250818 C67.7302925,58.9414918 67.9929574,58.4170603 68.4590274,57.9821658 C75.5878171,51.1101937 83.6967953,45.3702263 91.770538,39.6638353 C92.311884,39.3392633 92.9076849,39.2241442 93.4842664,39.3120824 C94.068856,39.4144105 94.5429341,39.6894173 94.8408346,40.1578882 L119.319923,78.0784472 C119.619425,78.5437203 119.720327,79.0393721 119.65466,79.533425 C119.576181,80.0290768 119.340744,80.4112083 118.94034,80.6574353 C99.4823157,93.6451109 83.2147091,111.485377 72.2004007,132.10609 C71.9969956,132.515403 71.6334289,132.788811 71.1529443,132.921517 C70.6772646,133.036636 70.1599429,132.980676 69.6714502,132.71846 L29.4757111,112.097747 C28.9792104,111.85152 28.6588873,111.399038 28.5035307,110.845827 C28.3673934,110.262237 28.4170434,109.665856 28.6941229,109.096655 C33.5806511,100.505891 38.5120246,91.8847476 44.6910564,84.1365911 C45.0690376,83.6393404 45.5783513,83.3211639 46.1405183,83.2060448 C46.7026852,83.0877279 47.2424296,83.1740673 47.6796706,83.5242213 L53.5447858,88.0394491 C53.9820268,88.3608233 54.2302771,88.8516785 54.2879353,89.4080876 C54.339187,89.9597001 54.2014481,90.5161092 53.8426862,91.0101621 L49.6288364,96.6302137 C46.2510297,101.551556 47.7533449,108.035001 52.3980292,110.786668 L57.9796585,114.165095 C62.7636834,116.959931 68.4670355,115.648852 71.3131059,111.570118 L78.19845,102.398961 C79.3211823,100.740926 79.2106709,98.5232837 77.5129587,97.0683059 C75.9001321,95.6836787 73.2654749,95.6996675 72.057857,97.4456408 L64.8201575,107.117246 C64.4934279,107.523361 64.0337644,107.785577 63.4924184,107.873515 C62.9542756,107.943865 62.4625798,107.873515 61.9901032,107.553739 L56.5782452,103.925888 C56.1345977,103.618904 55.812673,103.153631 55.7389987,102.629199 C55.658918,102.104768 55.783844,101.580336 56.1265896,101.115063 L60.1530505,95.7284472 C63.4203457,91.1844396 62.9302514,84.8081193 58.8989857,81.296986 L53.2452837,76.5035536 C49.0074097,72.8661091 42.2838287,74.0876509 38.3806922,79.4183059 C31.9550116,87.4846389 26.7978104,96.4559362 21.7222915,105.411245 C18.826571,111.351072 20.5771366,117.949636 25.5805827,120.16408" id="Fill-12"></path>
                        <path d="M135.008172,69.197785 C137.456082,74.1924641 142.405946,76.3843506 146.424333,74.832232 C166.729268,66.7734014 189.076777,63.3532888 210.964905,65.9540495 C215.215366,66.6387134 219.45629,62.8001061 220.456118,57.3981562 L228.202004,12.8404873 C229.185937,7.45296828 224.749498,2.25144689 218.256179,1.28618306 C208.084637,0.500503199 197.847923,-0.522484052 187.649359,0.309695232 C181.098816,0.648018602 176.314265,5.37652864 176.905578,10.8233745 L177.64472,18.2007481 C178.275772,23.6347666 183.233584,27.8100939 188.77953,27.5455282 L195.452469,27.2104117 C196.018349,27.1671191 196.509521,27.4429088 196.90214,27.8373522 C197.283632,28.2317955 197.501401,28.7304617 197.495043,29.2836445 L197.436229,35.8144079 C197.431461,36.3675907 197.22005,36.8341883 196.849685,37.2142008 C196.480909,37.5926099 196.010401,37.7401253 195.481081,37.7834179 L183.00151,38.4263926 C180.903301,38.529012 179.390048,40.3697477 179.628481,42.587289 C179.860555,44.6925904 181.656749,46.3858106 183.640509,46.2992255 L195.504924,45.6819056 C200.44684,45.8598862 204.725914,41.6957829 205.102638,36.2216787 L205.471414,29.6796913 C205.819526,24.2456728 201.343348,19.5139559 195.431805,19.3103205 L188.445724,19.645437 C187.85918,19.6887296 187.331449,19.4850942 186.897501,19.1307365 C186.469912,18.7555343 186.209225,18.2889367 186.186971,17.7309436 L185.781636,10.3439495 C185.753024,9.78595644 185.972382,9.29210053 186.382486,8.88162288 C186.802128,8.4743521 187.345755,8.23864814 187.967269,8.208183 C197.770035,7.39364143 207.599824,8.41502525 217.370798,9.14458512 C217.995492,9.23277368 218.515276,9.52620106 218.906305,9.96554041 C219.284619,10.4161038 219.464238,10.925994 219.399066,11.4807801 L213.78159,56.3735655 C213.710061,56.9315585 213.46368,57.3692945 213.10921,57.7172384 C212.738844,58.0395275 212.304897,58.1870429 211.848695,58.0956475 C188.679389,55.3489748 165.006194,58.943861 143.462998,67.531823 C143.029051,67.6793384 142.558543,67.6232184 142.11029,67.3875144 C141.662036,67.1245522 141.291671,66.7429362 141.08185,66.2474769 L123.650825,24.5519276 C123.441004,24.0388305 123.477564,23.5161129 123.73825,22.9901884 C124.005295,22.4947291 124.440832,22.0970789 125.035324,21.8774092 C134.199091,18.226403 143.520222,15.0756664 153.157675,12.9270725 C153.764884,12.7651262 154.351428,12.8549182 154.858495,13.1146736 C155.357614,13.3808427 155.697778,13.7881135 155.821764,14.3428996 L157.398599,21.5743612 C157.514636,22.1131132 157.392241,22.6390376 157.080689,23.1216696 C156.762778,23.602698 156.304987,23.9233837 155.732749,24.08533 L148.950131,25.8523079 C143.159394,27.1671191 140.191701,33.2264746 141.987894,38.3686692 L144.079744,44.545075 C145.917266,49.7433895 151.049929,52.3152885 155.899652,51.2618361 C159.59218,50.3895711 163.225896,49.217465 166.961342,48.547232 C168.924439,48.255408 170.218334,46.2511227 169.871812,44.107339 C169.515752,41.9459177 167.539939,40.4547294 165.462395,40.7770185 C161.533023,41.4921475 157.702203,42.7187701 153.81416,43.6551723 C153.300734,43.7866534 152.788899,43.7000683 152.331108,43.437106 C151.874906,43.1420752 151.534742,42.7348044 151.382145,42.1960525 L149.587541,35.9298548 C149.428586,35.387896 149.516012,34.8780058 149.784646,34.4082013 C150.059638,33.9416037 150.484049,33.5936597 151.035623,33.4493512 L157.506688,31.7801823 C162.841224,30.1607198 166.665686,25.5300188 165.802559,20.0110187 L164.573836,12.7106096 C163.725015,7.39364143 157.708562,3.42034612 151.382145,5.23222009 C141.342536,7.48182998 131.627196,10.7512203 122.078758,14.5497419 C115.970111,17.0013838 113.255156,23.5722329 115.609282,28.4226035 L135.008172,69.197785 Z" id="Fill-14"></path>
                        <path d="M236.268284,72.4303735 C256.979928,79.5806174 276.552535,91.249519 291.479659,107.715868 C294.379895,110.945323 300.16282,110.713266 304.391932,107.219525 L338.856567,77.9820053 C343.053774,74.4576458 342.918174,67.6458177 338.48646,62.7291186 C331.430494,55.2291783 323.868822,48.0966609 315.645104,41.934269 C310.371077,37.9409618 303.650123,38.4695351 300.620668,43.0494299 L296.479296,49.2118218 C293.478557,53.8223351 294.641523,60.2377332 299.095571,63.6235034 C300.861557,65.0061739 302.736022,66.2679817 304.40629,67.765069 C304.829042,68.1469955 305.060359,68.6465618 305.103431,69.2041422 C305.146504,69.7617227 304.986975,70.290296 304.631226,70.6996181 L300.411685,75.6904464 C300.046364,76.1158835 299.575753,76.3366596 299.058879,76.3962852 C298.535625,76.4252923 298.055442,76.2802569 297.663001,75.9112225 C294.424563,73.2554637 290.996286,70.8188694 287.674894,68.2662468 C285.980696,67.0044391 283.649978,67.4105381 282.429582,69.2605449 C281.2379,71.0525375 281.53622,73.5471459 283.128318,74.7348245 C286.272634,77.1891453 289.542978,79.4774812 292.621886,82.0043197 C296.291052,85.3755864 302.31327,84.8937466 306.105273,80.9310579 L310.565703,76.1593941 C314.338562,72.1660869 313.844023,65.7104012 309.439428,61.6590798 C307.689396,60.1023668 305.736761,58.7825449 303.889416,57.3289682 C303.418806,56.9631567 303.128463,56.4797055 303.026364,55.9350171 C302.930647,55.3742136 303.034341,54.8327482 303.361375,54.3960306 L307.791494,48.4334653 C308.12491,47.9806326 308.605092,47.745353 309.187373,47.6970079 C309.766463,47.6567203 310.342362,47.8323742 310.849664,48.2143007 C318.746347,54.1430245 325.996938,60.9822481 332.7833,68.1872831 C333.204456,68.6594538 333.421415,69.2331493 333.445345,69.8181253 C333.451726,70.4063243 333.263482,70.9075021 332.855088,71.2845941 L299.80707,102.16746 C299.408248,102.533271 298.920089,102.728263 298.435121,102.755659 C297.932605,102.755659 297.497091,102.612235 297.18601,102.259315 C281.368714,84.8180059 260.641118,72.4303735 238.672386,64.8853111 C238.236872,64.7128802 237.917814,64.3599608 237.727974,63.8910131 C237.53973,63.3914468 237.488681,62.9224991 237.654591,62.3616956 L250.914637,18.9203783 C251.074166,18.3918049 251.466608,17.9792599 251.988267,17.7423688 C252.513117,17.5377077 253.101779,17.5070892 253.696822,17.7278652 C263.046814,20.9718231 272.265992,24.5413048 281.028917,29.1904942 C281.595245,29.4580039 282.002044,29.9108366 282.220599,30.43941 C282.435963,30.9840984 282.435963,31.5126717 282.174335,32.0106265 L278.762011,38.6177935 C278.506765,39.1109138 278.071251,39.4348261 277.525662,39.5991995 C276.981668,39.763573 276.405768,39.7152278 275.877728,39.4638332 L269.549214,36.3826373 C264.252853,33.6092386 258.071106,36.4293709 256.174307,41.4911054 L253.827636,47.6277132 C251.89574,52.8812167 254.242411,58.1057132 258.623076,60.4859048 C262.029019,62.2166602 265.553014,63.7153591 268.879193,65.5911499 C270.579771,66.6515197 272.846678,65.9585729 273.952213,64.0682785 C275.054558,62.1892647 274.48823,59.7494474 272.687149,58.6342865 C269.187083,56.6682515 265.481226,55.0841429 261.898206,53.2647547 C261.421214,53.0294751 261.086203,52.61693 260.902745,52.1189753 C260.728858,51.5871789 260.736835,51.0618285 260.961771,50.5493702 L263.592403,44.5432943 C263.810958,44.043728 264.211375,43.6908086 264.718678,43.5183776 C265.218003,43.3249971 265.763592,43.3411122 266.278871,43.6053988 L272.325018,46.5431709 C277.445897,48.8024997 283.366017,47.6567203 286.235942,42.8721645 L289.962539,36.4454859 C292.703246,31.7737354 290.603845,24.8474906 284.588008,22.1176025 C275.454976,17.2734211 265.851333,13.5476235 256.1089,10.1699108 C249.825055,8.15875361 243.553972,11.3753159 242.261787,16.6578265 L231.088379,60.6905658 C229.780242,66.1197233 232.171581,71.1121631 236.268284,72.4303735" id="Fill-17"></path>
                        <path d="M307.018583,127.821944 C318.8139,146.607975 326.023398,168.202741 327.039792,190.471539 C327.264587,194.835856 331.924268,198.38297 337.417295,198.471447 L382.715102,198.471447 C388.212946,198.500403 392.424642,193.211101 392.103506,186.59143 C391.885134,176.242866 389.850738,165.974735 387.964066,155.835297 C386.327879,149.371667 380.725665,145.448125 375.446193,146.984403 L368.310556,149.008108 C363.045535,150.591038 359.930518,156.243899 361.306585,161.695677 C361.948857,163.862553 362.212188,166.090559 362.563832,168.321782 C362.648933,168.905729 362.504422,169.433372 362.18168,169.885408 C361.860544,170.34227 361.422194,170.633439 360.879475,170.721916 L354.42304,171.806158 C353.875503,171.891418 353.363292,171.749855 352.926547,171.45386 C352.499437,171.161082 352.208809,170.721916 352.134947,170.194272 C351.694991,165.974735 350.37994,161.959498 349.394054,157.855785 C348.859363,155.804733 346.738261,154.635231 344.633216,155.248133 C342.542622,155.867471 341.238811,157.947479 341.736571,159.87949 C342.672682,163.762816 343.94438,167.586621 344.339377,171.569684 C345.102074,176.524383 350.132666,180.040932 355.59358,179.484333 L362.094974,178.721824 C367.547859,178.121791 371.248949,172.861445 370.343346,166.941545 C369.977251,164.594497 369.699469,162.253885 369.026689,159.995314 C368.878967,159.411367 368.968885,158.854768 369.232216,158.354472 C369.509999,157.871872 369.919447,157.53566 370.458955,157.41501 L377.68451,155.719473 C378.240075,155.600432 378.766737,155.719473 379.248441,156.071771 C379.73175,156.422461 380.083394,156.903453 380.229511,157.53566 C382.027871,167.277756 384.00125,177.124416 384.205172,187.059553 C384.237285,187.688542 384.046209,188.272489 383.680115,188.727742 C383.328471,189.181387 382.861218,189.448426 382.305653,189.475773 L337.041566,191.631389 C336.487607,191.644258 335.989846,191.499478 335.594849,191.176136 C335.199852,190.864054 334.959001,190.471539 334.936521,190.003416 C333.838237,166.426771 326.220896,143.500027 313.715869,123.602406 C313.468595,123.190587 313.438087,122.722465 313.592232,122.223777 C313.746377,121.739568 314.059484,121.31488 314.528343,121.022102 L352.566875,96.3499533 C353.027705,96.0571756 353.568819,95.9976549 354.124384,96.1729997 C354.673526,96.3338666 355.148807,96.6974257 355.485999,97.2411556 C360.954942,105.580493 365.253344,114.543994 369.434532,123.58632 C369.728371,124.159006 369.728371,124.773517 369.52445,125.330116 C369.318923,125.886716 368.968885,126.311404 368.442222,126.517314 L361.597213,129.374309 C361.07055,129.581827 360.543888,129.549654 360.046127,129.301919 C359.564424,129.050967 359.169427,128.642365 358.891644,128.114722 L355.836037,121.723482 C353.223598,116.334442 347.272952,114.151479 342.365997,116.919997 L336.638541,120.085857 C331.998129,122.751421 329.840096,128.582844 331.9901,133.096768 C333.701754,136.553797 335.434282,140.800681 336.596793,144.465228 C337.284024,146.355414 339.470958,146.488933 341.524622,145.76825 C343.586313,145.049175 344.707077,143.615851 343.982916,141.621102 C342.738515,137.753863 340.932126,133.330025 339.133766,129.694434 C338.899337,129.229529 338.89452,128.698668 339.075961,128.20159 C339.25098,127.686816 339.601018,127.278214 340.098779,127.030479 L345.972352,124.142919 C346.468507,123.895184 347.001592,123.895184 347.513804,124.070529 C348.032438,124.258743 348.449914,124.627128 348.698795,125.125815 L351.622736,131.23393 C353.706907,136.436364 359.344446,139.28049 364.580564,137.493259 L371.555633,134.982127 C376.717891,133.182027 379.17458,126.647616 376.705046,120.467111 C372.360079,111.059618 367.857755,101.713254 362.18168,93.0087488 C358.848291,87.2658022 351.886067,85.7102198 347.476873,88.9339915 L310.661868,115.383719 C306.206109,118.678272 304.940834,123.98527 307.018583,127.821944" id="Fill-19"></path>
                    </g>
                </g>
                <g id="字字" stroke-width="1" fill-rule="evenodd" transform="translate(167.011538, 167.976923)" stroke="#E6713B">
                    <rect id="Rectangle-6-Copy-3" stroke-width="7.42376763" fill-rule="nonzero" x="3.71188382" y="3.71188382" width="158.606892" height="158.606892"></rect>
                    <path d="M3.58339553,83.6125624 L163.641729,83.6125624" id="Path-2" stroke-width="4.94917842" fill-rule="nonzero"></path>
                    <path d="M83.6125624,3.58339553 L83.6125624,163.641729" id="Path-2" stroke-width="4.94917842" fill-rule="nonzero"></path>
                </g>
                <text id="蓉" font-family="NotoSansCJKsc-Regular, Noto Sans CJK SC" font-size="53.9910373" font-weight="normal" fill="#E6713B">
                    <tspan x="263.778007" y="311.156492">沙</tspan>
                </text>
                <text id="莲" font-family="NotoSansCJKsc-Regular, Noto Sans CJK SC" font-size="53.9910373" font-weight="normal" fill="#E6713B">
                    <tspan x="184.388462" y="311.156492">豆</tspan>
                </text>
                <text id="黄" font-family="NotoSansCJKsc-Regular, Noto Sans CJK SC" font-size="53.9910373" font-weight="normal" line-spacing="53.9910373" fill="#E6713B">
                    <tspan x="263.778007" y="246.453846">瑰</tspan>
                </text>
                <text id="蛋" font-family="NotoSansCJKsc-Regular, Noto Sans CJK SC" font-size="53.9910373" font-weight="normal" line-spacing="53.9910373" fill="#E6713B">
                    <tspan x="184.388462" y="246.453846">玫</tspan>
                </text>
            </g>
            <g id="finally_bg" transform="translate(976.000000, 39.000000)">
                <rect id="Rectangle-5" fill="#F59A55" fill-rule="nonzero" x="0" y="0" width="502" height="502" rx="251"></rect>
                <g id="Group-7" transform="translate(32.823077, 30.892308)">
                    <ellipse id="Oval-3" stroke="#E6713B" stroke-width="9.89835685" fill-rule="nonzero" cx="218.176923" cy="220.590385" rx="218.176923" ry="220.590385"></ellipse>
                    <ellipse id="Oval-3" stroke="#E6713B" stroke-width="9.89835685" fill-rule="nonzero" cx="218.774668" cy="219.992579" rx="114.767039" ry="115.974349"></ellipse>
                    <g id="Group" transform="translate(22.714310, 22.716625)" fill="#E6713B">
                        <path d="M382.117919,212.721828 L336.973084,209.257845 C331.491842,208.907899 327.079249,212.16385 326.209567,216.456738 C323.191354,238.461418 314.861983,259.756531 301.401169,277.498963 C298.821006,281.024228 300.115901,286.784632 304.164254,290.277644 L338.827978,319.566688 C343.110599,323.208063 349.731093,321.887299 353.692799,316.539734 C360.107906,308.37486 365.223305,299.298837 370.221569,290.221201 C373.11623,284.226961 371.36082,277.58766 366.333673,275.357357 L359.552722,272.330403 C354.525575,270.125904 348.505194,272.446515 346.055002,277.498963 C345.150019,279.587352 343.951399,281.49351 342.781661,283.433535 C342.483209,283.933458 342.037136,284.254376 341.502811,284.402741 C340.963672,284.522077 340.429348,284.459183 339.954392,284.197933 L334.327133,280.850061 C333.845759,280.554945 333.539285,280.145331 333.399686,279.614767 C333.269715,279.114844 333.32748,278.585893 333.605072,278.144026 C335.955781,274.620374 337.505804,270.65808 339.399208,266.894143 C340.318632,264.984759 339.44895,262.691563 337.44804,261.812666 C335.453548,260.932156 333.122094,261.696555 332.252412,263.486602 C330.455284,267.069922 329.001535,270.830634 326.75031,274.178506 C324.163729,278.469782 325.763494,284.402741 330.309267,287.51839 L335.766441,291.100098 C340.326655,294.183494 346.517121,292.541811 349.630004,287.399054 C350.857508,285.370334 352.10587,283.377092 353.065408,281.200007 C353.328559,280.642029 353.742541,280.288857 354.262424,280.082437 C354.788726,279.87763 355.323051,279.87763 355.809239,280.145331 L362.431337,283.520618 C362.912711,283.754453 363.251277,284.197933 363.411735,284.78494 C363.541706,285.341306 363.498382,285.958953 363.206349,286.547572 C358.413471,295.241396 353.509877,303.969086 347.341875,311.811429 C346.963194,312.309739 346.449729,312.630658 345.886521,312.749994 C345.316896,312.867718 344.784175,312.779022 344.338102,312.42585 L308.329742,284.872023 C307.882064,284.522077 307.612495,284.078597 307.49536,283.580286 C307.394272,283.080363 307.466478,282.607855 307.74407,282.230494 C322.000756,263.428547 330.85001,240.8675 334.0351,217.540442 C334.10891,217.074385 334.394525,216.693798 334.824553,216.426097 C335.248161,216.132594 335.760022,216.016483 336.315207,216.072926 L381.240214,221.683353 C381.795398,221.773662 382.233448,222.067165 382.555969,222.567088 C382.862443,223.034758 382.994019,223.623378 382.907372,224.26844 C381.766516,234.199171 379.327555,243.863813 376.696046,253.497816 C376.521147,254.115463 376.184185,254.616998 375.686765,254.908889 C375.176509,255.202392 374.635766,255.292701 374.107859,255.145949 L367.034875,252.883394 C366.508573,252.73503 366.113846,252.354443 365.895623,251.85452 C365.661355,251.323956 365.573103,250.76759 365.71912,250.182197 L367.487366,243.305835 C368.992461,237.459959 365.776885,231.967256 360.253923,230.910967 L353.838816,229.648258 C348.577401,228.706467 343.221315,231.789864 341.942466,236.637505 C340.984532,240.367577 340.159778,244.158929 338.669124,247.711609 C337.98076,249.591965 339.086315,251.765824 341.12413,252.531835 C343.169969,253.293008 345.421193,252.294775 346.151277,250.298308 C347.707719,246.537596 348.585423,242.572077 349.591495,238.633972 C349.731093,238.108247 350.053613,237.724435 350.520546,237.430932 C350.98106,237.166456 351.508967,237.079373 352.041687,237.222899 L358.382984,238.782337 C358.938168,238.927476 359.34894,239.251619 359.624928,239.724127 C359.90252,240.190185 359.976331,240.751389 359.844755,241.309367 L358.148715,247.889001 C356.497603,253.265593 358.894845,259.0518 364.082449,261.048267 L371.039904,263.633354 C376.095933,265.573378 382.279981,262.165838 384.250404,255.820039 C387.01349,245.77481 389.542306,235.668299 390.740927,225.326341 C391.880178,218.746708 387.583115,213.10564 382.117919,212.721828" id="Fill-1"></path>
                        <path d="M296.480254,298.616098 C292.635138,294.910742 286.90563,294.205191 283.677513,297.114581 C267.535343,312.320263 247.417659,322.790517 226.155028,327.968328 C222.041168,329.259955 219.259899,333.90497 220.129741,339.408916 L227.87881,384.28812 C228.769325,389.701653 234.765988,393.523255 241.110906,391.700446 C251.153051,389.465931 260.813546,385.965621 270.38817,382.227975 C276.43572,379.614044 279.180414,373.083254 276.790336,368.202517 L273.576531,361.494128 C271.103763,356.497145 265.180249,354.671107 260.06933,356.845884 L253.789611,359.20149 C253.253711,359.375859 252.717812,359.346798 252.218488,359.141752 C251.725524,358.909259 251.356597,358.526614 251.175314,357.993818 L249.017405,351.792393 C248.837712,351.257982 248.874287,350.731644 249.088965,350.231138 C249.306823,349.761309 249.67734,349.378664 250.168714,349.20268 C254.088569,347.760901 258.033868,346.380474 261.713602,344.378452 C263.609126,343.46624 264.364474,341.113864 263.40717,339.144133 C262.445096,337.172787 260.2204,336.289636 258.43937,337.143725 C254.940919,339.055333 251.197576,340.348575 247.468546,341.732231 C242.84741,343.498531 240.306262,349.142942 241.7613,354.320753 L243.62343,360.610978 C245.180241,366.055187 250.924061,368.759531 256.491369,366.641263 L263.058915,364.200087 C263.617077,363.995041 264.189551,364.027332 264.717499,364.200087 C265.231135,364.3793 265.636638,364.732883 265.852906,365.259221 L268.743898,372.111304 C268.960166,372.613424 268.925182,373.172053 268.685061,373.729067 C268.433808,374.260249 267.991731,374.641279 267.396995,374.877001 C258.20879,378.46611 248.931534,381.817883 239.291712,383.965213 C238.684253,384.142812 238.089517,384.050784 237.583831,383.789229 C237.082917,383.524446 236.744203,383.111125 236.618577,382.552496 L226.764077,338.115674 C226.640041,337.582878 226.7116,337.05654 226.937409,336.586711 C227.167989,336.144328 227.516244,335.823036 227.964681,335.703561 C250.52492,330.202843 271.836847,319.112608 288.934731,302.999558 C289.282986,302.702484 289.725063,302.557176 290.222797,302.615299 C290.723712,302.702484 291.186461,302.93982 291.56175,303.32085 L322.080964,336.733633 C322.456252,337.143725 322.602551,337.673292 322.545304,338.231921 C322.472154,338.817997 322.211361,339.349178 321.74066,339.789946 C314.656297,346.730828 306.562153,352.467268 298.495044,358.142355 C297.957554,358.463647 297.364408,358.584738 296.790344,358.495938 C296.213099,358.407139 295.74876,358.111679 295.451391,357.645079 L291.504502,351.346781 C291.208724,350.876952 291.149887,350.347385 291.286644,349.821047 C291.439304,349.259189 291.765296,348.818421 292.272571,348.497129 C294.315985,347.320133 296.13995,345.878354 298.016392,344.43819 C302.758383,340.849081 303.788836,334.466827 300.341272,330.202843 L296.270347,325.083155 C292.794159,320.849847 286.797496,319.819774 282.829934,322.821193 C279.889645,325.289816 276.507279,327.085178 273.285524,329.143709 C271.591955,330.175396 271.08309,332.584281 272.154888,334.495889 C273.220325,336.409112 275.537254,337.05654 277.332595,335.939282 C280.729273,333.791952 284.277021,331.878729 287.37633,329.292246 C287.805686,328.967724 288.30342,328.878925 288.828187,328.967724 C289.340233,329.058138 289.796622,329.321307 290.114663,329.762075 L293.945467,335.085194 C294.263508,335.522733 294.373232,336.055529 294.285771,336.614158 C294.19831,337.143725 293.923204,337.613554 293.466815,337.967137 C291.677835,339.320117 289.93338,340.732834 287.979018,341.848477 C283.249748,344.791773 281.553,351.025489 284.19115,355.878778 L287.84067,362.349831 C290.497903,367.17083 297.183124,368.289702 302.788597,364.789392 C311.18965,358.909259 319.617736,352.878974 327.004239,345.70237 C331.884578,341.231725 332.538152,334.437766 328.532426,330.496688 L296.480254,298.616098 Z" id="Fill-3"></path>
                        <path d="M209.628705,339.679637 C209.029108,334.223635 205.075266,329.914569 200.765164,330.146534 C178.708894,331.259642 156.735327,326.182194 137.134701,316.265705 C133.160183,314.566241 128.053269,316.384909 125.257269,321.138573 L102.789074,360.459804 C100.037607,365.182863 102.240371,371.991992 108.228391,374.748183 C117.33368,379.588834 126.97972,383.140793 136.66552,386.573548 C142.973219,388.424432 149.171177,385.31224 150.448303,380.001216 L152.235962,372.781316 C153.497184,367.381694 150.144529,362.043285 144.819724,360.459804 L138.532701,358.138547 C138.004674,357.933967 137.613425,357.553803 137.365315,357.081819 C137.142653,356.584062 137.106073,356.026702 137.295336,355.530555 L139.56808,349.367383 C139.765295,348.835798 140.134278,348.457244 140.605049,348.222058 C141.082182,348.017478 141.597486,347.957876 142.096885,348.13346 C145.98711,349.65895 149.902781,351.068457 153.990221,351.978597 C156.024398,352.503739 158.090384,351.213435 158.602507,349.070984 C159.108268,346.931754 157.972692,344.816688 156.053026,344.320541 C152.170754,343.468393 148.447526,342.118488 144.754516,340.679985 C140.113602,338.9773 134.556592,341.706106 132.39677,346.60797 L129.834566,352.622943 C127.588859,357.817985 130.311699,363.509173 135.87666,365.592022 L142.451554,368.027651 C143.008209,368.262838 143.445581,368.615617 143.733451,369.055384 C144.01655,369.524145 144.104024,370.084727 143.94339,370.609869 L141.813786,377.742782 C141.654741,378.267924 141.277806,378.680306 140.748189,378.915492 C140.2138,379.178063 139.617383,379.240887 139.033691,379.00409 C129.732777,375.688928 120.468444,372.312554 111.741681,367.645876 C111.178664,367.354309 110.77151,366.909711 110.547258,366.384568 C110.337319,365.856204 110.337319,365.298845 110.590199,364.830083 L131.167357,324.42635 C131.420238,323.926982 131.811487,323.57098 132.274306,323.369622 C132.738715,323.194038 133.209487,323.165042 133.630954,323.369622 C154.394194,333.872466 177.710095,339.243093 201.053034,338.068771 C201.523805,338.039776 201.945273,338.244356 202.285628,338.597135 C202.625983,338.9773 202.835921,339.446062 202.856597,340.006643 L205.059361,385.400838 C205.08958,385.958197 204.870098,386.454344 204.458174,386.866725 C204.036706,387.279107 203.494365,387.511072 202.864549,387.540067 C193.064236,388.305228 183.21462,387.306492 173.457249,386.426959 C172.833795,386.338361 172.307359,386.045184 171.930424,385.605418 C171.553488,385.136656 171.370587,384.635676 171.437386,384.076706 L172.393243,376.686054 C172.466403,376.128695 172.763816,375.688928 173.218683,375.363534 C173.668778,375.03975 174.211119,374.923767 174.797993,375.012365 C177.102546,375.452131 179.427774,375.571335 181.751412,375.656711 C187.677404,375.980495 192.485315,371.755194 192.550523,366.236369 L192.672987,359.667258 C192.709568,354.18065 188.763677,349.512361 183.815808,349.24979 C179.992382,349.24979 176.267563,348.341262 172.495031,347.840283 C170.540376,347.545494 168.628663,349.041988 168.243776,351.213435 C167.846165,353.355887 169.213946,355.35336 171.292656,355.702918 C175.262403,356.203897 179.179665,357.172028 183.200306,357.172028 C183.728333,357.201023 184.176838,357.432988 184.526736,357.845369 C184.867091,358.227145 185.038859,358.726513 185.003869,359.283872 L184.57604,365.827209 C184.533098,366.384568 184.286579,366.856552 183.866702,367.236716 C183.453187,367.589496 182.939473,367.794076 182.373275,367.766691 C180.143474,367.678093 177.920034,367.562111 175.725222,367.117512 C170.228649,366.299192 164.977005,369.965523 163.935264,375.392529 L162.62951,382.701027 C161.622759,388.128033 166.03465,393.323075 172.537973,394.320201 C182.692955,395.228729 192.948134,396.227466 203.1556,395.492911 C209.701866,395.144964 214.517729,390.418684 213.946759,384.932076 L209.628705,339.679637 Z" id="Fill-5"></path>
                        <path d="M115.537082,303.157258 C97.9437037,289.801182 84.6467699,271.184549 75.6177332,251.044869 C73.9064508,247.052712 68.7852915,245.173482 63.6070367,246.99308 L21.5497741,262.557172 C16.5031563,264.375158 13.9877774,270.979864 16.5665959,277.115569 C20.8122891,286.571355 25.4068999,295.848243 31.0117858,304.567487 C34.2836816,310.350231 41.2905821,311.76046 45.572753,308.559643 L51.5091108,304.183905 C55.9451227,300.838036 56.4558112,294.790974 53.7548715,289.857591 L50.287899,284.044225 C50.000835,283.575223 49.9278795,283.017578 50.0500007,282.488944 C50.1816378,281.960309 50.4829757,281.55094 50.9603585,281.254389 L56.5874483,278.024562 C57.0632451,277.763468 57.5897935,277.700612 58.111584,277.819877 C58.6317884,277.937531 59.0568335,278.23247 59.3312097,278.701472 C61.5563526,282.252025 63.4849155,286.039497 65.9463708,289.417599 C67.2040603,291.148555 69.6385537,291.472504 71.3783839,290.150919 C73.1134562,288.859955 73.5607051,286.511722 72.3759712,284.896809 C70.0207771,281.666982 68.2143354,278.084194 66.0843519,274.707704 C63.3326605,270.539873 57.9656729,268.688041 53.0253165,271.15715 L47.2554876,274.09365 C42.4594562,276.501515 40.3215427,282.985344 43.5426868,288.067003 L47.1603283,294.114065 C47.4727681,294.642699 47.5584116,295.200344 47.4569083,295.7596 C47.3569909,296.317245 47.0746848,296.78947 46.611576,297.110197 L40.4817276,301.161986 C40.0186187,301.485935 39.4920703,301.542344 38.949662,301.369894 C38.4009097,301.189384 37.9378008,300.838036 37.6063291,300.30779 C32.2187237,291.941506 27.8112596,283.017578 23.7305093,273.945374 C23.4640631,273.357107 23.4212414,272.770452 23.5798403,272.211195 C23.7527131,271.685785 24.1349365,271.244181 24.6345231,271.039497 L65.8972051,253.425335 C66.4094796,253.217427 66.9011363,253.217427 67.3785191,253.364091 C67.8606598,253.512366 68.2444692,253.805694 68.4474758,254.218287 C78.0094049,275.560288 92.1215372,295.259976 110.742637,309.439626 C111.11693,309.703943 111.312007,310.145546 111.340555,310.643559 C111.370689,311.139959 111.224778,311.641195 110.901236,312.081186 L83.8458453,348.310369 C83.5127876,348.750361 83.0290609,348.987279 82.4517608,349.043688 C81.8792187,349.07431 81.3019186,348.898636 80.803918,348.518277 C73.0690485,342.438982 65.7164023,335.744021 59.1139292,328.405996 C58.688884,327.933771 58.4731895,327.376126 58.4589156,326.791082 C58.4509856,326.206039 58.6397184,325.704803 59.0425596,325.324444 L64.444439,320.300806 C64.8488662,319.918836 65.3690707,319.775395 65.919409,319.802794 C66.4697472,319.862426 66.9804358,320.096121 67.3785191,320.536113 C68.9819542,322.239669 70.4267904,324.1189 72.1571046,325.674181 C76.5360209,329.727582 82.9212136,329.608317 86.4532116,325.413087 L90.7052488,320.479704 C94.2166289,316.281251 94.1293995,310.174557 90.4752803,306.796454 C87.7664107,304.098485 85.3398472,301.132975 82.7483408,298.309294 C81.4176958,296.842656 78.9768584,296.757236 77.3147416,298.164242 C75.6557969,299.547072 75.4448603,301.951714 76.8595627,303.54084 C79.5842922,306.503127 82.1472508,309.616912 84.9861716,312.464769 C85.3763249,312.817729 85.5777456,313.283507 85.5920195,313.815365 C85.5920195,314.340776 85.4191466,314.842012 85.0369232,315.251381 L80.5580896,319.98008 C80.1742802,320.391061 79.6857956,320.595745 79.1370433,320.595745 C78.5787751,320.595745 78.0680865,320.420071 77.6462134,320.039712 C75.9872687,318.544064 74.605872,316.750253 73.0753924,315.106329 C69.3356298,310.967508 62.9425072,310.409864 58.7253618,313.871774 L53.0839981,318.629483 C48.8890565,322.120404 49.0111777,328.93463 53.4154698,333.868014 C60.2907332,341.497755 67.9542332,348.45381 76.0015426,354.797422 C81.244823,358.792802 87.9329396,358.262556 90.966937,353.711143 L116.288841,316.192608 C119.300635,311.612185 118.989781,305.769808 115.537082,303.157258" id="Fill-7"></path>
                        <path d="M59.1326302,236.162634 C64.3173729,234.60764 67.6749005,229.968441 66.5836251,225.773987 C62.0384866,204.023413 63.1455548,181.009508 69.0788714,159.753631 C70.2080493,155.543063 67.58962,150.774953 62.4554138,148.791329 L20.5763373,133.234947 C15.604796,131.343173 9.42037542,134.733542 7.62474566,141.13077 C4.86102351,151.155242 2.54581398,161.266729 1.35188601,171.600588 C0.206915404,178.158955 4.62413304,183.82461 9.9336381,184.163002 L17.2172304,184.693151 C22.6830832,185.029932 26.9265812,180.714623 27.9704785,175.16821 L28.968577,168.471264 C29.0554368,167.913722 29.3444432,167.444807 29.7740046,167.12414 C30.2004074,166.80025 30.7089323,166.68423 31.2427255,166.772856 L37.5708596,167.974955 C38.1030735,168.065193 38.5484276,168.38586 38.8658608,168.795154 C39.1738185,169.236675 39.3191113,169.749098 39.2385685,170.293749 C38.6858241,174.464032 37.8298599,178.602087 37.5140059,182.82877 C37.4129326,184.938082 39.0664281,186.787961 41.2094972,186.923318 C43.3541456,187.055452 45.1718852,185.558468 45.2666413,183.534559 C45.5603855,179.539918 46.3895022,175.606509 46.9059234,171.627981 C47.430241,166.624608 44.4675308,161.721141 39.1738185,160.374017 L32.9104344,158.875422 C27.7177953,157.581474 22.0292655,161.163599 21.3028014,167.12414 L20.252587,174.140142 C20.1657271,174.725077 19.8798793,175.22622 19.4471594,175.606509 C19.0081224,175.959404 18.4980182,176.135046 17.9594872,176.078647 L10.7090596,175.197215 C10.1689493,175.12148 9.7299123,174.816927 9.41563761,174.344789 C9.10452146,173.843646 8.97502133,173.271602 9.06819825,172.64477 C10.2131689,162.721816 12.4352015,153.003509 15.0883747,143.391553 C15.2463017,142.777613 15.5937411,142.292584 16.0596257,141.968694 C16.5255102,141.672198 17.0514071,141.572291 17.5709869,141.735042 L60.1244116,155.206282 C60.6503085,155.381924 61.0593393,155.705814 61.3467664,156.131221 C61.6278765,156.556629 61.7352668,157.025544 61.6199801,157.497682 C55.3139558,180.037838 54.1547718,204.400479 58.9731239,227.412773 C59.0899899,227.884911 58.9873374,228.32321 58.7014895,228.738949 C58.4140624,229.119238 57.9955559,229.412511 57.463342,229.528531 L14.0097335,239.596511 C13.4775195,239.744759 12.953202,239.596511 12.4699454,239.275844 C12.0040608,238.922949 11.6645178,238.421806 11.5081701,237.806254 C9.83098557,228.002543 7.9469167,218.137599 7.78109337,208.187251 C7.75266651,207.544305 7.93902035,206.988375 8.28488043,206.516237 C8.64495395,206.077938 9.11241781,205.810447 9.66042443,205.779831 L16.9519131,205.457552 C17.4904441,205.426936 17.9863348,205.662199 18.3811523,206.047322 C18.777549,206.455004 19.0160187,206.956147 19.0428663,207.573311 L19.4124154,214.647323 C20.0378063,220.606252 25.2367625,224.652458 30.5083651,223.775861 L36.8728224,222.776797 C42.2533946,221.838967 45.7783248,217.140147 45.2808548,212.152888 L44.7123176,200.589536 C44.5749212,198.59141 42.8077183,196.947789 40.7057102,196.931675 C38.5042081,196.918784 36.7938589,198.618803 36.9296761,200.761955 L37.5282193,212.913465 C37.5566462,213.442001 37.3481826,213.943144 37.0244323,214.352438 C36.7085783,214.732727 36.2616449,215.000218 35.7152176,215.085622 L29.3207542,215.762406 C28.7822232,215.818805 28.272119,215.643163 27.8346613,215.290268 C27.4082584,214.937374 27.1918985,214.468458 27.1571545,213.883523 L26.8191908,207.131789 C26.5522942,201.527366 21.8776556,196.918784 16.6281628,196.799541 L9.32877777,196.772148 C3.77606515,196.712526 -0.271603345,201.993059 0.0142444886,208.630384 C0.200598325,218.991637 2.14467945,229.264263 3.89608966,239.448263 C5.4943107,245.909946 11.0185965,249.869137 16.2112356,248.370542 L59.1326302,236.162634 Z" id="Fill-9"></path>
                        <path d="M25.5805827,120.16408 L66.7180716,138.832565 C71.7343307,141.034218 77.3223665,139.67837 79.1738337,135.775512 C89.568317,116.347561 104.937417,99.4874064 123.295132,87.224022 C127.015684,85.0111766 127.8245,79.3303677 125.140193,74.5529241 L102.507767,35.4987614 C99.8010371,30.7516965 93.0630416,29.6436749 87.4173477,33.1100396 C79.0008593,39.0210868 70.5683548,45.0200723 63.1352582,52.1862377 C58.1766572,56.5559678 57.6577339,63.3719792 61.7002109,67.2444586 L67.007964,72.3816495 C70.9111004,76.0702581 77.2775212,75.8959805 81.5089888,72.2265584 L86.4980205,67.7097317 C86.9208469,67.3323968 87.4317622,67.1549215 87.9634985,67.1853002 C88.4968364,67.2172777 88.977321,67.4475159 89.3280747,67.8856082 L93.4842664,72.8948889 C93.8270121,73.3313822 93.9743607,73.8254351 93.9519381,74.3802454 C93.9151009,74.9334567 93.7036877,75.3987298 93.3096903,75.7760647 L83.9962974,84.2229304 C82.449137,85.6507273 82.6605502,88.2457042 84.2141171,89.700682 C85.8109275,91.2404003 88.0868229,91.1844396 89.5458944,89.8174 L98.402827,81.7750502 C102.169826,78.5277316 102.94661,72.7781709 99.6777127,68.2917228 L95.7761779,63.063396 C92.5809554,58.7096547 85.9438616,57.836668 81.4064855,61.6803676 L76.183618,66.4146416 C75.7383689,66.8079653 75.205031,67.0110226 74.6444657,67.0110226 C74.0758923,67.0110226 73.5729851,66.8079653 73.1950038,66.3986528 L68.1322979,61.0120372 C67.7527151,60.6027247 67.59896,60.0942819 67.6566182,59.5250818 C67.7302925,58.9414918 67.9929574,58.4170603 68.4590274,57.9821658 C75.5878171,51.1101937 83.6967953,45.3702263 91.770538,39.6638353 C92.311884,39.3392633 92.9076849,39.2241442 93.4842664,39.3120824 C94.068856,39.4144105 94.5429341,39.6894173 94.8408346,40.1578882 L119.319923,78.0784472 C119.619425,78.5437203 119.720327,79.0393721 119.65466,79.533425 C119.576181,80.0290768 119.340744,80.4112083 118.94034,80.6574353 C99.4823157,93.6451109 83.2147091,111.485377 72.2004007,132.10609 C71.9969956,132.515403 71.6334289,132.788811 71.1529443,132.921517 C70.6772646,133.036636 70.1599429,132.980676 69.6714502,132.71846 L29.4757111,112.097747 C28.9792104,111.85152 28.6588873,111.399038 28.5035307,110.845827 C28.3673934,110.262237 28.4170434,109.665856 28.6941229,109.096655 C33.5806511,100.505891 38.5120246,91.8847476 44.6910564,84.1365911 C45.0690376,83.6393404 45.5783513,83.3211639 46.1405183,83.2060448 C46.7026852,83.0877279 47.2424296,83.1740673 47.6796706,83.5242213 L53.5447858,88.0394491 C53.9820268,88.3608233 54.2302771,88.8516785 54.2879353,89.4080876 C54.339187,89.9597001 54.2014481,90.5161092 53.8426862,91.0101621 L49.6288364,96.6302137 C46.2510297,101.551556 47.7533449,108.035001 52.3980292,110.786668 L57.9796585,114.165095 C62.7636834,116.959931 68.4670355,115.648852 71.3131059,111.570118 L78.19845,102.398961 C79.3211823,100.740926 79.2106709,98.5232837 77.5129587,97.0683059 C75.9001321,95.6836787 73.2654749,95.6996675 72.057857,97.4456408 L64.8201575,107.117246 C64.4934279,107.523361 64.0337644,107.785577 63.4924184,107.873515 C62.9542756,107.943865 62.4625798,107.873515 61.9901032,107.553739 L56.5782452,103.925888 C56.1345977,103.618904 55.812673,103.153631 55.7389987,102.629199 C55.658918,102.104768 55.783844,101.580336 56.1265896,101.115063 L60.1530505,95.7284472 C63.4203457,91.1844396 62.9302514,84.8081193 58.8989857,81.296986 L53.2452837,76.5035536 C49.0074097,72.8661091 42.2838287,74.0876509 38.3806922,79.4183059 C31.9550116,87.4846389 26.7978104,96.4559362 21.7222915,105.411245 C18.826571,111.351072 20.5771366,117.949636 25.5805827,120.16408" id="Fill-12"></path>
                        <path d="M135.008172,69.197785 C137.456082,74.1924641 142.405946,76.3843506 146.424333,74.832232 C166.729268,66.7734014 189.076777,63.3532888 210.964905,65.9540495 C215.215366,66.6387134 219.45629,62.8001061 220.456118,57.3981562 L228.202004,12.8404873 C229.185937,7.45296828 224.749498,2.25144689 218.256179,1.28618306 C208.084637,0.500503199 197.847923,-0.522484052 187.649359,0.309695232 C181.098816,0.648018602 176.314265,5.37652864 176.905578,10.8233745 L177.64472,18.2007481 C178.275772,23.6347666 183.233584,27.8100939 188.77953,27.5455282 L195.452469,27.2104117 C196.018349,27.1671191 196.509521,27.4429088 196.90214,27.8373522 C197.283632,28.2317955 197.501401,28.7304617 197.495043,29.2836445 L197.436229,35.8144079 C197.431461,36.3675907 197.22005,36.8341883 196.849685,37.2142008 C196.480909,37.5926099 196.010401,37.7401253 195.481081,37.7834179 L183.00151,38.4263926 C180.903301,38.529012 179.390048,40.3697477 179.628481,42.587289 C179.860555,44.6925904 181.656749,46.3858106 183.640509,46.2992255 L195.504924,45.6819056 C200.44684,45.8598862 204.725914,41.6957829 205.102638,36.2216787 L205.471414,29.6796913 C205.819526,24.2456728 201.343348,19.5139559 195.431805,19.3103205 L188.445724,19.645437 C187.85918,19.6887296 187.331449,19.4850942 186.897501,19.1307365 C186.469912,18.7555343 186.209225,18.2889367 186.186971,17.7309436 L185.781636,10.3439495 C185.753024,9.78595644 185.972382,9.29210053 186.382486,8.88162288 C186.802128,8.4743521 187.345755,8.23864814 187.967269,8.208183 C197.770035,7.39364143 207.599824,8.41502525 217.370798,9.14458512 C217.995492,9.23277368 218.515276,9.52620106 218.906305,9.96554041 C219.284619,10.4161038 219.464238,10.925994 219.399066,11.4807801 L213.78159,56.3735655 C213.710061,56.9315585 213.46368,57.3692945 213.10921,57.7172384 C212.738844,58.0395275 212.304897,58.1870429 211.848695,58.0956475 C188.679389,55.3489748 165.006194,58.943861 143.462998,67.531823 C143.029051,67.6793384 142.558543,67.6232184 142.11029,67.3875144 C141.662036,67.1245522 141.291671,66.7429362 141.08185,66.2474769 L123.650825,24.5519276 C123.441004,24.0388305 123.477564,23.5161129 123.73825,22.9901884 C124.005295,22.4947291 124.440832,22.0970789 125.035324,21.8774092 C134.199091,18.226403 143.520222,15.0756664 153.157675,12.9270725 C153.764884,12.7651262 154.351428,12.8549182 154.858495,13.1146736 C155.357614,13.3808427 155.697778,13.7881135 155.821764,14.3428996 L157.398599,21.5743612 C157.514636,22.1131132 157.392241,22.6390376 157.080689,23.1216696 C156.762778,23.602698 156.304987,23.9233837 155.732749,24.08533 L148.950131,25.8523079 C143.159394,27.1671191 140.191701,33.2264746 141.987894,38.3686692 L144.079744,44.545075 C145.917266,49.7433895 151.049929,52.3152885 155.899652,51.2618361 C159.59218,50.3895711 163.225896,49.217465 166.961342,48.547232 C168.924439,48.255408 170.218334,46.2511227 169.871812,44.107339 C169.515752,41.9459177 167.539939,40.4547294 165.462395,40.7770185 C161.533023,41.4921475 157.702203,42.7187701 153.81416,43.6551723 C153.300734,43.7866534 152.788899,43.7000683 152.331108,43.437106 C151.874906,43.1420752 151.534742,42.7348044 151.382145,42.1960525 L149.587541,35.9298548 C149.428586,35.387896 149.516012,34.8780058 149.784646,34.4082013 C150.059638,33.9416037 150.484049,33.5936597 151.035623,33.4493512 L157.506688,31.7801823 C162.841224,30.1607198 166.665686,25.5300188 165.802559,20.0110187 L164.573836,12.7106096 C163.725015,7.39364143 157.708562,3.42034612 151.382145,5.23222009 C141.342536,7.48182998 131.627196,10.7512203 122.078758,14.5497419 C115.970111,17.0013838 113.255156,23.5722329 115.609282,28.4226035 L135.008172,69.197785 Z" id="Fill-14"></path>
                        <path d="M236.268284,72.4303735 C256.979928,79.5806174 276.552535,91.249519 291.479659,107.715868 C294.379895,110.945323 300.16282,110.713266 304.391932,107.219525 L338.856567,77.9820053 C343.053774,74.4576458 342.918174,67.6458177 338.48646,62.7291186 C331.430494,55.2291783 323.868822,48.0966609 315.645104,41.934269 C310.371077,37.9409618 303.650123,38.4695351 300.620668,43.0494299 L296.479296,49.2118218 C293.478557,53.8223351 294.641523,60.2377332 299.095571,63.6235034 C300.861557,65.0061739 302.736022,66.2679817 304.40629,67.765069 C304.829042,68.1469955 305.060359,68.6465618 305.103431,69.2041422 C305.146504,69.7617227 304.986975,70.290296 304.631226,70.6996181 L300.411685,75.6904464 C300.046364,76.1158835 299.575753,76.3366596 299.058879,76.3962852 C298.535625,76.4252923 298.055442,76.2802569 297.663001,75.9112225 C294.424563,73.2554637 290.996286,70.8188694 287.674894,68.2662468 C285.980696,67.0044391 283.649978,67.4105381 282.429582,69.2605449 C281.2379,71.0525375 281.53622,73.5471459 283.128318,74.7348245 C286.272634,77.1891453 289.542978,79.4774812 292.621886,82.0043197 C296.291052,85.3755864 302.31327,84.8937466 306.105273,80.9310579 L310.565703,76.1593941 C314.338562,72.1660869 313.844023,65.7104012 309.439428,61.6590798 C307.689396,60.1023668 305.736761,58.7825449 303.889416,57.3289682 C303.418806,56.9631567 303.128463,56.4797055 303.026364,55.9350171 C302.930647,55.3742136 303.034341,54.8327482 303.361375,54.3960306 L307.791494,48.4334653 C308.12491,47.9806326 308.605092,47.745353 309.187373,47.6970079 C309.766463,47.6567203 310.342362,47.8323742 310.849664,48.2143007 C318.746347,54.1430245 325.996938,60.9822481 332.7833,68.1872831 C333.204456,68.6594538 333.421415,69.2331493 333.445345,69.8181253 C333.451726,70.4063243 333.263482,70.9075021 332.855088,71.2845941 L299.80707,102.16746 C299.408248,102.533271 298.920089,102.728263 298.435121,102.755659 C297.932605,102.755659 297.497091,102.612235 297.18601,102.259315 C281.368714,84.8180059 260.641118,72.4303735 238.672386,64.8853111 C238.236872,64.7128802 237.917814,64.3599608 237.727974,63.8910131 C237.53973,63.3914468 237.488681,62.9224991 237.654591,62.3616956 L250.914637,18.9203783 C251.074166,18.3918049 251.466608,17.9792599 251.988267,17.7423688 C252.513117,17.5377077 253.101779,17.5070892 253.696822,17.7278652 C263.046814,20.9718231 272.265992,24.5413048 281.028917,29.1904942 C281.595245,29.4580039 282.002044,29.9108366 282.220599,30.43941 C282.435963,30.9840984 282.435963,31.5126717 282.174335,32.0106265 L278.762011,38.6177935 C278.506765,39.1109138 278.071251,39.4348261 277.525662,39.5991995 C276.981668,39.763573 276.405768,39.7152278 275.877728,39.4638332 L269.549214,36.3826373 C264.252853,33.6092386 258.071106,36.4293709 256.174307,41.4911054 L253.827636,47.6277132 C251.89574,52.8812167 254.242411,58.1057132 258.623076,60.4859048 C262.029019,62.2166602 265.553014,63.7153591 268.879193,65.5911499 C270.579771,66.6515197 272.846678,65.9585729 273.952213,64.0682785 C275.054558,62.1892647 274.48823,59.7494474 272.687149,58.6342865 C269.187083,56.6682515 265.481226,55.0841429 261.898206,53.2647547 C261.421214,53.0294751 261.086203,52.61693 260.902745,52.1189753 C260.728858,51.5871789 260.736835,51.0618285 260.961771,50.5493702 L263.592403,44.5432943 C263.810958,44.043728 264.211375,43.6908086 264.718678,43.5183776 C265.218003,43.3249971 265.763592,43.3411122 266.278871,43.6053988 L272.325018,46.5431709 C277.445897,48.8024997 283.366017,47.6567203 286.235942,42.8721645 L289.962539,36.4454859 C292.703246,31.7737354 290.603845,24.8474906 284.588008,22.1176025 C275.454976,17.2734211 265.851333,13.5476235 256.1089,10.1699108 C249.825055,8.15875361 243.553972,11.3753159 242.261787,16.6578265 L231.088379,60.6905658 C229.780242,66.1197233 232.171581,71.1121631 236.268284,72.4303735" id="Fill-17"></path>
                        <path d="M307.018583,127.821944 C318.8139,146.607975 326.023398,168.202741 327.039792,190.471539 C327.264587,194.835856 331.924268,198.38297 337.417295,198.471447 L382.715102,198.471447 C388.212946,198.500403 392.424642,193.211101 392.103506,186.59143 C391.885134,176.242866 389.850738,165.974735 387.964066,155.835297 C386.327879,149.371667 380.725665,145.448125 375.446193,146.984403 L368.310556,149.008108 C363.045535,150.591038 359.930518,156.243899 361.306585,161.695677 C361.948857,163.862553 362.212188,166.090559 362.563832,168.321782 C362.648933,168.905729 362.504422,169.433372 362.18168,169.885408 C361.860544,170.34227 361.422194,170.633439 360.879475,170.721916 L354.42304,171.806158 C353.875503,171.891418 353.363292,171.749855 352.926547,171.45386 C352.499437,171.161082 352.208809,170.721916 352.134947,170.194272 C351.694991,165.974735 350.37994,161.959498 349.394054,157.855785 C348.859363,155.804733 346.738261,154.635231 344.633216,155.248133 C342.542622,155.867471 341.238811,157.947479 341.736571,159.87949 C342.672682,163.762816 343.94438,167.586621 344.339377,171.569684 C345.102074,176.524383 350.132666,180.040932 355.59358,179.484333 L362.094974,178.721824 C367.547859,178.121791 371.248949,172.861445 370.343346,166.941545 C369.977251,164.594497 369.699469,162.253885 369.026689,159.995314 C368.878967,159.411367 368.968885,158.854768 369.232216,158.354472 C369.509999,157.871872 369.919447,157.53566 370.458955,157.41501 L377.68451,155.719473 C378.240075,155.600432 378.766737,155.719473 379.248441,156.071771 C379.73175,156.422461 380.083394,156.903453 380.229511,157.53566 C382.027871,167.277756 384.00125,177.124416 384.205172,187.059553 C384.237285,187.688542 384.046209,188.272489 383.680115,188.727742 C383.328471,189.181387 382.861218,189.448426 382.305653,189.475773 L337.041566,191.631389 C336.487607,191.644258 335.989846,191.499478 335.594849,191.176136 C335.199852,190.864054 334.959001,190.471539 334.936521,190.003416 C333.838237,166.426771 326.220896,143.500027 313.715869,123.602406 C313.468595,123.190587 313.438087,122.722465 313.592232,122.223777 C313.746377,121.739568 314.059484,121.31488 314.528343,121.022102 L352.566875,96.3499533 C353.027705,96.0571756 353.568819,95.9976549 354.124384,96.1729997 C354.673526,96.3338666 355.148807,96.6974257 355.485999,97.2411556 C360.954942,105.580493 365.253344,114.543994 369.434532,123.58632 C369.728371,124.159006 369.728371,124.773517 369.52445,125.330116 C369.318923,125.886716 368.968885,126.311404 368.442222,126.517314 L361.597213,129.374309 C361.07055,129.581827 360.543888,129.549654 360.046127,129.301919 C359.564424,129.050967 359.169427,128.642365 358.891644,128.114722 L355.836037,121.723482 C353.223598,116.334442 347.272952,114.151479 342.365997,116.919997 L336.638541,120.085857 C331.998129,122.751421 329.840096,128.582844 331.9901,133.096768 C333.701754,136.553797 335.434282,140.800681 336.596793,144.465228 C337.284024,146.355414 339.470958,146.488933 341.524622,145.76825 C343.586313,145.049175 344.707077,143.615851 343.982916,141.621102 C342.738515,137.753863 340.932126,133.330025 339.133766,129.694434 C338.899337,129.229529 338.89452,128.698668 339.075961,128.20159 C339.25098,127.686816 339.601018,127.278214 340.098779,127.030479 L345.972352,124.142919 C346.468507,123.895184 347.001592,123.895184 347.513804,124.070529 C348.032438,124.258743 348.449914,124.627128 348.698795,125.125815 L351.622736,131.23393 C353.706907,136.436364 359.344446,139.28049 364.580564,137.493259 L371.555633,134.982127 C376.717891,133.182027 379.17458,126.647616 376.705046,120.467111 C372.360079,111.059618 367.857755,101.713254 362.18168,93.0087488 C358.848291,87.2658022 351.886067,85.7102198 347.476873,88.9339915 L310.661868,115.383719 C306.206109,118.678272 304.940834,123.98527 307.018583,127.821944" id="Fill-19"></path>
                    </g>
                </g>
                <g id="字字" transform="translate(167.011538, 167.976923)" fill-rule="nonzero" stroke="#E6713B">
                    <rect id="Rectangle-6-Copy-3" stroke-width="7.42376763" x="3.71188382" y="3.71188382" width="158.606892" height="158.606892"></rect>
                    <path d="M3.58339553,83.6125624 L163.641729,83.6125624" id="Path-2" stroke-width="4.94917842"></path>
                    <path d="M83.6125624,3.58339553 L83.6125624,163.641729" id="Path-2" stroke-width="4.94917842"></path>
                </g>
                <text id="蓉" font-family="NotoSansCJKsc-Regular, Noto Sans CJK SC" font-size="53.9910373" font-weight="normal" fill="#E6713B">
                    <tspan x="263.778007" y="311.156492">沙</tspan>
                </text>
                <text id="莲" font-family="NotoSansCJKsc-Regular, Noto Sans CJK SC" font-size="53.9910373" font-weight="normal" fill="#E6713B">
                    <tspan x="184.388462" y="311.156492">豆</tspan>
                </text>
                <text id="黄" font-family="NotoSansCJKsc-Regular, Noto Sans CJK SC" font-size="53.9910373" font-weight="normal" line-spacing="53.9910373" fill="#E6713B">
                    <tspan x="263.778007" y="246.453846">瑰</tspan>
                </text>
                <text id="蛋" font-family="NotoSansCJKsc-Regular, Noto Sans CJK SC" font-size="53.9910373" font-weight="normal" line-spacing="53.9910373" fill="#E6713B">
                    <tspan x="184.388462" y="246.453846">玫</tspan>
                </text>
            </g>
        </g>
    </g>
</svg>