<?xml version="1.0" encoding="UTF-8"?>
<svg width="638px" height="110px" viewBox="0 0 638 110" version="1.1" xmlns="http://www.w3.org/2000/svg" xmlns:xlink="http://www.w3.org/1999/xlink">
    <!-- Generator: Sketch 51.2 (57519) - http://www.bohemiancoding.com/sketch -->
    <title>finally_title</title>
    <desc>Created with Sketch.</desc>
    <defs></defs>
    <g id="Page-1" stroke="none" stroke-width="1" fill="none" fill-rule="evenodd">
        <g id="结果页-预览-copy-5" transform="translate(-57.000000, -153.000000)">
            <g id="Group-12" transform="translate(57.000000, 153.000000)">
                <g id="finally_title">
                    <text id="画月饼成绩单" font-family="SourceHanSerifTC-Bold, 思源宋體" font-size="55" font-weight="bold" line-spacing="50" letter-spacing="5.05999994" fill="#8B572A">
                        <tspan x="138.5" y="92">画月饼成绩单</tspan>
                    </text>
                    <text id="hua" opacity="0.5" font-family="SourceHanSerifTC-Regular, 思源宋體" font-size="14" font-weight="normal" letter-spacing="3" fill="#8B572A">
                        <tspan x="149.106" y="102">hu</tspan>
                        <tspan x="173.166" y="102">a</tspan>
                    </text>
                    <text id="yue" opacity="0.5" font-family="SourceHanSerifTC-Regular, 思源宋體" font-size="14" font-weight="normal" letter-spacing="3" fill="#8B572A">
                        <tspan x="208.327" y="102">yu</tspan>
                        <tspan x="230.987" y="102">e</tspan>
                    </text>
                    <text id="bing" stroke="#979797" opacity="0.5" font-family="SourceHanSerifTC-Regular, 思源宋體" font-size="14" font-weight="normal" letter-spacing="3" fill="#8B572A">
                        <tspan x="266.31" y="102">bing</tspan>
                    </text>
                    <text id="cheng" stroke="#979797" opacity="0.5" font-family="SourceHanSerifTC-Regular, 思源宋體" font-size="14" font-weight="normal" letter-spacing="3" fill="#8B572A">
                        <tspan x="324.413" y="102">chen</tspan>
                        <tspan x="369.747" y="102">g</tspan>
                    </text>
                    <text id="ji" stroke="#979797" opacity="0.5" font-family="SourceHanSerifTC-Regular, 思源宋體" font-size="14" font-weight="normal" letter-spacing="3" fill="#8B572A">
                        <tspan x="407.118" y="102">j</tspan>
                        <tspan x="414.332" y="102">i</tspan>
                    </text>
                    <text id="dan" stroke="#979797" opacity="0.5" font-family="SourceHanSerifTC-Regular, 思源宋體" font-size="14" font-weight="normal" letter-spacing="3" fill="#8B572A">
                        <tspan x="451.267" y="102">da</tspan>
                        <tspan x="473.521" y="102">n</tspan>
                    </text>
                    <g id="Group-3" fill-rule="nonzero">
                        <path d="M35,0 C70.3333333,14 109.666667,21 153,21 C196.333333,21 250.333333,14 315,0 L35,0 Z" id="Path-12" fill="#8B572A"></path>
                        <path d="M321,0 C356.333333,14 395.666667,21 439,21 C482.333333,21 536.333333,14 601,0 L321,0 Z" id="Path-12-Copy" fill="#8B572A" transform="translate(461.000000, 10.500000) scale(-1, 1) translate(-461.000000, -10.500000) "></path>
                        <path d="M19.0164023,1.13686838e-13 L33.9835977,1.13686838e-13 C33.9944753,0.165261807 34,0.331985725 34,0.5 C34,4.64213562 30.6421356,8 26.5,8 C22.3578644,8 19,4.64213562 19,0.5 C19,0.331985725 19.0055247,0.165261807 19.0164023,-3.80251386e-15 Z" id="Combined-Shape" fill="#8B572A"></path>
                        <path d="M603.016402,1.13686838e-13 L617.983598,1.13686838e-13 C617.994475,0.165261807 618,0.331985725 618,0.5 C618,4.64213562 614.642136,8 610.5,8 C606.357864,8 603,4.64213562 603,0.5 C603,0.331985725 603.005525,0.165261807 603.016402,-3.80251386e-15 Z" id="Combined-Shape-Copy" fill="#8B572A"></path>
                        <polygon id="Path-13" fill="#8B572A" points="19 0 8.26086957 4 0 0"></polygon>
                        <polygon id="Path-13-Copy" fill="#8B572A" transform="translate(628.000000, 2.000000) scale(-1, 1) translate(-628.000000, -2.000000) " points="638 0 626.695652 4 618 0"></polygon>
                        <g id="Group-11" transform="translate(37.000000, 1.000000)">
                            <g id="Group-10">
                                <path d="M2,0.5 L2,64" id="Path-14" stroke="#8B572A" stroke-dasharray="2"></path>
                                <circle id="Oval" fill="#8B572A" cx="2" cy="65" r="2"></circle>
                            </g>
                            <g id="Group-10-Copy" transform="translate(10.000000, 2.000000)">
                                <path d="M2,0.5 L2,69" id="Path-14" stroke="#8B572A" stroke-dasharray="2"></path>
                                <circle id="Oval" fill="#8B572A" cx="2" cy="70" r="2"></circle>
                            </g>
                            <g id="Group-10-Copy-2" transform="translate(20.000000, 6.000000)">
                                <path d="M2,0.5 L2,72" id="Path-14" stroke="#8B572A" stroke-dasharray="2"></path>
                                <circle id="Oval" fill="#8B572A" cx="2" cy="73" r="2"></circle>
                            </g>
                            <g id="Group-10-Copy-3" transform="translate(30.000000, 8.000000)">
                                <path d="M2,0.5 L2,77" id="Path-14" stroke="#8B572A" stroke-dasharray="2"></path>
                                <circle id="Oval" fill="#8B572A" cx="2" cy="78" r="2"></circle>
                            </g>
                            <g id="Group-10-Copy-4" transform="translate(40.000000, 10.000000)">
                                <path d="M2,0.5 L2,82" id="Path-14" stroke="#8B572A" stroke-dasharray="2"></path>
                                <circle id="Oval" fill="#8B572A" cx="2" cy="83" r="2"></circle>
                            </g>
                            <g id="Group-10-Copy-5" transform="translate(50.000000, 13.000000)">
                                <path d="M2,0.5 L2,86" id="Path-14" stroke="#8B572A" stroke-dasharray="2"></path>
                                <circle id="Oval" fill="#8B572A" cx="2" cy="87" r="2"></circle>
                            </g>
                        </g>
                        <g id="Group-11-Copy" transform="translate(571.000000, 52.000000) scale(-1, 1) translate(-571.000000, -52.000000) translate(544.000000, 1.000000)">
                            <g id="Group-10">
                                <path d="M2,0.5 L2,64" id="Path-14" stroke="#8B572A" stroke-dasharray="2"></path>
                                <circle id="Oval" fill="#8B572A" cx="2" cy="65" r="2"></circle>
                            </g>
                            <g id="Group-10-Copy" transform="translate(10.000000, 2.000000)">
                                <path d="M2,0.5 L2,69" id="Path-14" stroke="#8B572A" stroke-dasharray="2"></path>
                                <circle id="Oval" fill="#8B572A" cx="2" cy="70" r="2"></circle>
                            </g>
                            <g id="Group-10-Copy-2" transform="translate(20.000000, 6.000000)">
                                <path d="M2,0.5 L2,72" id="Path-14" stroke="#8B572A" stroke-dasharray="2"></path>
                                <circle id="Oval" fill="#8B572A" cx="2" cy="73" r="2"></circle>
                            </g>
                            <g id="Group-10-Copy-3" transform="translate(30.000000, 8.000000)">
                                <path d="M2,0.5 L2,77" id="Path-14" stroke="#8B572A" stroke-dasharray="2"></path>
                                <circle id="Oval" fill="#8B572A" cx="2" cy="78" r="2"></circle>
                            </g>
                            <g id="Group-10-Copy-4" transform="translate(40.000000, 10.000000)">
                                <path d="M2,0.5 L2,82" id="Path-14" stroke="#8B572A" stroke-dasharray="2"></path>
                                <circle id="Oval" fill="#8B572A" cx="2" cy="83" r="2"></circle>
                            </g>
                            <g id="Group-10-Copy-5" transform="translate(50.000000, 13.000000)">
                                <path d="M2,0.5 L2,86" id="Path-14" stroke="#8B572A" stroke-dasharray="2"></path>
                                <circle id="Oval" fill="#8B572A" cx="2" cy="87" r="2"></circle>
                            </g>
                        </g>
                    </g>
                </g>
            </g>
        </g>
    </g>
</svg>