<?xml version="1.0" encoding="UTF-8"?>
<svg width="40px" height="70px" viewBox="0 0 40 70" version="1.1" xmlns="http://www.w3.org/2000/svg" xmlns:xlink="http://www.w3.org/1999/xlink">
    <!-- Generator: Sketch 51.2 (57519) - http://www.bohemiancoding.com/sketch -->
    <title>number_2</title>
    <desc>Created with Sketch.</desc>
    <defs>
        <polygon id="path-1" points="0 0.104 37.1378 0.104 37.1378 56 0 56"></polygon>
    </defs>
    <g id="Page-1" stroke="none" stroke-width="1" fill="none" fill-rule="evenodd">
        <g id="切图" transform="translate(-750.000000, -310.000000)">
            <g id="2" transform="translate(750.000000, 310.000000)">
                <path d="M23.7063,54.2288 C23.7083,54.2028 23.7073,54.1708 23.7003,54.1288 C23.6933,54.1718 23.6973,54.2038 23.7063,54.2288" id="Fill-1" fill="#DD6343"></path>
                <path d="M15.4343,55.722 L15.5173,55.653 C15.4573,55.674 15.4373,55.698 15.4343,55.722" id="Fill-3" fill="#DD6343"></path>
                <path d="M28.6228,53.177 C28.6188,53.187 28.6198,53.193 28.6178,53.202 C28.6928,53.186 28.7958,53.162 28.9628,53.125 L28.6228,53.177 Z" id="Fill-5" fill="#DD6343"></path>
                <path d="M11.6189,55.097 L11.6089,55.115 C11.6169,55.106 11.6339,55.101 11.6189,55.097" id="Fill-7" fill="#DD6343"></path>
                <path d="M11.1565,56.5891 C11.0985,56.6481 11.0605,56.6731 11.0255,56.6961 C11.0425,56.6981 11.0735,56.6811 11.1565,56.5891" id="Fill-9" fill="#DD6343"></path>
                <path d="M31.7512,54.5061 L31.5742,54.4061 C31.5932,54.4651 31.6592,54.5141 31.7512,54.5061" id="Fill-11" fill="#DD6343"></path>
                <path d="M36.5066,52.5452 C36.4996,52.5362 36.4956,52.5272 36.4846,52.5182 C36.4806,52.5322 36.4916,52.5402 36.5066,52.5452" id="Fill-13" fill="#DD6343"></path>
                <path d="M34.4309,52.5481 C34.3929,52.5721 34.3519,52.6101 34.3099,52.6481 C34.3679,52.6271 34.4419,52.6061 34.4309,52.5481" id="Fill-15" fill="#DD6343"></path>
                <path d="M34.2547,52.7005 L34.3107,52.6475 C34.2747,52.6625 34.2467,52.6775 34.2547,52.7005" id="Fill-17" fill="#DD6343"></path>
                <path d="M9.6282,12.9495 C9.4922,13.0445 9.4522,13.2195 9.3982,13.3825 C9.4712,13.2355 9.5462,13.0915 9.6282,12.9495" id="Fill-19" fill="#DD6343"></path>
                <path d="M21.1013,44.4788 L21.1263,44.5418 C21.1303,44.5048 21.1183,44.4878 21.1013,44.4788" id="Fill-21" fill="#DD6343"></path>
                <path d="M10.2454,14.0433 L10.1434,14.0893 C10.1894,14.0823 10.2204,14.0653 10.2454,14.0433" id="Fill-23" fill="#DD6343"></path>
                <path d="M29.2424,55.5989 C29.1364,55.7729 28.8004,55.6919 28.8384,55.8219 C28.9834,55.7589 29.2254,55.8019 29.2424,55.5989" id="Fill-25" fill="#DD6343"></path>
                <path d="M18.8919,38.5813 L18.9409,38.4973 C18.9129,38.5343 18.8989,38.5603 18.8919,38.5813" id="Fill-27" fill="#DD6343"></path>
                <path d="M10.2454,14.0433 L10.3654,13.9923 C10.3404,13.9793 10.3164,13.9713 10.2914,13.9613 C10.2824,13.9933 10.2674,14.0223 10.2454,14.0433" id="Fill-29" fill="#DD6343"></path>
                <path d="M30.0032,29.1497 L30.0012,29.1557 C30.0052,29.1707 30.0082,29.1817 30.0132,29.1997 L30.0032,29.1497 Z" id="Fill-31" fill="#DD6343"></path>
                <path d="M30.5173,28.2513 C30.5123,28.3233 30.5063,28.3943 30.5003,28.4723 C30.5463,28.3653 30.5403,28.3013 30.5173,28.2513" id="Fill-33" fill="#DD6343"></path>
                <path d="M9.3982,13.3821 L9.2732,13.6301 C9.3332,13.5601 9.3682,13.4721 9.3982,13.3821" id="Fill-35" fill="#DD6343"></path>
                <path d="M30.553,17.2044 C30.566,17.2384 30.579,17.2704 30.596,17.3024 C30.586,17.2574 30.572,17.2254 30.553,17.2044" id="Fill-37" fill="#DD6343"></path>
                <path d="M11.3113,56.6321 C11.3073,56.6471 11.3113,56.6531 11.3113,56.6631 C11.3443,56.6211 11.3643,56.5921 11.3113,56.6321" id="Fill-39" fill="#DD6343"></path>
                <polygon id="Fill-41" fill="#DD6343" points="2.8255 60.511 2.8265 60.508 2.8225 60.511"></polygon>
                <path d="M2.8777,60.76 C3.0047,60.598 2.9397,60.517 2.8257,60.511 C2.7497,60.644 2.7277,60.74 2.8777,60.76" id="Fill-43" fill="#DD6343"></path>
                <path d="M3.4558,59.5491 C3.4368,59.5701 3.4218,59.5871 3.3998,59.6121 C3.4258,59.5861 3.4438,59.5671 3.4558,59.5491" id="Fill-45" fill="#DD6343"></path>
                <polygon id="Fill-47" fill="#DD6343" points="7.0994 61.8929 7.1154 61.8719 7.0954 61.8929"></polygon>
                <path d="M4.7097,62.6448 C4.7097,62.6158 4.6857,62.6008 4.6467,62.5978 C4.6417,62.6278 4.6587,62.6478 4.7097,62.6448" id="Fill-49" fill="#DD6343"></path>
                <polygon id="Fill-51" fill="#DD6343" points="5.5183 55.4534 5.5253 55.4554 5.5283 55.4454"></polygon>
                <g id="Group-55" transform="translate(1.000000, 7.896400)">
                    <mask id="mask-2" fill="white">
                        <use xlink:href="#path-1"></use>
                    </mask>
                    <g id="Clip-54"></g>
                    <path d="M13.6848,35.3197 C12.8868,36.3507 11.9488,37.8057 10.9828,38.7337 C10.9998,39.1417 10.7228,39.4587 10.4808,39.8177 L10.1678,39.5917 L10.0178,39.9377 C9.8348,39.9667 10.1498,39.6877 9.8698,39.7797 L9.9548,40.0397 C9.8348,39.9667 9.2698,40.6547 9.4698,40.0267 L8.5318,41.0617 C8.3148,41.2847 8.6478,41.4097 8.3488,41.6007 C8.2188,41.5787 8.3738,41.4587 8.2528,41.3877 C7.3518,41.9767 8.0158,42.7737 7.2538,43.3907 L7.2678,43.2947 C7.2518,43.3927 7.1968,43.4927 7.1368,43.5897 C7.0368,43.7337 6.9558,43.8447 6.9748,43.8647 C7.1988,43.8987 7.2018,43.8147 7.2188,43.6817 C7.2238,43.5657 7.1968,43.4547 7.3828,43.4107 C7.6158,43.6387 7.2808,43.8027 7.4518,43.9837 C7.1228,44.1907 7.1338,44.4657 6.9538,44.7087 C6.4268,45.0227 6.1008,45.6737 5.5968,45.9287 C5.5448,46.1707 5.7308,46.4527 5.4338,46.8657 C4.8958,47.1587 5.2018,46.7727 4.7588,47.2027 L4.9418,47.2707 C4.6468,47.6167 4.6378,47.5647 4.5248,47.5587 C4.2658,47.9377 4.6598,47.8367 4.1968,48.3117 L4.1228,48.0857 C3.9888,48.4237 3.8538,48.5657 3.5108,49.0577 C3.3648,49.0837 3.5058,48.8817 3.6438,48.7287 C3.0778,49.0807 3.5128,49.1517 3.3788,49.2967 C3.5248,49.2227 3.7938,48.8847 3.9508,48.9827 C3.7408,49.2307 4.0048,49.3577 3.5948,49.6057 L3.4738,49.4407 C3.4118,49.8477 3.6728,49.5817 3.2538,50.1447 C3.2488,50.1247 3.1708,50.1637 3.1188,50.1727 C3.2848,50.3767 2.6968,50.9237 2.3758,51.4537 L2.3518,51.3927 C2.3338,51.5547 2.5378,51.5357 2.4558,51.6527 C2.7888,51.2877 2.8308,51.3257 3.1318,51.1637 C2.4268,51.7697 3.3988,51.4067 2.7788,52.1117 C2.6048,52.2057 2.4698,52.1847 2.7488,51.9237 C2.3418,52.0077 1.9168,52.2137 1.8988,51.9417 C1.8798,52.1277 1.7928,52.3687 1.6078,52.4247 L2.0488,52.2427 C1.9808,52.3767 1.8878,52.5047 1.8268,52.6117 C2.1058,52.4917 2.4928,52.0547 2.5168,52.2507 C2.4788,52.5007 1.9008,52.7297 2.0938,52.6537 C2.0108,53.0407 2.5208,52.5347 2.0888,53.1177 C2.0718,53.0967 2.0348,53.0577 2.1058,52.9867 C1.7048,53.4697 1.7388,53.7687 1.0298,54.3187 C0.9138,54.3637 0.7248,54.4847 0.8588,54.3037 L0.9538,54.2447 C0.7138,54.1427 0.8928,54.5027 0.3778,54.7717 C0.7598,54.4897 0.3068,55.1527 0.3248,55.2367 L0.7558,54.8877 C2.1518,54.2387 -0.1102,55.4967 0.0038,55.8067 C0.3098,55.8247 0.1508,55.6027 0.4898,55.4987 C0.4828,55.5167 0.4728,55.5367 0.4608,55.5537 C0.6828,55.5437 0.5108,55.7617 1.2928,55.4287 C1.2858,55.5227 1.4228,55.6037 0.9748,56.0007 C1.5808,55.7087 2.0788,55.7717 2.7278,55.3217 C2.3958,55.2077 1.5378,55.9597 1.3148,55.6937 L2.0078,55.2277 C2.5318,55.0797 3.4198,54.6787 3.6458,54.7017 C3.6448,54.6527 3.7138,54.5677 3.8418,54.4737 C4.7358,54.1077 5.2568,53.6997 5.8368,53.6007 C5.6588,53.8817 5.2908,53.9547 4.9608,54.0757 C5.1868,54.1907 5.4328,53.9427 6.0538,53.8337 C5.8748,54.0867 5.5868,53.9597 5.2688,54.2527 L6.1568,53.9237 C6.1448,53.9387 6.1308,53.9567 6.1158,53.9757 C6.5648,53.5087 6.7008,53.8317 7.2928,53.5557 C8.4768,53.2007 8.8898,52.6627 9.5488,52.2137 C9.6568,52.2737 9.6728,52.3537 9.5748,52.4647 C9.3828,52.3687 9.3818,52.4837 9.2518,52.6067 C9.6058,52.4767 9.9248,52.7507 9.6748,52.9517 C10.3118,52.6827 9.5158,52.8197 9.9138,52.6087 L10.7088,52.4157 C10.6358,52.2647 10.3838,52.2967 10.7938,52.0567 C11.1238,51.9237 11.2738,51.9187 11.7008,51.8187 C11.6418,51.9177 11.8568,52.0347 11.5198,52.1127 C11.7368,52.1197 12.0878,52.0377 12.1898,51.8467 C11.7108,51.8157 12.9168,51.5127 12.5158,51.3537 L12.8738,51.4157 C12.7998,51.4307 12.8188,51.5387 12.7028,51.5357 C12.8558,51.7537 12.9478,51.3997 13.0548,51.3477 C13.1798,51.3657 13.4798,51.3107 13.5278,51.3977 C13.6128,51.3057 13.8748,51.2947 13.9528,51.4057 C14.0928,51.3197 13.9248,51.2457 13.9488,51.1557 L14.4688,51.0457 C14.5308,51.1727 14.6688,51.5307 14.6038,51.6007 C14.7668,51.4267 14.5728,51.1897 14.8698,51.1277 C14.7668,51.4267 15.3108,51.2267 15.1438,51.5967 C15.3618,51.7437 15.8418,51.6137 16.0898,51.4777 C16.2018,51.2307 15.7728,51.4347 15.7358,51.2197 C16.4618,50.9547 16.3588,50.3637 16.9328,50.3247 L16.7748,50.3017 C17.0858,50.0957 17.0548,50.1327 17.2078,49.9037 C17.1798,50.1867 17.7758,50.5047 18.3218,50.3047 C18.3358,50.1617 17.9438,50.1357 17.9818,49.9057 L18.3448,49.7707 C18.3768,49.7857 18.3478,49.8397 18.3078,49.8837 C18.6178,49.7067 19.0168,50.0637 19.0348,49.7337 L19.4728,50.0277 L19.2958,49.8987 C19.3088,49.7577 19.6738,49.6227 19.7378,49.5517 C20.0828,49.3107 20.2508,49.3857 20.5028,49.4987 C20.4088,49.4077 20.1798,49.2067 20.4698,49.0887 C20.5768,49.5117 21.1408,49.0827 21.1888,49.3017 C21.3098,49.2647 21.5598,49.3407 21.5278,49.1617 L21.5758,49.4287 C21.5078,49.0547 21.9548,48.9567 22.2768,48.8017 C22.3308,49.3197 22.6388,48.6667 22.9088,49.0797 C22.8828,48.7247 23.4758,48.7887 23.4578,48.4847 C23.7148,48.3987 23.7718,48.7197 23.8678,48.8097 L23.9558,48.6517 C24.1288,48.7747 24.6248,48.6687 24.9458,48.6997 L25.1368,48.3297 L25.2728,48.4377 C25.2958,48.3507 25.5098,48.2467 25.3398,48.1737 L25.4908,48.1517 C25.4148,47.8217 25.6728,48.0077 25.9288,47.7897 C26.0098,47.8227 26.0128,47.9057 25.9608,47.9657 C26.1078,47.9297 26.0908,48.1137 26.1998,48.2007 C26.0738,48.1457 26.5668,47.4747 26.1338,47.4347 C26.0708,47.3097 26.2738,47.1507 26.4338,47.1707 L26.5998,47.4387 L26.6878,47.0837 C26.9008,46.9797 27.0478,47.1407 27.2388,47.1247 C27.0578,47.1927 26.9778,47.7987 27.4568,47.6607 C27.2148,47.7667 27.1348,47.9647 27.0198,48.0597 C27.1228,48.0457 27.1808,48.0597 27.0598,48.2257 C27.4108,48.0327 27.1358,48.0117 27.4978,47.8747 C27.5488,48.1407 27.6758,48.1967 28.0248,48.1977 L27.7298,48.0717 C27.7318,48.0367 27.7428,48.0087 27.7568,47.9887 C27.6568,47.9857 27.6198,47.9517 27.5728,47.8567 C27.6468,47.8397 27.9148,47.4157 28.0198,47.5577 C27.5348,47.2527 28.5868,47.0647 28.2798,46.8847 C28.3018,46.7977 28.5568,46.7097 28.6198,46.8337 C28.3638,47.1167 28.9348,47.0657 28.9348,47.2617 C29.0298,47.1547 28.6378,47.1357 28.7668,46.9937 C28.9468,46.9247 29.1268,47.0487 29.2528,47.1017 L29.1888,47.1727 L29.5078,47.2107 C29.5178,47.0677 29.1688,47.0657 29.4138,46.9247 C29.4978,46.9607 29.7428,46.8197 29.7638,46.9257 C29.6878,47.1397 29.8458,47.3527 29.6338,47.4607 C29.8148,47.3897 30.3988,47.1947 30.0918,47.0167 L30.3158,46.9647 C30.1458,46.8927 29.7008,46.8017 30.1358,46.6427 L30.1468,46.6967 L30.4008,46.4137 L30.5738,46.5097 C30.5518,46.4457 30.5828,46.3717 30.6998,46.3437 C30.7508,46.4137 30.8688,46.4147 30.8888,46.5217 C31.2188,46.4167 31.1538,46.2917 31.1758,46.2027 C31.3568,46.1317 31.4418,46.1667 31.3978,46.3447 C31.6628,46.3067 32.0978,46.1477 32.3108,46.2357 C32.6188,46.0217 32.2258,46.2017 32.3738,45.9677 C32.7988,46.3407 33.5508,45.8247 34.0908,45.6097 C33.8258,45.2557 34.2298,45.5207 34.2268,45.1287 C34.1428,45.2887 34.8428,45.2837 34.3888,45.5367 L34.6738,45.4097 C34.9388,45.5687 34.2298,45.7157 34.6228,45.9257 C34.9528,45.8167 35.0448,45.3177 35.4778,45.3507 C35.4288,45.6707 35.7528,45.1707 35.7458,45.5077 C35.6938,45.6327 35.5758,45.6337 35.4708,45.6877 L35.5558,45.7227 C36.3098,45.5927 35.6698,45.3307 35.9968,45.0267 C36.4298,44.8617 36.4118,45.1467 36.4758,45.2707 C36.5608,45.3057 36.7718,45.1977 36.8678,45.0907 C36.6458,45.3407 36.3138,45.0587 36.3868,44.8447 C36.6768,45.1087 37.0538,44.6797 37.1378,44.5187 C36.4048,44.3637 36.6938,44.6307 35.9918,44.4387 C35.9388,44.5637 36.0368,44.8467 35.6448,44.8327 C35.8278,44.6257 35.5828,44.6767 35.5068,44.6487 C35.6228,44.7947 35.2788,44.7897 35.1898,44.8897 C35.0518,44.7837 35.2928,44.4447 34.9118,44.4827 L34.9558,44.8917 C34.7978,44.8747 34.9338,44.5897 34.6598,44.7697 C34.7628,44.5187 34.5188,44.4677 34.9088,44.2887 C34.3268,44.0957 34.2138,44.6837 33.8768,44.9347 C33.9088,44.8997 33.8978,44.8457 33.9288,44.8097 C33.8768,44.9347 33.7278,44.9697 33.6228,45.0247 C33.3478,45.0077 33.7698,44.7937 33.6748,44.7047 L33.2728,44.8297 C33.2608,44.8187 33.2568,44.8127 33.2548,44.8037 C33.1638,44.8877 33.0718,44.9517 33.0068,44.8657 C33.0918,44.7067 33.1018,44.5627 33.1538,44.4377 L32.8068,44.8297 C32.8158,44.6877 32.3928,44.7067 32.6678,44.5277 L32.0548,44.7597 L31.9268,44.5117 C31.7898,44.6007 31.8008,44.6537 31.9898,44.6347 C31.7578,44.6357 31.1668,45.3657 31.1338,44.8147 C30.7018,45.1717 30.4988,45.1327 29.9378,45.4327 C30.3308,45.0627 29.3248,45.2707 29.7808,45.0237 C29.4638,44.9877 29.4838,45.2897 29.2708,45.3947 C29.0288,45.3407 29.0518,45.0567 29.2518,44.8967 L29.0178,45.0907 L29.0088,45.0377 L28.8168,45.2517 C28.5318,45.1777 28.6918,45.0017 28.4278,45.0357 L28.4368,45.2847 L28.2268,45.1957 C28.3208,45.2847 28.1838,45.3737 28.0038,45.4427 L27.9928,45.3897 L27.7808,45.4957 C27.9638,45.2937 27.5608,45.5017 27.6178,45.3057 C27.4218,45.3467 27.4188,45.3507 27.0828,45.4877 L27.1878,45.6317 C26.7728,45.8927 27.1038,45.3987 26.7338,45.4847 L26.8068,45.6627 C26.1948,45.4967 25.9578,46.0807 25.5138,45.9877 C25.7268,45.8837 25.6118,45.6857 25.6218,45.7397 C25.3038,45.8987 24.7418,45.9957 24.4528,46.3107 C24.2538,46.0777 24.2028,46.0057 23.8128,45.9807 C23.5568,46.0667 23.5258,46.1017 23.4808,46.2797 C23.2028,46.2437 22.7698,46.5227 22.7058,46.3327 C22.6888,46.5017 22.4718,46.3607 22.3668,46.5277 L22.3168,46.4567 L22.3868,46.6337 C21.8308,46.3397 21.6928,47.0657 21.1468,46.8247 L21.2118,46.7557 L21.0398,46.8777 C20.9888,46.8037 21.0538,46.7347 21.0348,46.6267 L20.1428,46.8237 L20.3528,46.9177 C20.1718,46.9837 20.0928,47.1947 19.8508,47.1357 C20.1328,46.7687 19.5548,47.2017 19.4418,47.0037 L19.6128,46.8827 C19.3578,46.9657 19.3578,46.9657 19.4278,47.1457 C19.1078,47.2977 19.1058,46.8527 18.8478,47.1327 L19.0698,47.0847 C19.1638,47.1737 19.0438,47.3677 18.8948,47.4007 C18.8528,47.3817 18.7268,47.3257 18.8338,47.2737 C18.5868,47.4127 18.1648,47.4207 18.0678,47.5237 C17.9088,47.5027 17.9228,47.3597 17.9878,47.2907 C17.4628,47.5977 17.7228,47.3207 17.1958,47.6277 L17.1788,47.5197 L17.0158,47.6947 L16.6808,47.5437 L16.8148,47.6537 C16.6338,47.7197 16.5368,47.8237 16.3038,47.8187 L16.3518,47.6417 C15.8488,47.8617 15.6768,47.5357 15.2338,47.8817 C15.1918,47.8617 15.2568,47.7927 15.2908,47.7577 C14.8898,48.1207 14.8698,47.5697 14.4798,47.9857 C14.4948,47.9257 14.4278,47.8747 14.4348,47.8257 L14.2478,47.9807 L14.2108,47.7667 L14.1168,48.1207 L13.9308,47.9367 L13.8738,48.0587 C13.5448,47.7147 13.3008,48.0987 12.9138,47.8767 L13.0358,48.1287 C12.7208,48.5017 12.2308,48.5447 11.7658,48.5437 C11.5198,48.4847 11.3718,48.3617 11.1698,48.5487 L11.2218,48.3117 C11.1618,48.4157 11.0918,48.5217 11.0108,48.6307 C10.9918,48.4587 11.1188,48.4107 11.1278,48.2937 C10.9518,48.4627 10.9588,48.6687 10.7258,48.7937 C10.7018,48.6477 10.8478,48.5967 10.9208,48.4977 C10.7218,48.6587 10.3308,48.8857 10.3118,48.7667 C10.2828,48.8047 10.2388,48.8557 10.2338,48.8707 C10.0128,49.0297 9.9388,48.9487 9.7908,49.0047 C9.9188,48.8667 9.9708,48.8367 10.0258,48.7997 C9.9948,48.7957 10.0268,48.7157 9.8558,48.8667 L10.1428,48.5967 C10.1208,48.5647 9.7028,48.8547 10.0188,48.5427 C9.8998,48.6607 9.6498,48.8957 9.5818,48.9057 C10.0898,48.4257 9.1288,49.1767 9.3078,48.9467 C9.4728,48.8197 9.5858,48.7697 9.5708,48.7697 C9.6768,48.6517 9.3398,48.9057 9.0748,49.0857 L9.3548,48.8707 L8.9188,49.1207 L8.6718,49.2577 C9.3648,48.7327 8.2758,49.4247 8.9318,48.9587 C9.0118,48.8437 8.5368,49.2857 8.5158,49.2217 C8.8608,48.9647 8.4238,49.2087 8.9238,48.8777 L8.9758,48.8507 L8.9818,48.7957 L9.4428,48.5237 C9.3648,48.5417 8.9138,48.7947 8.5548,49.0147 C8.8608,48.7747 8.7068,48.7957 9.1438,48.5247 L9.2408,48.4837 C9.2058,48.4477 9.5598,48.2027 9.8158,48.0387 C10.0768,47.8677 10.2398,47.7737 9.9258,47.8807 C9.9878,47.8467 10.0888,47.8027 10.0748,47.8187 L10.1498,47.7377 L10.4358,47.6287 C10.3038,47.6637 10.1808,47.6837 10.0668,47.6917 L10.2548,47.6267 C10.3798,47.5277 10.3628,47.4517 10.3928,47.3567 L10.4578,47.3597 C10.3018,47.2807 10.6708,47.2537 10.5658,47.1917 C10.6008,47.1947 10.6128,47.1977 10.6188,47.2007 L10.6628,47.1387 L10.7808,47.1617 C10.5478,47.0767 11.2058,47.1217 10.9658,47.1027 C10.8658,47.0627 10.7698,46.9797 10.6478,46.9197 C10.7038,46.8357 10.8008,46.9537 10.9198,46.9547 C10.9608,46.9237 10.8108,46.8127 10.9408,46.8087 L11.0228,46.8807 C11.1178,46.7407 11.1388,46.5907 11.2948,46.3857 L11.2828,46.4787 C11.3928,46.0077 11.8748,46.2887 11.7398,45.7237 C11.9238,45.6477 12.0978,45.3467 12.2488,45.5047 C12.4968,45.0107 12.7338,44.6577 13.0248,44.2027 C13.3468,44.3787 13.0828,44.1017 13.4528,43.9987 L13.2958,43.8877 C13.7918,43.3087 14.7268,42.9857 15.2458,42.3077 L15.4018,42.4207 L15.3618,42.1537 C16.0438,41.5407 16.9048,40.7157 17.3998,40.1587 C17.4868,39.9107 17.5598,39.4837 17.8678,39.2427 L17.8608,39.2897 C18.2208,38.7027 18.6308,38.1227 19.1898,37.6167 C19.2218,37.7047 19.3128,37.6827 19.2988,37.7807 C19.2498,37.5087 19.5698,37.4357 19.6768,37.3157 L19.4468,37.3697 C19.4418,37.0907 19.7698,36.9667 19.9478,36.9707 L20.0008,36.5817 C20.0298,36.5757 20.0748,36.5667 20.1018,36.5827 L20.0588,36.4717 L20.3678,36.4857 C20.3788,36.3867 20.6048,35.9917 20.4998,35.7347 C20.5858,35.7597 20.8328,35.5487 20.7188,35.7707 C20.9958,35.4647 21.2608,35.1377 21.5248,34.8097 L21.3378,34.9177 C21.1698,34.8237 21.2908,34.4487 21.4758,34.3417 C21.4518,34.6377 21.6838,34.5167 21.8638,34.5077 C21.8788,34.3097 21.6388,34.5317 21.6058,34.3977 C21.6288,34.1477 21.8338,33.7467 21.9588,33.7117 L21.9538,33.8547 C22.0508,33.5897 22.3958,33.6727 22.5368,33.4407 C22.5468,33.1537 22.7668,33.0847 22.4668,32.9407 C22.6108,32.6117 22.7268,32.9547 22.8188,32.8787 C22.7828,32.6537 23.1438,32.3007 23.3178,32.3407 C23.0288,31.9127 23.9988,31.6407 23.7038,31.3527 L24.0568,31.2347 C23.9718,31.1677 23.8008,30.9837 23.8948,30.7587 C24.1168,30.6337 24.2458,30.7827 24.3768,30.7857 L24.1228,30.4387 C25.1998,29.5787 25.8718,27.9187 26.8668,26.7597 C27.1018,26.1287 27.2958,25.2947 27.6638,24.6127 L27.6748,24.7127 L28.0828,24.0487 L27.6928,24.4897 C27.7168,24.3157 27.6968,24.1657 27.7658,24.0187 C28.2548,23.2987 28.8488,22.3757 29.0008,21.2587 C28.7828,20.4557 29.5338,20.9327 29.4058,20.1857 C29.4308,20.2537 29.4878,20.2927 29.5178,20.3547 C29.5688,19.6087 29.5858,19.2017 29.4648,18.4367 C29.8998,18.6097 29.5458,17.9707 29.7708,18.0817 L29.5988,17.9877 C29.7468,17.8517 29.8388,17.4777 29.9638,17.5527 L29.7818,17.1987 L29.9758,17.1987 C30.0668,16.7757 29.9858,15.8407 30.3928,15.6397 C30.1918,14.5417 30.2638,12.8427 30.1198,11.4447 C29.9368,11.2727 29.8478,10.8777 29.7758,10.5687 C29.8298,10.4427 29.8858,10.3157 29.9298,10.1867 C29.7828,9.8807 29.4208,9.6197 29.4868,9.2897 C29.5138,9.2837 29.5348,9.2907 29.5528,9.3077 C29.4118,9.0037 29.4248,8.6617 29.1298,8.4347 C29.0268,8.0877 28.9908,7.7147 29.2348,7.7387 C28.8678,7.8487 28.9948,6.9857 28.9778,6.9847 C28.9778,6.9847 28.8548,6.7067 28.6358,6.2127 C28.3878,5.7227 28.0518,5.0357 27.4698,4.2177 C26.8858,3.4107 26.0498,2.4227 24.7538,1.6037 C23.4728,0.7857 21.9528,0.3307 20.5128,0.1767 C19.0588,0.0197 17.6828,0.1307 16.3818,0.3667 C15.0778,0.6197 13.8418,1.0207 12.7698,1.5387 C10.6138,2.5657 9.1418,3.9917 8.6278,5.0527 C8.6248,5.2847 8.4058,5.6317 8.6618,5.7067 C8.4808,5.9507 8.1588,5.7887 8.2378,5.9677 C8.6268,5.8027 8.4628,6.4107 8.9088,6.3407 L8.7528,6.5317 C8.8008,6.6647 8.9068,6.2047 9.0178,6.4267 L8.8458,6.1147 C9.0328,6.0267 9.1618,6.0117 9.2908,6.0647 C9.3518,5.8487 9.1568,5.3867 9.6488,5.2887 L9.5598,5.3777 C9.8528,5.1537 9.8738,5.4307 9.9698,5.4347 L9.9028,5.4777 L10.2508,5.4477 C9.9958,5.4837 9.8538,5.9317 10.0028,5.8017 C10.4048,5.6367 9.8638,5.7967 10.0998,5.5777 C10.2508,5.4477 10.3108,5.6337 10.3658,5.7277 L10.6488,5.5227 C10.7288,5.6657 10.4508,5.6407 10.6618,5.7047 L10.9368,5.3207 C11.2198,5.6287 11.2498,4.9047 11.6168,5.1377 C11.3948,5.3817 11.7098,5.2437 11.7318,5.3847 C11.9508,5.2597 12.1648,5.1287 12.3888,5.0107 C12.4778,5.0307 12.2678,5.2107 12.3608,5.1417 C12.5388,5.1817 12.5248,4.9507 12.5958,4.9197 C12.7008,4.9877 13.1058,4.6767 13.1978,4.9377 C13.7288,4.9047 13.2578,4.5317 13.7578,4.5007 C13.8758,4.6327 13.4228,4.6737 13.6818,4.7567 L14.1148,4.5257 C14.0998,4.6147 14.1168,4.8067 13.9368,4.8407 C15.2548,4.5897 16.0988,5.2917 17.1398,4.8917 C17.3228,5.0667 17.0468,5.0367 16.9598,5.1867 C17.7128,4.8087 18.1178,5.4697 18.7338,5.4257 L18.7418,5.2637 C19.6178,5.7427 20.6198,5.5677 21.2778,6.0627 L21.2338,5.9217 C21.3908,5.8147 21.5638,5.8687 21.7128,5.8607 C21.6898,5.9447 21.4838,6.1307 21.6998,6.1717 C21.6888,6.0997 21.6348,6.0007 21.6938,5.9427 C21.9008,6.2857 22.2208,6.5777 22.5998,7.0537 C22.9788,7.5067 23.3718,8.1767 23.6028,8.8017 C24.5848,10.3367 24.6818,12.4417 24.7468,14.3147 C24.7318,14.0267 25.1338,14.1467 25.0428,14.3707 C24.3518,14.9487 25.1138,15.4347 24.5848,16.0167 C24.6628,17.1827 23.8678,18.0347 24.0598,19.1897 L23.8698,19.1527 C23.7448,19.2787 23.8518,19.3577 23.8178,19.5227 L23.7678,19.5027 C23.5828,19.8407 23.5918,20.3817 23.4148,20.5827 L23.6118,20.6737 C23.5388,20.9167 23.4118,20.7377 23.4308,21.0207 L23.3328,20.9747 L23.4118,21.3287 C23.0738,21.1617 23.1178,21.9737 22.8768,22.0887 C22.8138,22.4117 22.7108,23.0397 22.4258,23.4467 C22.2138,23.4447 21.9468,23.9787 21.6848,24.2707 C21.3838,24.9477 20.9108,25.9077 20.3368,26.6937 L20.5548,26.8087 L20.4348,27.0337 C20.3908,27.0017 20.3478,27.0157 20.3468,26.9687 C20.0038,26.9867 20.1038,27.5117 19.8448,27.5917 C20.1038,27.6047 19.9718,27.4607 20.0548,27.3407 C20.2658,27.2267 20.3598,27.5237 20.1028,27.6977 L20.0608,27.6637 L20.0618,27.8977 C19.8888,27.8117 19.7178,27.9117 19.5458,27.8257 C19.1198,28.5587 19.0638,29.2307 18.4818,29.9227 C18.3568,29.7247 18.1618,30.4867 17.9568,30.1277 C17.7658,30.6547 18.2558,30.2227 18.3318,30.5767 C18.2408,30.6987 18.2348,30.8877 18.1058,30.8327 C18.0728,30.7227 17.8498,30.8057 17.8918,30.6847 L17.7098,31.0017 C17.6658,31.0127 17.6688,30.9187 17.6718,30.8707 C17.4308,31.5767 16.7698,31.7267 16.5628,32.3547 C16.6418,32.4727 16.7468,32.1807 16.8258,32.2987 C16.6528,32.9657 16.2908,32.5917 16.0808,33.1757 L16.0108,32.9657 C15.9918,33.1937 16.0738,33.3617 15.7528,33.5117 C15.5468,33.4167 15.7868,33.1927 15.7948,33.0097 C15.6638,33.1737 15.3488,33.6317 15.6118,33.6287 C15.5008,33.8757 15.2898,33.8247 15.1548,33.8947 C15.1928,33.9327 15.4218,33.7997 15.4028,33.9827 C15.0838,34.1777 14.7368,34.6037 14.4298,34.9237 C14.3918,34.8837 14.3098,34.8537 14.3138,34.8077 C14.2988,35.2607 13.9538,34.9137 13.6848,35.3197" id="Fill-53" fill="#DD6343" mask="url(#mask-2)"></path>
                </g>
                <path d="M7.366,61.8479 L7.099,61.8929 C7.048,61.9589 6.976,62.0379 6.774,62.1539 L7.366,61.8479 Z" id="Fill-56" fill="#DD6343"></path>
                <path d="M4.1189,58.0686 C4.1089,58.0506 4.0999,58.0326 4.0759,58.0216 C4.0589,58.0696 4.0859,58.0746 4.1189,58.0686" id="Fill-58" fill="#DD6343"></path>
                <path d="M5.263,55.5393 C5.195,55.7323 5.386,55.5503 5.518,55.4533 C5.465,55.4523 5.395,55.4593 5.263,55.5393" id="Fill-60" fill="#DD6343"></path>
                <path d="M14.5281,59.2942 C14.5021,59.3222 14.4901,59.3562 14.5071,59.3982 C14.5391,59.3502 14.5401,59.3182 14.5281,59.2942" id="Fill-62" fill="#DD6343"></path>
                <path d="M27.7815,55.9944 C27.7615,55.9884 27.7465,55.9834 27.7205,55.9754 C27.7345,55.9894 27.7555,55.9944 27.7815,55.9944" id="Fill-64" fill="#DD6343"></path>
                <path d="M26.9612,55.8626 C26.9252,55.8716 26.8802,55.8916 26.8202,55.9326 C26.8882,55.9266 26.9302,55.8976 26.9612,55.8626" id="Fill-66" fill="#DD6343"></path>
                <path d="M10.2522,60.5032 C10.1752,60.5302 10.0962,60.5692 10.0092,60.6402 C10.1272,60.6032 10.1982,60.5522 10.2522,60.5032" id="Fill-68" fill="#DD6343"></path>
                <path d="M26.6814,56.0208 L26.4914,56.0478 C26.4934,56.0618 26.4954,56.0728 26.4984,56.0898 L26.6814,56.0208 Z" id="Fill-70" fill="#DD6343"></path>
                <path d="M28.0203,55.9563 C27.9463,55.9703 27.8493,55.9963 27.7813,55.9943 C27.8893,56.0263 27.9613,56.0083 28.0203,55.9563" id="Fill-72" fill="#DD6343"></path>
                <path d="M19.3079,57.7806 L19.2889,57.7916 C19.1689,57.9196 19.2489,57.8566 19.3079,57.7806" id="Fill-74" fill="#DD6343"></path>
                <polygon id="Fill-76" fill="#DD6343" points="25.9724 56.597 25.9454 56.596 25.9074 56.668"></polygon>
                <path d="M28.8382,55.8216 C28.8052,55.8366 28.7762,55.8536 28.7572,55.8846 C28.7882,55.8836 28.8232,55.8836 28.8682,55.8816 C28.8502,55.8566 28.8432,55.8396 28.8382,55.8216" id="Fill-78" fill="#DD6343"></path>
                <path d="M22.1604,57.3899 C22.1924,57.2979 22.1984,57.2399 22.1894,57.1989 C22.1284,57.2169 22.0984,57.2629 22.1604,57.3899" id="Fill-80" fill="#DD6343"></path>
            </g>
        </g>
    </g>
</svg>