<?xml version="1.0" encoding="UTF-8"?>
<svg width="680px" height="990px" viewBox="0 0 680 990" version="1.1" xmlns="http://www.w3.org/2000/svg" xmlns:xlink="http://www.w3.org/1999/xlink">
    <!-- Generator: Sketch 51.2 (57519) - http://www.bohemiancoding.com/sketch -->
    <title>f-day_bg_resultcard</title>
    <desc>Created with Sketch.</desc>
    <defs>
        <polygon id="path-1" points="0.210874487 0.0624 252.653094 0.0624 252.653094 17.6 0.210874487 17.6"></polygon>
    </defs>
    <g id="Page-1" stroke="none" stroke-width="1" fill="none" fill-rule="evenodd" opacity="0.149720982">
        <g id="结果页-预览-copy-5" transform="translate(-35.000000, -130.000000)">
            <g id="f-day_bg_resultcard" transform="translate(35.000000, 130.000000)">
                <g id="Group-17">
                    <g id="Group-8" transform="translate(52.000000, 335.000000)">
                        <path d="M246.007105,10.73552 C246.007105,16.49952 241.330879,21.17152 235.562653,21.17152 L91.4442721,21.17152 C85.6768469,21.17152 81.0014217,16.49952 81.0014217,10.73552 C81.0014217,4.97232 85.6768469,0.30032 91.4442721,0.30032 L235.562653,0.30032 C241.330879,0.30032 246.007105,4.97232 246.007105,10.73552" id="Fill-1" fill="#FFAE6D"></path>
                        <polygon id="Clip-4" points="0 41.82608 227.759417 41.82608 227.759417 62.69648 0 62.69648"></polygon>
                        <path d="M227.759417,52.26128 C227.759417,58.02448 223.083991,62.69648 217.316566,62.69648 L10.4442114,62.69648 C4.67598563,62.69648 -0.000240175953,58.02448 -0.000240175953,52.26128 C-0.000240175953,46.49808 4.67598563,41.82608 10.4442114,41.82608 L217.316566,41.82608 C223.083991,41.82608 227.759417,46.49808 227.759417,52.26128" id="Fill-3" fill="#FFAE6D"></path>
                        <path d="M185.608617,31.52024 C185.608617,25.75704 190.284042,21.08504 196.052268,21.08504 L131.999743,21.08504 C137.767168,21.08504 142.443394,25.75704 142.443394,31.52024 C142.443394,37.28424 137.767168,41.95544 131.999743,41.95544 L196.052268,41.95544 C190.284042,41.95544 185.608617,37.28424 185.608617,31.52024" id="Fill-6" fill="#FFAE6D"></path>
                    </g>
                    <g id="Group-16" transform="translate(344.000000, 730.000000)">
                        <path d="M143.994931,9.13824 C143.994931,13.98144 140.066453,17.90704 135.218901,17.90704 L9.14734135,17.90704 C4.3013912,17.90704 0.37211261,13.98144 0.37211261,9.13824 C0.37211261,4.29504 4.3013912,0.36944 9.14734135,0.36944 L135.218901,0.36944 C140.066453,0.36944 143.994931,4.29504 143.994931,9.13824" id="Fill-9" fill="#FFAE6D"></path>
                        <g id="Group-13" transform="translate(28.821114, 35.200000)">
                            <mask id="mask-2" fill="white">
                                <use xlink:href="#path-1"></use>
                            </mask>
                            <g id="Clip-12"></g>
                            <path d="M252.653414,8.8312 C252.653414,13.6736 248.724936,17.6 243.878185,17.6 L8.98690381,17.6 C4.14015308,17.6 0.210874487,13.6736 0.210874487,8.8312 C0.210874487,3.988 4.14015308,0.0624 8.98690381,0.0624 L243.878185,0.0624 C248.724936,0.0624 252.653414,3.988 252.653414,8.8312" id="Fill-11" fill="#FFAE6D" mask="url(#mask-2)"></path>
                        </g>
                        <path d="M115.477879,26.60312 C115.477879,21.75992 119.407158,17.83432 124.253909,17.83432 L43.2249466,17.83432 C48.0716974,17.83432 52.0001754,21.75992 52.0001754,26.60312 C52.0001754,31.44552 48.0716974,35.37192 43.2249466,35.37192 L124.253909,35.37192 C119.407158,35.37192 115.477879,31.44552 115.477879,26.60312" id="Fill-14" fill="#FFAE6D"></path>
                    </g>
                </g>
            </g>
        </g>
    </g>
</svg>