<?xml version="1.0" encoding="UTF-8"?>
<svg width="40px" height="70px" viewBox="0 0 40 70" version="1.1" xmlns="http://www.w3.org/2000/svg" xmlns:xlink="http://www.w3.org/1999/xlink">
    <!-- Generator: Sketch 51.2 (57519) - http://www.bohemiancoding.com/sketch -->
    <title>number_5</title>
    <desc>Created with Sketch.</desc>
    <defs>
        <polygon id="path-1" points="0.4604 0.277 0.804 0.277 0.804 1.277 0.4604 1.277"></polygon>
    </defs>
    <g id="Page-1" stroke="none" stroke-width="1" fill="none" fill-rule="evenodd">
        <g id="切图" transform="translate(-933.000000, -310.000000)">
            <g id="5" transform="translate(933.000000, 310.000000)">
                <path d="M16.9772,63.6229 C16.9802,63.6489 16.9872,63.6789 17.0032,63.7189 C17.0002,63.6769 16.9912,63.6449 16.9772,63.6229" id="Fill-1" fill="#DD6343"></path>
                <path d="M24.2116,60.2205 L24.1606,60.3155 C24.2076,60.2735 24.2176,60.2445 24.2116,60.2205" id="Fill-3" fill="#DD6343"></path>
                <path d="M12.632,65.3387 C12.634,65.3287 12.632,65.3227 12.632,65.3137 C12.566,65.3397 12.475,65.3747 12.328,65.4317 L12.632,65.3387 Z" id="Fill-5" fill="#DD6343"></path>
                <g id="Group-9" transform="translate(34.000000, 45.411300)">
                    <mask id="mask-2" fill="white">
                        <use xlink:href="#path-1"></use>
                    </mask>
                    <g id="Clip-8"></g>
                    <path d="M0.4694,0.277 L0.4604,0.397 C0.4694,0.343 0.4804,0.309 0.4694,0.277" id="Fill-7" fill="#DD6343" mask="url(#mask-2)"></path>
                </g>
                <path d="M29.7223,55.5663 C29.7133,55.5153 29.7393,55.4633 29.7623,55.4103 C29.7143,55.4633 29.6833,55.5073 29.7223,55.5663" id="Fill-10" fill="#DD6343"></path>
                <path d="M9.5285,64.4149 L9.7075,64.4909 C9.6805,64.4359 9.6115,64.3959 9.5285,64.4149" id="Fill-12" fill="#DD6343"></path>
                <path d="M5.4801,66.8748 C5.4871,66.8828 5.4921,66.8908 5.5041,66.8988 C5.5051,66.8838 5.4941,66.8778 5.4801,66.8748" id="Fill-14" fill="#DD6343"></path>
                <path d="M7.3908,66.6424 C7.4218,66.6144 7.4528,66.5734 7.4858,66.5314 C7.4358,66.5584 7.3708,66.5874 7.3908,66.6424" id="Fill-16" fill="#DD6343"></path>
                <path d="M7.528,66.4725 L7.486,66.5315 C7.516,66.5125 7.539,66.4945 7.528,66.4725" id="Fill-18" fill="#DD6343"></path>
                <path d="M17.9792,3.2762 C18.0202,3.1482 17.9452,3.0092 17.8902,2.8692 L17.9792,3.2762 Z" id="Fill-20" fill="#DD6343"></path>
                <path d="M26.1794,30.9676 L26.2354,30.9266 C26.1964,30.9326 26.1834,30.9486 26.1794,30.9676" id="Fill-22" fill="#DD6343"></path>
                <path d="M16.8229,2.7918 L16.8759,2.7068 C16.8439,2.7348 16.8299,2.7638 16.8229,2.7918" id="Fill-24" fill="#DD6343"></path>
                <path d="M11.6418,63.0438 C11.7088,62.8598 12.0298,62.8978 11.9718,62.7748 C11.8498,62.8548 11.6218,62.8418 11.6418,63.0438" id="Fill-26" fill="#DD6343"></path>
                <path d="M21.6276,35.0868 L21.5526,35.0768 C21.5876,35.0858 21.6096,35.0888 21.6276,35.0868" id="Fill-28" fill="#DD6343"></path>
                <path d="M16.8229,2.7918 L16.7609,2.8908 C16.7899,2.8878 16.8129,2.8818 16.8389,2.8758 C16.8249,2.8478 16.8189,2.8178 16.8229,2.7918" id="Fill-30" fill="#DD6343"></path>
                <path d="M13.2653,29.5643 L13.2653,29.5653 C13.2753,29.5593 13.2833,29.5553 13.2943,29.5493 L13.2653,29.5643 Z" id="Fill-32" fill="#DD6343"></path>
                <path d="M13.5236,29.3192 L13.5716,29.3072 C13.5886,29.2932 13.5626,29.3022 13.5236,29.3192" id="Fill-34" fill="#DD6343"></path>
                <path d="M17.8903,2.869 L17.8383,2.636 C17.8333,2.714 17.8593,2.792 17.8903,2.869" id="Fill-36" fill="#DD6343"></path>
                <path d="M14.4919,22.5204 C14.4909,22.5484 14.4909,22.5754 14.4949,22.6024 C14.5029,22.5684 14.5019,22.5414 14.4919,22.5204" id="Fill-38" fill="#DD6343"></path>
                <path d="M29.2096,56.0282 C29.1856,56.0362 29.1596,56.0542 29.1356,56.0672 C29.1526,56.0942 29.1746,56.1062 29.2096,56.0282" id="Fill-40" fill="#DD6343"></path>
                <polygon id="Fill-42" fill="#DD6343" points="29.2858 48.8797 29.2868 48.8777 29.2838 48.8767"></polygon>
                <path d="M29.3395,49.2196 C29.4015,49.1456 29.3575,48.9836 29.2855,48.8796 C29.2515,48.9666 29.2475,49.0576 29.3395,49.2196" id="Fill-44" fill="#DD6343"></path>
                <path d="M29.5778,48.3123 L29.5518,48.3393 C29.5638,48.3313 29.5728,48.3233 29.5778,48.3123" id="Fill-46" fill="#DD6343"></path>
                <polygon id="Fill-48" fill="#DD6343" points="26.4118 53.2538 26.4238 53.2638 26.4158 53.2518"></polygon>
                <path d="M27.1208,52.3348 C27.1558,52.3348 27.1888,52.3248 27.2198,52.3098 C27.1858,52.3088 27.1508,52.3148 27.1208,52.3348" id="Fill-50" fill="#DD6343"></path>
                <polygon id="Fill-52" fill="#DD6343" points="29.8561 45.4305 29.8621 45.4325 29.8611 45.4255"></polygon>
                <path d="M25.8376,37.3094 C26.6026,37.7454 27.6236,38.4364 28.0236,39.2414 C28.3596,39.2614 28.5106,39.5184 28.7146,39.7464 L28.3836,39.9384 L28.5836,40.1104 C28.5146,40.2474 28.4496,39.9694 28.3816,40.1874 L28.6336,40.1754 C28.5146,40.2504 28.7866,40.7734 28.3756,40.5094 C28.5096,40.7774 28.5686,41.0824 28.6626,41.3724 C28.7046,41.5714 29.0216,41.4034 28.9676,41.6574 C28.8666,41.7294 28.8786,41.5914 28.7476,41.6414 C28.5946,42.3564 29.6406,42.3074 29.5226,43.0394 L29.4656,42.9844 C29.5786,43.0944 29.5896,43.3214 29.6376,43.3234 C30.0266,43.2104 29.4186,43.2074 29.6276,42.9814 C29.9536,42.9754 29.8296,43.2394 30.0746,43.2124 C29.9626,43.3894 30.1446,43.4844 30.1646,43.6374 C29.9586,43.8974 30.1216,44.2684 29.8376,44.4514 C29.9306,44.5804 30.2366,44.7454 30.2296,45.0274 C29.9616,45.1994 29.9906,44.9564 29.8766,45.2124 L30.0606,45.2774 C29.9956,45.4934 29.9486,45.4524 29.8616,45.4324 C29.8166,45.6624 30.0876,45.6634 29.9216,45.9394 L29.7666,45.7474 C29.7996,45.9724 29.7656,46.0574 29.6886,46.3514 C29.5846,46.3234 29.6196,46.2064 29.6596,46.1244 C29.3666,46.2334 29.7196,46.4224 29.6726,46.5064 C29.7586,46.4984 29.8456,46.2984 30.0026,46.4374 C29.9336,46.5804 30.1756,46.8164 29.9336,46.8734 L29.7946,46.6684 C29.8636,47.0134 29.9836,46.8914 29.8286,47.2354 C29.8196,47.2114 29.7726,47.2084 29.7356,47.1914 C29.9226,47.4834 29.5996,47.7174 29.4846,48.0414 L29.4566,47.9624 C29.4766,48.1154 29.6126,48.2444 29.5776,48.3124 C29.7396,48.1564 29.7756,48.2254 29.9536,48.2654 C29.5856,48.4204 30.1626,48.7764 29.8236,49.1314 C29.7276,49.0854 29.6436,48.9394 29.7946,48.8674 C29.5476,48.6134 29.3106,48.5064 29.2496,48.2134 C29.2756,48.3904 29.2356,48.5804 29.1286,48.4974 L29.3886,48.6474 C29.3586,48.7424 29.3146,48.8084 29.2866,48.8774 C29.4456,48.9874 29.6486,48.7994 29.6766,49.0624 C29.6696,49.3454 29.3426,49.0794 29.4516,49.1674 C29.4256,49.5474 29.7006,49.4354 29.4646,49.7164 C29.4566,49.6744 29.4406,49.5924 29.4786,49.5774 C29.2606,49.7544 29.2596,50.1604 28.9056,50.0704 C28.8496,50.0014 28.7556,49.9494 28.8226,49.8784 L28.8706,49.9054 C28.7516,49.5514 28.8376,50.1384 28.5836,49.9224 C28.7626,49.9884 28.5826,50.2844 28.4766,50.4024 L28.6946,50.4604 C29.0156,51.2224 28.3236,50.2344 28.1506,50.7134 C28.1216,51.0654 28.2636,50.6374 28.3006,50.8844 C28.1556,51.0554 27.9606,51.0334 27.8716,51.3484 C27.7486,51.3754 27.5516,51.4614 27.3376,51.3394 C27.3156,51.5504 26.9386,51.7514 27.0706,51.9754 C27.4216,51.8254 27.0346,51.5654 27.5086,51.4284 L27.6496,51.6484 C27.4916,51.8604 27.4106,52.2214 27.2196,52.3094 C27.2796,52.3074 27.3406,52.3304 27.3666,52.3794 C27.2076,52.7344 27.3266,52.9724 27.0396,53.2274 C26.8416,53.1254 27.0026,52.9764 27.0846,52.8384 C26.7986,52.9184 26.9326,53.0334 26.6206,53.2734 C26.4606,53.1634 26.7996,53.0874 26.6836,52.9344 L26.4526,53.2884 L26.4236,53.2634 C26.6246,53.5194 26.1906,53.4864 26.0936,53.7434 C25.6716,54.1834 25.9096,54.5454 25.8476,54.9814 C25.7206,54.9874 25.6456,54.9484 25.6156,54.8624 C25.8226,54.8534 25.7256,54.7934 25.7036,54.6964 C25.5826,54.8744 25.1546,54.7904 25.1506,54.6184 C24.9726,54.9104 25.3566,54.6594 25.2766,54.8694 L24.9276,55.1634 C25.0776,55.2474 25.2216,55.1634 25.1306,55.4174 C25.0106,55.5864 24.9246,55.6354 24.7136,55.7974 C24.6906,55.7124 24.4856,55.6634 24.6446,55.5434 C24.5056,55.5794 24.3506,55.7004 24.3946,55.8714 C24.7136,55.7974 24.1226,56.2854 24.4506,56.3404 L24.1326,56.4144 C24.1856,56.3734 24.1216,56.2854 24.2176,56.2464 C23.9956,56.1084 24.0826,56.4554 24.0166,56.5384 C23.9036,56.5634 23.6796,56.7094 23.6026,56.6474 C23.5716,56.7574 23.3596,56.8534 23.2496,56.7774 C23.1716,56.9004 23.3396,56.9134 23.3576,57.0014 C23.2296,57.0924 23.1026,57.1824 22.9696,57.2654 C22.8666,57.1684 22.6096,56.8824 22.6366,56.8004 C22.5686,57.0044 22.8246,57.1644 22.6006,57.3094 C22.5686,57.0044 22.1946,57.3444 22.1916,56.9584 C21.9556,56.8864 21.6146,57.1394 21.4526,57.3254 C21.4466,57.5804 21.7336,57.2824 21.8436,57.4704 C21.3256,57.9014 21.6206,58.4344 21.1376,58.6144 L21.2806,58.5964 C21.0776,58.8654 21.0946,58.8244 21.0336,59.0764 C20.9636,58.8014 20.3556,58.6534 19.9416,58.9584 C19.9726,59.0974 20.3226,59.0364 20.3586,59.2624 L20.0806,59.4694 C20.0476,59.4634 20.0586,59.4064 20.0786,59.3544 C19.8586,59.5914 19.4066,59.3374 19.4856,59.6564 L19.0206,59.4654 L19.2116,59.5534 C19.2386,59.6904 18.9536,59.8914 18.9146,59.9714 C18.6746,60.2714 18.5046,60.2324 18.2546,60.1734 C18.3596,60.2424 18.6156,60.3914 18.3876,60.5604 C18.1866,60.1734 17.7896,60.6884 17.6926,60.4844 C17.5946,60.5414 17.3556,60.5124 17.4256,60.6794 L17.3186,60.4294 C17.4696,60.7804 17.0926,60.9514 16.8376,61.1514 C16.6726,60.6594 16.5426,61.3414 16.2096,60.9844 C16.3126,61.3274 15.7636,61.3534 15.8426,61.6454 C15.6286,61.7664 15.5106,61.4624 15.4056,61.3884 L15.3586,61.5554 C15.1796,61.4614 14.7526,61.6354 14.4566,61.6474 L14.3566,62.0344 L14.2116,61.9474 C14.2076,62.0364 14.0346,62.1664 14.2016,62.2154 L14.0696,62.2564 C14.2006,62.5684 13.9316,62.4214 13.7386,62.6674 C13.6586,62.6454 13.6406,62.5654 13.6756,62.4984 C13.5486,62.5534 13.5306,62.3714 13.4156,62.3004 C13.5406,62.3384 13.2136,63.0564 13.6166,63.0394 C13.6966,63.1544 13.5406,63.3364 13.3906,63.3374 L13.1906,63.0964 L13.1736,63.4554 C12.9966,63.5834 12.8336,63.4444 12.6616,63.4844 C12.8156,63.3944 12.7796,62.7914 12.3666,62.9874 C12.5696,62.8524 12.6076,62.6504 12.6946,62.5414 C12.6036,62.5694 12.5486,62.5624 12.6296,62.3844 C12.3426,62.6174 12.5976,62.6024 12.2916,62.7834 C12.1976,62.5284 12.0716,62.4904 11.7536,62.5314 L12.0456,62.6184 C12.0486,62.6534 12.0446,62.6804 12.0346,62.7034 C12.1266,62.6944 12.1666,62.7214 12.2266,62.8094 C12.1616,62.8354 11.9916,63.2834 11.8706,63.1584 C12.3686,63.3964 11.4386,63.7104 11.7496,63.8494 C11.7456,63.9384 11.5256,64.0534 11.4466,63.9404 C11.6326,63.6324 11.1166,63.7504 11.0826,63.5584 C11.0146,63.6744 11.3786,63.6464 11.2846,63.8004 C11.1306,63.8894 10.9436,63.7904 10.8186,63.7524 L10.8656,63.6764 L10.5666,63.6774 C10.5816,63.8194 10.9016,63.7784 10.7016,63.9464 C10.6176,63.9204 10.4176,64.0884 10.3796,63.9874 C10.4126,63.7684 10.2316,63.5784 10.4076,63.4484 C10.2546,63.5384 9.7516,63.7984 10.0646,63.9364 L9.8666,64.0154 C10.0356,64.0654 10.4596,64.1004 10.0876,64.3084 L10.0676,64.2574 L9.8826,64.5654 L9.7076,64.4914 C9.7396,64.5514 9.7226,64.6284 9.6206,64.6684 C9.5616,64.6064 9.4536,64.6204 9.4166,64.5174 C9.1326,64.6604 9.2126,64.7754 9.2076,64.8644 C9.0536,64.9554 8.9686,64.9294 8.9796,64.7504 C8.7416,64.8174 8.3686,65.0234 8.1586,64.9604 C7.9116,65.2054 8.2426,64.9854 8.1446,65.2314 C7.6926,64.9134 7.0876,65.5064 6.6276,65.7784 C6.9286,66.0964 6.5146,65.8804 6.5806,66.2644 C6.6316,66.0984 5.9886,66.1794 6.3646,65.8824 L6.1236,66.0384 C5.8536,65.9114 6.4826,65.6904 6.0866,65.5264 C5.8016,65.6684 5.7976,66.1674 5.3926,66.1824 C5.3866,65.8644 5.1696,66.3894 5.1226,66.0574 C5.1496,65.9284 5.2576,65.9154 5.3456,65.8514 L5.2616,65.8264 C4.5906,66.0354 5.2196,66.2234 4.9686,66.5574 C4.5966,66.7654 4.5676,66.4844 4.4886,66.3694 C4.4046,66.3434 4.2286,66.4734 4.1576,66.5884 C4.3206,66.3194 4.6706,66.5594 4.6386,66.7774 C4.3306,66.5494 4.0516,67.0114 4.0006,67.1784 C4.6986,67.2504 4.3906,67.0214 5.0666,67.1334 C5.0946,67.0044 4.9596,66.7374 5.3226,66.7084 C5.1876,66.9324 5.4046,66.8554 5.4806,66.8744 C5.3486,66.7444 5.6676,66.7114 5.7326,66.6034 C5.8776,66.6924 5.7096,67.0504 6.0546,66.9724 L5.9476,66.5754 C6.0966,66.5754 6.0166,66.8704 6.2406,66.6634 C6.1856,66.9204 6.4186,66.9434 6.0876,67.1634 C6.6556,67.2884 6.6646,66.6994 6.9346,66.4154 C6.9106,66.4544 6.9296,66.5044 6.9076,66.5444 C6.9346,66.4154 7.0656,66.3644 7.1526,66.2984 C7.4096,66.2844 7.0556,66.5424 7.1586,66.6194 L7.5076,66.4504 C7.5196,66.4594 7.5246,66.4654 7.5276,66.4724 C7.5986,66.3804 7.6716,66.3074 7.7456,66.3844 C7.6936,66.5504 7.7086,66.6924 7.6806,66.8214 L7.9366,66.3964 C7.9506,66.5374 8.3376,66.4694 8.1136,66.6764 L8.6396,66.3784 L8.7976,66.6074 C8.9096,66.5034 8.8916,66.4534 8.7206,66.4934 C8.9336,66.4664 9.3566,65.6824 9.4786,66.2184 C9.8176,65.8204 10.0096,65.8314 10.4746,65.4714 C10.1766,65.8804 11.0666,65.5554 10.6896,65.8534 C10.9866,65.8504 10.9176,65.5564 11.0946,65.4274 C11.3266,65.4514 11.3546,65.7324 11.1966,65.9134 L11.3796,65.6944 L11.3976,65.7464 L11.5376,65.5134 C11.8126,65.5504 11.6946,65.7434 11.9336,65.6774 L11.8816,65.4354 L12.0906,65.4964 C11.9886,65.4204 12.1006,65.3174 12.2536,65.2274 L12.2726,65.2784 L12.4496,65.1484 C12.3166,65.3694 12.6496,65.1154 12.6326,65.3134 C12.8046,65.2484 12.8076,65.2444 13.0926,65.0674 L12.9716,64.9404 C13.3076,64.6304 13.0886,65.1574 13.4156,65.0254 L13.3166,64.8614 C13.9106,64.9464 14.0246,64.3414 14.4496,64.3734 C14.2736,64.5034 14.4146,64.6824 14.3966,64.6304 C14.6606,64.4344 15.1616,64.2604 15.3676,63.9104 C15.5956,64.1084 15.6566,64.1704 16.0226,64.1374 C16.2426,64.0174 16.2646,63.9754 16.2706,63.7954 C16.5356,63.7884 16.8786,63.4474 16.9776,63.6224 C16.9586,63.4554 17.1886,63.5574 17.2506,63.3764 L17.3126,63.4384 L17.2096,63.2764 C17.7856,63.4654 17.7556,62.7364 18.3136,62.8734 L18.2686,62.9534 L18.3996,62.8024 C18.4626,62.8644 18.4196,62.9444 18.4616,63.0444 L19.2406,62.6804 L19.0256,62.6314 C19.1766,62.5304 19.1976,62.3124 19.4356,62.3194 C19.2666,62.7334 19.6916,62.1944 19.8456,62.3594 L19.7176,62.5144 C19.9326,62.3774 19.9326,62.3774 19.8226,62.2184 C20.0776,62.0034 20.1946,62.4304 20.3616,62.1054 L20.1686,62.2014 C20.0596,62.1334 20.1196,61.9224 20.2476,61.8584 C20.2916,61.8684 20.4226,61.8934 20.3376,61.9664 C20.5296,61.7834 20.9126,61.6674 20.9746,61.5464 C21.1256,61.5284 21.1536,61.6674 21.1126,61.7504 C21.5096,61.3264 21.3526,61.6604 21.7456,61.2314 L21.7936,61.3294 L21.8906,61.1184 L22.2436,61.1694 L22.0866,61.1024 C22.2326,60.9894 22.2896,60.8644 22.5046,60.8054 L22.5166,60.9864 C22.9106,60.6434 23.1686,60.8844 23.4616,60.4264 C23.5066,60.4324 23.4706,60.5174 23.4506,60.5604 C23.6916,60.0944 23.9066,60.6124 24.1116,60.0864 C24.1196,60.1474 24.1996,60.1724 24.2116,60.2204 L24.3246,60.0124 L24.4366,60.1994 L24.3936,59.8374 L24.6296,59.9434 L24.6366,59.8104 C25.0686,60.0184 25.1426,59.5714 25.5786,59.6244 L25.3686,59.4404 C25.6396,58.5194 26.9946,58.5654 27.5326,57.6904 L27.6676,57.8604 L27.7856,57.4024 C28.0626,57.3794 27.8196,57.6234 27.9456,57.6594 C28.1786,57.2794 27.8546,57.3054 28.1616,56.9094 C28.4436,56.8294 28.2126,57.0844 28.1826,57.2264 C28.4376,56.8134 28.8336,56.2464 29.1356,56.0674 C29.1176,56.0414 29.1036,56.0004 29.0826,56.0054 C29.2126,55.7004 29.5666,55.4754 29.7696,55.1784 C29.8416,55.2474 29.8006,55.3274 29.7626,55.4104 C29.8506,55.3184 30.0116,55.2214 29.9986,55.0724 L30.0636,55.2944 C30.2626,55.0984 30.4466,54.5774 30.6626,54.6574 C30.5716,54.6334 30.4556,54.5314 30.5986,54.3434 C30.9426,54.4234 30.8376,53.7314 31.1916,53.5154 C31.2336,53.5944 31.0956,53.8364 31.1416,53.7734 C31.3186,53.6614 31.2856,53.4364 31.2846,53.2424 L31.3726,53.3554 L31.6466,52.4984 C32.0106,52.5474 31.9966,51.7494 32.1766,51.9094 C32.3226,51.6314 31.9326,52.0804 32.0686,51.7074 C32.2386,51.6724 32.1606,51.3564 32.3496,51.4634 L32.3546,51.5124 L32.4586,51.2544 L32.5746,51.5014 C32.6376,51.2634 32.5196,51.0184 32.3756,50.9434 C32.5786,50.7874 32.5986,50.4484 32.8176,50.4254 L32.8346,50.5234 C32.9936,49.9094 33.7746,49.7264 33.5746,49.1194 C33.6146,49.0914 33.6646,49.1124 33.6386,49.1874 L33.7716,48.8074 L33.8966,48.9444 C33.8826,48.7064 33.8756,48.4744 33.8426,48.2364 L33.9446,48.2714 C34.0836,47.8504 34.2146,47.1684 34.2526,46.5944 L34.2896,46.6874 C34.2176,46.0444 34.4956,46.1074 34.4276,45.6344 C34.4546,45.6544 34.4646,45.6704 34.4696,45.6884 L34.4986,45.2734 L34.5966,45.3734 C34.3886,45.0504 34.9676,44.5084 34.7566,44.6874 C34.6746,44.5064 34.5526,44.1994 34.4156,44.1454 C34.4026,43.6904 34.5556,44.0364 34.6466,43.7514 C34.6516,43.4164 34.4766,43.3664 34.5526,42.9134 L34.6616,42.9154 C34.6236,42.7044 34.5346,42.5774 34.4906,42.2844 L34.5506,42.3674 C34.2716,41.9144 34.8286,41.7214 34.2816,41.4124 C34.3326,41.1974 34.1936,40.8294 34.4096,40.8044 C34.1756,40.2284 33.9526,39.7904 33.7026,39.2394 C34.0036,39.0344 33.6626,39.1184 33.7086,38.7054 L33.5406,38.7974 C33.3606,38.4064 33.3076,37.9294 33.1856,37.4514 C33.0446,36.9834 32.9056,36.4774 32.6006,36.0884 L32.7456,35.9614 L32.4566,35.9134 C31.9456,34.9764 31.0916,33.8864 30.4416,33.3434 C30.1676,33.2294 29.7216,33.1234 29.4136,32.8274 L29.4666,32.8324 C28.8086,32.4534 28.1146,32.1244 27.4746,31.6334 C27.5566,31.5854 27.5136,31.4974 27.6156,31.4964 C27.3486,31.5944 27.1926,31.2984 27.0396,31.2164 L27.1556,31.4324 C26.8726,31.4974 26.6616,31.2014 26.6136,31.0234 C26.4766,31.0374 26.3436,31.0394 26.2076,31.0644 C26.1936,31.0384 26.1716,30.9974 26.1796,30.9674 L26.0826,31.0384 L26.0036,30.7384 C25.9026,30.7524 25.4416,30.6454 25.2286,30.8214 C25.2266,30.7314 24.9416,30.5524 25.1926,30.5994 C24.8006,30.4364 24.4026,30.3014 24.0056,30.1544 L24.1696,30.2964 C24.1396,30.4914 23.7506,30.4874 23.5866,30.3684 C23.8696,30.2754 23.6756,30.1104 23.6026,29.9494 C23.4116,30.0114 23.7046,30.1464 23.5926,30.2274 C23.3546,30.3044 22.9086,30.2704 22.8166,30.1624 L22.9566,30.1154 C22.6636,30.1234 22.5986,29.7594 22.3156,29.7334 C22.0386,29.8434 21.8786,29.6744 21.8766,30.0064 C21.5096,30.0154 21.7736,29.7644 21.6616,29.7134 C21.4696,29.8354 20.9836,29.6674 20.9386,29.5024 C20.6906,29.9604 19.9836,29.2294 19.8746,29.6274 L19.5976,29.3844 C19.5816,29.4934 19.5076,29.7324 19.2706,29.7644 C19.0546,29.6364 19.1146,29.4504 19.0526,29.3354 L18.8866,29.7304 C17.6116,29.2494 15.9356,29.5994 14.5256,29.3994 C13.6516,29.5914 13.8236,29.7604 13.6616,29.7284 L13.6876,29.6714 C13.6646,29.6384 13.6496,29.6044 13.6426,29.5684 C13.6316,29.6324 13.6296,29.6954 13.6366,29.7554 C13.5976,29.8094 13.5436,29.8974 13.5166,29.8944 C13.4266,29.7214 13.5066,29.5294 13.2656,29.5654 C12.7486,29.7764 13.7226,29.2434 13.3576,29.3834 C13.4106,29.3634 13.4706,29.3394 13.5236,29.3194 C13.3646,29.3334 13.2846,29.3304 13.0276,29.2114 C13.4926,29.2134 13.0306,29.1304 13.2726,29.1464 L13.0876,29.1214 C13.1486,29.1024 13.1866,29.1104 13.2356,29.0594 C13.2906,28.9784 13.3446,28.9194 13.4066,28.9534 L13.2186,28.6584 L13.4116,28.6664 C13.4816,28.3284 13.4436,27.5694 13.8586,27.4544 C13.7146,26.5624 14.0306,25.2454 14.2946,24.2024 C14.1666,24.0254 14.2116,23.7144 14.2396,23.4704 L14.5116,23.2544 C14.4876,22.9964 14.2536,22.6834 14.4396,22.4824 C14.4656,22.4884 14.4826,22.5004 14.4916,22.5204 C14.4906,22.2614 14.6576,22.0484 14.4946,21.7764 C14.5586,21.5054 14.7286,21.2634 14.9216,21.3874 C14.5546,21.2884 15.0856,20.8214 15.0856,20.8214 C15.0856,20.8214 15.9836,17.3724 16.8376,13.4754 C17.6846,9.5764 18.5136,5.2284 17.9796,3.2764 C17.8296,3.1154 17.7966,2.7694 17.5496,2.8314 C17.5466,2.5704 17.8956,2.5454 17.7276,2.4504 C17.5186,2.7464 17.2866,2.2204 16.9756,2.4824 L16.9866,2.2634 C16.8696,2.1864 17.0576,2.5844 16.8376,2.4704 L17.1596,2.6214 C17.0646,2.7754 16.9696,2.8474 16.8386,2.8754 C16.9286,3.0704 17.3586,3.2924 17.0586,3.6164 L17.0666,3.5064 C16.9966,3.8164 16.7976,3.6364 16.7246,3.6854 L16.7456,3.6184 L16.5066,3.8314 C16.6726,3.6654 16.4836,3.2694 16.4586,3.4444 C16.2666,3.7864 16.5666,3.3714 16.5336,3.6574 C16.5066,3.8314 16.3386,3.7364 16.2346,3.7014 L16.1666,4.0104 C16.0116,3.9584 16.2296,3.8104 16.0326,3.8914 L16.0996,4.3234 C15.6826,4.2904 16.1816,4.7934 15.7606,4.8724 C15.7386,4.5704 15.6196,4.8634 15.5026,4.7864 L15.3476,5.4744 C15.2746,5.5254 15.2716,5.2634 15.2646,5.3724 C15.1206,5.4734 15.3066,5.6084 15.2856,5.6774 C15.1616,5.7084 15.1616,6.1894 14.9016,6.1034 C14.6076,6.5234 15.1886,6.3834 14.9286,6.7784 C14.7526,6.7954 14.9766,6.4254 14.7626,6.5764 L14.7076,7.0394 C14.6406,6.9794 14.4696,6.8874 14.5466,6.7274 C14.0316,7.8894 13.0216,8.3424 12.9716,9.5144 C12.7416,9.6264 12.8696,9.3704 12.7696,9.2274 C12.8346,10.0994 12.0756,10.2684 11.9406,10.9684 L12.0956,11.0174 C11.3796,11.8694 11.4126,13.1014 10.9666,14.1514 L11.1066,14.0444 C11.2266,14.2284 11.1916,14.4754 11.2236,14.6704 C11.1376,14.6814 10.9126,14.4674 10.9096,14.7994 C10.9806,14.7464 11.0686,14.6244 11.1376,14.6814 C10.5206,15.5334 10.2016,17.5444 9.6976,19.0594 C9.4046,21.1834 8.6716,23.4124 8.4146,25.5054 C8.4556,25.1864 8.8286,25.3894 8.6966,25.6124 C7.9166,26.1504 8.6146,26.7594 8.0506,27.3514 C8.0556,27.6644 8.0126,27.9534 7.9476,28.2484 L7.7856,29.0474 C7.7546,29.3034 7.7246,29.5594 7.6946,29.8124 C7.6366,30.3224 7.5886,30.8344 7.5796,31.3324 C7.5926,31.8144 7.5316,32.3634 7.8186,32.6414 L7.6506,32.7754 C7.6516,33.0564 7.7946,33.0444 7.9226,33.2684 L7.8736,33.2934 C8.0736,33.9204 8.8476,34.4234 9.1006,34.6694 L9.2636,34.5164 C9.5956,34.7014 9.3216,34.7634 9.7426,34.8374 L9.6666,34.9244 C9.8446,34.9324 10.0236,34.9294 10.2016,34.9154 C10.0726,35.0794 10.3226,35.1754 10.6426,35.2314 C10.9646,35.2854 11.3576,35.2734 11.4906,35.3684 C11.7616,35.3694 12.2286,35.2164 12.6806,35.1424 C13.1456,35.0474 13.6196,34.9924 14.0656,34.9584 C14.1096,35.0014 14.2056,35.0184 14.3586,35.0324 C14.5486,35.0384 14.6296,35.0474 14.7196,35.0554 C14.9116,35.0694 15.1356,35.0644 15.3116,35.0934 C15.9726,34.9834 16.9286,34.8444 17.7696,34.9184 L17.7526,34.6714 L17.9746,34.6564 C17.9716,34.7094 18.0006,34.7394 17.9676,34.7644 C18.1336,35.0474 18.4786,34.6724 18.6486,34.8624 C18.5446,34.6344 18.4966,34.8164 18.3716,34.8114 C18.1916,34.6984 18.3726,34.4504 18.6126,34.5854 L18.6076,34.6394 L18.7776,34.5194 C18.7886,34.7124 18.9356,34.8094 18.9436,34.9994 C19.6526,34.9834 20.1706,34.7084 20.8796,34.9034 C20.7746,35.1034 21.4006,34.9324 21.1946,35.2754 C21.6436,35.2044 21.1776,34.9684 21.4186,34.7404 C21.5406,34.7624 21.6856,34.6894 21.6796,34.8304 C21.6076,34.9064 21.7296,35.0754 21.6276,35.0864 L21.9106,35.1214 C21.9316,35.1564 21.8586,35.1924 21.8236,35.2094 C22.4486,35.1164 22.7396,35.6924 23.2806,35.6274 C23.3596,35.5104 23.1006,35.5354 23.1776,35.4164 C23.7606,35.3094 23.5156,35.7984 24.0236,35.7764 L23.8636,35.9134 C24.0456,35.8534 24.1856,35.7134 24.3396,35.9604 C24.2886,36.1784 24.0856,36.0344 23.9336,36.0934 C24.0926,36.1484 24.4726,36.2914 24.4476,36.0524 C24.6566,36.0764 24.6376,36.2824 24.7046,36.3794 C24.7336,36.3334 24.6046,36.1704 24.7546,36.1294 C24.9556,36.3424 25.2866,36.5654 25.5566,36.7394 C25.5256,36.7834 25.4996,36.8634 25.4616,36.8724 C25.8416,36.7584 25.5326,37.1684 25.8376,37.3094" id="Fill-54" fill="#DD6343"></path>
                <path d="M26.2848,53.3465 L26.4118,53.2535 C26.3748,53.2215 26.3378,53.1795 26.3438,53.0925 L26.2848,53.3465 Z" id="Fill-56" fill="#DD6343"></path>
                <path d="M29.736,47.1913 C29.723,47.1693 29.712,47.1463 29.691,47.1243 C29.692,47.1623 29.713,47.1793 29.736,47.1913" id="Fill-58" fill="#DD6343"></path>
                <path d="M29.6891,45.4539 C29.7171,45.5779 29.7921,45.4809 29.8561,45.4309 C29.8131,45.4219 29.7601,45.4179 29.6891,45.4539" id="Fill-60" fill="#DD6343"></path>
                <path d="M23.6022,56.6473 C23.6122,56.6143 23.6072,56.5813 23.5762,56.5473 C23.5702,56.6013 23.5812,56.6293 23.6022,56.6473" id="Fill-62" fill="#DD6343"></path>
                <path d="M12.9054,62.4754 C12.9244,62.4784 12.9394,62.4804 12.9644,62.4854 C12.9494,62.4744 12.9284,62.4714 12.9054,62.4754" id="Fill-64" fill="#DD6343"></path>
                <path d="M13.6759,62.4989 C13.7069,62.4859 13.7439,62.4609 13.7909,62.4129 C13.7299,62.4279 13.6969,62.4619 13.6759,62.4989" id="Fill-66" fill="#DD6343"></path>
                <path d="M25.7038,54.6961 C25.7288,54.6601 25.7478,54.6181 25.7408,54.5591 C25.6978,54.6101 25.6958,54.6561 25.7038,54.6961" id="Fill-68" fill="#DD6343"></path>
                <path d="M13.9015,62.3084 L14.0695,62.2564 C14.0645,62.2434 14.0605,62.2334 14.0545,62.2174 L13.9015,62.3084 Z" id="Fill-70" fill="#DD6343"></path>
                <path d="M12.6945,62.5418 C12.7595,62.5208 12.8435,62.4818 12.9055,62.4758 C12.8025,62.4578 12.7385,62.4838 12.6945,62.5418" id="Fill-72" fill="#DD6343"></path>
                <path d="M20.0788,59.3543 L20.0928,59.3403 C20.1598,59.1933 20.1078,59.2683 20.0788,59.3543" id="Fill-74" fill="#DD6343"></path>
                <polygon id="Fill-76" fill="#DD6343" points="14.4323 61.6502 14.4563 61.6472 14.4773 61.5722"></polygon>
                <path d="M11.9718,62.7752 C11.9998,62.7562 12.0228,62.7362 12.0348,62.7032 C12.0068,62.7082 11.9748,62.7132 11.9338,62.7202 C11.9548,62.7432 11.9648,62.7582 11.9718,62.7752" id="Fill-78" fill="#DD6343"></path>
                <path d="M17.6715,60.2957 C17.6655,60.3897 17.6745,60.4467 17.6925,60.4837 C17.7415,60.4557 17.7575,60.4057 17.6715,60.2957" id="Fill-80" fill="#DD6343"></path>
                <path d="M30.109,10.9637 C30.098,10.9417 30.085,10.9137 30.066,10.8757 C30.084,10.9107 30.097,10.9397 30.109,10.9637" id="Fill-82" fill="#DD6343"></path>
                <path d="M28.3376,11.1493 L28.3336,11.0983 C28.3246,11.1103 28.3286,11.1283 28.3376,11.1493" id="Fill-84" fill="#DD6343"></path>
                <path d="M31.1198,10.7528 L31.1288,10.7748 C31.1438,10.7718 31.1658,10.7668 31.1988,10.7588 L31.1198,10.7528 Z" id="Fill-86" fill="#DD6343"></path>
                <path d="M24.8649,12.1043 L24.8839,12.0913 C24.8749,12.0943 24.8639,12.0883 24.8649,12.1043" id="Fill-88" fill="#DD6343"></path>
                <path d="M26.9469,11.5868 C26.9599,11.6258 26.9569,11.6448 26.9539,11.6608 C26.9679,11.6608 26.9739,11.6488 26.9469,11.5868" id="Fill-90" fill="#DD6343"></path>
                <path d="M32.5836,12.3875 L32.4906,12.2745 C32.5206,12.3275 32.5596,12.3795 32.5836,12.3875" id="Fill-92" fill="#DD6343"></path>
                <path d="M33.2145,11.4217 C33.2085,11.4127 33.2035,11.4057 33.1965,11.3947 C33.2015,11.4067 33.2075,11.4147 33.2145,11.4217" id="Fill-94" fill="#DD6343"></path>
                <path d="M32.5915,11.0936 C32.5895,11.1086 32.5925,11.1346 32.5955,11.1606 C32.6045,11.1526 32.6175,11.1456 32.5915,11.0936" id="Fill-96" fill="#DD6343"></path>
                <path d="M32.6003,11.1991 L32.5953,11.1611 C32.5903,11.1691 32.5883,11.1771 32.6003,11.1991" id="Fill-98" fill="#DD6343"></path>
                <path d="M13.7497,18.4969 C13.7207,18.5049 13.7457,18.6139 13.7607,18.7069 L13.7497,18.4969 Z" id="Fill-100" fill="#DD6343"></path>
                <path d="M21.9811,13.4637 L21.9601,13.4087 C21.9641,13.4287 21.9721,13.4467 21.9811,13.4637" id="Fill-102" fill="#DD6343"></path>
                <path d="M14.2487,19.6366 L14.2177,19.6186 C14.2347,19.6376 14.2437,19.6406 14.2487,19.6366" id="Fill-104" fill="#DD6343"></path>
                <path d="M32.2838,12.9657 C32.3228,13.1027 32.1908,12.9817 32.2548,13.1017 C32.2718,13.0687 32.3608,13.1417 32.2838,12.9657" id="Fill-106" fill="#DD6343"></path>
                <path d="M23.7428,18.495 L23.7288,18.51 C23.7378,18.508 23.7418,18.502 23.7428,18.495" id="Fill-108" fill="#DD6343"></path>
                <path d="M14.2487,19.6366 L14.2837,19.6566 C14.2697,19.6336 14.2597,19.6156 14.2477,19.5966 C14.2517,19.6166 14.2527,19.6316 14.2487,19.6366" id="Fill-110" fill="#DD6343"></path>
                <path d="M18.9919,14.9041 L18.9929,14.9041 C18.9909,14.8941 18.9899,14.8881 18.9879,14.8791 L18.9919,14.9041 Z" id="Fill-112" fill="#DD6343"></path>
                <path d="M18.735,14.7801 L18.748,14.7211 C18.724,14.7181 18.725,14.7441 18.735,14.7801" id="Fill-114" fill="#DD6343"></path>
                <path d="M13.7604,18.7069 L13.7664,18.8259 C13.7744,18.8049 13.7684,18.7579 13.7604,18.7069" id="Fill-116" fill="#DD6343"></path>
                <path d="M17.1315,15.8172 C17.1345,15.8112 17.1385,15.8042 17.1395,15.7942 C17.1315,15.7962 17.1295,15.8032 17.1315,15.8172" id="Fill-118" fill="#DD6343"></path>
                <path d="M27.1042,11.5995 C27.1142,11.6095 27.1232,11.6135 27.1312,11.6205 C27.1192,11.5895 27.1072,11.5705 27.1042,11.5995" id="Fill-120" fill="#DD6343"></path>
                <polygon id="Fill-122" fill="#DD6343" points="27.6364 15.5038 27.6354 15.5048 27.6374 15.5068"></polygon>
                <path d="M27.6198,15.3182 C27.5858,15.2992 27.6028,15.4042 27.6368,15.5042 C27.6558,15.4942 27.6608,15.4582 27.6198,15.3182" id="Fill-124" fill="#DD6343"></path>
                <path d="M27.4674,15.5086 L27.4834,15.5206 C27.4764,15.5126 27.4674,15.5086 27.4674,15.5086" id="Fill-126" fill="#DD6343"></path>
                <polygon id="Fill-128" fill="#DD6343" points="28.8669 15.1151 28.8599 15.1011 28.8649 15.1141"></polygon>
                <path d="M28.6256,15.2625 C28.6076,15.2405 28.5926,15.2245 28.5786,15.2155 C28.5966,15.2385 28.6116,15.2555 28.6256,15.2625" id="Fill-130" fill="#DD6343"></path>
                <polygon id="Fill-132" fill="#DD6343" points="27.0211 16.1766 27.0191 16.1706 27.0181 16.1726"></polygon>
                <path d="M25.1129,18.2967 C25.3139,18.1027 25.4959,17.6937 25.7689,17.6477 C25.6899,17.3637 25.7599,17.3177 25.8069,17.2217 L25.9889,17.5597 L25.9959,17.4187 C26.0739,17.5087 25.9799,17.5067 26.0909,17.6127 L26.0069,17.3887 C26.0739,17.5087 26.2099,17.3877 26.2279,17.6867 L26.4729,17.5657 C26.5329,17.5477 26.3609,17.2647 26.4639,17.3177 C26.5259,17.4117 26.4759,17.3977 26.5439,17.5177 C26.8519,17.6807 26.4149,16.7517 26.6609,16.8217 L26.6699,16.8747 C26.6509,16.7707 26.7119,16.7547 26.6869,16.7057 C26.4899,16.3717 26.7529,16.9067 26.5979,16.7297 C26.4549,16.4377 26.5819,16.5417 26.4669,16.3227 C26.5589,16.4077 26.4979,16.2327 26.5229,16.1967 C26.6739,16.3507 26.6909,16.1787 26.8509,16.3837 C26.8329,16.2777 26.7189,15.9777 26.7739,15.9357 C26.9339,16.1397 26.8749,16.1567 26.9779,16.2117 L26.9009,16.0377 C26.9639,16.0397 26.9799,16.0907 27.0189,16.1707 C27.0749,16.1507 26.9439,15.9187 27.0649,15.9927 L27.1119,16.1747 C27.1279,16.0867 27.1629,16.1057 27.2379,16.0857 C27.2859,16.1827 27.2549,16.1907 27.2199,16.1717 C27.3849,16.4017 27.2279,16.0327 27.2619,16.0497 C27.2189,15.9797 27.1549,15.9697 27.0929,15.7927 C27.1419,15.8067 27.0489,15.5297 27.1739,15.7157 L27.2189,15.8957 C27.2229,15.7307 27.1499,15.6677 27.2629,15.6927 C27.2649,15.7067 27.2889,15.7477 27.3049,15.7837 C27.2459,15.5427 27.4129,15.7047 27.4959,15.6837 L27.5049,15.7347 C27.5059,15.6627 27.4449,15.5047 27.4669,15.5087 C27.3759,15.4337 27.3619,15.3787 27.2749,15.2187 C27.4739,15.4677 27.1959,14.8547 27.3729,14.9727 C27.4209,15.0687 27.4589,15.1967 27.3809,15.1077 C27.4949,15.4067 27.6149,15.6507 27.6269,15.8117 C27.6289,15.7287 27.6489,15.6677 27.7019,15.7917 L27.5769,15.5227 C27.5939,15.5047 27.6199,15.5127 27.6349,15.5047 C27.5589,15.3327 27.4519,15.2527 27.4449,15.1177 C27.4559,15.0047 27.6139,15.3737 27.5609,15.2507 C27.5839,15.1077 27.4469,14.9507 27.5649,15.0017 C27.5689,15.0267 27.5779,15.0797 27.5589,15.0587 C27.6669,15.1387 27.6639,14.9457 27.8429,15.2567 C27.8719,15.3317 27.9199,15.4287 27.8849,15.4107 L27.8619,15.3617 C27.9229,15.6217 27.8779,15.2757 28.0079,15.5707 C27.9149,15.4017 28.0089,15.4037 28.0589,15.4187 L27.9479,15.2287 C27.7589,14.5907 28.1399,15.6167 28.2119,15.4867 C28.2139,15.3207 28.1569,15.4457 28.1299,15.2877 C28.1939,15.2977 28.3009,15.4627 28.3269,15.3447 C28.3849,15.4117 28.4779,15.4957 28.5939,15.7127 C28.5909,15.6037 28.7719,15.7457 28.6859,15.5227 C28.5199,15.3747 28.7329,15.7857 28.5029,15.5437 L28.4169,15.3197 C28.4799,15.3027 28.4999,15.1577 28.5789,15.2157 C28.5499,15.1787 28.5169,15.1247 28.4989,15.0767 C28.5409,14.9557 28.4539,14.7317 28.5679,14.7557 C28.6789,14.9447 28.6149,14.9357 28.5899,14.9697 C28.7209,15.0997 28.6489,14.9537 28.7619,14.9777 C28.8549,15.1457 28.7029,14.9937 28.7799,15.1647 L28.8419,15.0677 L28.8599,15.1017 C28.7249,14.8107 28.9399,15.0927 28.9509,14.9807 C29.0809,14.9177 28.9019,14.5257 28.8549,14.2627 C28.9149,14.3297 28.9579,14.3997 28.9869,14.4757 C28.8889,14.3647 28.9469,14.4607 28.9739,14.5407 C29.0029,14.4897 29.2149,14.7727 29.2499,14.8997 C29.2759,14.7817 29.1469,14.7617 29.1429,14.6517 L29.2479,14.6237 C29.1609,14.4837 29.1109,14.4687 29.1019,14.3327 C29.1229,14.2727 29.1569,14.2907 29.2169,14.2747 C29.2459,14.3497 29.3479,14.4857 29.3029,14.4977 C29.3579,14.5397 29.4019,14.5257 29.3439,14.3767 C29.2169,14.2747 29.3769,14.2037 29.2149,13.9997 L29.3419,14.1027 C29.3279,14.1067 29.3769,14.2037 29.3419,14.1857 C29.4729,14.3977 29.3569,14.0987 29.3669,14.0677 C29.4099,14.0997 29.4739,14.0917 29.5229,14.1747 C29.5099,14.1047 29.5809,14.1297 29.6479,14.2377 C29.6529,14.1807 29.5749,14.0927 29.5459,14.0177 L29.6499,13.9887 C29.7189,14.1097 29.9039,14.4437 29.9139,14.4967 C29.8899,14.3657 29.7379,14.1307 29.7989,14.1147 C29.8899,14.3657 29.9659,14.2617 30.0669,14.5657 C30.1889,14.7237 30.2739,14.6727 30.2899,14.5867 C30.2219,14.3837 30.1809,14.5067 30.0839,14.3127 C30.1839,14.1747 29.9159,13.6407 30.0639,13.6837 L30.0099,13.6427 C30.0159,13.5027 30.0209,13.5297 29.9729,13.3497 C30.0799,13.5967 30.3799,13.9547 30.4559,13.8537 C30.4009,13.7287 30.2779,13.6527 30.1959,13.4557 L30.2459,13.3867 C30.2599,13.4027 30.2739,13.4457 30.2809,13.4817 C30.2979,13.3657 30.5569,13.7347 30.4279,13.4457 L30.6739,13.7647 L30.5709,13.6277 C30.5169,13.5057 30.5679,13.4367 30.5569,13.3827 C30.5589,13.2167 30.6379,13.3067 30.7559,13.4397 C30.6919,13.3467 30.5449,13.1387 30.5799,13.0737 C30.7829,13.4607 30.7709,13.1597 30.8749,13.3607 C30.8939,13.3447 30.9969,13.4457 30.9159,13.2837 L31.0379,13.5257 C30.8669,13.1887 30.9559,13.1637 30.9869,13.0727 C31.2129,13.5347 31.0359,13.0037 31.2819,13.4037 C31.1309,13.0897 31.3279,13.2277 31.1999,12.9587 C31.2399,12.9207 31.3869,13.2107 31.4519,13.3027 L31.4129,13.1767 C31.5129,13.3097 31.6149,13.2867 31.7209,13.3597 L31.6269,13.0627 L31.7109,13.1767 C31.6809,13.1037 31.7019,13.0427 31.6229,12.9537 L31.6579,12.9567 C31.5029,12.6567 31.6519,12.8567 31.6379,12.7017 C31.6759,12.7437 31.7109,12.8167 31.7199,12.8617 C31.7489,12.8517 31.8179,13.0107 31.8849,13.1027 C31.8259,13.0357 31.6989,12.5207 31.5549,12.4217 C31.4869,12.3037 31.4819,12.1927 31.5359,12.2347 L31.6939,12.4927 L31.5759,12.1947 C31.5959,12.1357 31.7049,12.2977 31.7549,12.3127 C31.7289,12.3457 31.9509,12.8637 32.0359,12.8137 C32.0079,12.8717 32.0639,13.0317 32.0689,13.0997 C32.0929,13.1017 32.1159,13.1227 32.1479,13.2497 C32.1729,13.1327 32.0839,13.0747 32.1339,13.0067 C32.2579,13.2477 32.3169,13.3157 32.4209,13.3667 L32.2829,13.2137 C32.2689,13.1837 32.2599,13.1607 32.2569,13.1457 C32.2259,13.1277 32.2019,13.0927 32.1489,13.0027 C32.1639,12.9977 32.0709,12.6657 32.1599,12.8057 C31.8929,12.4677 32.1259,12.4577 31.9629,12.2547 C31.9339,12.1817 31.9739,12.1437 32.0429,12.2607 C32.0819,12.4707 32.2299,12.5117 32.3089,12.6837 C32.2949,12.6047 32.1709,12.5277 32.1509,12.4237 C32.1759,12.3907 32.2799,12.5257 32.3389,12.5917 L32.3479,12.6437 L32.4589,12.7247 C32.4039,12.6017 32.2999,12.5477 32.3149,12.4607 C32.3539,12.5047 32.3699,12.4187 32.4189,12.5147 C32.4829,12.6917 32.6159,12.9007 32.5959,12.9617 C32.6219,12.9277 32.7169,12.8467 32.5519,12.6437 L32.5979,12.6317 C32.5179,12.5437 32.3499,12.3977 32.4149,12.3227 L32.4389,12.3717 L32.3999,12.1627 L32.4909,12.2747 C32.4579,12.2137 32.4369,12.1527 32.4609,12.1477 C32.5049,12.2157 32.5389,12.2347 32.5889,12.3307 C32.6429,12.2887 32.5739,12.1697 32.5449,12.0967 C32.5699,12.0627 32.6099,12.1067 32.6689,12.2547 C32.7319,12.2637 32.7979,12.1917 32.8969,12.3017 C32.9029,12.1627 32.8569,12.2587 32.8069,12.0777 C33.0859,12.4697 33.1009,12.1357 33.1759,12.0317 C32.9529,11.6817 33.1809,11.9767 33.0219,11.6347 C33.0619,11.7607 33.2709,11.8687 33.2359,12.0167 L33.2699,11.9507 C33.4149,12.1327 33.2599,12.1467 33.4639,12.3937 C33.5189,12.3517 33.3449,11.9317 33.4899,12.0287 C33.6029,12.2997 33.4999,11.9167 33.6339,12.2097 C33.6689,12.3107 33.6339,12.2917 33.6239,12.3217 L33.6629,12.3657 C33.8379,12.3737 33.5389,12.0417 33.5139,11.8297 C33.5789,11.7567 33.6879,12.0017 33.7589,12.1197 C33.7979,12.1647 33.8169,12.1037 33.8029,12.0257 C33.8379,12.2077 33.6239,11.9097 33.5589,11.7347 C33.7539,12.0117 33.6939,11.6977 33.6539,11.5707 C33.3699,11.3177 33.5649,11.5967 33.2759,11.3177 C33.3099,11.4177 33.4549,11.6807 33.3309,11.6047 C33.3009,11.4527 33.2489,11.4587 33.2149,11.4217 C33.3079,11.5677 33.2029,11.5077 33.2169,11.5807 C33.1319,11.4667 33.0679,11.2107 32.9679,11.1827 L33.1469,11.5457 C33.0919,11.5057 33.0179,11.2777 33.0089,11.3917 C32.9379,11.1907 32.8439,11.1067 32.8879,11.0117 C32.6349,10.7507 32.8399,11.2447 32.8389,11.4097 C32.8309,11.3857 32.8129,11.3347 32.8029,11.3087 C32.8389,11.4097 32.8089,11.4177 32.7999,11.4487 C32.7099,11.3907 32.7499,11.2697 32.6849,11.1767 L32.6159,11.2237 C32.6079,11.2117 32.6049,11.2057 32.5999,11.1987 C32.6069,11.2577 32.6049,11.2997 32.5509,11.2137 C32.5059,11.0907 32.4589,10.9637 32.4219,10.8627 L32.4759,11.1507 C32.4229,11.0287 32.3029,10.9797 32.3129,10.8657 L32.2239,10.9737 L32.0859,10.7357 C32.0809,10.7927 32.1049,10.8417 32.1539,10.8547 C32.0849,10.8177 32.2039,11.3637 31.9709,10.8777 C31.9859,11.1207 31.9109,11.0587 31.8659,11.2347 C31.8329,10.9707 31.6189,11.0007 31.6539,10.8537 C31.5459,10.7747 31.6739,11.0407 31.6539,11.1017 C31.5599,11.0187 31.4519,10.7727 31.4459,10.6627 L31.4559,10.7977 L31.4309,10.7497 L31.4609,10.9067 C31.3469,10.8007 31.3229,10.6697 31.2589,10.6597 L31.3619,10.8777 L31.2629,10.7697 C31.3279,10.8607 31.3229,10.9177 31.2979,10.9517 L31.2729,10.9027 L31.2539,10.9647 C31.2249,10.8147 31.1909,10.9377 31.1289,10.7757 C31.0879,10.7817 31.0889,10.7847 31.0459,10.8557 L31.1339,10.9957 C31.1179,11.1647 31.0149,10.7807 30.9409,10.8017 L31.0349,10.9677 C30.7879,10.7337 30.9549,11.2097 30.7869,11.0637 C30.8069,11.0037 30.6939,10.8137 30.7179,10.8617 C30.6889,10.9537 30.5649,10.9587 30.6079,11.1937 C30.4559,10.9607 30.4119,10.8907 30.2889,10.8137 C30.2489,10.8527 30.2539,10.8787 30.3129,11.0277 C30.2169,10.9557 30.2049,11.1407 30.1089,10.9637 C30.1729,11.1097 30.0519,10.9557 30.0899,11.0877 L30.0459,11.0187 L30.1389,11.1847 C29.8579,10.8487 30.1129,11.4667 29.8569,11.1787 L29.8469,11.1267 L29.8469,11.2097 C29.8029,11.1397 29.7939,11.0867 29.7449,10.9887 L29.5669,11.0387 L29.6649,11.1497 C29.6399,11.1837 29.7029,11.3587 29.6099,11.2747 C29.5419,10.9897 29.5509,11.2907 29.4379,11.1017 L29.4379,11.0177 C29.3989,11.0567 29.3989,11.0567 29.4919,11.2247 C29.4619,11.3147 29.2809,10.9237 29.3189,11.1337 L29.3639,11.1207 C29.4269,11.2137 29.4709,11.3667 29.4419,11.3757 C29.4219,11.3527 29.3629,11.2867 29.3729,11.2557 C29.3579,11.3437 29.2399,11.2927 29.2549,11.3707 C29.1999,11.3317 29.1459,11.2077 29.1359,11.1547 C29.1109,11.3557 29.0729,11.1467 29.0469,11.3447 L28.9979,11.2477 L29.0219,11.3797 L28.8649,11.2017 L28.9479,11.3177 C28.9239,11.3517 28.9369,11.4297 28.8689,11.3937 L28.8109,11.2437 C28.7559,11.3697 28.5749,11.0607 28.5889,11.3057 C28.5689,11.2817 28.5589,11.2307 28.5539,11.2037 C28.5879,11.4697 28.3579,10.9827 28.4159,11.2967 C28.3959,11.2457 28.3559,11.1917 28.3379,11.1497 L28.3469,11.2607 L28.2499,11.0677 L28.3669,11.3657 L28.2389,11.1797 L28.2719,11.2797 C28.0389,10.9317 28.1259,11.2377 27.9259,10.9897 L28.0609,11.2287 C28.1809,11.8017 27.5899,11.1087 27.5389,11.4257 L27.4419,11.2327 L27.4889,11.4937 C27.3719,11.3607 27.4259,11.3177 27.3629,11.2257 C27.3419,11.3687 27.4789,11.5257 27.4189,11.6237 C27.3059,11.5167 27.3609,11.4747 27.3459,11.3957 C27.3129,11.5307 27.2459,11.6977 27.1319,11.6197 C27.1439,11.6467 27.1579,11.6817 27.1669,11.6917 C27.1559,11.8057 27.0389,11.7547 26.9839,11.7977 C26.9399,11.7077 26.9479,11.6867 26.9539,11.6607 C26.9249,11.6597 26.8639,11.6127 26.8919,11.7127 L26.8289,11.5357 C26.7649,11.5257 26.7539,11.7217 26.6419,11.5307 C26.6859,11.6027 26.7589,11.7487 26.7139,11.7597 C26.5399,11.4767 26.6679,11.9387 26.5219,11.8127 C26.4929,11.7377 26.5329,11.6997 26.5169,11.7027 C26.4449,11.6417 26.4869,11.7937 26.5059,11.8997 L26.4539,11.7757 L26.3869,12.0147 C26.2129,11.7317 26.2669,12.1287 26.1669,11.9087 C26.1079,11.9257 26.2789,12.0167 26.2289,12.0837 C26.1469,11.9707 26.1979,12.1747 26.1019,11.9817 L26.0969,11.9547 L26.0579,11.9937 L25.9909,11.7907 C25.9709,11.8517 26.0379,12.0557 26.1099,12.1997 C26.0169,12.1137 26.0069,12.2277 25.8999,12.0657 L25.8909,12.0117 C25.8209,12.1417 25.4439,11.5817 25.5239,11.9457 C25.5039,11.9227 25.4799,11.8747 25.4949,11.8697 L25.4209,11.8917 L25.3639,11.7407 L25.3649,12.0167 L25.3169,11.9187 C25.2239,11.9167 25.1339,12.0247 25.0549,12.1007 L25.0459,12.0477 C25.0189,12.2477 24.8989,12.0047 24.8789,12.1497 C24.8679,12.1217 24.8659,12.1107 24.8649,12.1047 L24.7999,12.1427 L24.7659,12.0407 C24.8229,12.2747 24.4849,11.8417 24.6049,12.0017 C24.6239,12.1077 24.6319,12.2427 24.6839,12.3657 C24.6149,12.4137 24.6019,12.2507 24.5139,12.1927 C24.4569,12.2087 24.5319,12.3797 24.4149,12.3297 L24.3669,12.2327 C24.3419,12.2667 24.3559,12.3467 24.3159,12.3847 L24.3069,12.3307 C24.3339,12.5717 24.0659,12.0947 24.2199,12.5477 C24.1479,12.4847 24.1179,12.5757 24.0219,12.3807 C23.9909,12.5547 23.9449,12.6507 23.8889,12.7757 C23.7129,12.4657 23.8799,12.8067 23.7289,12.6527 L23.8199,12.8207 C23.6969,12.9117 23.3289,12.5677 23.2159,12.7117 L23.1249,12.5427 L23.1899,12.7447 C22.9889,12.7447 22.7489,12.7817 22.6209,12.8437 C22.6239,12.9537 22.6639,13.1907 22.5669,13.1627 L22.5619,13.1357 C22.4959,13.2917 22.4099,13.4247 22.2349,13.3907 C22.2069,13.3147 22.1689,13.2707 22.1599,13.2167 C22.2239,13.4207 22.0909,13.2637 22.0609,13.2727 L22.1569,13.3837 C22.2029,13.5647 22.0729,13.4347 21.9919,13.3177 L22.0279,13.5297 C22.0149,13.5147 21.9959,13.4907 21.9809,13.4637 L22.0169,13.5597 L21.8739,13.3497 C21.8829,13.4017 21.8369,13.4977 21.9219,13.7247 C21.8789,13.6527 21.7969,13.6197 21.8169,13.5597 L21.5769,13.5967 L21.6489,13.6597 C21.7379,13.8287 21.7299,13.9687 21.6589,13.9057 C21.6329,13.7467 21.5409,13.6617 21.4599,13.5447 C21.4779,13.6507 21.5599,13.6837 21.5919,13.7847 C21.6139,13.9167 21.5689,14.0137 21.5109,13.9457 L21.4989,13.8667 C21.4819,13.9537 21.3109,13.6687 21.2709,13.7057 C21.2979,13.8647 21.2029,13.7537 21.3579,14.0427 C21.3269,14.1337 21.2349,13.8557 21.2009,13.8367 C21.2419,13.9907 21.1109,13.9437 21.0259,13.8007 C21.2069,14.2487 20.7829,13.7287 20.9509,14.0967 L20.7989,13.9177 C20.8449,14.0157 20.9439,14.2377 20.9229,14.2987 C20.8319,14.2127 20.7569,14.0387 20.6959,13.9447 L20.8489,14.3187 C20.4349,14.0437 20.2699,14.4477 19.8699,14.2517 C19.7989,14.3827 19.7449,14.6177 19.5929,14.6307 L19.5849,14.5777 L19.4099,14.5427 L19.5829,14.6617 C19.5759,14.7177 19.5899,14.7987 19.5599,14.8067 C19.3469,14.7257 19.0729,14.6347 18.9929,14.9037 C19.0879,15.3757 18.7389,14.5717 18.7819,14.9287 C18.7689,14.8867 18.7489,14.8237 18.7349,14.7797 C18.6889,14.9757 18.6629,15.0777 18.6689,15.3797 C18.4789,14.9607 18.5989,15.4257 18.5029,15.2037 L18.5759,15.3767 C18.5009,15.2867 18.4229,15.2797 18.3729,15.1547 L18.4249,15.3907 L18.3369,15.2207 C18.2629,15.2397 18.1889,15.4537 17.9839,15.1227 C17.9459,15.4647 17.6479,15.5187 17.4089,15.5557 C17.4479,15.7107 17.3929,15.7527 17.3529,15.7907 L17.2029,15.6107 C17.1849,15.6977 17.2599,15.9827 17.1519,15.8727 C17.1399,15.8497 17.1339,15.8307 17.1319,15.8177 C17.1029,15.8847 17.0039,15.7987 17.0499,16.0117 C16.9919,16.0267 16.8859,15.9437 16.8099,15.7447 C16.9699,16.0887 16.6739,15.7537 16.6739,15.7537 C16.6739,15.7537 13.5389,16.2997 13.7499,18.4967 C13.8059,18.6767 13.7959,18.8177 13.9149,19.0077 C13.8969,19.0957 13.7339,18.8077 13.8039,18.9817 C13.9229,19.0617 13.9909,19.4297 14.1549,19.6087 L14.1329,19.6697 C14.1819,19.7947 14.1249,19.5047 14.2169,19.7297 L14.0799,19.4067 C14.1359,19.4377 14.1849,19.4947 14.2479,19.5967 C14.2199,19.4567 14.0379,19.0187 14.2009,19.1667 L14.1899,19.1967 C14.2449,19.1537 14.3239,19.3817 14.3609,19.4277 L14.3459,19.4317 L14.4729,19.5657 C14.3839,19.4787 14.4409,19.7677 14.4659,19.7327 C14.5809,19.7837 14.4109,19.6647 14.4469,19.5987 C14.4729,19.5657 14.5439,19.7387 14.5889,19.8377 L14.6429,19.7947 C14.7119,19.9427 14.5989,19.8077 14.6959,19.9467 L14.6989,19.7517 C14.8889,20.1167 14.6979,19.5307 14.8989,19.8637 C14.8849,19.9797 14.9639,19.9857 15.0109,20.1107 L15.1359,20.0227 C15.1749,20.0677 15.1559,20.1537 15.1679,20.1247 C15.2419,20.2147 15.1659,20.0137 15.1809,20.0097 C15.2409,20.1057 15.2799,19.9537 15.3929,20.2027 C15.5639,20.3207 15.2839,19.8707 15.4359,19.9677 C15.5179,20.1117 15.3839,20.0377 15.4969,20.1727 L15.5589,20.0727 C15.5859,20.1507 15.6569,20.3237 15.6079,20.3087 C15.9419,20.3857 16.4479,21.1077 16.5719,20.7957 C16.6879,20.9577 16.6059,20.9267 16.6399,21.0547 C16.6869,20.7377 17.0509,21.3317 17.1759,21.2417 L17.1089,21.0947 C17.5159,21.4537 17.6139,21.0677 17.9199,21.1497 L17.8439,21.0597 C17.8059,20.9027 17.8459,20.8647 17.8499,20.7807 C17.8909,20.8527 17.9749,21.1077 18.0089,21.0157 C17.9699,20.9697 17.9179,20.9277 17.8909,20.8527 C18.2589,21.1417 18.6019,20.8517 18.9939,20.8837 C19.3479,20.5657 19.9299,20.6277 20.2889,20.3357 C20.2329,20.3787 20.0839,20.0047 20.1709,20.0647 C20.5949,20.6127 20.3389,19.8527 20.6719,20.2037 C20.8089,19.8907 21.2789,20.3147 21.2659,19.7367 L21.3559,19.9067 C21.4259,19.9697 21.3769,19.8457 21.4029,19.8107 L21.4249,19.8597 C21.5379,19.8837 21.5499,19.6597 21.6359,19.7187 L21.5439,19.5237 C21.5839,19.4837 21.6429,19.6607 21.6369,19.5257 L21.6839,19.6237 L21.6499,19.4107 C21.8119,19.7537 21.7999,19.3697 21.9139,19.5047 C21.9459,19.4117 21.9909,19.2057 22.1189,19.2277 C22.2219,19.3937 22.3369,19.3327 22.4539,19.3847 C22.5759,19.2687 22.7529,19.1087 22.9659,19.0787 L22.8519,18.8597 L22.8929,18.8217 C22.9169,18.8707 22.9349,18.8927 22.9399,18.9197 C23.1009,19.1507 23.0109,18.7877 23.1269,18.9237 C23.0039,18.7357 23.0779,18.9087 23.0489,18.9177 C22.9569,18.8327 22.8879,18.6017 22.9959,18.6837 L23.0179,18.7327 L22.9969,18.5987 C23.0869,18.7687 23.1589,18.8317 23.2479,19.0007 C23.3839,18.8807 23.3439,18.5317 23.5469,18.5317 C23.6249,18.7317 23.6379,18.4247 23.7719,18.7747 C23.8059,18.5997 23.6209,18.5127 23.5479,18.2547 C23.5779,18.2467 23.5599,18.1417 23.6269,18.2617 C23.6539,18.3487 23.7509,18.4527 23.7429,18.4947 L23.7959,18.4367 C23.8139,18.4587 23.8229,18.5127 23.8269,18.5377 C23.8629,18.2787 24.1709,18.6377 24.1919,18.3837 C24.1399,18.2597 24.1279,18.3737 24.0759,18.2487 C24.0729,17.9447 24.2899,18.4117 24.3139,18.1837 L24.3749,18.3597 C24.3529,18.2287 24.2979,18.0777 24.4239,18.1817 C24.5319,18.3727 24.4539,18.3667 24.4699,18.4727 C24.5149,18.4597 24.5919,18.3577 24.4719,18.1957 C24.4889,18.1077 24.5939,18.2737 24.6469,18.3137 C24.6239,18.2647 24.5359,18.2047 24.5189,18.1007 C24.6399,18.1777 24.7409,18.1217 24.8299,18.0987 C24.8529,18.1467 24.8959,18.2177 24.9009,18.2437 C24.8389,17.9577 25.0509,18.3967 25.1129,18.2967" id="Fill-134" fill="#DD6343"></path>
                <path d="M28.9147,15.1288 L28.8667,15.1148 C28.8887,15.1578 28.9127,15.2078 28.9227,15.2638 L28.9147,15.1288 Z" id="Fill-136" fill="#DD6343"></path>
                <path d="M27.3053,15.784 C27.3103,15.801 27.3143,15.817 27.3213,15.843 C27.3243,15.83 27.3163,15.806 27.3053,15.784" id="Fill-138" fill="#DD6343"></path>
                <path d="M27.1051,16.3153 C27.1101,16.2593 27.0601,16.2193 27.0211,16.1763 C27.0411,16.2153 27.0651,16.2623 27.1051,16.3153" id="Fill-140" fill="#DD6343"></path>
                <path d="M29.5231,14.1747 C29.5271,14.1957 29.5371,14.2237 29.5591,14.2637 C29.5481,14.2247 29.5371,14.1977 29.5231,14.1747" id="Fill-142" fill="#DD6343"></path>
                <path d="M32.0143,13.0975 C32.0063,13.0895 32.0003,13.0845 31.9893,13.0735 C31.9983,13.0855 32.0063,13.0935 32.0143,13.0975" id="Fill-144" fill="#DD6343"></path>
                <path d="M31.7204,12.8622 C31.7134,12.8642 31.7074,12.8762 31.7074,12.9032 C31.7254,12.9082 31.7254,12.8882 31.7204,12.8622" id="Fill-146" fill="#DD6343"></path>
                <path d="M28.9743,14.5409 C28.9683,14.5519 28.9673,14.5699 28.9803,14.6149 C28.9923,14.6029 28.9853,14.5729 28.9743,14.5409" id="Fill-148" fill="#DD6343"></path>
                <path d="M31.7018,12.9598 L31.6578,12.9568 C31.6648,12.9698 31.6688,12.9788 31.6778,12.9948 L31.7018,12.9598 Z" id="Fill-150" fill="#DD6343"></path>
                <path d="M32.069,13.0995 C32.052,13.1005 32.035,13.1095 32.014,13.0975 C32.059,13.1415 32.073,13.1355 32.069,13.0995" id="Fill-152" fill="#DD6343"></path>
                <path d="M30.2809,13.4813 L30.2799,13.4873 C30.2969,13.5843 30.2949,13.5403 30.2809,13.4813" id="Fill-154" fill="#DD6343"></path>
                <polygon id="Fill-156" fill="#DD6343" points="31.7292 13.3641 31.7212 13.3591 31.7392 13.4171"></polygon>
                <path d="M32.2545,13.1014 C32.2505,13.1094 32.2495,13.1204 32.2565,13.1454 L32.2875,13.1574 C32.2735,13.1324 32.2635,13.1164 32.2545,13.1014" id="Fill-158" fill="#DD6343"></path>
                <path d="M30.944,13.5243 C30.916,13.4483 30.893,13.3973 30.875,13.3613 C30.865,13.3693 30.875,13.4053 30.944,13.5243" id="Fill-160" fill="#DD6343"></path>
            </g>
        </g>
    </g>
</svg>