<?xml version="1.0" encoding="UTF-8"?>
<svg width="40px" height="70px" viewBox="0 0 40 70" version="1.1" xmlns="http://www.w3.org/2000/svg" xmlns:xlink="http://www.w3.org/1999/xlink">
    <!-- Generator: Sketch 51.2 (57519) - http://www.bohemiancoding.com/sketch -->
    <title>number_6</title>
    <desc>Created with Sketch.</desc>
    <defs>
        <polygon id="path-1" points="6.81298364e-05 0.766848147 37.482 0.766848147 37.482 57.999525 6.81298364e-05 57.999525"></polygon>
        <polygon id="path-3" points="0.8759 0.9003 1.482 0.9003 1.482 1.9003 0.8759 1.9003"></polygon>
    </defs>
    <g id="Page-1" stroke="none" stroke-width="1" fill="none" fill-rule="evenodd">
        <g id="切图" transform="translate(-628.000000, -426.000000)">
            <g id="6" transform="translate(628.000000, 426.000000)">
                <path d="M33.3038,44.555 C33.2798,44.566 33.2528,44.583 33.2208,44.611 C33.2618,44.595 33.2868,44.576 33.3038,44.555" id="Fill-1" fill="#DD6343"></path>
                <path d="M33.3165,50.4075 L33.3465,50.3005 C33.3085,50.3545 33.3045,50.3855 33.3165,50.4075" id="Fill-3" fill="#DD6343"></path>
                <path d="M29.2178,40.7405 C29.2298,40.7385 29.2328,40.7335 29.2418,40.7295 C29.1758,40.6755 29.0848,40.6005 28.9378,40.4795 L29.2178,40.7405 Z" id="Fill-5" fill="#DD6343"></path>
                <path d="M16.92,58.304 L17.034,58.293 C16.982,58.295 16.948,58.287 16.92,58.304" id="Fill-7" fill="#DD6343"></path>
                <path d="M27.4044,55.2171 C27.3964,55.2711 27.3554,55.3151 27.3144,55.3571 C27.3794,55.3231 27.4234,55.2851 27.4044,55.2171" id="Fill-9" fill="#DD6343"></path>
                <path d="M27.9561,37.2669 L28.0171,37.4799 C28.0481,37.4259 28.0341,37.3389 27.9561,37.2669" id="Fill-11" fill="#DD6343"></path>
                <path d="M22.4512,34.9505 C22.4512,34.9625 22.4492,34.9715 22.4522,34.9865 C22.4662,34.9775 22.4612,34.9655 22.4512,34.9505" id="Fill-13" fill="#DD6343"></path>
                <path d="M24.2784,36.4466 C24.3274,36.4586 24.3894,36.4636 24.4514,36.4676 C24.3884,36.4396 24.3104,36.3976 24.2784,36.4466" id="Fill-15" fill="#DD6343"></path>
                <path d="M24.5372,36.472 L24.4512,36.468 C24.4922,36.484 24.5262,36.495 24.5372,36.472" id="Fill-17" fill="#DD6343"></path>
                <path d="M34.6397,8.1839 C34.7627,8.0719 34.7867,7.8939 34.8307,7.7259 L34.6397,8.1839 Z" id="Fill-19" fill="#DD6343"></path>
                <path d="M6.5928,52.4046 L6.6508,52.4366 C6.6318,52.4076 6.6128,52.4006 6.5928,52.4046" id="Fill-21" fill="#DD6343"></path>
                <path d="M33.9141,7.1546 L34.0181,7.0926 C33.9711,7.1066 33.9381,7.1286 33.9141,7.1546" id="Fill-23" fill="#DD6343"></path>
                <path d="M30.7628,38.7747 C30.9858,38.7667 31.1688,39.1117 31.2478,39.0037 C31.0898,38.9097 30.9438,38.6707 30.7628,38.7747" id="Fill-25" fill="#DD6343"></path>
                <path d="M1.6622,48.1077 L1.6752,47.9857 C1.6642,48.0427 1.6612,48.0797 1.6622,48.1077" id="Fill-27" fill="#DD6343"></path>
                <path d="M33.9141,7.1546 L33.7931,7.2266 C33.8201,7.2376 33.8461,7.2416 33.8721,7.2476 C33.8791,7.2126 33.8931,7.1796 33.9141,7.1546" id="Fill-29" fill="#DD6343"></path>
                <path d="M12.2217,35.7923 L12.2177,35.7983 C12.2187,35.8133 12.2197,35.8253 12.2207,35.8433 L12.2217,35.7923 Z" id="Fill-31" fill="#DD6343"></path>
                <path d="M12.921,35.0735 C12.899,35.1385 12.877,35.2035 12.853,35.2745 C12.922,35.1885 12.931,35.1265 12.921,35.0735" id="Fill-33" fill="#DD6343"></path>
                <path d="M34.8311,7.7259 L34.9401,7.4629 C34.8841,7.5409 34.8541,7.6319 34.8311,7.7259" id="Fill-35" fill="#DD6343"></path>
                <path d="M18.8975,26.3098 C18.8785,26.3388 18.8625,26.3668 18.8495,26.3968 C18.8765,26.3648 18.8925,26.3358 18.8975,26.3098" id="Fill-37" fill="#DD6343"></path>
                <path d="M28.0518,54.9036 C28.0778,54.9016 28.1098,54.8906 28.1378,54.8846 C28.1278,54.8526 28.1108,54.8376 28.0518,54.9036" id="Fill-39" fill="#DD6343"></path>
                <polygon id="Fill-41" fill="#DD6343" points="22.8253 61.4456 22.8223 61.4466 22.8233 61.4496"></polygon>
                <path d="M23.1846,61.1575 C23.0466,61.1655 22.8936,61.3165 22.8256,61.4455 C22.9556,61.4075 23.0696,61.3425 23.1846,61.1575" id="Fill-43" fill="#DD6343"></path>
                <path d="M21.919,61.6389 C21.937,61.6399 21.951,61.6409 21.973,61.6419 C21.952,61.6369 21.936,61.6359 21.919,61.6389" id="Fill-45" fill="#DD6343"></path>
                <polygon id="Fill-47" fill="#DD6343" points="29.9385 58.3645 29.9295 58.3515 29.9325 58.3655"></polygon>
                <path d="M28.4669,59.2766 C28.4269,59.2676 28.3789,59.2686 28.3319,59.2786 C28.3709,59.2886 28.4169,59.2906 28.4669,59.2766" id="Fill-49" fill="#DD6343"></path>
                <polygon id="Fill-51" fill="#DD6343" points="17.7774 62.8509 17.7784 62.8439 17.7694 62.8479"></polygon>
                <g id="Group-55" transform="translate(1.000000, 5.900800)">
                    <mask id="mask-2" fill="white">
                        <use xlink:href="#path-1"></use>
                    </mask>
                    <g id="Clip-54"></g>
                    <path d="M0.4659,50.954 C0.7929,51.926 1.3879,53.07 2.2679,54.087 C3.1369,55.112 4.3379,55.923 5.2949,56.399 C5.8409,56.34 6.4339,56.559 7.0239,56.663 L6.9779,57.049 L7.4889,57.059 C7.6539,57.222 7.1069,57.036 7.4119,57.264 L7.6489,57.077 C7.6589,57.228 8.8039,57.422 7.9809,57.528 C8.5749,57.667 9.1469,57.728 9.7319,57.828 C10.1159,57.899 9.9999,57.547 10.4099,57.705 C10.4839,57.829 10.2489,57.758 10.2669,57.899 C11.5319,58.311 11.8119,57.309 12.9689,57.53 L12.8669,57.581 C13.0699,57.479 13.4489,57.493 13.4549,57.438 C13.3099,57.052 13.2409,57.647 12.8879,57.419 C12.9279,57.094 13.3349,57.244 13.3159,56.997 C13.5839,57.115 13.7439,56.931 13.9789,56.911 C14.3829,57.126 14.9529,56.959 15.2699,57.18 C15.4609,57.062 15.6569,56.728 16.0719,56.683 C16.3959,56.914 16.0229,56.931 16.4439,56.995 L16.4889,56.802 C16.8279,56.805 16.7799,56.849 16.7779,56.943 C17.1389,56.899 17.0439,56.643 17.5059,56.698 L17.2799,56.916 C17.6039,56.796 17.7419,56.808 18.2069,56.756 C18.2149,56.864 18.0279,56.885 17.8869,56.874 C18.1839,57.112 18.2989,56.69 18.4379,56.7 C18.3849,56.625 18.0609,56.636 18.1849,56.429 C18.4189,56.43 18.6209,56.108 18.8199,56.286 L18.6089,56.516 C19.0519,56.273 18.8149,56.231 19.3639,56.185 C19.3379,56.206 19.3619,56.249 19.3589,56.29 C19.6459,55.977 20.1359,56.1 20.6419,55.996 L20.5609,56.07 C20.7449,55.954 20.8089,55.756 20.9189,55.738 C20.6119,55.716 20.6739,55.64 20.6029,55.472 C21.0519,55.664 21.0619,54.96 21.7019,54.963 C21.7249,55.068 21.6189,55.236 21.4229,55.175 C21.3099,55.542 21.3609,55.809 21.0279,56.063 C21.2399,55.924 21.4979,55.801 21.4789,55.947 L21.4669,55.641 C21.6039,55.593 21.7179,55.577 21.8219,55.546 C21.8249,55.349 21.4549,55.334 21.7369,55.122 C22.0639,54.925 22.0189,55.356 22.0329,55.212 C22.4899,54.951 22.1399,54.856 22.6329,54.779 C22.5959,54.819 22.5229,54.901 22.4739,54.89 C22.8449,54.88 23.2679,54.537 23.4919,54.835 C23.4709,54.929 23.4989,55.033 23.3609,55.052 L23.3469,54.999 C23.0679,55.38 23.6309,54.817 23.6289,55.162 C23.5349,54.992 24.0249,54.856 24.2509,54.808 L24.1009,54.631 C24.5459,53.739 24.2309,55.056 24.8869,54.673 C25.2629,54.34 24.6979,54.69 24.9029,54.429 C25.2099,54.331 25.4029,54.459 25.7919,54.177 C25.9489,54.201 26.2459,54.194 26.3759,54.403 C26.5889,54.183 27.2079,54.082 27.2409,53.794 C26.7089,53.845 26.9249,54.262 26.2659,54.244 L26.3039,53.957 C26.6599,53.78 27.0499,53.433 27.3319,53.378 C27.2609,53.363 27.2089,53.321 27.2149,53.26 C27.6659,52.911 27.6909,52.639 28.1829,52.404 C28.3579,52.553 28.0679,52.692 27.8799,52.833 C28.2689,52.795 28.1989,52.647 28.6989,52.415 C28.8259,52.561 28.3809,52.602 28.4259,52.797 L28.9089,52.418 C28.9129,52.429 28.9219,52.438 28.9299,52.451 C28.8299,52.135 29.3379,52.225 29.5999,51.944 C30.3179,51.425 30.1689,50.993 30.3979,50.507 C30.5539,50.499 30.6349,50.54 30.6399,50.637 C30.3819,50.651 30.4809,50.717 30.4709,50.828 C30.6859,50.628 31.1839,50.69 31.1309,50.891 C31.4529,50.535 30.8899,50.859 31.0599,50.609 L31.5659,50.21 C31.4029,50.133 31.2089,50.252 31.3809,49.94 C31.5639,49.725 31.6859,49.662 31.9689,49.433 C31.9829,49.527 32.2219,49.544 32.0059,49.716 C32.1819,49.646 32.3989,49.471 32.3709,49.283 C31.9779,49.442 32.7609,48.74 32.3639,48.752 L32.7479,48.581 C32.6819,48.641 32.7489,48.727 32.6319,48.799 C32.8839,48.899 32.8149,48.517 32.8959,48.404 C33.0289,48.34 33.3019,48.099 33.3919,48.143 C33.4319,48.007 33.6889,47.827 33.8219,47.872 C33.9199,47.706 33.7149,47.751 33.6949,47.657 C33.8459,47.509 33.9849,47.348 34.1299,47.193 C34.2549,47.259 34.5769,47.471 34.5519,47.58 C34.6169,47.308 34.3049,47.244 34.5539,46.975 C34.6169,47.309 35.0289,46.737 35.0699,47.177 C35.3569,47.138 35.7689,46.675 35.9009,46.349 C35.8579,46.051 35.5889,46.569 35.4319,46.417 C35.9309,45.608 35.4779,45.214 35.9599,44.731 L35.8069,44.838 C35.9519,44.427 35.9499,44.488 35.9359,44.178 C36.0179,44.297 36.2279,44.311 36.4859,44.163 C36.7609,43.983 37.0859,43.616 37.2299,43.146 C37.1339,43.044 36.7789,43.558 36.6389,43.338 C36.7089,43.155 36.7679,42.971 36.8149,42.784 C36.8469,42.749 36.8739,42.819 36.8819,42.9 C36.9649,42.4 37.4409,41.951 37.1249,41.785 C37.2629,41.603 37.3799,41.406 37.4829,41.195 L37.3419,41.44 C37.2149,41.368 37.0659,40.778 36.9559,40.681 C36.6069,40.151 36.5879,39.95 36.5509,39.568 C36.5179,39.722 36.4299,40.042 36.1409,39.685 C36.3309,39.575 36.2179,39.347 36.0659,39.141 C35.9019,38.919 35.7779,38.806 35.8609,38.726 C35.7499,38.61 35.6689,38.328 35.5259,38.44 L35.7399,38.272 C35.4389,38.508 35.0859,38.103 34.7499,37.862 C35.1809,37.565 34.4049,37.573 34.6059,37.112 C34.3089,37.304 33.9859,36.706 33.7289,36.872 C33.4899,36.668 33.7359,36.452 33.7529,36.315 L33.5569,36.31 C33.5509,36.084 33.1299,35.666 32.9429,35.346 L32.4919,35.361 L32.4929,35.177 C32.4019,35.201 32.1669,35.058 32.2189,35.255 L32.0979,35.126 C31.8659,35.374 31.8549,35.03 31.4879,34.918 C31.4609,34.824 31.5289,34.776 31.6169,34.791 C31.4849,34.676 31.6529,34.592 31.6509,34.443 C31.6909,34.588 30.7789,34.506 31.0459,34.924 C30.9829,35.05 30.7089,34.954 30.6159,34.798 L30.7269,34.497 L30.3659,34.616 C30.1299,34.486 30.1599,34.264 30.0119,34.102 C30.1959,34.224 30.7639,33.953 30.3029,33.6 C30.5669,33.758 30.7889,33.719 30.9529,33.767 C30.8659,33.683 30.8369,33.623 31.0649,33.64 C30.6479,33.43 30.8289,33.69 30.4519,33.441 C30.6379,33.244 30.5939,33.097 30.3369,32.778 L30.4489,33.119 C30.4179,33.137 30.3879,33.142 30.3609,33.142 C30.4299,33.234 30.4289,33.287 30.3839,33.384 C30.3159,33.325 29.7689,33.328 29.8069,33.155 C29.9099,33.76 28.9829,32.945 29.0599,33.321 C28.9729,33.354 28.7149,33.182 28.7699,33.053 C29.1899,33.11 28.7279,32.635 28.8849,32.52 C28.7259,32.502 29.0049,32.855 28.7929,32.827 C28.6009,32.714 28.5659,32.483 28.5129,32.341 L28.6179,32.353 L28.4059,32.055 C28.2819,32.132 28.5469,32.435 28.2469,32.309 C28.2109,32.215 27.9109,32.088 27.9809,32.005 C28.2109,31.939 28.2619,31.673 28.5119,31.793 C28.3189,31.673 27.6999,31.295 27.7989,31.669 L27.5799,31.512 C27.6579,31.701 27.9329,32.132 27.4649,31.864 L27.4989,31.822 L27.0739,31.786 L27.0169,31.579 C26.9829,31.639 26.8999,31.659 26.7869,31.578 C26.8019,31.49 26.7099,31.391 26.7779,31.306 C26.4289,31.102 26.3829,31.236 26.2969,31.275 C26.0969,31.174 26.0549,31.08 26.2289,31.001 C25.9859,30.806 25.5099,30.552 25.3959,30.327 C24.9749,30.225 25.4409,30.418 25.1389,30.456 C25.0719,29.857 24.0279,29.622 23.4019,29.366 C23.3799,29.818 23.2139,29.325 22.9349,29.612 C23.1249,29.558 22.4939,29.046 23.0819,29.198 L22.7349,29.08 C22.6059,28.767 23.3549,29.187 23.1479,28.743 C22.7639,28.58 22.3419,28.861 21.9539,28.539 C22.2209,28.334 21.5709,28.482 21.8099,28.233 C21.9449,28.176 22.0579,28.259 22.1949,28.292 L22.1389,28.205 C21.3279,27.77 21.7589,28.42 21.2469,28.422 C20.7279,28.249 20.9249,28.052 20.9459,27.908 C20.8849,27.825 20.6039,27.77 20.4409,27.792 C20.8229,27.741 20.9659,28.18 20.7529,28.3 C20.6429,27.903 19.9919,27.993 19.8139,28.068 C20.4279,28.668 20.3199,28.269 20.8649,28.874 C20.9939,28.814 21.0909,28.53 21.4459,28.814 C21.1379,28.845 21.3999,28.975 21.4509,29.05 C21.4419,28.858 21.7559,29.101 21.9059,29.087 C21.9589,29.262 21.5089,29.351 21.8799,29.584 L22.1209,29.25 C22.2499,29.379 21.9329,29.489 22.2999,29.558 C22.0339,29.667 22.2149,29.878 21.7479,29.732 C22.1249,30.291 22.6249,29.941 23.1039,30.009 C23.0509,30.009 23.0219,30.056 22.9689,30.06 C23.1049,30.006 23.2549,30.097 23.3849,30.138 C23.6069,30.358 23.0919,30.189 23.1109,30.325 L23.5399,30.541 C23.5419,30.557 23.5409,30.564 23.5369,30.571 C23.6739,30.582 23.7989,30.606 23.7889,30.715 C23.6019,30.764 23.4879,30.856 23.3559,30.905 L23.9319,30.892 C23.8209,30.979 24.1789,31.295 23.8229,31.205 L24.4889,31.523 L24.4049,31.792 C24.5819,31.837 24.6139,31.793 24.4479,31.659 C24.6349,31.83 25.6539,31.824 25.2579,32.216 C25.8679,32.329 25.9979,32.514 26.6559,32.791 C26.0699,32.702 26.9899,33.397 26.4519,33.179 C26.6599,33.463 26.8869,33.252 27.1259,33.368 C27.2609,33.607 27.0169,33.763 26.7449,33.693 L27.0699,33.77 L27.0329,33.811 L27.3429,33.841 C27.4909,34.126 27.2339,34.1 27.4509,34.301 L27.6459,34.142 L27.7249,34.372 C27.7299,34.237 27.8989,34.303 28.0819,34.417 L28.0459,34.458 L28.2819,34.577 C27.9879,34.54 28.4419,34.762 28.2419,34.829 C28.4119,34.974 28.4209,34.97 28.7649,35.182 L28.8109,35.007 C29.3119,35.22 28.6769,35.215 29.0009,35.489 L29.0979,35.323 C29.3799,35.948 30.0229,35.833 30.2399,36.282 C30.0119,36.15 29.9219,36.363 29.9599,36.324 C30.3079,36.516 30.7499,36.97 31.2059,37.062 C31.1339,37.365 31.1069,37.449 31.3259,37.819 C31.5589,38.008 31.6089,38.017 31.7889,37.966 C31.9339,38.236 32.4309,38.501 32.3039,38.654 C32.4619,38.586 32.4709,38.855 32.6779,38.87 L32.6449,38.953 L32.7599,38.799 C32.8199,39.464 33.5499,39.239 33.6369,39.875 L33.5379,39.846 L33.7419,39.951 C33.7049,40.033 33.6079,40.005 33.5209,40.072 C33.7309,40.304 33.9979,40.614 34.0859,40.745 L34.1199,40.562 C34.2189,40.648 34.4379,40.624 34.4319,40.819 C34.0329,40.75 34.5489,41.005 34.3509,41.135 L34.2179,41.058 C34.3199,41.192 34.3169,41.197 34.4949,41.113 C34.6649,41.32 34.2039,41.36 34.4679,41.507 C34.4589,41.459 34.4499,41.411 34.4369,41.364 C34.5309,41.291 34.7319,41.357 34.7509,41.474 C34.7259,41.507 34.6529,41.592 34.6119,41.516 C34.7369,41.697 34.5989,41.987 34.6519,42.073 C34.5659,42.167 34.4379,42.106 34.3969,42.053 C34.4519,42.442 34.3249,42.194 34.3189,42.594 L34.2229,42.543 C34.2409,42.598 34.2589,42.655 34.2729,42.714 C34.1759,42.729 34.0789,42.74 33.9569,42.788 L34.1289,42.779 C34.0469,42.945 34.0399,43.095 33.8429,43.252 L33.7689,43.084 C33.4969,43.601 33.1549,43.462 33.0139,44.036 C32.9689,44.049 32.9789,43.949 32.9839,43.899 C32.8829,44.463 32.5429,44.034 32.4479,44.609 C32.4269,44.552 32.3389,44.551 32.3169,44.507 L32.2459,44.748 L32.0919,44.595 L32.2119,44.944 L31.9499,44.905 L31.9709,45.042 C31.4919,44.946 31.5229,45.437 31.0479,45.45 L31.2869,45.599 C31.1919,46.093 30.7819,46.388 30.3439,46.66 C29.8869,46.919 29.3789,47.132 29.0779,47.568 L28.9549,47.39 C28.9019,47.544 28.8549,47.709 28.7899,47.855 C28.5019,47.855 28.7849,47.63 28.6589,47.585 C28.3709,47.944 28.7059,47.947 28.3189,48.309 C28.0139,48.353 28.2989,48.126 28.3529,47.99 C28.0209,48.36 27.5139,48.915 27.1379,48.984 C27.1479,49.013 27.1509,49.056 27.1729,49.057 C26.9459,49.315 26.5249,49.468 26.2259,49.675 C26.1819,49.584 26.2489,49.522 26.3149,49.456 C26.1969,49.514 26.0149,49.554 25.9699,49.696 L25.9899,49.464 C25.7369,49.575 25.3449,49.968 25.1869,49.807 C25.2559,49.864 25.3209,50.014 25.1059,50.119 C24.8309,49.88 24.6059,50.575 24.1649,50.559 C24.1729,50.47 24.4219,50.339 24.3479,50.368 C24.1339,50.368 24.0449,50.579 23.9339,50.742 L23.9239,50.6 L23.1819,51.14 C22.9389,50.904 22.4119,51.5 22.3799,51.254 C22.0749,51.354 22.6859,51.296 22.3189,51.474 C22.1679,51.382 21.9969,51.665 21.9389,51.456 L21.9699,51.418 L21.7109,51.532 L21.8059,51.271 C21.5959,51.398 21.4989,51.661 21.5389,51.818 C21.2869,51.797 20.9979,51.972 20.8389,51.819 L20.9049,51.746 C20.3019,52.005 19.7299,51.499 19.3359,51.965 C19.2919,51.943 19.2839,51.891 19.3609,51.876 L18.9729,51.947 L19.0279,51.771 L18.4469,52.151 L18.4339,52.044 C18.0089,52.112 17.3579,52.263 16.8139,52.372 L16.8889,52.308 C16.3139,52.557 16.3039,52.308 15.8789,52.452 C15.8919,52.423 15.9039,52.411 15.9199,52.403 L15.5279,52.436 L15.6049,52.325 C15.3299,52.579 14.7569,52.084 14.9479,52.266 C14.7909,52.381 14.5139,52.531 14.4689,52.663 C14.0369,52.673 14.3589,52.523 14.0909,52.431 C13.7819,52.419 13.7279,52.605 13.3069,52.509 L13.3179,52.4 C13.1219,52.416 12.9969,52.506 12.7239,52.507 L12.8069,52.461 C12.3489,52.653 12.2759,52.099 11.8939,52.545 C11.7139,52.442 11.3529,52.484 11.3929,52.269 C10.8279,52.359 10.3969,52.329 9.8329,52.34 C9.8109,51.974 9.7089,52.349 9.4219,52.09 L9.4079,52.281 C8.6239,52.153 8.0119,51.484 7.5389,51.308 L7.6169,51.132 L7.4259,51.266 C7.0179,50.932 6.7139,50.455 6.5029,49.996 C6.3409,49.915 6.0289,49.748 5.9959,49.445 L6.0309,49.466 C5.7609,49.019 5.5629,48.414 5.6039,47.749 C5.6889,47.781 5.7369,47.712 5.7969,47.778 C5.5679,47.647 5.7539,47.395 5.7489,47.257 L5.6179,47.433 C5.4199,47.256 5.5869,46.964 5.7229,46.866 L5.5129,46.561 C5.5309,46.541 5.5619,46.509 5.5929,46.504 L5.4929,46.446 L5.7489,46.275 C5.6999,46.195 5.6459,45.767 5.4079,45.62 C5.4879,45.592 5.5739,45.29 5.6059,45.528 C5.6609,45.133 5.7039,44.738 5.7729,44.345 L5.6619,44.522 C5.4659,44.528 5.3919,44.153 5.4999,43.975 C5.6239,44.238 5.7679,44.025 5.9189,43.94 C5.8359,43.767 5.7349,44.06 5.6409,43.963 C5.5349,43.744 5.5249,43.297 5.6339,43.201 L5.6899,43.335 C5.6649,43.046 6.0139,42.97 6.0419,42.698 C5.9259,42.427 6.1109,42.272 5.7759,42.262 C5.7829,41.892 6.0229,42.167 6.0779,42.059 C5.9609,41.862 6.1539,41.386 6.3389,41.363 C5.9219,41.058 6.7349,40.461 6.3709,40.289 L6.6749,40.062 C6.5719,40.024 6.3549,39.901 6.3799,39.652 C6.5559,39.465 6.7219,39.572 6.8469,39.538 L6.5079,39.272 C7.3019,38.138 7.6699,36.394 8.6149,35.193 C8.8079,34.561 9.0029,33.725 9.4139,33.06 L9.4209,33.16 L9.8749,32.526 L9.4509,32.938 C9.4869,32.767 9.4799,32.613 9.5599,32.47 C10.1179,31.797 10.8309,30.905 11.2179,29.897 C11.1759,29.069 11.8049,29.72 11.8559,28.982 C11.8619,29.053 11.9079,29.105 11.9209,29.173 C12.1479,28.482 12.3089,28.128 12.4619,27.378 C12.8019,27.697 12.7039,26.983 12.8719,27.169 L12.7479,27.017 C12.9289,26.945 13.1649,26.655 13.2469,26.774 L13.2319,26.386 L13.4059,26.471 C13.6539,26.137 14.0329,25.308 14.4749,25.351 C14.8319,24.343 15.8589,23.065 16.7189,22.088 C16.7059,21.848 16.9269,21.537 17.0959,21.292 L17.4699,21.183 C17.6039,20.904 17.5809,20.475 17.8719,20.347 C17.8919,20.364 17.8999,20.385 17.8979,20.409 C18.0539,20.14 18.3309,19.988 18.3479,19.631 C18.5669,19.375 18.8699,19.199 18.9689,19.414 C18.6969,19.147 19.4699,18.901 19.4699,18.901 C19.4699,18.901 22.4379,15.725 25.7629,12.163 C29.1019,8.588 32.8269,4.541 33.6399,2.283 C33.6119,2.049 33.8129,1.68 33.5469,1.63 C33.7189,1.361 34.0519,1.496 33.9629,1.321 C33.5749,1.529 33.7159,0.884 33.2589,1.009 L33.4149,0.79 C33.3609,0.657 33.2649,1.15 33.1409,0.933 L33.3339,1.234 C33.1439,1.348 33.0089,1.379 32.8719,1.347 C32.8239,1.586 33.0669,2.014 32.5779,2.205 L32.6579,2.097 C32.3879,2.382 32.3279,2.105 32.2299,2.122 L32.2929,2.063 L31.9349,2.17 C32.1949,2.078 32.2889,1.585 32.1499,1.752 C31.7479,2.012 32.2959,1.727 32.0759,2.004 C31.9349,2.17 31.8469,1.994 31.7769,1.91 L31.5079,2.194 C31.4029,2.07 31.6979,2.019 31.4669,2.011 L31.2379,2.48 C30.8839,2.253 30.9969,2.999 30.5649,2.883 C30.7479,2.564 30.4449,2.807 30.3909,2.673 L29.7899,3.302 C29.6919,3.319 29.8629,3.051 29.7839,3.158 C29.5879,3.193 29.6639,3.419 29.5989,3.478 C29.4649,3.451 29.1439,3.94 28.9679,3.73 C28.4219,4.018 29.0369,4.151 28.5389,4.43 C28.3699,4.364 28.8199,4.093 28.5259,4.144 L28.1659,4.592 C28.1459,4.498 28.0549,4.323 28.2309,4.197 C26.9859,5.132 25.7809,5.118 24.9479,6.283 C24.6679,6.289 24.9529,6.088 24.9599,5.894 C24.4329,6.814 23.6439,6.631 23.0499,7.276 L23.1559,7.4 C21.9479,7.935 21.1509,9.21 20.0589,10.089 L20.2549,10.044 C20.2399,10.291 20.0429,10.527 19.9429,10.743 C19.8589,10.714 19.7979,10.388 19.5749,10.728 C19.6739,10.706 19.8339,10.623 19.8589,10.714 C18.7409,11.307 17.1329,13.251 15.7089,14.63 C14.0779,16.737 12.0249,18.823 10.5619,21.035 C10.7879,20.701 11.0119,21.076 10.7589,21.267 C9.7099,21.536 10.0229,22.506 9.1569,22.938 C8.4719,24.332 7.2159,25.175 6.9179,26.688 L6.7389,26.613 C6.5529,26.752 6.6369,26.871 6.5369,27.075 L6.4929,27.043 C6.1529,27.462 5.9899,28.117 5.7619,28.344 L5.9399,28.468 C5.7979,28.753 5.7119,28.529 5.6579,28.874 L5.5689,28.812 L5.5629,29.246 C5.2489,29.032 5.1009,30.022 4.8339,30.171 C4.6999,30.572 4.4849,31.346 4.1429,31.883 C3.9109,31.9 3.5839,32.609 3.2869,33.023 C2.9329,33.939 2.4289,35.241 1.9769,36.407 L2.2169,36.468 L2.1219,36.78 C2.0729,36.758 2.0319,36.791 2.0229,36.735 C1.6789,36.888 1.8699,37.481 1.6239,37.68 C1.8879,37.588 1.7289,37.472 1.7919,37.295 C1.9869,37.075 2.1329,37.392 1.9049,37.699 L1.8569,37.676 L1.9029,37.949 C1.7109,37.918 1.5639,38.11 1.3729,38.084 C1.1129,39.149 1.2399,39.942 0.9319,41.027 C0.7429,40.871 0.8249,41.834 0.5049,41.544 C0.5319,42.245 0.8199,41.485 1.0279,41.839 C0.9909,42.024 1.0609,42.236 0.9199,42.248 C0.8459,42.145 0.6709,42.364 0.6619,42.207 L0.6179,42.661 C0.5829,42.699 0.5479,42.593 0.5309,42.54 C0.6129,43.485 0.0849,44.162 0.2499,45.025 C0.3799,45.096 0.3119,44.694 0.4429,44.765 C0.6499,45.617 0.1669,45.501 0.3329,46.299 L0.1519,46.133 C0.2739,46.392 0.4269,46.496 0.2859,46.94 C0.0699,47.027 0.0959,46.56 0.0029,46.361 C-0.0171,46.651 0.0689,47.438 0.2589,47.191 C0.3449,47.554 0.1579,47.697 0.1159,47.905 C0.1699,47.906 0.2359,47.548 0.3529,47.758 C0.2569,48.265 0.3569,49.059 0.4689,49.704 C0.4139,49.708 0.3429,49.769 0.3059,49.719 C0.6949,50.179 0.1939,50.226 0.4659,50.954" id="Fill-53" fill="#DD6343" mask="url(#mask-2)"></path>
                </g>
                <path d="M30.1456,58.2718 L29.9386,58.3648 C29.9646,58.4058 29.9866,58.4578 29.9266,58.5578 L30.1456,58.2718 Z" id="Fill-56" fill="#DD6343"></path>
                <path d="M20.3585,62.1907 C20.3355,62.2137 20.3115,62.2357 20.2925,62.2657 C20.3435,62.2457 20.3555,62.2167 20.3585,62.1907" id="Fill-58" fill="#DD6343"></path>
                <path d="M17.8663,63.0003 C18.0453,62.9273 17.8743,62.8933 17.7773,62.8513 C17.7783,62.8953 17.7883,62.9463 17.8663,63.0003" id="Fill-60" fill="#DD6343"></path>
                <path d="M34.3917,54.0442 C34.3797,54.0862 34.3837,54.1232 34.4207,54.1502 C34.4297,54.0862 34.4157,54.0582 34.3917,54.0442" id="Fill-62" fill="#DD6343"></path>
                <path d="M32.1553,39.8645 C32.1653,39.8855 32.1723,39.9035 32.1833,39.9305 C32.1843,39.9115 32.1743,39.8885 32.1553,39.8645" id="Fill-64" fill="#DD6343"></path>
                <path d="M32.6172,40.6917 C32.6492,40.7197 32.6972,40.7497 32.7752,40.7827 C32.7222,40.7227 32.6682,40.7007 32.6172,40.6917" id="Fill-66" fill="#DD6343"></path>
                <path d="M31.4708,56.7288 C31.4268,56.7708 31.3888,56.8188 31.3738,56.8858 C31.4468,56.8268 31.4658,56.7738 31.4708,56.7288" id="Fill-68" fill="#DD6343"></path>
                <path d="M32.9454,40.8636 L33.0974,41.0266 C33.1084,41.0166 33.1164,41.0096 33.1284,40.9976 L32.9454,40.8636 Z" id="Fill-70" fill="#DD6343"></path>
                <path d="M31.9532,39.6682 C32.0162,39.7292 32.1102,39.8002 32.1552,39.8642 C32.1082,39.7472 32.0382,39.6932 31.9532,39.6682" id="Fill-72" fill="#DD6343"></path>
                <g id="Group-76" transform="translate(37.000000, 47.900800)">
                    <mask id="mask-4" fill="white">
                        <use xlink:href="#path-3"></use>
                    </mask>
                    <g id="Clip-75"></g>
                    <path d="M0.8819,0.9003 L0.8759,0.9313 C0.8879,1.1733 0.8999,1.0263 0.8819,0.9003" id="Fill-74" fill="#DD6343" mask="url(#mask-4)"></path>
                </g>
                <polygon id="Fill-77" fill="#DD6343" points="33.9258 41.22 33.9428 41.246 34.0308 41.244"></polygon>
                <path d="M31.2481,39.0042 C31.2841,39.0262 31.3201,39.0432 31.3601,39.0422 C31.3371,39.0152 31.3101,38.9832 31.2751,38.9432 C31.2681,38.9742 31.2591,38.9902 31.2481,39.0042" id="Fill-79" fill="#DD6343"></path>
                <path d="M37.0567,44.5804 C36.9507,44.5824 36.8927,44.6014 36.8607,44.6274 C36.9147,44.6844 36.9777,44.6994 37.0567,44.5804" id="Fill-81" fill="#DD6343"></path>
            </g>
        </g>
    </g>
</svg>