<?xml version="1.0" encoding="UTF-8"?>
<svg width="40px" height="70px" viewBox="0 0 40 70" version="1.1" xmlns="http://www.w3.org/2000/svg" xmlns:xlink="http://www.w3.org/1999/xlink">
    <!-- Generator: Sketch 51.2 (57519) - http://www.bohemiancoding.com/sketch -->
    <title>number_1</title>
    <desc>Created with Sketch.</desc>
    <defs>
        <polygon id="path-1" points="0.6903 0.1155 0.728 0.1155 0.728 1.1155 0.6903 1.1155"></polygon>
        <polygon id="path-3" points="0.7525 0.5861 1.728 0.5861 1.728 1.5861 0.7525 1.5861"></polygon>
        <polygon id="path-5" points="0.675883931 0.9274 0.728 0.9274 0.728 1.9274 0.675883931 1.9274"></polygon>
        <polygon id="path-7" points="0 0.292862829 28.7070193 0.292862829 28.7070193 64.6479 0 64.6479"></polygon>
    </defs>
    <g id="Page-1" stroke="none" stroke-width="1" fill="none" fill-rule="evenodd">
        <g id="切图" transform="translate(-689.000000, -310.000000)">
            <g id="1" transform="translate(689.000000, 310.000000)">
                <path d="M9.9932,58.2916 C10.0152,58.3046 10.0432,58.3166 10.0842,58.3306 C10.0492,58.3096 10.0192,58.2976 9.9932,58.2916" id="Fill-1" fill="#DD6343"></path>
                <path d="M12.1109,53.1421 L12.1379,53.2161 C12.1439,53.1741 12.1319,53.1541 12.1109,53.1421" id="Fill-3" fill="#DD6343"></path>
                <path d="M8.8531,61.4214 C8.8461,61.4144 8.8401,61.4134 8.8321,61.4074 C8.8151,61.4564 8.7921,61.5224 8.7541,61.6284 L8.8531,61.4214 Z" id="Fill-5" fill="#DD6343"></path>
                <path d="M16.2305,42.107 L16.2095,42.178 C16.2215,42.147 16.2385,42.129 16.2305,42.107" id="Fill-7" fill="#DD6343"></path>
                <path d="M13.6963,48.607 C13.6633,48.575 13.6593,48.536 13.6573,48.498 C13.6373,48.539 13.6353,48.576 13.6963,48.607" id="Fill-9" fill="#DD6343"></path>
                <path d="M6.3443,62.5572 L6.5083,62.5032 C6.4483,62.4892 6.3773,62.5042 6.3443,62.5572" id="Fill-11" fill="#DD6343"></path>
                <path d="M6.0196,65.9644 L6.0536,65.9644 C6.0416,65.9554 6.0306,65.9584 6.0196,65.9644" id="Fill-13" fill="#DD6343"></path>
                <path d="M6.9185,64.8423 C6.9135,64.8123 6.8985,64.7733 6.8825,64.7353 C6.8765,64.7753 6.8635,64.8233 6.9185,64.8423" id="Fill-15" fill="#DD6343"></path>
                <path d="M6.8604,64.6822 L6.8824,64.7352 C6.8854,64.7092 6.8844,64.6882 6.8604,64.6822" id="Fill-17" fill="#DD6343"></path>
                <g id="Group-21" transform="translate(33.000000, 3.251400)">
                    <mask id="mask-2" fill="white">
                        <use xlink:href="#path-1"></use>
                    </mask>
                    <g id="Clip-20"></g>
                    <path d="M0.6983,0.4425 C0.7573,0.3675 0.7143,0.2375 0.6903,0.1155 L0.6983,0.4425 Z" id="Fill-19" fill="#DD6343" mask="url(#mask-2)"></path>
                </g>
                <path d="M19.8448,32.1548 L19.8918,32.1948 C19.8808,32.1708 19.8638,32.1598 19.8448,32.1548" id="Fill-22" fill="#DD6343"></path>
                <g id="Group-26" transform="translate(32.000000, 2.251400)">
                    <mask id="mask-4" fill="white">
                        <use xlink:href="#path-3"></use>
                    </mask>
                    <g id="Clip-25"></g>
                    <path d="M0.7525,0.6251 L0.8145,0.5861 C0.7815,0.5931 0.7635,0.6071 0.7525,0.6251" id="Fill-24" fill="#DD6343" mask="url(#mask-4)"></path>
                </g>
                <path d="M6.4502,60.732 C6.3412,60.601 6.5552,60.452 6.4242,60.418 C6.4172,60.523 6.2772,60.636 6.4502,60.732" id="Fill-27" fill="#DD6343"></path>
                <path d="M15.7329,28.1197 L15.7509,28.0567 C15.7379,28.0847 15.7329,28.1037 15.7329,28.1197" id="Fill-29" fill="#DD6343"></path>
                <path d="M32.7525,2.8765 L32.6805,2.9235 C32.7065,2.9305 32.7285,2.9375 32.7515,2.9435 C32.7445,2.9175 32.7435,2.8945 32.7525,2.8765" id="Fill-31" fill="#DD6343"></path>
                <path d="M24.1485,22.0591 L24.1475,22.0631 C24.1515,22.0741 24.1555,22.0801 24.1605,22.0931 L24.1485,22.0591 Z" id="Fill-33" fill="#DD6343"></path>
                <path d="M24.6065,21.6334 C24.6025,21.6764 24.5985,21.7174 24.5935,21.7644 C24.6355,21.7114 24.6285,21.6704 24.6065,21.6334" id="Fill-35" fill="#DD6343"></path>
                <g id="Group-39" transform="translate(33.000000, 2.251400)">
                    <mask id="mask-6" fill="white">
                        <use xlink:href="#path-5"></use>
                    </mask>
                    <g id="Clip-38"></g>
                    <path d="M0.6905,1.1154 L0.6855,0.9274 C0.6685,0.9804 0.6765,1.0474 0.6905,1.1154" id="Fill-37" fill="#DD6343" mask="url(#mask-6)"></path>
                </g>
                <path d="M27.2154,15.9576 C27.2094,15.9776 27.2054,15.9956 27.2044,16.0166 C27.2174,15.9946 27.2204,15.9766 27.2154,15.9576" id="Fill-40" fill="#DD6343"></path>
                <path d="M13.4883,49.0113 C13.4713,49.0223 13.4593,49.0383 13.4443,49.0523 C13.4733,49.0673 13.4963,49.0703 13.4883,49.0113" id="Fill-42" fill="#DD6343"></path>
                <polygon id="Fill-44" fill="#DD6343" points="11.2242 43.7027 11.2242 43.7007 11.2222 43.6997"></polygon>
                <path d="M11.3189,43.98 C11.3709,43.918 11.3069,43.788 11.2239,43.703 C11.2019,43.773 11.2089,43.849 11.3189,43.98" id="Fill-46" fill="#DD6343"></path>
                <path d="M11.4468,43.2398 L11.4218,43.2608 C11.4338,43.2548 11.4428,43.2478 11.4468,43.2398" id="Fill-48" fill="#DD6343"></path>
                <polygon id="Fill-50" fill="#DD6343" points="9.774 47.7076 9.788 47.7116 9.776 47.7056"></polygon>
                <path d="M10.0244,46.7974 C10.0554,46.7894 10.0824,46.7744 10.1034,46.7534 C10.0724,46.7614 10.0444,46.7754 10.0244,46.7974" id="Fill-52" fill="#DD6343"></path>
                <polygon id="Fill-54" fill="#DD6343" points="11.7837 40.8785 11.7887 40.8815 11.7887 40.8765"></polygon>
                <g id="Group-58" transform="translate(5.000000, 2.251400)">
                    <mask id="mask-8" fill="white">
                        <use xlink:href="#path-7"></use>
                    </mask>
                    <g id="Clip-57"></g>
                    <path d="M8.7398,29.8409 C8.5068,30.7159 8.3868,31.9099 8.0088,32.7219 C8.2158,33.0009 8.1298,33.2709 8.0948,33.5589 L7.7228,33.4599 L7.7598,33.7239 C7.6178,33.7769 7.7528,33.5289 7.5588,33.6419 L7.7538,33.8039 C7.6178,33.7769 7.4638,34.3479 7.3368,33.8829 L7.0358,34.7529 C6.9598,34.9419 7.3008,34.9689 7.1388,35.1519 C7.0188,35.1579 7.0928,35.0499 6.9568,35.0229 C6.4718,35.5709 7.4108,36.0009 7.0468,36.5399 L7.0148,36.4729 C7.0778,36.6079 7.0008,36.7959 7.0518,36.8159 C7.4438,36.8619 6.8888,36.6419 7.1658,36.5329 C7.4688,36.6529 7.2568,36.8149 7.4948,36.8819 C7.3368,36.9839 7.4848,37.1239 7.4618,37.2509 C7.1988,37.3939 7.2378,37.7359 6.9428,37.8119 C7.0058,37.9449 7.2718,38.1579 7.2108,38.3799 C6.9168,38.4559 6.9918,38.2669 6.8308,38.4499 L6.9988,38.5429 C6.9128,38.7079 6.8718,38.6639 6.7888,38.6299 C6.7188,38.8139 6.9838,38.8649 6.7938,39.0629 L6.6608,38.8749 C6.6748,39.0699 6.6208,39.1309 6.5288,39.3669 C6.4268,39.3289 6.4648,39.2349 6.5178,39.1729 C6.2098,39.2179 6.5608,39.4349 6.5098,39.4959 C6.5938,39.5009 6.6828,39.3459 6.8338,39.4849 C6.7628,39.5939 6.9958,39.8189 6.7568,39.8349 L6.6258,39.6489 C6.6858,39.9439 6.8078,39.8549 6.6468,40.1179 C6.6378,40.0989 6.5918,40.0919 6.5558,40.0729 C6.7278,40.3289 6.4438,40.4989 6.3418,40.7619 L6.3098,40.6949 C6.3368,40.8229 6.4778,40.9339 6.4468,40.9879 C6.5988,40.8679 6.6378,40.9269 6.8158,40.9679 C6.4548,41.0749 7.0618,41.3849 6.7818,41.6579 C6.6798,41.6199 6.5798,41.5019 6.7188,41.4449 C6.4498,41.2369 6.1958,41.1409 6.1168,40.8949 C6.1478,41.0419 6.1428,41.2019 6.0248,41.1309 L6.2958,41.2599 C6.2798,41.3379 6.2428,41.3919 6.2248,41.4489 C6.3938,41.5379 6.5668,41.3889 6.6288,41.6019 C6.6578,41.8279 6.3048,41.6139 6.4228,41.6859 C6.4488,41.9929 6.6908,41.8949 6.5138,42.1259 C6.4988,42.0929 6.4668,42.0269 6.4998,42.0129 C6.3258,42.1639 6.4048,42.4889 6.0448,42.4379 C5.9778,42.3859 5.8768,42.3489 5.9288,42.2859 L5.9798,42.3059 C5.7978,42.0219 5.9918,42.4989 5.7048,42.3379 C5.8928,42.3809 5.7668,42.6329 5.6958,42.7409 L5.9178,42.7689 C6.4168,43.3589 5.5098,42.6179 5.4658,43.0349 C5.5308,43.3279 5.5528,42.9589 5.6528,43.1569 C5.5658,43.3159 5.3598,43.3199 5.3758,43.5959 C5.2718,43.6389 5.1178,43.7439 4.8798,43.6849 C4.9288,43.8629 4.6358,44.1089 4.8388,44.2629 C5.1138,44.0679 4.6708,43.9329 5.0668,43.7259 L5.2698,43.8799 C5.1948,44.0839 5.2298,44.3849 5.1028,44.5019 C5.1568,44.4869 5.2188,44.4919 5.2628,44.5259 C5.2598,44.8469 5.4638,45.0019 5.3058,45.2679 C5.0848,45.2419 5.1728,45.0849 5.1908,44.9559 C4.9668,45.0909 5.1198,45.1469 4.9638,45.4129 C4.7758,45.3729 5.0338,45.2229 4.8648,45.1359 L4.8258,45.4719 L4.7878,45.4599 C5.0808,45.5989 4.6878,45.6949 4.7198,45.9169 C4.5778,46.3779 4.9688,46.5719 5.1378,46.9009 C5.0338,46.9439 4.9498,46.9409 4.8818,46.8889 C5.0518,46.8169 4.9388,46.8049 4.8708,46.7409 C4.8548,46.9059 4.4658,46.9919 4.3678,46.8679 C4.3828,47.1429 4.5568,46.8269 4.6068,47.0069 L4.4838,47.3399 C4.6538,47.3469 4.7238,47.2369 4.7908,47.4479 C4.7898,47.6089 4.7388,47.6709 4.6718,47.8619 C4.6028,47.8109 4.4148,47.8519 4.4678,47.7099 C4.3808,47.7849 4.3308,47.9299 4.4668,48.0309 C4.6718,47.8619 4.5008,48.4179 4.7908,48.3319 L4.5868,48.5019 C4.6038,48.4539 4.5008,48.4179 4.5528,48.3559 C4.2968,48.3459 4.5698,48.5489 4.5708,48.6299 C4.5028,48.6909 4.4258,48.8779 4.3288,48.8669 C4.3748,48.9529 4.2748,49.1019 4.1448,49.0969 C4.1628,49.2099 4.2978,49.1509 4.3668,49.2009 L4.2478,49.5339 C4.1098,49.5139 3.7348,49.4359 3.6998,49.3699 C3.7848,49.5339 4.0768,49.5289 4.0078,49.7189 C3.7848,49.5339 3.7358,49.9179 3.4778,49.6679 C3.2578,49.7249 3.1728,50.0439 3.1888,50.2379 C3.3608,50.4039 3.3598,50.0819 3.5648,50.1539 C3.4968,50.6649 4.0628,50.8609 3.8578,51.1909 L3.9438,51.1139 C3.9958,51.3719 3.9778,51.3399 4.1158,51.5209 C3.8768,51.3849 3.3438,51.5759 3.2968,51.9609 C3.4178,52.0289 3.6028,51.8239 3.7908,51.9439 L3.7608,52.1989 C3.7348,52.2109 3.6988,52.1719 3.6748,52.1309 C3.7048,52.3769 3.2228,52.4439 3.5088,52.5929 L3.0668,52.7089 L3.2538,52.6659 C3.3728,52.7339 3.3418,52.9899 3.3768,53.0549 C3.4488,53.3469 3.3118,53.4059 3.1078,53.4979 C3.2278,53.4849 3.5008,53.4439 3.4848,53.6529 C3.0658,53.5319 3.2128,54.0229 2.9968,53.9559 C2.9798,54.0369 2.8078,54.1429 2.9798,54.1999 L2.7218,54.1129 C3.0818,54.2349 2.9828,54.5209 2.9848,54.7619 C2.5038,54.5729 2.9538,55.0179 2.4748,54.9899 C2.8008,55.1259 2.4958,55.4229 2.7718,55.5419 C2.7398,55.7179 2.4308,55.6129 2.3108,55.6279 L2.4138,55.7419 C2.2318,55.7849 2.1168,56.1009 1.9568,56.2629 L2.2038,56.5239 L2.0508,56.5519 C2.1188,56.6019 2.1218,56.7619 2.2578,56.7009 L2.2138,56.7919 C2.5368,56.8899 2.2658,56.9519 2.3508,57.1839 C2.2868,57.2139 2.2118,57.1809 2.1798,57.1269 C2.1508,57.2229 1.9948,57.1349 1.8718,57.1569 C1.9738,57.1119 2.3588,57.6649 2.5768,57.4449 C2.7148,57.4639 2.7698,57.6429 2.6848,57.7209 L2.3778,57.6979 L2.6538,57.8969 C2.6558,58.0569 2.4518,58.0689 2.3858,58.1789 C2.4008,58.0509 1.8988,57.7509 1.8188,58.0699 C1.8268,57.8939 1.6868,57.7669 1.6498,57.6639 C1.6198,57.7269 1.5828,57.7509 1.4878,57.6149 C1.5098,57.8879 1.6438,57.7469 1.6128,58.0019 C1.3558,57.9169 1.2528,57.9629 1.1038,58.1529 L1.3398,58.0449 C1.3698,58.0609 1.3898,58.0779 1.4018,58.0949 C1.4478,58.0419 1.4928,58.0359 1.5968,58.0509 C1.5808,58.0979 1.8418,58.4239 1.6718,58.4209 C2.1468,58.2859 1.8678,58.9379 2.1568,58.8479 C2.2258,58.8969 2.1938,59.0719 2.0578,59.0539 C1.9168,58.7949 1.7178,59.1269 1.5448,59.0429 C1.5988,59.1399 1.7828,58.9359 1.8528,59.0659 C1.8368,59.1929 1.6508,59.2369 1.5498,59.2829 L1.5148,59.2189 L1.3458,59.3759 C1.4678,59.4429 1.6168,59.2539 1.6368,59.4459 C1.5698,59.4769 1.5898,59.6689 1.4868,59.6359 C1.3298,59.5039 1.0748,59.4989 1.0718,59.3379 C1.0558,59.4669 0.9778,59.8659 1.2668,59.7749 L1.2178,59.9189 C1.3538,59.8579 1.6228,59.6529 1.5778,59.9579 L1.5258,59.9409 L1.6678,60.1989 L1.5078,60.2519 C1.5748,60.2679 1.6268,60.3169 1.6008,60.3909 C1.5168,60.3889 1.4668,60.4519 1.3638,60.4179 C1.3168,60.6419 1.4538,60.6599 1.5228,60.7089 C1.5078,60.8369 1.4398,60.8679 1.3018,60.7699 C1.2208,60.9279 1.1748,61.2319 1.0048,61.3089 C1.0618,61.5669 1.0728,61.2779 1.2138,61.4569 C0.7028,61.5279 0.8348,62.1549 0.7918,62.5379 C1.2178,62.5469 0.8098,62.6519 1.1548,62.8179 C1.0508,62.7039 0.7508,63.0829 0.7258,62.7309 L0.7138,62.9389 C0.4578,63.0129 0.6378,62.5689 0.2818,62.6899 C0.2348,62.9139 0.6328,63.1769 0.4148,63.3969 C0.1558,63.2339 0.4538,63.6219 0.1608,63.4729 C0.0728,63.3919 0.1238,63.3279 0.1218,63.2479 L0.0538,63.2789 C-0.1592,63.7399 0.3498,63.5089 0.4748,63.8149 C0.4308,64.1189 0.1888,63.9869 0.0508,63.9679 C-0.0172,63.9979 -0.0132,64.1579 0.0398,64.2559 C-0.0842,64.0289 0.3068,63.9719 0.4638,64.1029 C0.1058,64.1459 0.3188,64.5319 0.4238,64.6479 C0.8788,64.3199 0.5188,64.3609 0.9928,64.0649 C0.9058,63.9829 0.6138,63.9129 0.7978,63.7089 C0.9008,63.8969 0.9618,63.7419 1.0198,63.7129 C0.8408,63.7129 0.9958,63.5289 0.9458,63.4389 C1.0988,63.4089 1.2918,63.6849 1.4248,63.4629 L1.0448,63.3119 C1.1298,63.2339 1.3208,63.4299 1.2818,63.2039 C1.4568,63.3669 1.6078,63.2579 1.5968,63.5449 C2.0188,63.3139 1.5518,63.0009 1.4778,62.7109 C1.4948,62.7439 1.5468,62.7609 1.5658,62.7929 C1.4778,62.7109 1.5108,62.6149 1.5078,62.5349 C1.6418,62.3939 1.6488,62.7149 1.7678,62.6999 L1.8308,62.4299 C1.8448,62.4279 1.8518,62.4279 1.8608,62.4309 C1.8258,62.3459 1.8088,62.2689 1.9128,62.2709 C2.0168,62.3849 2.1388,62.4509 2.2258,62.5319 L2.0308,62.1769 C2.1518,62.2429 2.3168,62.0049 2.3568,62.2319 L2.4158,61.7999 L2.6898,61.8359 C2.6698,61.7239 2.6188,61.7069 2.5538,61.8179 C2.6538,61.6919 2.2638,61.0609 2.7638,61.2779 C2.6358,60.8909 2.7538,60.7959 2.7308,60.3639 C2.8888,60.7349 3.1358,60.0999 3.1588,60.4529 C3.3258,60.2959 3.0518,60.1789 3.0488,60.0179 C3.1988,59.9089 3.4408,60.0419 3.4958,60.2189 L3.4248,60.0099 L3.4758,60.0279 L3.3698,59.8319 C3.5558,59.7079 3.6438,59.8699 3.7268,59.7119 L3.5028,59.6119 L3.6718,59.5349 C3.5528,59.5479 3.5328,59.4359 3.5478,59.3089 L3.5998,59.3249 L3.5958,59.1649 C3.6978,59.3509 3.6838,59.0429 3.8328,59.1559 C3.8798,59.0319 3.8768,59.0279 3.8978,58.7879 L3.7268,58.7839 C3.6708,58.4469 3.9678,58.8369 4.0488,58.5989 L3.8608,58.5629 C4.2658,58.2989 3.8498,57.9229 4.1188,57.7199 C4.1208,57.8799 4.3448,57.9019 4.2928,57.8839 C4.2878,57.6429 4.4368,57.2949 4.2788,57.0039 C4.5678,56.9929 4.6528,56.9959 4.8378,56.7919 C4.8688,56.6159 4.8518,56.5839 4.7128,56.4859 C4.8628,56.3489 4.7978,55.9939 4.9928,56.0399 C4.8508,55.9589 5.0658,55.8999 4.9618,55.7729 L5.0468,55.7759 L4.8588,55.7379 C5.3528,55.5589 4.7678,55.1769 5.2088,54.9799 L5.2438,55.0449 L5.2068,54.8999 C5.2928,54.9029 5.3278,54.9669 5.4308,55.0019 L5.6288,54.4319 L5.4588,54.5069 C5.4748,54.3789 5.3198,54.2469 5.4718,54.1389 C5.6808,54.4479 5.5368,53.9489 5.7598,53.9719 L5.7968,54.1159 C5.8278,53.9419 5.8278,53.9419 5.6398,53.9029 C5.6378,53.6639 6.0318,53.8519 5.8918,53.5919 L5.8428,53.7349 C5.7238,53.7469 5.6028,53.5999 5.6348,53.5039 C5.6698,53.4889 5.7708,53.4449 5.7728,53.5249 C5.7518,53.3309 5.9198,53.0969 5.8688,52.9989 C5.9518,52.9219 6.0738,52.9889 6.1088,53.0549 C6.0518,52.6369 6.1908,52.8969 6.1358,52.4789 L6.2388,52.5149 L6.1518,52.3519 L6.4258,52.2329 L6.2718,52.2599 C6.2878,52.1329 6.2378,52.0349 6.3388,51.9109 L6.4758,52.0119 C6.4908,51.6449 6.8498,51.6899 6.7288,51.3009 C6.7638,51.2869 6.7978,51.3519 6.8148,51.3849 C6.6608,51.0129 7.1568,51.2369 6.9498,50.8469 C6.9958,50.8799 7.0698,50.8649 7.1108,50.8909 L7.0518,50.7229 L7.2568,50.7939 L6.9818,50.5919 L7.2218,50.5699 L7.1368,50.4869 C7.5798,50.4549 7.3398,50.1579 7.6978,50.0439 L7.4248,50.0009 C7.0308,49.3319 8.0678,48.9239 7.9998,48.2369 L8.2038,48.3089 L8.0358,47.9839 C8.2418,47.8969 8.1888,48.1169 8.3088,48.1069 C8.2768,47.8019 8.0358,47.9029 8.0728,47.5699 C8.2608,47.4509 8.2078,47.6719 8.2598,47.7699 C8.2468,47.4449 8.2648,46.9749 8.4438,46.8009 C8.4178,46.7869 8.3848,46.7639 8.3698,46.7709 C8.3368,46.5459 8.5088,46.3149 8.5608,46.0939 C8.6548,46.1279 8.6548,46.1869 8.6568,46.2459 C8.6938,46.1719 8.7918,46.0859 8.7148,45.9889 L8.8688,46.1249 C8.9558,45.9699 8.8898,45.5999 9.1118,45.6269 C9.0248,45.6219 8.8718,45.5669 8.9258,45.4259 C9.2658,45.4439 8.9108,44.9939 9.1508,44.8159 C9.2178,44.8659 9.1828,45.0399 9.2008,44.9939 C9.3198,44.9039 9.2028,44.7549 9.1358,44.6229 L9.2538,44.6939 L9.2428,44.1019 C9.5838,44.1209 9.3568,43.5829 9.5758,43.6919 C9.6478,43.5039 9.3858,43.8079 9.4258,43.5549 C9.5778,43.5319 9.4308,43.3169 9.6338,43.3919 L9.6498,43.4249 L9.6878,43.2509 L9.8558,43.4209 C9.8578,43.2619 9.6898,43.0919 9.5378,43.0359 C9.6948,42.9339 9.6638,42.7089 9.8688,42.7049 L9.9018,42.7719 C9.9448,42.3599 10.6628,42.3089 10.4138,41.8959 C10.4498,41.8819 10.4998,41.9009 10.4828,41.9469 L10.5718,41.7129 L10.7058,41.8189 L10.5968,41.3499 L10.6978,41.3879 C10.8228,41.1409 10.8988,40.7159 10.9748,40.3699 L11.0078,40.4369 C10.9638,40.0189 11.2208,40.1169 11.1968,39.8139 C11.2198,39.8319 11.2278,39.8439 11.2308,39.8559 L11.3068,39.6149 L11.3888,39.7009 C11.2268,39.4509 11.8478,39.2909 11.6238,39.3379 C11.5598,39.2049 11.4998,38.9939 11.3838,38.9219 C11.4598,38.6569 11.5368,38.9029 11.6778,38.7699 C11.7528,38.5849 11.5868,38.4919 11.7648,38.2679 L11.8658,38.3079 C11.8878,38.1819 11.8398,38.0829 11.8798,37.9109 L11.9118,37.9779 C11.7878,37.6329 12.3288,37.7409 11.9508,37.3759 C12.0728,37.2899 12.0818,37.0519 12.2838,37.1329 C12.2638,36.7489 12.2918,36.4649 12.3218,36.0999 C12.6768,36.1619 12.3238,36.0199 12.5888,35.8849 L12.4038,35.8369 C12.5488,35.3569 13.1878,34.9729 13.3008,34.4279 L13.4858,34.4779 L13.3248,34.3039 C13.6098,33.7749 13.9388,33.0769 14.0998,32.6329 C14.0588,32.4529 13.9208,32.1519 14.0708,31.9449 L14.0858,31.9779 C14.1358,31.5399 14.2218,31.0879 14.4918,30.6909 C14.5568,30.7459 14.6268,30.7229 14.6568,30.7899 C14.4978,30.6119 14.7438,30.5299 14.7848,30.4399 L14.6098,30.4979 C14.4868,30.3099 14.7188,30.1939 14.8738,30.1799 L14.7568,29.9099 C14.7798,29.9039 14.8148,29.8949 14.8448,29.9029 L14.7638,29.8319 L15.0388,29.8189 C15.0098,29.7519 15.0488,29.4689 14.8548,29.3009 C14.9398,29.3129 15.0718,29.1539 15.0598,29.3109 L15.4038,28.6219 L15.2778,28.7009 C15.0938,28.6459 15.0638,28.3859 15.1888,28.3069 C15.2758,28.5089 15.4358,28.4169 15.5908,28.4059 C15.5318,28.2719 15.4018,28.4299 15.3228,28.3399 C15.2508,28.1699 15.2898,27.8869 15.3938,27.8539 L15.4378,27.9549 C15.4358,27.7629 15.7788,27.8109 15.8298,27.6429 C15.7468,27.4409 15.9228,27.3859 15.6058,27.2939 C15.6298,27.0579 15.8458,27.2949 15.9038,27.2389 C15.7988,27.0819 16.0138,26.8249 16.1838,26.8509 C15.7848,26.5549 16.5768,26.3509 16.2198,26.1539 L16.5028,26.0689 C16.4048,26.0229 16.1938,25.8959 16.2108,25.7379 C16.3738,25.6519 16.5348,25.7549 16.6548,25.7569 L16.3188,25.5149 C17.0318,24.9209 17.1688,23.8019 17.8718,23.1279 C17.9568,22.7279 17.9908,22.1909 18.2338,21.7859 L18.2598,21.8549 L18.5488,21.4749 L18.2428,21.7069 C18.2408,21.5959 18.2018,21.4909 18.2478,21.4029 C18.6118,21.0069 19.0638,20.4649 19.1468,19.8119 C18.9028,19.2489 19.6358,19.7419 19.4998,19.2479 C19.5238,19.2969 19.5778,19.3359 19.6068,19.3819 C19.6488,18.9399 19.6748,18.6999 19.6128,18.2029 C20.0058,18.4449 19.7218,17.9529 19.9238,18.0919 L19.7698,17.9789 C19.9128,17.9439 20.0458,17.7639 20.1528,17.8509 L20.0228,17.5819 L20.2018,17.6519 C20.3218,17.4369 20.4098,16.8909 20.8138,16.9469 C20.8078,16.2659 21.3388,15.4579 21.7568,14.8189 C21.6678,14.6519 21.7588,14.4479 21.8248,14.2859 L22.1138,14.2289 C22.1338,14.0389 21.9668,13.7379 22.1728,13.6609 C22.1958,13.6749 22.2088,13.6899 22.2158,13.7059 C22.2578,13.5249 22.4438,13.4309 22.3358,13.1819 C22.4368,13.0129 22.6328,12.9019 22.7918,13.0559 C22.4678,12.8589 23.0328,12.7129 23.0328,12.7129 C23.0328,12.7129 24.4508,10.6189 25.8758,8.1949 C26.6218,7.0039 27.3008,5.6779 27.8668,4.5119 C28.4238,3.3379 28.7688,2.2519 28.6978,1.4429 C28.5938,1.2669 28.6248,1.0049 28.3938,0.9489 C28.4368,0.7609 28.7528,0.8859 28.6198,0.7479 C28.3808,0.8759 28.2678,0.4029 27.9438,0.4649 L27.9938,0.3119 C27.9028,0.2079 27.9988,0.5719 27.8228,0.4009 L28.0838,0.6399 C27.9708,0.7109 27.8728,0.7249 27.7508,0.6929 C27.7968,0.8679 28.1418,1.2029 27.8168,1.3129 L27.8428,1.2369 C27.7248,1.4319 27.5788,1.2219 27.5058,1.2289 L27.5358,1.1889 L27.2838,1.2449 C27.4618,1.1939 27.3648,0.8319 27.3108,0.9469 C27.0768,1.1149 27.4198,0.9389 27.3398,1.1309 C27.2838,1.2449 27.1508,1.1099 27.0648,1.0419 L26.9478,1.2369 C26.8188,1.1389 27.0398,1.1179 26.8498,1.0989 L26.8298,1.4339 C26.4608,1.2429 26.8168,1.8029 26.4228,1.6919 C26.4598,1.4659 26.2988,1.6279 26.2068,1.5259 L25.9408,1.9569 C25.8658,1.9649 25.9108,1.7769 25.8848,1.8519 C25.7368,1.8659 25.8788,2.0369 25.8468,2.0779 C25.7288,2.0509 25.6378,2.3929 25.4188,2.2299 C25.0728,2.4119 25.6248,2.5409 25.3148,2.7199 C25.1528,2.6629 25.4258,2.4869 25.2028,2.5099 L25.0658,2.8199 C25.0158,2.7499 24.8788,2.6169 24.9788,2.5329 C24.2798,3.1509 23.2998,3.1029 23.0438,3.9269 C22.8148,3.9209 22.9768,3.7839 22.9118,3.6439 C22.8138,4.2949 22.0958,4.1339 21.8428,4.5849 L21.9758,4.6789 C21.1728,5.0279 20.9458,5.9069 20.3698,6.5089 L20.5158,6.4829 C20.5958,6.6589 20.5208,6.8239 20.5168,6.9769 C20.4368,6.9529 20.2658,6.7169 20.2068,6.9559 C20.2808,6.9439 20.3828,6.8879 20.4368,6.9529 C19.7248,7.3459 19.0828,8.6789 18.3338,9.5789 C17.7068,11.0039 16.6548,12.3549 16.0328,13.7539 C16.1288,13.5409 16.4388,13.8089 16.2798,13.9239 C15.4628,14.0509 16.0218,14.7209 15.3928,14.9559 C15.2048,15.8499 14.3278,16.3119 14.4418,17.2779 L14.2608,17.2119 C14.1268,17.2859 14.2338,17.3719 14.1948,17.4969 L14.1468,17.4719 C13.9448,17.7159 13.9788,18.1379 13.8218,18.2589 L14.0138,18.3599 C13.9568,18.5319 13.8238,18.3759 13.8608,18.5969 L13.7638,18.5469 L13.8628,18.8299 C13.5258,18.6539 13.6278,19.2849 13.4118,19.3469 C13.3788,19.5899 13.3478,20.0629 13.1338,20.3569 C12.9278,20.3389 12.7528,20.7379 12.5498,20.9539 C12.3668,21.4679 12.1228,22.2039 11.8018,22.8169 L12.0338,22.9009 L11.9808,23.0719 C11.9318,23.0489 11.8958,23.0609 11.8828,23.0259 C11.5718,23.0469 11.8028,23.4419 11.5888,23.5089 C11.8288,23.5109 11.6688,23.4059 11.7138,23.3139 C11.8778,23.2219 12.0428,23.4439 11.8548,23.5809 L11.8068,23.5569 L11.8738,23.7319 C11.6908,23.6719 11.5618,23.7519 11.3798,23.6939 C11.1958,24.2599 11.3478,24.7559 11.0318,25.2859 C10.8578,25.1489 10.9158,25.7119 10.6168,25.4609 C10.6078,25.8529 10.9198,25.5169 11.0998,25.7689 C11.0548,25.8619 11.1098,25.9979 10.9748,25.9649 C10.9098,25.8869 10.7328,25.9579 10.7328,25.8679 L10.6698,26.1069 C10.6348,26.1169 10.6058,26.0479 10.5928,26.0139 C10.6148,26.5579 10.0498,26.7509 10.0928,27.2469 C10.2058,27.3259 10.1908,27.0949 10.3048,27.1739 C10.3988,27.6929 9.9378,27.4579 9.9678,27.9189 L9.8258,27.7719 C9.8968,27.9449 10.0248,28.0569 9.8048,28.2109 C9.5858,28.1689 9.7058,27.9709 9.6488,27.8329 C9.5858,27.9739 9.4998,28.3559 9.7278,28.3159 C9.7288,28.5129 9.5228,28.5059 9.4318,28.5769 C9.4808,28.5989 9.6298,28.4689 9.6858,28.6059 C9.4818,28.7939 9.3478,29.1559 9.2208,29.4349 C9.1718,29.4129 9.0868,29.4039 9.0718,29.3699 C9.2508,29.6989 8.8028,29.5039 8.7398,29.8409" id="Fill-56" fill="#DD6343" mask="url(#mask-8)"></path>
                </g>
                <path d="M9.7061,47.815 L9.7741,47.708 C9.7271,47.693 9.6761,47.671 9.6411,47.602 L9.7061,47.815 Z" id="Fill-59" fill="#DD6343"></path>
                <path d="M11.5557,42.3248 C11.5437,42.3048 11.5337,42.2858 11.5127,42.2648 C11.5127,42.2968 11.5327,42.3128 11.5557,42.3248" id="Fill-61" fill="#DD6343"></path>
                <path d="M11.6182,40.8648 C11.6312,40.9748 11.7152,40.9078 11.7842,40.8788 C11.7432,40.8628 11.6922,40.8488 11.6182,40.8648" id="Fill-63" fill="#DD6343"></path>
                <path d="M9.3286,51.1187 C9.3146,51.0927 9.2896,51.0717 9.2456,51.0617 C9.2756,51.1007 9.3016,51.1147 9.3286,51.1187" id="Fill-65" fill="#DD6343"></path>
                <path d="M6.7178,59.7691 C6.7308,59.7611 6.7408,59.7551 6.7598,59.7441 C6.7418,59.7461 6.7288,59.7551 6.7178,59.7691" id="Fill-67" fill="#DD6343"></path>
                <path d="M7.1802,59.3785 C7.1872,59.3555 7.1892,59.3215 7.1772,59.2725 C7.1542,59.3125 7.1622,59.3475 7.1802,59.3785" id="Fill-69" fill="#DD6343"></path>
                <path d="M9.8706,48.9927 C9.8736,48.9587 9.8676,48.9227 9.8316,48.8827 C9.8216,48.9327 9.8436,48.9667 9.8706,48.9927" id="Fill-71" fill="#DD6343"></path>
                <path d="M7.1582,59.1587 L7.2142,59.0437 C7.2002,59.0387 7.1902,59.0357 7.1732,59.0297 L7.1582,59.1587 Z" id="Fill-73" fill="#DD6343"></path>
                <path d="M6.6499,59.9156 C6.6699,59.8696 6.6879,59.8056 6.7179,59.7696 C6.6439,59.8136 6.6289,59.8616 6.6499,59.9156" id="Fill-75" fill="#DD6343"></path>
                <path d="M8.6748,54.3824 C8.6728,54.3774 8.6748,54.3734 8.6738,54.3674 C8.6108,54.2474 8.6318,54.3184 8.6748,54.3824" id="Fill-77" fill="#DD6343"></path>
                <polygon id="Fill-79" fill="#DD6343" points="6.9439 58.5279 6.9569 58.5139 6.9089 58.4629"></polygon>
                <path d="M6.4239,60.4175 C6.4249,60.3935 6.4219,60.3695 6.4019,60.3465 C6.3899,60.3635 6.3759,60.3835 6.3589,60.4085 C6.3879,60.4095 6.4069,60.4125 6.4239,60.4175" id="Fill-81" fill="#DD6343"></path>
                <path d="M7.8394,56.1109 C7.9074,56.1679 7.9574,56.1949 7.9964,56.2079 C8.0054,56.1669 7.9774,56.1309 7.8394,56.1109" id="Fill-83" fill="#DD6343"></path>
            </g>
        </g>
    </g>
</svg>