<?xml version="1.0" encoding="UTF-8"?>
<svg width="40px" height="70px" viewBox="0 0 40 70" version="1.1" xmlns="http://www.w3.org/2000/svg" xmlns:xlink="http://www.w3.org/1999/xlink">
    <!-- Generator: Sketch 51.2 (57519) - http://www.bohemiancoding.com/sketch -->
    <title>number_7</title>
    <desc>Created with Sketch.</desc>
    <defs></defs>
    <g id="Page-1" stroke="none" stroke-width="1" fill="none" fill-rule="evenodd">
        <g id="切图" transform="translate(-689.000000, -426.000000)" fill="#DD6343">
            <g id="7" transform="translate(689.000000, 426.000000)">
                <path d="M16.1243,53.3885 C16.1463,53.4025 16.1753,53.4135 16.2163,53.4255 C16.1813,53.4025 16.1503,53.3915 16.1243,53.3885" id="Fill-1"></path>
                <path d="M18.472,46.2752 L18.495,46.3712 C18.503,46.3142 18.493,46.2892 18.472,46.2752" id="Fill-3"></path>
                <path d="M15.0706,57.7088 C15.0626,57.7008 15.0566,57.7008 15.0496,57.6948 C15.0366,57.7628 15.0196,57.8538 14.9936,57.9998 L15.0706,57.7088 Z" id="Fill-5"></path>
                <path d="M24.0042,31.408 L23.9722,31.502 C23.9882,31.461 24.0092,31.436 24.0042,31.408" id="Fill-7"></path>
                <path d="M20.4876,40.1238 C20.4576,40.0838 20.4576,40.0328 20.4596,39.9828 C20.4346,40.0388 20.4276,40.0878 20.4876,40.1238" id="Fill-9"></path>
                <path d="M12.7405,59.907 L12.8885,59.78 C12.8275,59.779 12.7615,59.823 12.7405,59.907" id="Fill-11"></path>
                <path d="M13.6351,64.657 C13.6441,64.651 13.6531,64.648 13.6631,64.638 C13.6491,64.634 13.6411,64.643 13.6351,64.657" id="Fill-13"></path>
                <path d="M13.9378,62.7625 C13.9218,62.7255 13.8938,62.6825 13.8658,62.6385 C13.8748,62.6935 13.8788,62.7635 13.9378,62.7625" id="Fill-15"></path>
                <path d="M13.8255,62.5799 L13.8655,62.6389 C13.8575,62.6049 13.8495,62.5769 13.8255,62.5799" id="Fill-17"></path>
                <path d="M1.6341,9.9715 C1.5021,9.9875 1.4091,10.1125 1.3071,10.2195 L1.6341,9.9715 Z" id="Fill-19"></path>
                <path d="M29.804,18.3221 L29.844,18.3731 C29.838,18.3411 29.823,18.3281 29.804,18.3221" id="Fill-21"></path>
                <path d="M1.6751,11.2234 L1.5781,11.2094 C1.6151,11.2274 1.6471,11.2294 1.6751,11.2234" id="Fill-23"></path>
                <path d="M12.598,57.3396 C12.475,57.1816 12.685,56.9266 12.548,56.9086 C12.549,57.0566 12.414,57.2476 12.598,57.3396" id="Fill-25"></path>
                <path d="M26.4808,13.1873 L26.5158,13.1043 C26.4948,13.1413 26.4848,13.1663 26.4808,13.1873" id="Fill-27"></path>
                <path d="M1.6751,11.2234 L1.7861,11.2394 C1.7741,11.2144 1.7581,11.1964 1.7431,11.1754 C1.7231,11.1994 1.7001,11.2164 1.6751,11.2234" id="Fill-29"></path>
                <path d="M32.7132,3.9617 L32.7222,3.9597 C32.7502,3.9457 32.7702,3.9367 32.8012,3.9207 L32.7132,3.9617 Z" id="Fill-31"></path>
                <path d="M31.4066,3.9471 C31.5236,3.9131 31.6376,3.8801 31.7636,3.8421 C31.6016,3.8541 31.4936,3.8961 31.4066,3.9471" id="Fill-33"></path>
                <path d="M1.3069,10.2195 L1.1199,10.3625 C1.1919,10.3335 1.2499,10.2795 1.3069,10.2195" id="Fill-35"></path>
                <path d="M20.4466,5.9715 C20.4726,5.9625 20.4986,5.9535 20.5216,5.9415 C20.4876,5.9455 20.4626,5.9545 20.4466,5.9715" id="Fill-37"></path>
                <path d="M20.2308,40.6766 C20.2118,40.6916 20.1978,40.7146 20.1808,40.7336 C20.2098,40.7496 20.2328,40.7526 20.2308,40.6766" id="Fill-39"></path>
                <polygon id="Fill-41" points="18.5579 33.826 18.5589 33.824 18.5559 33.823"></polygon>
                <path d="M18.6146,34.1873 C18.6776,34.1023 18.6316,33.9333 18.5576,33.8263 C18.5246,33.9213 18.5196,34.0213 18.6146,34.1873" id="Fill-43"></path>
                <path d="M18.8587,33.1951 C18.8487,33.2051 18.8407,33.2141 18.8297,33.2251 C18.8427,33.2161 18.8527,33.2071 18.8587,33.1951" id="Fill-45"></path>
                <polygon id="Fill-47" points="16.5433 39.2889 16.5583 39.2929 16.5463 39.2849"></polygon>
                <path d="M16.9026,38.0476 C16.9356,38.0336 16.9646,38.0106 16.9886,37.9826 C16.9566,37.9946 16.9246,38.0156 16.9026,38.0476" id="Fill-49"></path>
                <polygon id="Fill-51" points="19.595 30.0437 19.6 30.0467 19.601 30.0397"></polygon>
                <path d="M23.4134,18.3963 C22.9454,19.5383 22.5744,21.1173 21.9924,22.1893 C22.1464,22.5463 22.0094,22.9063 21.9144,23.2873 L21.5464,23.1733 L21.5324,23.5193 C21.3744,23.5943 21.5634,23.2623 21.3394,23.4183 L21.5104,23.6253 C21.3744,23.5943 21.1004,24.3543 21.0604,23.7473 L20.5644,24.9053 C20.4454,25.1573 20.7934,25.1753 20.5904,25.4243 C20.4644,25.4403 20.5604,25.2923 20.4254,25.2633 C19.8154,26.0133 20.7134,26.5343 20.2314,27.2643 L20.2114,27.1783 C20.2514,27.3513 20.1354,27.6043 20.1844,27.6273 C20.5854,27.6683 20.0484,27.4083 20.3574,27.2493 C20.6504,27.3913 20.3984,27.6173 20.6344,27.6923 C20.4504,27.8343 20.5784,28.0123 20.5304,28.1813 C20.2274,28.3813 20.2074,28.8333 19.8924,28.9513 C19.9354,29.1253 20.1764,29.3923 20.0774,29.6893 C19.7614,29.8083 19.8694,29.5533 19.6724,29.8053 L19.8314,29.9183 C19.7154,30.1423 19.6804,30.0863 19.6004,30.0463 C19.4974,30.2953 19.7634,30.3473 19.5304,30.6193 L19.4254,30.3783 C19.4044,30.6373 19.3384,30.7203 19.2004,31.0393 C19.1014,30.9943 19.1574,30.8663 19.2234,30.7823 C18.8934,30.8613 19.2224,31.1253 19.1574,31.2103 C19.2444,31.2113 19.3644,31.0003 19.4974,31.1743 C19.4044,31.3233 19.6074,31.6053 19.3554,31.6423 L19.2514,31.4043 C19.2624,31.7913 19.4044,31.6653 19.1974,32.0263 C19.1914,32.0003 19.1434,31.9953 19.1094,31.9723 C19.2504,32.3003 18.9304,32.5453 18.7844,32.9023 L18.7614,32.8163 C18.7684,32.9843 18.8994,33.1213 18.8584,33.1953 C19.0344,33.0253 19.0664,33.1003 19.2444,33.1423 C18.8534,33.3103 19.4364,33.6783 19.1044,34.0603 C19.0064,34.0183 18.9204,33.8683 19.0714,33.7833 C18.8244,33.5253 18.5754,33.4163 18.5314,33.0943 C18.5404,33.2883 18.5124,33.5013 18.3994,33.4153 L18.6614,33.5663 C18.6324,33.6713 18.5864,33.7463 18.5594,33.8243 C18.7214,33.9293 18.9234,33.7183 18.9554,33.9963 C18.9514,34.2943 18.6164,34.0383 18.7284,34.1233 C18.7094,34.5293 18.9764,34.3793 18.7574,34.7013 C18.7464,34.6573 18.7234,34.5723 18.7604,34.5503 C18.5544,34.7633 18.5974,35.1923 18.2314,35.1513 C18.1694,35.0873 18.0694,35.0453 18.1314,34.9583 L18.1814,34.9803 C18.0294,34.6153 18.1694,35.2383 17.8934,35.0453 C18.0824,35.0883 17.9214,35.4333 17.8344,35.5833 L18.0594,35.6033 C18.5004,36.3503 17.6574,35.4353 17.5594,35.9963 C17.5874,36.3813 17.6604,35.8873 17.7374,36.1433 C17.6254,36.3603 17.4114,36.3843 17.3904,36.7503 C17.2764,36.8153 17.1014,36.9693 16.8634,36.9103 C16.8914,37.1443 16.5504,37.4963 16.7434,37.6853 C17.0514,37.3993 16.6134,37.2583 17.0524,36.9493 L17.2404,37.1373 C17.1344,37.4153 17.1294,37.8123 16.9884,37.9823 C17.0454,37.9573 17.1094,37.9583 17.1504,37.9983 C17.1114,38.4293 17.3044,38.6173 17.1134,38.9863 C16.8884,38.9723 16.9954,38.7543 17.0284,38.5823 C16.7824,38.7823 16.9344,38.8423 16.7434,39.2133 C16.5544,39.1773 16.8374,38.9533 16.6724,38.8513 L16.5954,39.3043 L16.5584,39.2923 C16.8444,39.4503 16.4284,39.6163 16.4364,39.9113 C16.2414,40.5413 16.6174,40.7583 16.7654,41.1813 C16.6544,41.2513 16.5674,41.2553 16.5024,41.1933 C16.6844,41.0793 16.5684,41.0753 16.5044,40.9973 C16.4744,41.2193 16.0674,41.3753 15.9774,41.2193 C15.9694,41.5853 16.1754,41.1443 16.2114,41.3803 L16.0574,41.8393 C16.2304,41.8303 16.3114,41.6763 16.3624,41.9523 C16.3484,42.1673 16.2884,42.2553 16.2014,42.5183 C16.1364,42.4583 15.9384,42.5333 16.0054,42.3363 C15.9094,42.4483 15.8444,42.6463 15.9754,42.7673 C16.2014,42.5183 15.9744,43.2813 16.2814,43.1333 L16.0544,43.3823 C16.0764,43.3173 15.9744,43.2813 16.0324,43.1923 C15.7694,43.2073 16.0324,43.4483 16.0264,43.5553 C15.9504,43.6443 15.8534,43.9033 15.7544,43.9003 C15.7934,44.0093 15.6834,44.2203 15.5494,44.2293 C15.5594,44.3793 15.7024,44.2833 15.7694,44.3443 L15.6264,44.8043 C15.4854,44.7923 15.1064,44.7333 15.0754,44.6493 C15.1514,44.8593 15.4504,44.8183 15.3674,45.0813 C15.1514,44.8593 15.0754,45.3803 14.8274,45.0773 C14.5984,45.1793 14.4884,45.6203 14.4934,45.8783 C14.6584,46.0813 14.6784,45.6483 14.8844,45.7183 C14.7804,46.4153 15.3494,46.6043 15.1164,47.0723 L15.2094,46.9583 C15.2464,47.2963 15.2334,47.2563 15.3654,47.4813 C15.1264,47.3303 14.5784,47.6583 14.5104,48.1813 C14.6314,48.2563 14.8304,47.9583 15.0174,48.0923 L14.9744,48.4393 C14.9474,48.4583 14.9134,48.4113 14.8904,48.3593 C14.9094,48.6843 14.4124,48.8413 14.6974,49.0023 L14.2394,49.2193 L14.4334,49.1363 C14.5524,49.2083 14.5094,49.5583 14.5424,49.6403 C14.6024,50.0213 14.4564,50.1203 14.2484,50.2723 C14.3694,50.2363 14.6484,50.1423 14.6294,50.4253 C14.2044,50.3253 14.3444,50.9633 14.1254,50.9063 C14.1064,51.0173 13.9304,51.1843 14.1034,51.2373 L13.8434,51.1593 C14.2074,51.2683 14.1004,51.6673 14.0994,51.9913 C13.6114,51.8113 14.0614,52.3383 13.5744,52.3763 C13.9034,52.5083 13.5874,52.9563 13.8664,53.0713 C13.8304,53.3133 13.5174,53.2223 13.3944,53.2603 L13.4994,53.3993 C13.3144,53.4873 13.1954,53.9313 13.0324,54.1813 L13.2854,54.4933 L13.1294,54.5593 C13.1984,54.6153 13.2024,54.8323 13.3414,54.7243 L13.2964,54.8563 C13.6264,54.9303 13.3524,55.0653 13.4434,55.3643 C13.3794,55.4173 13.3024,55.3863 13.2684,55.3193 C13.2414,55.4553 13.0814,55.3663 12.9574,55.4203 C13.0584,55.3393 13.4644,56.0163 13.6794,55.6753 C13.8174,55.6743 13.8804,55.9043 13.7994,56.0273 L13.4864,56.0583 L13.7744,56.2703 C13.7834,56.4863 13.5774,56.5443 13.5184,56.7093 C13.5254,56.5353 13.0014,56.2283 12.9404,56.6863 C12.9364,56.4403 12.7904,56.2963 12.7494,56.1633 C12.7224,56.2543 12.6844,56.2973 12.5824,56.1293 C12.6154,56.5013 12.7444,56.2783 12.7284,56.6383 C12.4644,56.5783 12.3634,56.6653 12.2254,56.9653 L12.4564,56.7593 C12.4874,56.7753 12.5094,56.7943 12.5214,56.8153 C12.5644,56.7313 12.6094,56.7123 12.7154,56.7093 C12.7024,56.7793 12.9864,57.1673 12.8154,57.2033 C13.2814,56.9063 13.0574,57.8673 13.3414,57.6723 C13.4144,57.7223 13.3984,57.9693 13.2614,57.9783 C13.0954,57.6603 12.9254,58.1643 12.7454,58.0963 C12.8094,58.2153 12.9724,57.8853 13.0574,58.0463 C13.0554,58.2253 12.8764,58.3373 12.7814,58.4283 L12.7374,58.3493 L12.5894,58.6143 C12.7194,58.6713 12.8454,58.3693 12.8894,58.6293 C12.8254,58.6913 12.8694,58.9513 12.7654,58.9343 C12.5894,58.7953 12.3354,58.8633 12.3104,58.6393 C12.3064,58.8223 12.3014,59.4113 12.5694,59.1933 L12.5454,59.4103 C12.6694,59.2803 12.9014,58.9193 12.9074,59.3533 L12.8534,59.3453 L13.0364,59.6583 L12.8894,59.7803 C12.9584,59.7803 13.0184,59.8313 13.0104,59.9413 C12.9274,59.9663 12.8914,60.0703 12.7824,60.0573 C12.7824,60.3823 12.9214,60.3603 12.9984,60.4053 C13.0094,60.5843 12.9554,60.6523 12.7954,60.5643 C12.7594,60.8143 12.7874,61.2503 12.6484,61.4233 C12.7804,61.7593 12.7034,61.3543 12.8924,61.5463 C12.4224,61.8483 12.7514,62.6753 12.8774,63.2143 C13.2694,63.0203 12.9414,63.3603 13.3274,63.4143 C13.1844,63.3103 13.0714,63.9733 12.8984,63.5083 L12.9764,63.7963 C12.7764,64.0333 12.7494,63.3293 12.4764,63.6783 C12.5284,64.0193 13.0264,64.1633 12.9384,64.5783 C12.6244,64.5023 13.0914,64.8613 12.7594,64.8263 C12.6354,64.7653 12.6464,64.6483 12.6054,64.5403 L12.5604,64.6213 C12.6314,65.3783 12.9444,64.7663 13.2234,65.1013 C13.3564,65.5293 13.0764,65.5023 12.9494,65.5623 C12.9134,65.6453 13.0204,65.8583 13.1274,65.9533 C12.8784,65.7293 13.1654,65.4103 13.3794,65.4873 C13.1084,65.7623 13.5344,66.1383 13.6924,66.2103 C13.8634,65.5043 13.5774,65.7823 13.8074,65.1213 C13.6864,65.0683 13.3974,65.1493 13.4404,64.7763 C13.6344,64.9603 13.6004,64.7263 13.6354,64.6573 C13.4774,64.7573 13.5134,64.4333 13.4294,64.3413 C13.5514,64.2223 13.8544,64.4713 13.8654,64.1183 L13.4554,64.1223 C13.4924,63.9753 13.7584,64.1303 13.6134,63.8583 C13.8494,63.9793 13.9314,63.7633 14.0594,64.1323 C14.3184,63.6283 13.7674,63.4693 13.5774,63.1193 C13.6074,63.1543 13.6614,63.1523 13.6924,63.1843 C13.5784,63.1203 13.5644,62.9793 13.5334,62.8753 C13.6054,62.6283 13.7304,63.0453 13.8394,62.9713 L13.7974,62.5913 C13.8094,62.5833 13.8164,62.5813 13.8254,62.5803 C13.7634,62.4843 13.7194,62.3903 13.8164,62.3493 C13.9554,62.4543 14.0934,62.4873 14.2044,62.5533 L13.8934,62.1783 C14.0264,62.2133 14.1094,61.8413 14.2184,62.1163 L14.1424,61.5393 L14.4144,61.4843 C14.3614,61.3473 14.3084,61.3433 14.2794,61.5093 C14.3294,61.3173 13.8034,60.6273 14.3384,60.7403 C14.1234,60.2813 14.2184,60.1193 14.1144,59.5583 C14.3354,59.9973 14.4694,59.0963 14.5534,59.5503 C14.6914,59.3003 14.3994,59.2243 14.3704,59.0133 C14.5074,58.8303 14.7624,58.9423 14.8464,59.1563 L14.7434,58.9033 L14.7974,58.9123 L14.6654,58.6863 C14.8334,58.4783 14.9424,58.6673 15.0034,58.4413 L14.7674,58.3653 L14.9264,58.2243 C14.8094,58.2713 14.7774,58.1283 14.7794,57.9593 L14.8334,57.9683 L14.8134,57.7593 C14.9344,57.9793 14.8894,57.5803 15.0494,57.6953 C15.0824,57.5233 15.0804,57.5193 15.0834,57.2003 L14.9114,57.2313 C14.8304,56.7993 15.1574,57.2503 15.2214,56.9213 L15.0294,56.9133 C15.4224,56.4883 14.9814,56.0733 15.2504,55.7543 C15.2574,55.9643 15.4834,55.9523 15.4314,55.9383 C15.4184,55.6233 15.5594,55.1383 15.3964,54.7793 C15.6904,54.7173 15.7744,54.7083 15.9634,54.4093 C15.9954,54.1713 15.9764,54.1323 15.8354,54.0233 C15.9844,53.8183 15.9264,53.3583 16.1244,53.3883 C15.9804,53.3023 16.2004,53.1903 16.0974,53.0373 L16.1834,53.0283 L15.9924,53.0073 C16.4984,52.6943 15.9074,52.2743 16.3604,51.9473 L16.3944,52.0283 L16.3594,51.8403 C16.4474,51.8323 16.4814,51.9123 16.5864,51.9443 L16.7964,51.1573 L16.6224,51.2813 C16.6414,51.1103 16.4854,50.9563 16.6424,50.7913 C16.8484,51.1723 16.7124,50.5293 16.9414,50.5283 L16.9744,50.7143 C17.0134,50.4793 17.0134,50.4793 16.8214,50.4553 C16.8304,50.1383 17.2264,50.3323 17.0944,50.0073 L17.0374,50.2033 C16.9154,50.2363 16.7974,50.0573 16.8344,49.9263 C16.8704,49.9023 16.9764,49.8283 16.9744,49.9343 C16.9614,49.6803 17.1434,49.3473 17.0954,49.2253 C17.1844,49.1113 17.3054,49.1853 17.3374,49.2663 C17.2984,48.7203 17.4294,49.0463 17.3914,48.5003 L17.4944,48.5343 L17.4104,48.3293 L17.6934,48.1353 L17.5364,48.1913 C17.5584,48.0203 17.5094,47.8973 17.6174,47.7183 L17.7534,47.8353 C17.7884,47.3463 18.1564,47.3633 18.0564,46.8643 C18.0924,46.8403 18.1234,46.9223 18.1384,46.9643 C18.0034,46.4903 18.4974,46.7273 18.3094,46.2363 C18.3544,46.2753 18.4324,46.2473 18.4724,46.2753 L18.4214,46.0603 L18.6264,46.1303 L18.3584,45.8943 L18.6044,45.8363 L18.5234,45.7373 C18.9784,45.6453 18.7514,45.2793 19.1244,45.0873 L18.8484,45.0623 C18.4904,44.2183 19.6034,43.5743 19.5894,42.6723 L19.7924,42.7483 L19.6464,42.3333 C19.8634,42.1983 19.7924,42.4973 19.9154,42.4703 C19.9064,42.0703 19.6514,42.2273 19.7174,41.7833 C19.9244,41.6083 19.8454,41.9043 19.8924,42.0293 C19.9064,41.6003 19.9784,40.9803 20.1814,40.7333 C20.1544,40.7183 20.1244,40.6903 20.1064,40.7013 C20.0974,40.4073 20.2984,40.0853 20.3764,39.7903 C20.4694,39.8273 20.4624,39.9043 20.4594,39.9833 C20.5044,39.8813 20.6134,39.7593 20.5454,39.6393 L20.6894,39.8043 C20.7944,39.5923 20.7664,39.1103 20.9904,39.1263 C20.9024,39.1283 20.7514,39.0673 20.8204,38.8763 C21.1724,38.8733 20.8624,38.3113 21.1354,38.0573 C21.1974,38.1193 21.1394,38.3503 21.1634,38.2883 C21.2984,38.1603 21.1964,37.9733 21.1444,37.8053 L21.2584,37.8883 L21.3224,37.1123 C21.6724,37.1113 21.5024,36.4173 21.7154,36.5443 C21.8114,36.2923 21.5044,36.7123 21.5764,36.3753 C21.7364,36.3343 21.6104,36.0603 21.8094,36.1443 L21.8224,36.1873 L21.8824,35.9553 L22.0354,36.1673 C22.0554,35.9573 21.9094,35.7473 21.7584,35.6833 C21.9354,35.5393 21.9374,35.2463 22.1494,35.2253 L22.1744,35.3103 C22.2784,34.7663 23.0294,34.6533 22.8324,34.1263 C22.8714,34.1063 22.9204,34.1283 22.8954,34.1903 L23.0214,33.8773 L23.1444,34.0073 L23.1014,33.3983 L23.1994,33.4413 C23.3594,33.1083 23.5204,32.5523 23.6554,32.0963 L23.6784,32.1803 C23.7054,31.6373 23.9524,31.7503 23.9754,31.3543 C23.9974,31.3763 24.0034,31.3923 24.0044,31.4083 L24.1204,31.0873 L24.1924,31.1963 C24.0644,30.8753 24.7314,30.6313 24.4924,30.7063 C24.4474,30.5363 24.4174,30.2603 24.3094,30.1723 C24.4374,29.8233 24.4734,30.1383 24.6444,29.9593 C24.7564,29.7143 24.6004,29.6013 24.8264,29.2993 L24.9244,29.3473 C24.9704,29.1823 24.9374,29.0553 25.0114,28.8293 L25.0334,28.9143 C24.9674,28.4693 25.5104,28.5863 25.1844,28.1253 C25.3264,28.0083 25.3784,27.6973 25.5734,27.7933 C25.6204,27.2923 25.7144,26.9243 25.8204,26.4493 C26.1794,26.5173 25.8404,26.3453 26.1414,26.1583 L25.9574,26.1033 C26.2034,25.4703 26.9324,24.9393 27.1684,24.2303 L27.3514,24.2893 L27.2214,24.0673 C27.6344,23.3733 28.1294,22.4583 28.3934,21.8763 C28.3904,21.6443 28.3214,21.2603 28.5264,20.9893 L28.5354,21.0313 C28.6844,20.4613 28.8764,19.8723 29.2474,19.3483 C29.3034,19.4183 29.3814,19.3873 29.3974,19.4733 C29.2714,19.2463 29.5474,19.1333 29.6104,19.0143 L29.4134,19.0943 C29.3264,18.8513 29.5994,18.6973 29.7664,18.6773 L29.7094,18.3333 C29.7354,18.3253 29.7744,18.3113 29.8044,18.3223 L29.7354,18.2323 L30.0294,18.2093 C30.0154,18.1233 30.1264,17.7583 29.9644,17.5443 C30.0514,17.5583 30.2284,17.3503 30.1784,17.5543 L30.7114,16.6603 L30.5584,16.7633 C30.3794,16.6953 30.4114,16.3613 30.5614,16.2553 C30.6034,16.5153 30.7964,16.3953 30.9614,16.3783 C30.9334,16.2053 30.7564,16.4113 30.6964,16.2963 C30.6594,16.0783 30.7764,15.7143 30.8974,15.6713 L30.9164,15.8003 C30.9664,15.5543 31.3124,15.6093 31.4094,15.3923 C31.3734,15.1323 31.5724,15.0583 31.2614,14.9453 C31.3464,14.6403 31.5144,14.9443 31.5894,14.8713 C31.5184,14.6683 31.8094,14.3343 31.9824,14.3643 C31.6364,13.9883 32.5224,13.7113 32.1954,13.4643 C32.2824,13.4633 32.4464,13.3153 32.5934,13.2103 C32.5034,13.1503 32.3294,12.9643 32.4674,12.6323 C32.7504,12.3703 32.8964,12.4963 33.0604,12.4323 C32.9704,12.3213 32.8754,12.2143 32.7784,12.1133 C33.4924,11.2933 34.1494,10.2113 34.7964,9.1273 C35.4444,8.0293 36.1044,6.9473 36.9944,5.7683 C37.3784,4.9503 37.6794,4.0923 38.3074,3.0743 C38.2604,3.0743 38.2054,3.0803 38.1474,3.0873 L38.3714,3.0003 L37.3884,3.0493 L37.9154,3.1503 C37.5734,3.2533 37.2424,3.3873 37.0134,3.4193 C36.0884,3.4023 34.5274,3.4543 32.7224,3.9593 C31.3184,4.6633 32.3724,3.6013 31.1074,4.1533 C31.2214,4.0913 31.2974,4.0113 31.4064,3.9473 C30.2174,4.3003 29.5844,4.4863 28.4994,4.9423 C28.7154,4.4403 27.8294,5.0633 27.9624,4.7953 L27.8544,5.0033 C27.6424,4.9233 27.0934,4.9723 27.1684,4.8253 L26.7204,5.1343 L26.6604,4.9513 C26.2574,5.0103 26.1124,5.0703 25.8384,5.1043 C25.5924,5.1333 25.3574,5.1143 25.2374,4.9373 C24.4534,5.3603 23.1264,5.4923 22.0704,5.5913 C21.9494,5.7703 21.6464,5.8333 21.4114,5.8883 L21.1194,5.7063 C20.8894,5.8153 20.6794,6.1413 20.4294,6.0343 C20.4264,6.0073 20.4334,5.9873 20.4464,5.9713 C20.2084,6.0583 19.9544,5.9773 19.7584,6.2233 C19.4864,6.2563 19.2054,6.1803 19.2524,5.9573 C19.2884,6.3353 18.6724,5.9983 18.6724,5.9983 C18.6724,5.9983 4.6764,7.3803 1.6344,9.9713 C1.5504,10.1733 1.2564,10.3453 1.4124,10.5443 C1.1824,10.6553 1.0164,10.3473 1.0004,10.5403 C1.3504,10.6083 0.9764,11.0353 1.3374,11.2103 L1.1384,11.2913 C1.1174,11.4283 1.3944,11.0943 1.3834,11.3413 L1.3854,10.9863 C1.5604,11.0103 1.6654,11.0683 1.7434,11.1753 C1.8784,11.0143 1.9014,10.5303 2.3114,10.6713 L2.2114,10.7093 C2.5154,10.6463 2.4354,10.9013 2.5094,10.9473 L2.4404,10.9563 L2.7274,11.0863 C2.5134,11.0023 2.2364,11.3363 2.4024,11.2893 C2.7834,11.3253 2.2934,11.2203 2.5604,11.1323 C2.7274,11.0863 2.7104,11.2793 2.7214,11.3873 L3.0234,11.3243 C3.0404,11.4863 2.8204,11.3483 2.9724,11.4943 L3.3284,11.2593 C3.4674,11.6543 3.7154,10.9953 3.9544,11.3483 C3.6934,11.4903 4.0014,11.4813 3.9794,11.6203 L4.6534,11.4843 C4.7274,11.5303 4.4964,11.6383 4.5964,11.6013 C4.7424,11.6923 4.7894,11.4673 4.8584,11.4593 C4.9354,11.5613 5.3644,11.3713 5.3904,11.6433 C5.8804,11.7473 5.5264,11.2693 5.9804,11.3523 C6.0644,11.5063 5.6464,11.4473 5.8654,11.5843 L6.3004,11.4503 C6.2724,11.5373 6.2574,11.7293 6.0854,11.7223 C7.3224,11.7383 8.1144,12.4923 9.1774,12.0903 C9.3644,12.2593 9.0874,12.2393 8.9984,12.3853 C9.7514,11.9953 10.1884,12.6263 10.8624,12.4913 L10.8484,12.3293 C11.8754,12.6703 12.9634,12.1843 14.0654,12.2143 L13.9204,12.1243 C14.0414,11.9453 14.2754,11.8893 14.4384,11.7883 C14.4794,11.8653 14.3694,12.1523 14.6684,12.0343 C14.5944,11.9883 14.4534,11.9493 14.4794,11.8653 C15.4664,12.1303 17.3854,11.7073 18.9264,11.6593 C20.9434,11.1993 23.2074,11.1463 25.1934,10.7153 C24.8904,10.7793 24.9544,10.3623 25.1994,10.4153 C25.9394,10.9823 26.2714,10.1223 26.9904,10.4733 C27.6394,10.1443 27.1144,10.8303 27.6434,10.2133 L27.4894,10.4333 C27.4294,10.5333 27.5434,10.3783 27.5804,10.3533 L27.5294,10.4163 C27.4804,10.4983 27.7484,10.2553 27.6634,10.3633 L27.9454,10.0963 C28.0104,10.0683 27.7374,10.3003 27.9434,10.1413 L27.7894,10.2773 L28.1304,10.0123 C27.5484,10.4943 28.1844,10.0353 27.9264,10.2503 C27.9854,10.2163 28.0654,10.1703 28.1564,10.1193 C28.2464,10.0773 28.2964,10.0823 28.1864,10.1763 C27.8384,10.3973 27.8094,10.4493 27.6404,10.5503 C27.6954,10.5473 27.7174,10.6363 27.5944,10.7163 L27.8814,10.7073 L27.8804,10.7423 C27.8194,10.7403 27.7854,10.7423 27.7584,10.7373 C27.4404,10.7343 27.8154,10.8093 27.6214,10.8043 C27.8544,10.8413 27.6674,10.7923 27.6804,10.7823 C27.8194,10.7723 28.0574,10.8333 27.9014,10.8613 L27.8474,10.8483 C27.8864,10.8673 27.9234,10.8883 27.9594,10.9123 C27.7664,10.8653 27.6684,10.8583 27.4854,10.7943 C27.4824,10.8253 27.5284,10.7983 27.5174,10.8983 C27.4694,11.0733 27.4234,11.2433 27.3774,11.4123 C27.2854,11.7503 27.1774,12.0833 26.9434,12.4283 C26.7944,12.2533 26.7124,12.9823 26.4614,12.6623 C26.3524,13.1683 26.7674,12.7283 26.8924,13.0513 C26.8224,13.1713 26.8454,13.3483 26.7114,13.3073 C26.6624,13.2083 26.4574,13.3023 26.4804,13.1873 L26.3504,13.4953 C26.3094,13.5093 26.2984,13.4213 26.2934,13.3773 C26.1704,14.0773 25.5334,14.3423 25.4514,14.9843 C25.5514,15.0843 25.5934,14.7853 25.6944,14.8853 C25.6634,15.5543 25.2344,15.2603 25.1504,15.8583 L25.0384,15.6693 C25.0694,15.8923 25.1764,16.0343 24.9064,16.2403 C24.6844,16.1903 24.8614,15.9293 24.8354,15.7533 C24.7334,15.9363 24.5484,16.4333 24.7984,16.3763 C24.7494,16.6313 24.5394,16.6293 24.4264,16.7253 C24.4734,16.7523 24.6574,16.5783 24.6854,16.7543 C24.4294,17.0073 24.2064,17.4843 24.0104,17.8513 C23.9634,17.8253 23.8774,17.8163 23.8684,17.7723 C23.9814,18.1963 23.5564,17.9553 23.4134,18.3963" id="Fill-53"></path>
                <path d="M16.4612,39.4383 L16.5432,39.2893 C16.4962,39.2743 16.4452,39.2513 16.4172,39.1613 L16.4612,39.4383 Z" id="Fill-55"></path>
                <path d="M19.1097,31.9725 C19.1007,31.9475 19.0917,31.9215 19.0747,31.8965 C19.0697,31.9375 19.0887,31.9575 19.1097,31.9725" id="Fill-57"></path>
                <path d="M19.4251,30.0359 C19.4211,30.1819 19.5191,30.0869 19.5951,30.0439 C19.5551,30.0249 19.5041,30.0099 19.4251,30.0359" id="Fill-59"></path>
                <path d="M15.7542,43.9002 C15.7422,43.8662 15.7192,43.8412 15.6742,43.8342 C15.7012,43.8812 15.7272,43.8982 15.7542,43.9002" id="Fill-61"></path>
                <path d="M12.8118,55.9471 C12.8258,55.9331 12.8348,55.9231 12.8528,55.9031 C12.8358,55.9101 12.8228,55.9261 12.8118,55.9471" id="Fill-63"></path>
                <path d="M13.2689,55.3191 C13.2769,55.2861 13.2769,55.2411 13.2639,55.1741 C13.2419,55.2331 13.2499,55.2801 13.2689,55.3191" id="Fill-65"></path>
                <path d="M16.5042,40.9969 C16.5092,40.9499 16.5062,40.9019 16.4742,40.8519 C16.4582,40.9219 16.4792,40.9649 16.5042,40.9969" id="Fill-67"></path>
                <path d="M13.2425,55.0242 L13.2965,54.8562 C13.2825,54.8522 13.2725,54.8492 13.2555,54.8452 L13.2425,55.0242 Z" id="Fill-69"></path>
                <path d="M12.7493,56.1629 C12.7683,56.0959 12.7823,56.0039 12.8113,55.9469 C12.7393,56.0239 12.7273,56.0939 12.7493,56.1629" id="Fill-71"></path>
                <path d="M14.89,48.3592 C14.888,48.3532 14.891,48.3472 14.889,48.3402 C14.83,48.1872 14.849,48.2792 14.89,48.3592" id="Fill-73"></path>
                <polygon id="Fill-75" points="13.0198 54.2029 13.0328 54.1819 12.9838 54.1199"></polygon>
                <path d="M12.5482,56.909 C12.5482,56.875 12.5432,56.844 12.5222,56.815 C12.5112,56.842 12.4982,56.873 12.4832,56.912 C12.5122,56.906 12.5312,56.906 12.5482,56.909" id="Fill-77"></path>
                <path d="M13.9671,50.7996 C14.0351,50.8646 14.0851,50.8956 14.1251,50.9056 C14.1351,50.8496 14.1071,50.8056 13.9671,50.7996" id="Fill-79"></path>
            </g>
        </g>
    </g>
</svg>