<?xml version="1.0" encoding="UTF-8"?>
<svg width="40px" height="70px" viewBox="0 0 40 70" version="1.1" xmlns="http://www.w3.org/2000/svg" xmlns:xlink="http://www.w3.org/1999/xlink">
    <!-- Generator: Sketch 51.2 (57519) - http://www.bohemiancoding.com/sketch -->
    <title>number_9</title>
    <desc>Created with Sketch.</desc>
    <defs>
        <polygon id="path-1" points="0 0.509149368 34.1127 0.509149368 34.1127 66 0 66"></polygon>
    </defs>
    <g id="Page-1" stroke="none" stroke-width="1" fill="none" fill-rule="evenodd">
        <g id="切图" transform="translate(-811.000000, -426.000000)">
            <g id="9" transform="translate(811.000000, 426.000000)">
                <path d="M23.0571,53.073 C23.0761,53.093 23.1011,53.111 23.1381,53.132 C23.1101,53.097 23.0821,53.081 23.0571,53.073" id="Fill-1" fill="#DD6343"></path>
                <path d="M27.3979,44.5261 L27.3969,44.6471 C27.4189,44.5771 27.4149,44.5451 27.3979,44.5261" id="Fill-3" fill="#DD6343"></path>
                <path d="M20.5766,58.2419 C20.5726,58.2309 20.5666,58.2289 20.5596,58.2209 C20.5226,58.3009 20.4726,58.4089 20.3896,58.5849 L20.5766,58.2419 Z" id="Fill-5" fill="#DD6343"></path>
                <path d="M34.5512,23.0945 L34.7272,23.0435 C34.6502,23.0635 34.6102,23.0635 34.5512,23.0945" id="Fill-7" fill="#DD6343"></path>
                <path d="M30.8735,36.9597 C30.8505,36.9087 30.8605,36.8457 30.8725,36.7827 C30.8365,36.8527 30.8195,36.9137 30.8735,36.9597" id="Fill-9" fill="#DD6343"></path>
                <path d="M17.4545,60.2214 L17.6485,60.1254 C17.5915,60.1044 17.5095,60.1334 17.4545,60.2214" id="Fill-11" fill="#DD6343"></path>
                <path d="M15.8149,65.8572 C15.8259,65.8562 15.8359,65.8582 15.8509,65.8542 C15.8409,65.8412 15.8289,65.8462 15.8149,65.8572" id="Fill-13" fill="#DD6343"></path>
                <path d="M17.1801,63.9431 C17.1871,63.8931 17.1851,63.8311 17.1831,63.7681 C17.1611,63.8351 17.1281,63.9171 17.1801,63.9431" id="Fill-15" fill="#DD6343"></path>
                <path d="M17.1792,63.6833 L17.1832,63.7683 C17.1952,63.7263 17.2022,63.6923 17.1792,63.6833" id="Fill-17" fill="#DD6343"></path>
                <path d="M25.9614,17.6892 C26.0484,17.8072 26.2094,17.8352 26.3634,17.8832 L25.9614,17.6892 Z" id="Fill-19" fill="#DD6343"></path>
                <path d="M15.6723,31.6179 L15.6993,31.5579 C15.6753,31.5779 15.6703,31.5979 15.6723,31.6179" id="Fill-21" fill="#DD6343"></path>
                <path d="M27.0317,17.0378 L27.0807,17.1448 C27.0727,17.0988 27.0537,17.0648 27.0317,17.0378" id="Fill-23" fill="#DD6343"></path>
                <path d="M18.2924,57.2263 C18.2284,57.0163 18.5164,56.7623 18.3894,56.7123 C18.3414,56.8853 18.1464,57.0783 18.2924,57.2263" id="Fill-25" fill="#DD6343"></path>
                <path d="M10.477,35.3894 L10.344,35.3174 C10.405,35.3564 10.445,35.3764 10.477,35.3894" id="Fill-27" fill="#DD6343"></path>
                <path d="M27.0317,17.0378 L26.9737,16.9138 C26.9617,16.9388 26.9547,16.9648 26.9457,16.9898 C26.9797,16.9998 27.0097,17.0158 27.0317,17.0378" id="Fill-29" fill="#DD6343"></path>
                <path d="M8.5688,19.4666 L8.5688,19.4716 C8.5788,19.4836 8.5858,19.4906 8.5948,19.5036 L8.5688,19.4666 Z" id="Fill-31" fill="#DD6343"></path>
                <path d="M8.7934,18.615 C8.8064,18.674 8.8174,18.73 8.8314,18.793 C8.8504,18.7 8.8274,18.65 8.7934,18.615" id="Fill-33" fill="#DD6343"></path>
                <path d="M26.3637,17.8835 L26.5977,17.9975 C26.5317,17.9415 26.4487,17.9095 26.3637,17.8835" id="Fill-35" fill="#DD6343"></path>
                <path d="M11.8256,9.6072 C11.8126,9.6382 11.8006,9.6692 11.7926,9.7002 C11.8146,9.6652 11.8256,9.6332 11.8256,9.6072" id="Fill-37" fill="#DD6343"></path>
                <path d="M30.4946,37.6433 C30.4726,37.6623 30.4526,37.6903 30.4316,37.7133 C30.4576,37.7353 30.4806,37.7393 30.4946,37.6433" id="Fill-39" fill="#DD6343"></path>
                <polygon id="Fill-41" fill="#DD6343" points="28.9946 31.5691 28.9946 31.5681 28.9906 31.5711"></polygon>
                <path d="M29.1772,31.5867 C29.2452,31.5007 29.1332,31.5067 28.9942,31.5687 C28.9732,31.6217 28.9992,31.6367 29.1772,31.5867" id="Fill-43" fill="#DD6343"></path>
                <path d="M29.2495,31.1316 C29.2365,31.1456 29.2275,31.1566 29.2135,31.1726 C29.2315,31.1536 29.2435,31.1406 29.2495,31.1316" id="Fill-45" fill="#DD6343"></path>
                <polygon id="Fill-47" fill="#DD6343" points="26.9917 35.8308 27.0057 35.8368 26.9947 35.8268"></polygon>
                <path d="M27.5971,34.3347 C27.6331,34.3177 27.6671,34.2907 27.6981,34.2567 C27.6611,34.2707 27.6261,34.2957 27.5971,34.3347" id="Fill-49" fill="#DD6343"></path>
                <polygon id="Fill-51" fill="#DD6343" points="28.7661 30.6824 28.7781 30.6694 28.7721 30.6734"></polygon>
                <g id="Group-55" transform="translate(3.000000, 1.490600)">
                    <mask id="mask-2" fill="white">
                        <use xlink:href="#path-1"></use>
                    </mask>
                    <g id="Clip-54"></g>
                    <path d="M17.1127,35.1224 C18.9057,34.4584 20.7537,33.1264 22.1717,32.2724 C22.3147,31.8344 22.7217,31.5464 23.0947,31.2094 L23.3567,31.4944 L23.6257,31.1574 C23.8287,31.1564 23.4087,31.3964 23.7327,31.3474 L23.7227,31.0624 C23.8727,31.1264 23.8567,31.0794 23.9677,31.3384 L23.9857,31.3284 C23.9867,31.3414 23.9817,30.9404 24.0087,31.0384 C23.9997,31.1774 24.0007,31.1574 23.9907,31.3104 C23.9797,31.4914 23.9907,31.2584 24.0987,30.9444 C24.1917,30.6414 24.3767,30.2624 24.4187,30.3484 L24.3687,30.4414 C24.4667,30.2564 24.5247,30.2404 24.5697,30.1464 C24.8427,29.5014 24.3707,30.5224 24.4797,30.1734 C24.7047,29.6354 24.7017,29.8244 24.8867,29.4074 C24.8707,29.5684 25.0697,29.2244 25.1707,29.1454 C25.0907,29.4544 25.4277,29.1004 25.1887,29.5624 C25.3647,29.3414 25.8787,28.6794 26.0677,28.5874 C25.7797,29.0734 25.6757,29.0914 25.6487,29.2484 L25.9777,28.8474 C26.0457,28.8714 25.9327,28.9894 25.7777,29.1794 C25.8637,29.1664 26.3397,28.6004 26.2677,28.8194 L25.8417,29.2354 C25.9417,29.1594 26.0467,29.0854 26.0157,29.1384 C25.9907,29.1874 25.9617,29.2434 25.9177,29.3304 C25.7137,29.5444 25.7447,29.4844 25.8197,29.3824 C25.2597,30.0204 26.0077,29.2454 25.9297,29.3554 C26.0877,29.1884 26.1997,29.0064 26.5307,28.6854 C26.4567,28.8024 26.7447,28.5514 26.6637,28.6744 C26.6407,28.7074 26.5907,28.7684 26.4957,28.8714 L26.3537,28.9864 L26.1977,29.1174 C26.2247,29.1024 26.2517,29.0864 26.2797,29.0614 C26.4447,28.9604 26.5627,28.8264 26.3797,29.1164 C26.3587,29.1294 26.2737,29.2124 26.2067,29.2734 C26.5807,29.0064 26.1247,29.5424 26.0297,29.7274 L25.9617,29.7614 C26.0387,29.7434 26.2887,29.5794 26.2497,29.6414 C26.4687,29.3904 26.5467,29.3464 26.8427,29.1034 C26.2797,29.6554 27.2877,28.9774 26.8587,29.5414 C26.7047,29.6334 26.5387,29.6894 26.7447,29.4874 C26.3037,29.7154 25.8917,30.0034 25.7047,30.0624 C25.7927,30.0454 25.8207,30.0954 25.6247,30.2194 L26.0657,29.9274 C26.0557,29.9754 26.0107,30.0364 25.9947,30.0774 C26.2587,29.9314 26.5057,29.6434 26.6227,29.6864 C26.6857,29.7904 26.1417,30.0544 26.3237,29.9654 C26.3957,30.1014 26.7327,29.8134 26.4927,30.1384 C26.4687,30.1284 26.4187,30.1164 26.4667,30.0754 C26.2327,30.3264 26.3517,30.4924 25.8767,30.7034 C25.7837,30.7184 25.6467,30.7664 25.7077,30.7014 L25.7767,30.6764 C25.5007,30.6634 25.8157,30.7644 25.4247,30.8674 C25.6747,30.7684 25.5407,30.9754 25.4667,31.0604 L25.7407,30.9754 C26.3777,31.1514 25.2327,31.0664 25.2317,31.2894 C25.3317,31.4364 25.3257,31.2234 25.4547,31.3134 C25.3607,31.4394 25.1417,31.4554 25.1757,31.6204 C25.0697,31.6484 24.9247,31.6934 24.6907,31.6144 C24.7057,31.6444 24.7127,31.6424 24.6877,31.6954 C24.6477,31.7774 24.6047,31.8664 24.5627,31.9514 C24.4807,32.1214 24.4207,32.2854 24.5017,32.4014 C24.6837,32.2304 24.6697,32.1014 24.6717,31.9674 C24.6687,31.8444 24.7167,31.6384 24.8767,31.6694 C24.9457,31.7084 25.0147,31.7504 25.0817,31.7964 C24.9707,32.0254 24.8667,32.5874 24.6977,32.7664 C24.7607,32.7354 24.8267,32.7384 24.8607,32.7884 C24.7397,33.3104 24.9017,33.5444 24.6337,33.9894 C24.4057,33.9664 24.5577,33.7044 24.6257,33.4944 C24.3347,33.7314 24.4777,33.8094 24.2117,34.2544 C24.0237,34.2054 24.3577,33.9394 24.2077,33.8124 L24.0407,34.3604 C24.0317,34.3534 24.0177,34.3514 24.0057,34.3464 C24.2677,34.5464 23.8097,34.7344 23.7617,35.0934 C23.4367,35.8514 23.7847,36.1364 23.8417,36.6574 C23.7147,36.7364 23.6247,36.7384 23.5707,36.6594 C23.7817,36.5274 23.6647,36.5184 23.6157,36.4204 C23.5367,36.6884 23.0867,36.8574 23.0287,36.6644 C22.9397,37.1074 23.2467,36.5834 23.2317,36.8714 L22.9747,37.4214 C23.1537,37.4204 23.2707,37.2374 23.2617,37.5754 C23.1997,37.8364 23.1197,37.9414 22.9737,38.2554 C22.9197,38.1784 22.7017,38.2584 22.8127,38.0234 C22.6907,38.1524 22.5817,38.3904 22.6877,38.5454 C22.9737,38.2554 22.5737,39.1724 22.9187,39.0124 L22.6337,39.3024 C22.6707,39.2244 22.5737,39.1724 22.6527,39.0674 C22.3827,39.0684 22.5957,39.3804 22.5657,39.5114 C22.4697,39.6154 22.3127,39.9254 22.2137,39.9134 C22.2297,40.0514 22.0637,40.2994 21.9257,40.2994 C21.9007,40.4824 22.0697,40.3764 22.1237,40.4554 L21.8647,41.0044 C21.7247,40.9794 21.3537,40.8764 21.3417,40.7714 C21.3697,41.0324 21.6837,41.0064 21.5357,41.3194 C21.3697,41.0324 21.1667,41.6604 20.9877,41.2704 C20.7287,41.3754 20.5127,41.8984 20.4557,42.2134 C20.5737,42.4744 20.6987,41.9504 20.8897,42.0544 C20.6167,42.8904 21.1447,43.1754 20.7957,43.7254 L20.9177,43.5954 C20.8717,44.0124 20.8647,43.9604 20.9407,44.2474 C20.7387,44.0394 20.0967,44.3824 19.8897,45.0104 C19.9927,45.1144 20.2717,44.7724 20.4257,44.9554 L20.2907,45.3734 C20.2587,45.3934 20.2357,45.3324 20.2257,45.2674 C20.1597,45.6654 19.6167,45.8004 19.8617,46.0284 L19.3417,46.2394 L19.5587,46.1614 C19.6607,46.2644 19.5237,46.6844 19.5357,46.7884 C19.4947,47.2604 19.3237,47.3634 19.0697,47.5224 C19.2027,47.4944 19.5107,47.4144 19.4097,47.7564 C19.0097,47.5814 18.9687,48.3734 18.7657,48.2754 C18.7147,48.4084 18.4897,48.5884 18.6487,48.6754 L18.4097,48.5464 C18.7447,48.7264 18.5227,49.1964 18.4287,49.5904 C17.9907,49.3054 18.2937,50.0084 17.7927,49.9874 C18.0857,50.1934 17.6417,50.6924 17.8877,50.8734 C17.7827,51.1624 17.4957,51.0074 17.3617,51.0354 L17.4247,51.2184 C17.2147,51.2964 16.9657,51.8164 16.7267,52.0874 L16.8857,52.5024 L16.7107,52.5564 C16.7627,52.6334 16.7017,52.8954 16.8717,52.7894 L16.7877,52.9404 C17.0917,53.0854 16.7777,53.1994 16.7747,53.5744 C16.6937,53.6264 16.6287,53.5754 16.6157,53.4884 C16.5467,53.6454 16.4157,53.5114 16.2747,53.5534 C16.4017,53.4754 16.5897,54.3594 16.9107,53.9914 C17.0497,54.0164 17.0357,54.3044 16.9147,54.4354 L16.5947,54.4134 L16.8097,54.7244 C16.7477,54.9854 16.5247,55.0144 16.4097,55.1974 C16.4777,54.9894 16.0637,54.5214 15.8487,55.0474 C15.9287,54.7584 15.8317,54.5574 15.8337,54.3914 C15.7767,54.4934 15.7257,54.5364 15.6787,54.3184 C15.5927,54.7634 15.7927,54.5264 15.6567,54.9454 C15.4177,54.8174 15.2887,54.8964 15.0537,55.2144 L15.3487,55.0274 C15.3747,55.0534 15.3877,55.0794 15.3947,55.1054 C15.4647,55.0184 15.5147,55.0054 15.6197,55.0244 C15.5837,55.1024 15.7317,55.6244 15.5517,55.6274 C16.1117,55.3854 15.5547,56.4654 15.8987,56.3034 C15.9527,56.3804 15.8477,56.6684 15.7107,56.6444 C15.6637,56.2274 15.3187,56.7804 15.1677,56.6524 C15.1867,56.8094 15.4647,56.4644 15.4877,56.6744 C15.4207,56.8834 15.2037,56.9664 15.0777,57.0454 L15.0657,56.9414 L14.8227,57.2064 C14.9257,57.3094 15.1617,56.9934 15.1057,57.3074 C15.0217,57.3604 14.9667,57.6754 14.8697,57.6254 C14.7557,57.4164 14.4857,57.4214 14.5457,57.1584 C14.4777,57.3684 14.2357,58.0264 14.5797,57.8634 L14.4697,58.1024 C14.6387,57.9934 15.0077,57.6474 14.8387,58.1484 L14.7907,58.1234 L14.8397,58.5404 L14.6487,58.6354 C14.7147,58.6564 14.7507,58.7344 14.6947,58.8574 C14.6057,58.8594 14.5267,58.9654 14.4297,58.9144 C14.2927,59.2844 14.4307,59.3074 14.4847,59.3854 C14.4187,59.5964 14.3347,59.6504 14.2257,59.4944 C14.0777,59.7604 13.9087,60.2604 13.6967,60.3964 C13.6577,60.8174 13.7807,60.3404 13.8617,60.6294 C13.2917,60.7744 13.1907,61.8034 12.9997,62.4364 C13.4507,62.4234 12.9747,62.6214 13.2807,62.8734 C13.2117,62.6914 12.7557,63.3434 12.8567,62.7584 L12.7687,63.1054 C12.4687,63.2494 12.8227,62.4944 12.3997,62.7234 C12.2667,63.1014 12.5947,63.5094 12.2837,63.8924 C12.0667,63.6414 12.2437,64.2634 11.9847,64.0394 C11.9217,63.9114 11.9987,63.8014 12.0247,63.6684 L11.9417,63.7254 C11.5467,64.5134 12.1727,64.0814 12.1977,64.5834 C12.0507,65.1044 11.8367,64.9054 11.6957,64.8894 C11.6137,64.9494 11.5637,65.2244 11.5877,65.3844 C11.5317,65.0114 11.9677,64.8674 12.0907,65.0734 C11.6957,65.1854 11.7947,65.8214 11.8697,66.0004 C12.4627,65.3924 12.0657,65.5024 12.6657,64.9544 C12.6007,64.8284 12.3077,64.7314 12.5797,64.3784 C12.6217,64.6804 12.7427,64.4204 12.8147,64.3664 C12.6237,64.3824 12.8547,64.0654 12.8347,63.9184 C13.0087,63.8584 13.1147,64.2994 13.3357,63.9224 L12.9857,63.7004 C13.1037,63.5644 13.2377,63.8744 13.2767,63.5054 C13.4037,63.7624 13.6037,63.5694 13.4897,64.0454 C14.0217,63.6334 13.6327,63.1484 13.6647,62.6784 C13.6717,62.7294 13.7187,62.7544 13.7277,62.8064 C13.6647,62.6784 13.7357,62.5184 13.7627,62.3874 C13.9607,62.1454 13.8457,62.6724 13.9777,62.6424 L14.1477,62.1934 C14.1637,62.1884 14.1717,62.1894 14.1787,62.1924 C14.1747,62.0554 14.1857,61.9304 14.2967,61.9274 C14.3637,62.1074 14.4677,62.2104 14.5297,62.3384 L14.4567,61.7664 C14.5597,61.8674 14.8267,61.4684 14.7827,61.8364 L15.0087,61.1254 L15.2857,61.1704 C15.3077,60.9874 15.2597,60.9624 15.1487,61.1464 C15.3017,60.9354 15.1367,59.9224 15.5837,60.2514 C15.5997,59.6264 15.7627,59.4654 15.9057,58.7594 C15.9297,59.3574 16.4387,58.3064 16.3267,58.8834 C16.5657,58.6164 16.3207,58.4384 16.3817,58.1764 C16.5857,57.9914 16.7907,58.1974 16.7777,58.4834 L16.7857,58.1434 L16.8337,58.1704 L16.7977,57.8574 C17.0457,57.6444 17.0747,57.9064 17.2257,57.6434 L17.0277,57.4894 L17.2377,57.3554 C17.1057,57.3844 17.1297,57.2004 17.1967,56.9914 L17.2447,57.0174 L17.3047,56.7544 C17.3397,57.0544 17.4477,56.5514 17.5597,56.7294 C17.6597,56.5244 17.6587,56.5184 17.7767,56.1234 L17.5957,56.1264 C17.6727,55.5764 17.8317,56.2004 18.0127,55.8074 L17.8277,55.7584 C18.3667,55.3094 18.0747,54.7124 18.4447,54.3684 C18.3827,54.6294 18.6117,54.6544 18.5637,54.6284 C18.6557,54.2354 18.9557,53.6594 18.9037,53.1904 C19.2167,53.1604 19.3067,53.1604 19.5877,52.8194 C19.6927,52.5304 19.6857,52.4784 19.5787,52.3234 C19.7937,52.0924 19.8667,51.5174 20.0567,51.5824 C19.9377,51.4554 20.1917,51.3484 20.1327,51.1444 L20.2207,51.1444 L20.0357,51.0944 C20.6347,50.7754 20.1647,50.1804 20.7167,49.8364 L20.7257,49.9404 L20.7467,49.7054 C20.8377,49.7054 20.8477,49.8094 20.9437,49.8614 L21.3867,48.9184 L21.1747,49.0504 C21.2427,48.8414 21.1317,48.6334 21.3387,48.4484 C21.4357,48.9434 21.4847,48.1344 21.7137,48.1594 L21.6937,48.3934 C21.7987,48.1064 21.7987,48.1064 21.6127,48.0544 C21.7077,47.6644 22.0537,47.9474 22.0087,47.5314 L21.8977,47.7674 C21.7657,47.7934 21.6957,47.5604 21.7687,47.4024 C21.8117,47.3764 21.9387,47.2964 21.9087,47.4284 C21.9647,47.1124 22.2397,46.7214 22.2237,46.5644 C22.3447,46.4324 22.4477,46.5364 22.4587,46.6414 C22.5677,45.9614 22.6107,46.3784 22.7207,45.6974 L22.8167,45.7514 L22.7887,45.4894 L23.1287,45.2784 L22.9537,45.3314 C23.0217,45.1224 23.0067,44.9664 23.1647,44.7564 L23.2707,44.9134 C23.4327,44.3104 23.7997,44.3624 23.8257,43.7334 C23.8677,43.7084 23.8787,43.8114 23.8837,43.8654 C23.8667,43.2654 24.3087,43.6004 24.2427,42.9744 C24.2787,43.0264 24.3637,42.9974 24.3977,43.0354 L24.4007,42.7654 L24.5917,42.8674 L24.3787,42.5554 L24.6437,42.5014 L24.5867,42.3714 C25.0737,42.2904 24.9347,41.8204 25.3647,41.6074 L25.0887,41.5584 C24.9297,40.4894 26.2077,39.7464 26.4037,38.6214 L26.5947,38.7254 L26.5407,38.2024 C26.7947,38.0434 26.6527,38.4114 26.7857,38.3844 C26.8677,37.8854 26.5717,38.0704 26.7377,37.5204 C26.9867,37.3094 26.8447,37.6774 26.8627,37.8344 C26.9727,37.2994 27.1727,36.5254 27.4307,36.2234 C27.4077,36.2034 27.3827,36.1674 27.3627,36.1814 C27.4127,35.8134 27.6857,35.4184 27.8277,35.0514 C27.9157,35.0984 27.8917,35.1944 27.8727,35.2924 C27.9397,35.1674 28.0787,35.0164 28.0327,34.8654 L28.1467,35.0744 C28.3007,34.8104 28.3677,34.2074 28.5967,34.2294 C28.5057,34.2314 28.3617,34.1544 28.4707,33.9174 C28.6517,33.9154 28.6887,33.7374 28.7207,33.5204 C28.7307,33.4644 28.7407,33.4054 28.7507,33.3464 L28.8287,33.0774 C28.8867,32.9014 28.9617,32.7334 29.0717,32.5864 C29.1187,32.6794 28.9357,33.1584 28.9957,33.0264 C29.2157,32.7264 29.1897,32.3904 29.1967,32.1034 L29.2977,32.2094 L29.7027,30.7404 C30.1707,30.4674 30.1957,29.3864 30.4457,29.4144 C30.6727,28.8844 30.0897,29.9054 30.3077,29.2644 C30.5517,29.0274 30.4587,28.7104 30.7247,28.6274 L30.7277,28.6854 L30.8957,28.2264 C30.9487,28.2824 31.0007,28.3434 31.0507,28.4064 C31.1617,28.0074 30.9977,27.8504 30.7867,27.9434 C31.0967,27.4904 31.1757,27.0404 31.5127,26.7044 L31.5307,26.8004 C31.6777,26.3074 32.0617,25.7284 32.3997,25.1704 C32.7347,24.6194 33.0217,24.0924 32.9057,23.8934 C32.9787,23.7874 33.0607,23.7234 33.0037,23.8644 L33.2987,23.1474 L33.4917,23.0884 L33.5397,22.2884 L33.7167,22.1294 C33.8427,21.8434 33.9707,21.5234 34.1127,21.1494 C33.9327,21.1714 33.7327,21.1954 33.5297,21.2204 L33.2237,21.2604 L33.0717,21.2804 L32.8407,21.3494 L33.0327,21.2464 C31.8807,21.7164 32.2197,21.3494 31.4347,21.6824 C31.4877,21.6394 31.5207,21.6184 31.5507,21.6034 L30.9687,21.7674 L31.1947,21.5954 C30.5577,22.0154 30.2647,21.5294 30.3467,21.7154 C30.0247,21.9124 29.5267,22.1874 29.3607,22.3834 C28.7737,22.5714 29.3267,22.2414 29.0307,22.2264 C28.6057,22.3364 28.4077,22.6114 27.8847,22.6704 L27.9647,22.5184 C27.6617,22.6524 27.4417,22.8214 27.0347,22.9984 L27.1807,22.8814 C26.4137,23.4804 26.4587,22.7954 25.7377,23.7184 C25.4737,23.7434 24.8947,24.1344 24.9537,23.8544 C24.0167,24.5364 23.3097,25.0834 22.4467,25.7714 C22.1957,25.5094 22.2667,25.9194 21.6457,26.1054 L21.7637,26.2554 C21.4657,26.4714 21.0977,26.6974 20.7877,26.8674 C20.5767,26.9674 20.3547,27.0554 20.1337,27.1434 C19.6927,27.3204 19.2477,27.5034 18.9087,27.7664 L18.7847,27.6174 L18.7517,27.8894 C17.9147,28.3174 16.8557,28.7914 16.2287,29.0514 C16.0647,29.2374 15.8307,29.5734 15.4747,29.6284 L15.5007,29.5914 C14.9667,29.9034 14.3627,30.1374 13.7447,30.1114 C13.7697,30.0254 13.7047,29.9784 13.7627,29.9184 C13.6487,30.1544 13.4197,29.9724 13.3007,29.9734 L13.4577,30.1044 C13.3057,30.2974 13.0477,30.1474 12.9707,29.9994 L12.7167,30.2054 C12.7007,30.1864 12.6757,30.1574 12.6727,30.1274 L12.6247,30.2264 L12.5077,29.9624 C12.4437,30.0114 12.1217,30.0514 11.9827,30.2614 C11.9707,30.1744 11.7587,30.0744 11.9407,30.0574 C11.6547,29.9834 11.3827,29.8854 11.1267,29.7564 L11.2227,29.8874 C11.1817,30.0724 10.8767,30.0974 10.7767,29.9604 C11.0077,29.8894 10.8917,29.7214 10.8867,29.5564 C10.7407,29.5974 10.9097,29.7564 10.8127,29.8244 C10.6277,29.8704 10.2847,29.7944 10.2607,29.6624 L10.3797,29.6444 C10.1617,29.5874 10.2477,29.2684 10.0757,29.1664 C9.8387,29.1794 9.8067,28.9834 9.6397,29.2674 C9.3677,29.1514 9.6927,29.0254 9.6407,28.9454 C9.4437,28.9764 9.2007,28.6414 9.2907,28.4764 C8.8257,28.7084 8.8877,27.7854 8.5457,27.9964 C8.5487,27.8884 8.5607,27.7684 8.5717,27.6564 C8.4807,27.7154 8.2587,27.8214 8.0937,27.6764 C8.0707,27.4494 8.2577,27.3794 8.3157,27.2664 L7.9087,27.3774 C7.6227,26.2034 6.7177,24.8384 6.6787,23.4064 C6.4327,22.8724 6.0637,22.0904 5.9637,21.3364 L6.0287,21.4074 L6.0017,20.6574 L5.9187,21.2224 C5.8427,21.0704 5.7427,20.9594 5.7197,20.8034 C5.7287,19.9574 5.7997,18.9034 5.5687,17.9804 C5.0917,17.3784 5.9557,17.5744 5.6427,17.0104 C5.6837,17.0604 5.7497,17.0804 5.7937,17.1244 C5.6537,16.5124 5.6137,16.1874 5.4267,15.5354 C5.8687,15.6764 5.4867,15.1414 5.7157,15.2344 L5.5407,15.1504 C5.6707,15.0354 5.7767,14.7304 5.9027,14.8064 L5.7407,14.4894 L5.9327,14.5134 C6.0117,14.1734 6.1187,13.3694 6.5417,13.3144 C6.5557,12.3654 7.2707,11.0004 7.9397,9.9284 C7.8797,9.6994 8.0477,9.3654 8.1777,9.1014 L8.5297,8.9414 C8.6097,8.6484 8.5217,8.2284 8.7917,8.0594 C8.8137,8.0734 8.8247,8.0934 8.8257,8.1164 C8.9397,7.8284 9.1927,7.6364 9.1547,7.2834 C9.3057,7.0534 9.5497,6.9124 9.6807,7.0964 C9.3807,6.8514 10.0307,6.6974 10.0247,6.7114 C10.0247,6.7114 10.1527,6.5644 10.3597,6.3754 C10.4427,6.3074 10.6237,6.1534 10.6477,6.1614 C10.6457,6.1744 10.6797,6.1714 10.6907,6.1844 C10.7237,6.2014 10.7357,6.2404 10.7277,6.2594 C10.7277,6.2594 10.7317,6.2654 10.7207,6.2584 C10.7017,6.2424 10.7077,6.2464 10.7357,6.2754 L10.8687,6.4394 C10.9647,6.5614 11.0747,6.7184 11.1927,6.9044 C11.3117,7.0884 11.4377,7.2974 11.5747,7.5354 C11.7747,7.8544 11.9767,8.1774 12.1807,8.5014 C13.0677,9.8224 14.2527,11.0154 15.4347,11.8924 C16.6177,12.7794 17.7497,13.4174 18.7067,13.9534 C20.6337,14.9914 21.9447,15.7834 22.9617,16.1984 C23.1807,16.1764 23.5047,16.3834 23.5907,16.1354 C23.8257,16.3134 23.6437,16.6144 23.8277,16.5444 C23.6817,16.1664 24.2937,16.3494 24.2317,15.9024 L24.4277,16.0734 C24.5667,16.0334 24.0907,15.8954 24.3207,15.7964 L24.0007,15.9574 C23.9147,15.7664 23.9007,15.6324 23.9457,15.4994 C23.7207,15.4314 23.2837,15.6604 23.1307,15.1934 L23.2307,15.2704 C22.9707,15.0104 23.2407,14.9494 23.2287,14.8514 L23.2827,14.9154 L23.1907,14.5604 C23.2737,14.8154 23.7517,14.9174 23.5927,14.7754 C23.3527,14.3734 23.6127,14.9214 23.3487,14.7004 C23.1927,14.5594 23.3647,14.4704 23.4487,14.4004 L23.1597,14.1434 C23.2817,14.0354 23.3407,14.3264 23.3427,14.0974 L22.8687,13.8864 C23.0817,13.5104 22.3397,13.6854 22.4217,13.2464 C22.7557,13.4014 22.4857,13.1204 22.6137,13.0544 C22.3867,12.8654 22.1497,12.6934 21.9117,12.5214 C21.8807,12.4264 22.1727,12.5624 22.0537,12.4984 C21.9907,12.3064 21.7767,12.4104 21.7077,12.3544 C21.7167,12.2124 21.1737,11.9754 21.3527,11.7664 C20.9687,11.2664 20.9497,11.9004 20.5827,11.4584 C20.6157,11.2804 20.9677,11.6754 20.8617,11.3944 L20.3517,11.1194 C20.4397,11.0824 20.5947,10.9614 20.7547,11.1134 C19.5857,10.0494 19.3887,8.8964 18.2547,8.2734 C18.2417,8.0064 18.4367,8.2554 18.6247,8.2294 C17.7327,7.8464 17.9327,7.0844 17.4447,6.5884 L17.3157,6.6874 C17.1657,6.1464 16.8807,5.7114 16.6047,5.2304 L16.3867,4.8784 L16.1007,4.3754 L15.4697,3.2764 L15.5007,3.5134 C15.2387,3.4114 14.9877,3.1104 14.7297,2.9284 C14.7587,2.8384 15.1467,2.8714 14.7177,2.4974 C14.7577,2.6234 14.8657,2.8384 14.7597,2.8384 C14.3877,2.0594 13.0317,0.7264 11.2277,0.5454 C10.3367,0.4354 9.3697,0.5764 8.4997,0.9594 C8.0577,1.1554 7.6637,1.3704 7.2467,1.6684 C6.8917,1.9164 6.6287,2.1374 6.3607,2.3684 C5.7327,3.0544 5.2337,3.7474 4.7907,4.4484 C4.4167,5.0524 4.0387,5.6624 3.6617,6.2714 C2.9207,7.4804 2.1927,8.7514 1.6817,10.1084 C1.8437,9.7014 2.1377,10.0324 1.9247,10.2944 C0.9457,10.8854 1.4637,11.8004 0.7477,12.5774 C0.4817,14.2954 -0.3043,15.8844 0.2177,17.5394 L0.0257,17.5714 C-0.0563,17.8144 0.0787,17.8804 0.1047,18.1334 L0.0507,18.1294 C-0.0223,18.7444 0.2627,19.4294 0.1927,19.7774 L0.4097,19.7754 C0.4637,20.1164 0.2637,19.9734 0.4317,20.3054 L0.3237,20.3094 L0.5827,20.6854 C0.1937,20.7074 0.6937,21.6394 0.5847,21.9244 C0.7217,22.3484 1.0577,23.1004 1.1307,23.7424 C0.9607,23.8924 1.1647,24.7134 1.2337,25.2544 C1.5807,26.2494 2.1687,27.6404 2.7647,28.9014 L2.9707,28.7644 C3.0277,28.8674 3.0967,28.9694 3.1597,29.0714 C3.1097,29.0934 3.1097,29.1494 3.0597,29.1144 C2.9527,29.5014 3.5517,29.8004 3.5757,30.1384 C3.6607,29.8594 3.4647,29.9014 3.3547,29.7204 C3.3017,29.4014 3.6447,29.5254 3.7647,29.9274 L3.7157,29.9494 L3.9737,30.1094 C3.8297,30.2424 3.8957,30.5044 3.7647,30.6414 C4.5377,31.6384 5.3497,32.0724 6.3127,33.0034 C6.0537,33.0944 7.1317,33.5544 6.6897,33.6884 C7.4497,34.0664 6.7527,33.3634 7.2087,33.3694 C7.3867,33.5084 7.6527,33.5354 7.6127,33.6774 C7.4727,33.6954 7.6567,33.9684 7.4767,33.8984 L7.9717,34.1604 C8.0047,34.2134 7.8737,34.1954 7.8067,34.1854 C8.9007,34.5364 9.6097,35.2764 10.7017,35.2994 C10.8037,35.1904 10.3077,35.1644 10.4127,35.0524 C11.4657,34.9934 11.2737,35.4854 12.2527,35.3734 L12.0417,35.5434 C12.3667,35.4434 12.4977,35.2924 12.9957,35.4354 C13.0867,35.6524 12.5687,35.6244 12.3127,35.7074 C12.6727,35.7384 13.5577,35.6614 13.2797,35.4694 C13.6807,35.3744 13.8407,35.5524 14.0697,35.5944 C14.0697,35.5414 13.6757,35.4794 13.9047,35.3594 C14.4667,35.4434 15.2927,35.2914 15.9227,35.1554 C15.9297,35.2094 15.9937,35.2764 15.9457,35.3174 C16.3657,34.8994 16.4587,35.4054 17.1127,35.1224" id="Fill-53" fill="#DD6343" mask="url(#mask-2)"></path>
                </g>
                <path d="M26.8784,36.0095 L26.9914,35.8305 C26.9464,35.8115 26.8994,35.7805 26.8874,35.6715 L26.8784,36.0095 Z" id="Fill-56" fill="#DD6343"></path>
                <path d="M29.2065,30.7644 C29.1765,30.7874 29.1475,30.8094 29.1115,30.8364 C29.1215,30.8384 29.1625,30.8044 29.2065,30.7644" id="Fill-58" fill="#DD6343"></path>
                <path d="M28.5063,31.0173 C28.6363,30.9043 28.6983,30.7903 28.7663,30.6823 C28.6903,30.7753 28.6013,30.8863 28.5063,31.0173" id="Fill-60" fill="#DD6343"></path>
                <path d="M25.2133,41.4041 C25.2083,41.3621 25.1913,41.3311 25.1463,41.3181 C25.1633,41.3791 25.1863,41.4001 25.2133,41.4041" id="Fill-62" fill="#DD6343"></path>
                <path d="M18.9643,55.6394 C18.9823,55.6254 18.9963,55.6144 19.0193,55.5954 C19.0003,55.6004 18.9823,55.6164 18.9643,55.6394" id="Fill-64" fill="#DD6343"></path>
                <path d="M19.6157,54.9792 C19.6337,54.9412 19.6477,54.8872 19.6557,54.8052 C19.6147,54.8722 19.6097,54.9292 19.6157,54.9792" id="Fill-66" fill="#DD6343"></path>
                <path d="M26.6157,37.9109 C26.6317,37.8539 26.6377,37.7959 26.6157,37.7329 C26.5857,37.8169 26.5957,37.8699 26.6157,37.9109" id="Fill-68" fill="#DD6343"></path>
                <path d="M19.6811,54.6218 L19.7871,54.4318 C19.7751,54.4248 19.7651,54.4198 19.7491,54.4108 L19.6811,54.6218 Z" id="Fill-70" fill="#DD6343"></path>
                <path d="M18.8335,55.8816 C18.8725,55.8056 18.9175,55.6996 18.9645,55.6396 C18.8675,55.7166 18.8335,55.7946 18.8335,55.8816" id="Fill-72" fill="#DD6343"></path>
                <path d="M23.226,46.7576 L23.231,46.7346 C23.211,46.5416 23.206,46.6546 23.226,46.7576" id="Fill-74" fill="#DD6343"></path>
                <polygon id="Fill-76" fill="#DD6343" points="19.7075 53.6013 19.7275 53.5783 19.6965 53.4973"></polygon>
                <path d="M18.3891,56.7126 C18.4011,56.6726 18.4071,56.6346 18.3951,56.5966 C18.3751,56.6256 18.3531,56.6586 18.3241,56.7006 C18.3551,56.7006 18.3731,56.7056 18.3891,56.7126" id="Fill-78" fill="#DD6343"></path>
                <path d="M21.6362,49.6169 C21.6872,49.7049 21.7282,49.7479 21.7662,49.7659 C21.7912,49.6989 21.7762,49.6419 21.6362,49.6169" id="Fill-80" fill="#DD6343"></path>
            </g>
        </g>
    </g>
</svg>