<?xml version="1.0" encoding="UTF-8"?>
<svg width="80px" height="80px" viewBox="0 0 80 80" version="1.1" xmlns="http://www.w3.org/2000/svg" xmlns:xlink="http://www.w3.org/1999/xlink">
    <!-- Generator: Sketch 51.2 (57519) - http://www.bohemiancoding.com/sketch -->
    <title>不统计</title>
    <desc>Created with Sketch.</desc>
    <defs></defs>
    <g id="Page-1" stroke="none" stroke-width="1" fill="none" fill-rule="evenodd">
        <g id="切图" transform="translate(-693.000000, -398.000000)" fill="#8B572A">
            <g id="不统计" transform="translate(693.000000, 398.000000)">
                <polygon id="Fill-1" points="0 3.2 3.2 3.2 3.2 0 0 0"></polygon>
                <polygon id="Fill-2" points="3.2 3.2 6.399 3.2 6.399 0 3.2 0"></polygon>
                <polygon id="Fill-3" points="6.4 3.2 9.6 3.2 9.6 0 6.4 0"></polygon>
                <polygon id="Fill-4" points="9.6 3.2 12.799 3.2 12.799 0 9.6 0"></polygon>
                <polygon id="Fill-5" points="12.8 3.2 16 3.2 16 0 12.8 0"></polygon>
                <polygon id="Fill-6" points="16 3.2 19.2 3.2 19.2 0 16 0"></polygon>
                <polygon id="Fill-7" points="19.201 3.2 22.4 3.2 22.4 0 19.201 0"></polygon>
                <polygon id="Fill-8" points="25.6 3.2 28.799 3.2 28.799 0 25.6 0"></polygon>
                <polygon id="Fill-9" points="28.8 3.2 32 3.2 32 0 28.8 0"></polygon>
                <polygon id="Fill-10" points="32 3.2 35.199 3.2 35.199 0 32 0"></polygon>
                <polygon id="Fill-11" points="35.2 3.2 38.4 3.2 38.4 0 35.2 0"></polygon>
                <polygon id="Fill-12" points="41.6 3.2 44.8 3.2 44.8 0 41.6 0"></polygon>
                <polygon id="Fill-13" points="57.6 3.2 60.8 3.2 60.8 0 57.6 0"></polygon>
                <polygon id="Fill-14" points="60.799 3.2 63.999 3.2 63.999 0 60.799 0"></polygon>
                <polygon id="Fill-15" points="64 3.2 67.2 3.2 67.2 0 64 0"></polygon>
                <polygon id="Fill-16" points="67.2 3.2 70.4 3.2 70.4 0 67.2 0"></polygon>
                <polygon id="Fill-17" points="70.401 3.2 73.6 3.2 73.6 0 70.401 0"></polygon>
                <polygon id="Fill-18" points="73.599 3.2 76.799 3.2 76.799 0 73.599 0"></polygon>
                <polygon id="Fill-19" points="76.8 3.2 80 3.2 80 0 76.8 0"></polygon>
                <polygon id="Fill-20" points="0 6.4 3.2 6.4 3.2 3.2 0 3.2"></polygon>
                <polygon id="Fill-21" points="19.2 6.4 22.4 6.4 22.4 3.2 19.2 3.2"></polygon>
                <polygon id="Fill-22" points="25.6 6.4 28.8 6.4 28.8 3.2 25.6 3.2"></polygon>
                <polygon id="Fill-23" points="35.2 6.4 38.4 6.4 38.4 3.2 35.2 3.2"></polygon>
                <polygon id="Fill-24" points="41.6 6.4 44.8 6.4 44.8 3.2 41.6 3.2"></polygon>
                <polygon id="Fill-25" points="51.2 6.4 54.4 6.4 54.4 3.2 51.2 3.2"></polygon>
                <polygon id="Fill-26" points="57.6 6.4 60.8 6.4 60.8 3.2 57.6 3.2"></polygon>
                <polygon id="Fill-27" points="76.8 6.4 80 6.4 80 3.2 76.8 3.2"></polygon>
                <polygon id="Fill-28" points="0 9.6 3.2 9.6 3.2 6.4 0 6.4"></polygon>
                <polygon id="Fill-29" points="6.4 9.6 9.6 9.6 9.6 6.4 6.4 6.4"></polygon>
                <polygon id="Fill-30" points="9.6 9.6 12.8 9.6 12.8 6.4 9.6 6.4"></polygon>
                <polygon id="Fill-31" points="12.8 9.6 16 9.6 16 6.4 12.8 6.4"></polygon>
                <polygon id="Fill-32" points="19.2 9.6 22.4 9.6 22.4 6.4 19.2 6.4"></polygon>
                <polygon id="Fill-33" points="28.8 9.6 32 9.6 32 6.4 28.8 6.4"></polygon>
                <polygon id="Fill-34" points="41.6 9.6 44.8 9.6 44.8 6.4 41.6 6.4"></polygon>
                <polygon id="Fill-35" points="57.6 9.6 60.8 9.6 60.8 6.4 57.6 6.4"></polygon>
                <polygon id="Fill-36" points="64 9.6 67.2 9.6 67.2 6.4 64 6.4"></polygon>
                <polygon id="Fill-37" points="67.2 9.6 70.4 9.6 70.4 6.4 67.2 6.4"></polygon>
                <polygon id="Fill-38" points="70.4 9.6 73.599 9.6 73.599 6.4 70.4 6.4"></polygon>
                <polygon id="Fill-39" points="76.8 9.6 80 9.6 80 6.4 76.8 6.4"></polygon>
                <polygon id="Fill-40" points="0 12.8 3.2 12.8 3.2 9.6 0 9.6"></polygon>
                <polygon id="Fill-41" points="6.4 12.8 9.6 12.8 9.6 9.6 6.4 9.6"></polygon>
                <polygon id="Fill-42" points="9.6 12.8 12.8 12.8 12.8 9.6 9.6 9.6"></polygon>
                <polygon id="Fill-43" points="12.8 12.8 16 12.8 16 9.6 12.8 9.6"></polygon>
                <polygon id="Fill-44" points="19.2 12.8 22.4 12.8 22.4 9.6 19.2 9.6"></polygon>
                <polygon id="Fill-45" points="35.2 12.8 38.4 12.8 38.4 9.6 35.2 9.6"></polygon>
                <polygon id="Fill-46" points="38.4 12.8 41.6 12.8 41.6 9.6 38.4 9.6"></polygon>
                <polygon id="Fill-47" points="41.6 12.8 44.8 12.8 44.8 9.6 41.6 9.6"></polygon>
                <polygon id="Fill-48" points="48 12.8 51.2 12.8 51.2 9.6 48 9.6"></polygon>
                <polygon id="Fill-49" points="57.6 12.8 60.8 12.8 60.8 9.6 57.6 9.6"></polygon>
                <polygon id="Fill-50" points="64 12.8 67.2 12.8 67.2 9.6 64 9.6"></polygon>
                <polygon id="Fill-51" points="67.2 12.8 70.4 12.8 70.4 9.6 67.2 9.6"></polygon>
                <polygon id="Fill-52" points="70.4 12.8 73.599 12.8 73.599 9.6 70.4 9.6"></polygon>
                <polygon id="Fill-53" points="76.8 12.8 80 12.8 80 9.6 76.8 9.6"></polygon>
                <polygon id="Fill-54" points="0 16 3.2 16 3.2 12.8 0 12.8"></polygon>
                <polygon id="Fill-55" points="6.4 16 9.6 16 9.6 12.8 6.4 12.8"></polygon>
                <polygon id="Fill-56" points="9.6 16 12.8 16 12.8 12.8 9.6 12.8"></polygon>
                <polygon id="Fill-57" points="12.8 16 16 16 16 12.8 12.8 12.8"></polygon>
                <polygon id="Fill-58" points="19.2 16 22.4 16 22.4 12.8 19.2 12.8"></polygon>
                <polygon id="Fill-59" points="25.6 16 28.8 16 28.8 12.8 25.6 12.8"></polygon>
                <polygon id="Fill-60" points="35.2 16 38.4 16 38.4 12.8 35.2 12.8"></polygon>
                <polygon id="Fill-61" points="38.4 16 41.6 16 41.6 12.8 38.4 12.8"></polygon>
                <polygon id="Fill-62" points="44.8 16 48 16 48 12.8 44.8 12.8"></polygon>
                <polygon id="Fill-63" points="51.2 16 54.4 16 54.4 12.8 51.2 12.8"></polygon>
                <polygon id="Fill-64" points="57.6 16 60.8 16 60.8 12.8 57.6 12.8"></polygon>
                <polygon id="Fill-65" points="64 16 67.2 16 67.2 12.8 64 12.8"></polygon>
                <polygon id="Fill-66" points="67.2 16 70.4 16 70.4 12.8 67.2 12.8"></polygon>
                <polygon id="Fill-67" points="70.4 16 73.599 16 73.599 12.8 70.4 12.8"></polygon>
                <polygon id="Fill-68" points="76.8 16 80 16 80 12.8 76.8 12.8"></polygon>
                <polygon id="Fill-69" points="0 19.201 3.2 19.201 3.2 16.001 0 16.001"></polygon>
                <polygon id="Fill-70" points="19.2 19.2 22.4 19.2 22.4 16 19.2 16"></polygon>
                <polygon id="Fill-71" points="25.6 19.2 28.8 19.2 28.8 16 25.6 16"></polygon>
                <polygon id="Fill-72" points="28.8 19.2 32 19.2 32 16 28.8 16"></polygon>
                <polygon id="Fill-73" points="32 19.2 35.2 19.2 35.2 16 32 16"></polygon>
                <polygon id="Fill-74" points="38.4 19.2 41.6 19.2 41.6 16 38.4 16"></polygon>
                <polygon id="Fill-75" points="41.6 19.2 44.8 19.2 44.8 16 41.6 16"></polygon>
                <polygon id="Fill-76" points="44.8 19.2 48 19.2 48 16 44.8 16"></polygon>
                <polygon id="Fill-77" points="57.6 19.2 60.8 19.2 60.8 16 57.6 16"></polygon>
                <polygon id="Fill-78" points="76.8 19.201 80 19.201 80 16.001 76.8 16.001"></polygon>
                <polygon id="Fill-79" points="0 22.4 3.2 22.4 3.2 19.2 0 19.2"></polygon>
                <polygon id="Fill-80" points="3.2 22.4 6.4 22.4 6.4 19.2 3.2 19.2"></polygon>
                <polygon id="Fill-81" points="6.4 22.4 9.6 22.4 9.6 19.2 6.4 19.2"></polygon>
                <polygon id="Fill-82" points="9.6 22.4 12.8 22.4 12.8 19.2 9.6 19.2"></polygon>
                <polygon id="Fill-83" points="12.8 22.4 16 22.4 16 19.2 12.8 19.2"></polygon>
                <polygon id="Fill-84" points="16 22.4 19.2 22.4 19.2 19.2 16 19.2"></polygon>
                <polygon id="Fill-85" points="19.2 22.4 22.4 22.4 22.4 19.2 19.2 19.2"></polygon>
                <polygon id="Fill-86" points="25.6 22.4 28.8 22.4 28.8 19.2 25.6 19.2"></polygon>
                <polygon id="Fill-87" points="32 22.4 35.2 22.4 35.2 19.2 32 19.2"></polygon>
                <polygon id="Fill-88" points="38.4 22.4 41.6 22.4 41.6 19.2 38.4 19.2"></polygon>
                <polygon id="Fill-89" points="44.8 22.4 48 22.4 48 19.2 44.8 19.2"></polygon>
                <polygon id="Fill-90" points="51.2 22.4 54.4 22.4 54.4 19.2 51.2 19.2"></polygon>
                <polygon id="Fill-91" points="57.6 22.4 60.8 22.4 60.8 19.2 57.6 19.2"></polygon>
                <polygon id="Fill-92" points="60.8 22.4 64 22.4 64 19.2 60.8 19.2"></polygon>
                <polygon id="Fill-93" points="64 22.4 67.2 22.4 67.2 19.2 64 19.2"></polygon>
                <polygon id="Fill-94" points="67.2 22.4 70.4 22.4 70.4 19.2 67.2 19.2"></polygon>
                <polygon id="Fill-95" points="70.4 22.4 73.599 22.4 73.599 19.2 70.4 19.2"></polygon>
                <polygon id="Fill-96" points="73.6 22.4 76.8 22.4 76.8 19.2 73.6 19.2"></polygon>
                <polygon id="Fill-97" points="76.8 22.4 80 22.4 80 19.2 76.8 19.2"></polygon>
                <polygon id="Fill-98" points="25.6 25.6 28.8 25.6 28.8 22.4 25.6 22.4"></polygon>
                <polygon id="Fill-99" points="28.8 25.6 32 25.6 32 22.4 28.8 22.4"></polygon>
                <polygon id="Fill-100" points="44.8 25.6 48 25.6 48 22.4 44.8 22.4"></polygon>
                <polygon id="Fill-101" points="48 25.6 51.2 25.6 51.2 22.4 48 22.4"></polygon>
                <polygon id="Fill-102" points="51.2 25.6 54.4 25.6 54.4 22.4 51.2 22.4"></polygon>
                <polygon id="Fill-103" points="0 28.8 3.2 28.8 3.2 25.6 0 25.6"></polygon>
                <polygon id="Fill-104" points="3.2 28.8 6.4 28.8 6.4 25.6 3.2 25.6"></polygon>
                <polygon id="Fill-105" points="6.4 28.8 9.6 28.8 9.6 25.6 6.4 25.6"></polygon>
                <polygon id="Fill-106" points="16 28.8 19.2 28.8 19.2 25.6 16 25.6"></polygon>
                <polygon id="Fill-107" points="19.2 28.8 22.4 28.8 22.4 25.6 19.2 25.6"></polygon>
                <polygon id="Fill-108" points="25.6 28.8 28.8 28.8 28.8 25.6 25.6 25.6"></polygon>
                <polygon id="Fill-109" points="28.8 28.8 32 28.8 32 25.6 28.8 25.6"></polygon>
                <polygon id="Fill-110" points="35.2 28.8 38.4 28.8 38.4 25.6 35.2 25.6"></polygon>
                <polygon id="Fill-111" points="38.4 28.8 41.6 28.8 41.6 25.6 38.4 25.6"></polygon>
                <polygon id="Fill-112" points="41.6 28.8 44.8 28.8 44.8 25.6 41.6 25.6"></polygon>
                <polygon id="Fill-113" points="51.2 28.8 54.4 28.8 54.4 25.6 51.2 25.6"></polygon>
                <polygon id="Fill-114" points="54.4 28.8 57.599 28.8 57.599 25.6 54.4 25.6"></polygon>
                <polygon id="Fill-115" points="57.6 28.8 60.8 28.8 60.8 25.6 57.6 25.6"></polygon>
                <polygon id="Fill-116" points="60.8 28.8 64 28.8 64 25.6 60.8 25.6"></polygon>
                <polygon id="Fill-117" points="64 28.8 67.2 28.8 67.2 25.6 64 25.6"></polygon>
                <polygon id="Fill-118" points="73.6 28.8 76.8 28.8 76.8 25.6 73.6 25.6"></polygon>
                <polygon id="Fill-119" points="76.8 28.8 80 28.8 80 25.6 76.8 25.6"></polygon>
                <polygon id="Fill-120" points="0 32 3.2 32 3.2 28.8 0 28.8"></polygon>
                <polygon id="Fill-121" points="3.2 32 6.4 32 6.4 28.8 3.2 28.8"></polygon>
                <polygon id="Fill-122" points="6.4 32 9.6 32 9.6 28.8 6.4 28.8"></polygon>
                <polygon id="Fill-123" points="12.8 32 16 32 16 28.8 12.8 28.8"></polygon>
                <polygon id="Fill-124" points="22.4 32 25.6 32 25.6 28.8 22.4 28.8"></polygon>
                <polygon id="Fill-125" points="25.6 32 28.8 32 28.8 28.8 25.6 28.8"></polygon>
                <polygon id="Fill-126" points="38.4 32 41.6 32 41.6 28.8 38.4 28.8"></polygon>
                <polygon id="Fill-127" points="48 32 51.2 32 51.2 28.8 48 28.8"></polygon>
                <polygon id="Fill-128" points="51.2 32 54.4 32 54.4 28.8 51.2 28.8"></polygon>
                <polygon id="Fill-129" points="57.6 32 60.8 32 60.8 28.8 57.6 28.8"></polygon>
                <polygon id="Fill-130" points="67.2 32 70.4 32 70.4 28.8 67.2 28.8"></polygon>
                <polygon id="Fill-131" points="73.6 32 76.8 32 76.8 28.8 73.6 28.8"></polygon>
                <polygon id="Fill-132" points="76.8 32 80 32 80 28.8 76.8 28.8"></polygon>
                <polygon id="Fill-133" points="0 35.2 3.2 35.2 3.2 32 0 32"></polygon>
                <polygon id="Fill-134" points="6.4 35.2 9.6 35.2 9.6 32 6.4 32"></polygon>
                <polygon id="Fill-135" points="9.6 35.2 12.8 35.2 12.8 32 9.6 32"></polygon>
                <polygon id="Fill-136" points="19.2 35.2 22.4 35.2 22.4 32 19.2 32"></polygon>
                <polygon id="Fill-137" points="25.6 35.2 28.8 35.2 28.8 32 25.6 32"></polygon>
                <polygon id="Fill-138" points="28.8 35.2 32 35.2 32 32 28.8 32"></polygon>
                <polygon id="Fill-139" points="32 35.2 35.2 35.2 35.2 32 32 32"></polygon>
                <polygon id="Fill-140" points="38.4 35.2 41.6 35.2 41.6 32 38.4 32"></polygon>
                <polygon id="Fill-141" points="41.6 35.2 44.8 35.2 44.8 32 41.6 32"></polygon>
                <polygon id="Fill-142" points="44.8 35.2 48 35.2 48 32 44.8 32"></polygon>
                <polygon id="Fill-143" points="48 35.2 51.2 35.2 51.2 32 48 32"></polygon>
                <polygon id="Fill-144" points="67.2 35.2 70.4 35.2 70.4 32 67.2 32"></polygon>
                <polygon id="Fill-145" points="70.4 35.2 73.599 35.2 73.599 32 70.4 32"></polygon>
                <polygon id="Fill-146" points="76.8 35.2 80 35.2 80 32 76.8 32"></polygon>
                <polygon id="Fill-147" points="0 38.4 3.2 38.4 3.2 35.2 0 35.2"></polygon>
                <polygon id="Fill-148" points="6.4 38.4 9.6 38.4 9.6 35.2 6.4 35.2"></polygon>
                <polygon id="Fill-149" points="9.6 38.4 12.8 38.4 12.8 35.2 9.6 35.2"></polygon>
                <polygon id="Fill-150" points="16 38.4 19.2 38.4 19.2 35.2 16 35.2"></polygon>
                <polygon id="Fill-151" points="25.6 38.4 28.8 38.4 28.8 35.2 25.6 35.2"></polygon>
                <polygon id="Fill-152" points="32 38.4 35.2 38.4 35.2 35.2 32 35.2"></polygon>
                <polygon id="Fill-153" points="35.2 38.4 38.4 38.4 38.4 35.2 35.2 35.2"></polygon>
                <polygon id="Fill-154" points="38.4 38.4 41.6 38.4 41.6 35.2 38.4 35.2"></polygon>
                <polygon id="Fill-155" points="44.8 38.4 48 38.4 48 35.2 44.8 35.2"></polygon>
                <polygon id="Fill-156" points="48 38.4 51.2 38.4 51.2 35.2 48 35.2"></polygon>
                <polygon id="Fill-157" points="57.6 38.4 60.8 38.4 60.8 35.2 57.6 35.2"></polygon>
                <polygon id="Fill-158" points="60.8 38.4 64 38.4 64 35.2 60.8 35.2"></polygon>
                <polygon id="Fill-159" points="67.2 38.4 70.4 38.4 70.4 35.2 67.2 35.2"></polygon>
                <polygon id="Fill-160" points="9.6 41.6 12.8 41.6 12.8 38.4 9.6 38.4"></polygon>
                <polygon id="Fill-161" points="12.8 41.6 16 41.6 16 38.4 12.8 38.4"></polygon>
                <polygon id="Fill-162" points="16 41.6 19.2 41.6 19.2 38.4 16 38.4"></polygon>
                <polygon id="Fill-163" points="19.2 41.6 22.4 41.6 22.4 38.4 19.2 38.4"></polygon>
                <polygon id="Fill-164" points="22.4 41.6 25.6 41.6 25.6 38.4 22.4 38.4"></polygon>
                <polygon id="Fill-165" points="28.8 41.6 32 41.6 32 38.4 28.8 38.4"></polygon>
                <polygon id="Fill-166" points="32 41.6 35.2 41.6 35.2 38.4 32 38.4"></polygon>
                <polygon id="Fill-167" points="38.4 41.6 41.6 41.6 41.6 38.4 38.4 38.4"></polygon>
                <polygon id="Fill-168" points="48 41.6 51.2 41.6 51.2 38.4 48 38.4"></polygon>
                <polygon id="Fill-169" points="51.2 41.6 54.4 41.6 54.4 38.4 51.2 38.4"></polygon>
                <polygon id="Fill-170" points="57.6 41.6 60.8 41.6 60.8 38.4 57.6 38.4"></polygon>
                <polygon id="Fill-171" points="76.8 41.6 80 41.6 80 38.4 76.8 38.4"></polygon>
                <polygon id="Fill-172" points="3.2 44.8 6.4 44.8 6.4 41.6 3.2 41.6"></polygon>
                <polygon id="Fill-173" points="22.4 44.8 25.6 44.8 25.6 41.6 22.4 41.6"></polygon>
                <polygon id="Fill-174" points="25.6 44.8 28.8 44.8 28.8 41.6 25.6 41.6"></polygon>
                <polygon id="Fill-175" points="32 44.8 35.2 44.8 35.2 41.6 32 41.6"></polygon>
                <polygon id="Fill-176" points="41.6 44.8 44.8 44.8 44.8 41.6 41.6 41.6"></polygon>
                <polygon id="Fill-177" points="44.8 44.8 48 44.8 48 41.6 44.8 41.6"></polygon>
                <polygon id="Fill-178" points="48 44.8 51.2 44.8 51.2 41.6 48 41.6"></polygon>
                <polygon id="Fill-179" points="51.2 44.8 54.4 44.8 54.4 41.6 51.2 41.6"></polygon>
                <polygon id="Fill-180" points="54.4 44.8 57.599 44.8 57.599 41.6 54.4 41.6"></polygon>
                <polygon id="Fill-181" points="57.6 44.8 60.8 44.8 60.8 41.6 57.6 41.6"></polygon>
                <polygon id="Fill-182" points="60.8 44.8 64 44.8 64 41.6 60.8 41.6"></polygon>
                <polygon id="Fill-183" points="73.6 44.8 76.8 44.8 76.8 41.6 73.6 41.6"></polygon>
                <polygon id="Fill-184" points="76.8 44.8 80 44.8 80 41.6 76.8 41.6"></polygon>
                <polygon id="Fill-185" points="0 48 3.2 48 3.2 44.801 0 44.801"></polygon>
                <polygon id="Fill-186" points="3.2 48 6.4 48 6.4 44.8 3.2 44.8"></polygon>
                <polygon id="Fill-187" points="9.6 48 12.8 48 12.8 44.8 9.6 44.8"></polygon>
                <polygon id="Fill-188" points="12.8 48 16 48 16 44.8 12.8 44.8"></polygon>
                <polygon id="Fill-189" points="19.2 48 22.4 48 22.4 44.8 19.2 44.8"></polygon>
                <polygon id="Fill-190" points="25.6 48 28.8 48 28.8 44.8 25.6 44.8"></polygon>
                <polygon id="Fill-191" points="28.8 48 32 48 32 44.8 28.8 44.8"></polygon>
                <polygon id="Fill-192" points="35.2 48 38.4 48 38.4 44.8 35.2 44.8"></polygon>
                <polygon id="Fill-193" points="41.6 48 44.8 48 44.8 44.8 41.6 44.8"></polygon>
                <polygon id="Fill-194" points="44.8 48 48 48 48 44.8 44.8 44.8"></polygon>
                <polygon id="Fill-195" points="48 48 51.2 48 51.2 44.8 48 44.8"></polygon>
                <polygon id="Fill-196" points="51.2 48 54.4 48 54.4 44.8 51.2 44.8"></polygon>
                <polygon id="Fill-197" points="57.6 48 60.8 48 60.8 44.8 57.6 44.8"></polygon>
                <polygon id="Fill-198" points="67.2 48 70.4 48 70.4 44.8 67.2 44.8"></polygon>
                <polygon id="Fill-199" points="70.4 48 73.599 48 73.599 44.8 70.4 44.8"></polygon>
                <polygon id="Fill-200" points="76.8 48 80 48 80 44.801 76.8 44.801"></polygon>
                <polygon id="Fill-201" points="6.4 51.2 9.6 51.2 9.6 48 6.4 48"></polygon>
                <polygon id="Fill-202" points="9.6 51.2 12.8 51.2 12.8 48 9.6 48"></polygon>
                <polygon id="Fill-203" points="12.8 51.2 16 51.2 16 48 12.8 48"></polygon>
                <polygon id="Fill-204" points="22.4 51.2 25.6 51.2 25.6 48 22.4 48"></polygon>
                <polygon id="Fill-205" points="25.6 51.2 28.8 51.2 28.8 48 25.6 48"></polygon>
                <polygon id="Fill-206" points="28.8 51.2 32 51.2 32 48 28.8 48"></polygon>
                <polygon id="Fill-207" points="35.2 51.2 38.4 51.2 38.4 48 35.2 48"></polygon>
                <polygon id="Fill-208" points="48 51.2 51.2 51.2 51.2 48 48 48"></polygon>
                <polygon id="Fill-209" points="51.2 51.2 54.4 51.2 54.4 48 51.2 48"></polygon>
                <polygon id="Fill-210" points="54.4 51.2 57.599 51.2 57.599 48 54.4 48"></polygon>
                <polygon id="Fill-211" points="60.8 51.2 64 51.2 64 48 60.8 48"></polygon>
                <polygon id="Fill-212" points="64 51.2 67.2 51.2 67.2 48 64 48"></polygon>
                <polygon id="Fill-213" points="67.2 51.2 70.4 51.2 70.4 48 67.2 48"></polygon>
                <polygon id="Fill-214" points="0 54.4 3.2 54.4 3.2 51.2 0 51.2"></polygon>
                <polygon id="Fill-215" points="3.2 54.4 6.4 54.4 6.4 51.2 3.2 51.2"></polygon>
                <polygon id="Fill-216" points="6.4 54.4 9.6 54.4 9.6 51.2 6.4 51.2"></polygon>
                <polygon id="Fill-217" points="16 54.4 19.2 54.4 19.2 51.2 16 51.2"></polygon>
                <polygon id="Fill-218" points="19.2 54.4 22.4 54.4 22.4 51.2 19.2 51.2"></polygon>
                <polygon id="Fill-219" points="28.8 54.4 32 54.4 32 51.2 28.8 51.2"></polygon>
                <polygon id="Fill-220" points="38.4 54.4 41.6 54.4 41.6 51.2 38.4 51.2"></polygon>
                <polygon id="Fill-221" points="51.2 54.4 54.4 54.4 54.4 51.2 51.2 51.2"></polygon>
                <polygon id="Fill-222" points="54.4 54.4 57.599 54.4 57.599 51.2 54.4 51.2"></polygon>
                <polygon id="Fill-223" points="57.6 54.4 60.8 54.4 60.8 51.2 57.6 51.2"></polygon>
                <polygon id="Fill-224" points="60.8 54.4 64 54.4 64 51.2 60.8 51.2"></polygon>
                <polygon id="Fill-225" points="64 54.4 67.2 54.4 67.2 51.2 64 51.2"></polygon>
                <polygon id="Fill-226" points="73.6 54.4 76.8 54.4 76.8 51.2 73.6 51.2"></polygon>
                <polygon id="Fill-227" points="25.6 57.599 28.8 57.599 28.8 54.4 25.6 54.4"></polygon>
                <polygon id="Fill-228" points="38.4 57.599 41.6 57.599 41.6 54.4 38.4 54.4"></polygon>
                <polygon id="Fill-229" points="44.8 57.599 48 57.599 48 54.4 44.8 54.4"></polygon>
                <polygon id="Fill-230" points="51.2 57.599 54.4 57.599 54.4 54.4 51.2 54.4"></polygon>
                <polygon id="Fill-231" points="64 57.599 67.2 57.599 67.2 54.4 64 54.4"></polygon>
                <polygon id="Fill-232" points="76.8 57.6 80 57.6 80 54.4 76.8 54.4"></polygon>
                <polygon id="Fill-233" points="0 60.799 3.2 60.799 3.2 57.6 0 57.6"></polygon>
                <polygon id="Fill-234" points="3.2 60.8 6.4 60.8 6.4 57.6 3.2 57.6"></polygon>
                <polygon id="Fill-235" points="6.4 60.8 9.6 60.8 9.6 57.6 6.4 57.6"></polygon>
                <polygon id="Fill-236" points="9.6 60.8 12.8 60.8 12.8 57.6 9.6 57.6"></polygon>
                <polygon id="Fill-237" points="12.8 60.8 16 60.8 16 57.6 12.8 57.6"></polygon>
                <polygon id="Fill-238" points="16 60.8 19.2 60.8 19.2 57.6 16 57.6"></polygon>
                <polygon id="Fill-239" points="19.2 60.8 22.4 60.8 22.4 57.6 19.2 57.6"></polygon>
                <polygon id="Fill-240" points="28.8 60.8 32 60.8 32 57.6 28.8 57.6"></polygon>
                <polygon id="Fill-241" points="32 60.8 35.2 60.8 35.2 57.6 32 57.6"></polygon>
                <polygon id="Fill-242" points="35.2 60.8 38.4 60.8 38.4 57.6 35.2 57.6"></polygon>
                <polygon id="Fill-243" points="38.4 60.8 41.6 60.8 41.6 57.6 38.4 57.6"></polygon>
                <polygon id="Fill-244" points="44.8 60.8 48 60.8 48 57.6 44.8 57.6"></polygon>
                <polygon id="Fill-245" points="51.2 60.8 54.4 60.8 54.4 57.6 51.2 57.6"></polygon>
                <polygon id="Fill-246" points="57.6 60.8 60.8 60.8 60.8 57.6 57.6 57.6"></polygon>
                <polygon id="Fill-247" points="64 60.8 67.2 60.8 67.2 57.6 64 57.6"></polygon>
                <polygon id="Fill-248" points="76.8 60.799 80 60.799 80 57.6 76.8 57.6"></polygon>
                <polygon id="Fill-249" points="0 64 3.2 64 3.2 60.8 0 60.8"></polygon>
                <polygon id="Fill-250" points="19.2 64 22.4 64 22.4 60.8 19.2 60.8"></polygon>
                <polygon id="Fill-251" points="25.6 64 28.8 64 28.8 60.8 25.6 60.8"></polygon>
                <polygon id="Fill-252" points="28.8 64 32 64 32 60.8 28.8 60.8"></polygon>
                <polygon id="Fill-253" points="32 64 35.2 64 35.2 60.8 32 60.8"></polygon>
                <polygon id="Fill-254" points="44.8 64 48 64 48 60.8 44.8 60.8"></polygon>
                <polygon id="Fill-255" points="51.2 64 54.4 64 54.4 60.8 51.2 60.8"></polygon>
                <polygon id="Fill-256" points="64 64 67.2 64 67.2 60.8 64 60.8"></polygon>
                <polygon id="Fill-257" points="76.8 64 80 64 80 60.8 76.8 60.8"></polygon>
                <polygon id="Fill-258" points="0 67.2 3.2 67.2 3.2 64 0 64"></polygon>
                <polygon id="Fill-259" points="6.4 67.2 9.6 67.2 9.6 64 6.4 64"></polygon>
                <polygon id="Fill-260" points="9.6 67.2 12.8 67.2 12.8 64 9.6 64"></polygon>
                <polygon id="Fill-261" points="12.8 67.2 16 67.2 16 64 12.8 64"></polygon>
                <polygon id="Fill-262" points="19.2 67.2 22.4 67.2 22.4 64 19.2 64"></polygon>
                <polygon id="Fill-263" points="32 67.2 35.2 67.2 35.2 64 32 64"></polygon>
                <polygon id="Fill-264" points="35.2 67.2 38.4 67.2 38.4 64 35.2 64"></polygon>
                <polygon id="Fill-265" points="44.8 67.2 48 67.2 48 64 44.8 64"></polygon>
                <polygon id="Fill-266" points="48 67.2 51.2 67.2 51.2 64 48 64"></polygon>
                <polygon id="Fill-267" points="51.2 67.2 54.4 67.2 54.4 64 51.2 64"></polygon>
                <polygon id="Fill-268" points="54.4 67.2 57.599 67.2 57.599 64 54.4 64"></polygon>
                <polygon id="Fill-269" points="57.6 67.2 60.8 67.2 60.8 64 57.6 64"></polygon>
                <polygon id="Fill-270" points="60.8 67.2 64 67.2 64 64 60.8 64"></polygon>
                <polygon id="Fill-271" points="64 67.2 67.2 67.2 67.2 64 64 64"></polygon>
                <polygon id="Fill-272" points="73.6 67.2 76.8 67.2 76.8 64 73.6 64"></polygon>
                <polygon id="Fill-273" points="0 70.401 3.2 70.401 3.2 67.201 0 67.201"></polygon>
                <polygon id="Fill-274" points="6.4 70.4 9.6 70.4 9.6 67.2 6.4 67.2"></polygon>
                <polygon id="Fill-275" points="9.6 70.4 12.8 70.4 12.8 67.2 9.6 67.2"></polygon>
                <polygon id="Fill-276" points="12.8 70.4 16 70.4 16 67.2 12.8 67.2"></polygon>
                <polygon id="Fill-277" points="19.2 70.4 22.4 70.4 22.4 67.2 19.2 67.2"></polygon>
                <polygon id="Fill-278" points="28.8 70.4 32 70.4 32 67.2 28.8 67.2"></polygon>
                <polygon id="Fill-279" points="38.4 70.4 41.6 70.4 41.6 67.2 38.4 67.2"></polygon>
                <polygon id="Fill-280" points="44.8 70.4 48 70.4 48 67.2 44.8 67.2"></polygon>
                <polygon id="Fill-281" points="54.4 70.4 57.599 70.4 57.599 67.2 54.4 67.2"></polygon>
                <polygon id="Fill-282" points="64 70.4 67.2 70.4 67.2 67.2 64 67.2"></polygon>
                <polygon id="Fill-283" points="70.4 70.4 73.599 70.4 73.599 67.2 70.4 67.2"></polygon>
                <polygon id="Fill-284" points="73.6 70.4 76.8 70.4 76.8 67.2 73.6 67.2"></polygon>
                <polygon id="Fill-285" points="0 73.599 3.2 73.599 3.2 70.4 0 70.4"></polygon>
                <polygon id="Fill-286" points="6.4 73.599 9.6 73.599 9.6 70.4 6.4 70.4"></polygon>
                <polygon id="Fill-287" points="9.6 73.599 12.8 73.599 12.8 70.4 9.6 70.4"></polygon>
                <polygon id="Fill-288" points="12.8 73.599 16 73.599 16 70.4 12.8 70.4"></polygon>
                <polygon id="Fill-289" points="19.2 73.599 22.4 73.599 22.4 70.4 19.2 70.4"></polygon>
                <polygon id="Fill-290" points="25.6 73.599 28.8 73.599 28.8 70.4 25.6 70.4"></polygon>
                <polygon id="Fill-291" points="28.8 73.599 32 73.599 32 70.4 28.8 70.4"></polygon>
                <polygon id="Fill-292" points="32 73.599 35.2 73.599 35.2 70.4 32 70.4"></polygon>
                <polygon id="Fill-293" points="35.2 73.599 38.4 73.599 38.4 70.4 35.2 70.4"></polygon>
                <polygon id="Fill-294" points="38.4 73.599 41.6 73.599 41.6 70.4 38.4 70.4"></polygon>
                <polygon id="Fill-295" points="44.8 73.599 48 73.599 48 70.4 44.8 70.4"></polygon>
                <polygon id="Fill-296" points="60.8 73.599 64 73.599 64 70.4 60.8 70.4"></polygon>
                <polygon id="Fill-297" points="64 73.599 67.2 73.599 67.2 70.4 64 70.4"></polygon>
                <polygon id="Fill-298" points="67.2 73.599 70.4 73.599 70.4 70.4 67.2 70.4"></polygon>
                <polygon id="Fill-299" points="73.6 73.599 76.8 73.599 76.8 70.4 73.6 70.4"></polygon>
                <polygon id="Fill-300" points="76.8 73.599 80 73.599 80 70.4 76.8 70.4"></polygon>
                <polygon id="Fill-301" points="0 76.8 3.2 76.8 3.2 73.6 0 73.6"></polygon>
                <polygon id="Fill-302" points="19.2 76.8 22.4 76.8 22.4 73.6 19.2 73.6"></polygon>
                <polygon id="Fill-303" points="25.6 76.8 28.8 76.8 28.8 73.6 25.6 73.6"></polygon>
                <polygon id="Fill-304" points="32 76.8 35.2 76.8 35.2 73.6 32 73.6"></polygon>
                <polygon id="Fill-305" points="51.2 76.8 54.4 76.8 54.4 73.6 51.2 73.6"></polygon>
                <polygon id="Fill-306" points="60.8 76.8 64 76.8 64 73.6 60.8 73.6"></polygon>
                <polygon id="Fill-307" points="64 76.8 67.2 76.8 67.2 73.6 64 73.6"></polygon>
                <polygon id="Fill-308" points="0 80 3.2 80 3.2 76.8 0 76.8"></polygon>
                <polygon id="Fill-309" points="3.2 80 6.399 80 6.399 76.8 3.2 76.8"></polygon>
                <polygon id="Fill-310" points="6.4 80 9.6 80 9.6 76.8 6.4 76.8"></polygon>
                <polygon id="Fill-311" points="9.6 80 12.799 80 12.799 76.8 9.6 76.8"></polygon>
                <polygon id="Fill-312" points="12.8 80 16 80 16 76.8 12.8 76.8"></polygon>
                <polygon id="Fill-313" points="16 80 19.2 80 19.2 76.8 16 76.8"></polygon>
                <polygon id="Fill-314" points="19.201 80 22.4 80 22.4 76.8 19.201 76.8"></polygon>
                <polygon id="Fill-315" points="25.6 80 28.799 80 28.799 76.8 25.6 76.8"></polygon>
                <polygon id="Fill-316" points="38.4 80 41.6 80 41.6 76.8 38.4 76.8"></polygon>
                <polygon id="Fill-317" points="51.2 80 54.4 80 54.4 76.8 51.2 76.8"></polygon>
                <polygon id="Fill-318" points="54.4 80 57.599 80 57.599 76.8 54.4 76.8"></polygon>
                <polygon id="Fill-319" points="67.2 80 70.4 80 70.4 76.8 67.2 76.8"></polygon>
                <polygon id="Fill-320" points="76.8 80 80 80 80 76.8 76.8 76.8"></polygon>
            </g>
        </g>
    </g>
</svg>