<?xml version="1.0" encoding="UTF-8"?>
<svg width="750px" height="801px" viewBox="0 0 750 801" version="1.1" xmlns="http://www.w3.org/2000/svg" xmlns:xlink="http://www.w3.org/1999/xlink">
    <!-- Generator: Sketch 51.2 (57519) - http://www.bohemiancoding.com/sketch -->
    <title>结果页-预览 copy</title>
    <desc>Created with Sketch.</desc>
    <defs>
        <rect id="path-1" x="0" y="0" width="750" height="712"></rect>
        <polygon id="path-3" points="0.176036508 0.294127797 246.891055 0.294127797 246.891055 287.535598 0.176036508 287.535598"></polygon>
        <polygon id="path-5" points="0.235141121 0.307033998 220.752148 0.307033998 220.752148 302.942769 0.235141121 302.942769"></polygon>
        <linearGradient x1="50%" y1="0%" x2="50%" y2="100%" id="linearGradient-7">
            <stop stop-color="#784C26" offset="0%"></stop>
            <stop stop-color="#8B572A" stop-opacity="0" offset="100%"></stop>
        </linearGradient>
        <linearGradient x1="50%" y1="0%" x2="50%" y2="98.3313764%" id="linearGradient-8">
            <stop stop-color="#784C26" offset="0%"></stop>
            <stop stop-color="#8B572A" stop-opacity="0" offset="100%"></stop>
        </linearGradient>
    </defs>
    <g id="Page-1" stroke="none" stroke-width="1" fill="none" fill-rule="evenodd">
        <g id="结果页-预览-copy" transform="translate(0.000000, -128.000000)">
            <g id="Group-6" transform="translate(-428.000000, -69.000000)">
                <g id="f-day_bg-copy-3" transform="translate(428.000000, 235.000000)" fill="#F59A55">
                    <rect id="Rectangle" x="0" y="0" width="750" height="1334"></rect>
                </g>
                <g id="Group-8" transform="translate(428.000000, 157.000000)">
                    <mask id="mask-2" fill="white">
                        <use xlink:href="#path-1"></use>
                    </mask>
                    <use id="Rectangle" fill="#2E203F" xlink:href="#path-1"></use>
                    <g id="Group-5" opacity="0.577064732" style="mix-blend-mode: multiply;" mask="url(#mask-2)">
                        <g transform="translate(-399.000000, 436.000000)" opacity="0.995758929">
                            <polygon id="Fill-1" fill="#6A9CBA" points="659 278.143899 509.335662 61.0811519 442.30014 86.4095852 375.261425 43 283.279186 126.20294 157 289"></polygon>
                            <polygon id="Fill-3" fill="#6A9CBA" points="1040.22867 127.880262 1176.11336 33 1289 323.725443 931 359"></polygon>
                            <g id="Group-7" stroke-width="1" fill="none" transform="translate(802.000000, 0.000000)">
                                <mask id="mask-4" fill="white">
                                    <use xlink:href="#path-3"></use>
                                </mask>
                                <g id="Clip-6"></g>
                                <polygon id="Fill-5" fill="#356D93" mask="url(#mask-4)" points="246.891055 265.687125 88.067605 0.288999048 0.176036508 287.535598"></polygon>
                            </g>
                            <g id="Group-10" stroke-width="1" fill="none" transform="translate(686.000000, 0.000000)">
                                <mask id="mask-6" fill="white">
                                    <use xlink:href="#path-5"></use>
                                </mask>
                                <g id="Clip-9"></g>
                                <polygon id="Fill-8" fill="#6A9CBA" mask="url(#mask-6)" points="0.235141121 284.027157 113.602365 75.9628238 135.340948 79.1215904 206.777345 0.300376176 220.752148 82.2729595 175.719018 302.942769"></polygon>
                            </g>
                            <polygon id="Fill-11" fill="#356D93" points="560.392183 287.784204 613.116564 198.960396 657.104294 184.346535 686.669421 147 792 305.76107 553 311"></polygon>
                        </g>
                    </g>
                </g>
                <path d="M971.812736,315.71075 C974.181568,343.22127 953.801476,367.441914 926.288452,369.812739 C898.779495,372.181531 874.556403,351.801787 872.187571,324.291267 C869.816705,296.778714 890.196798,272.55807 917.709822,270.187245 C945.220812,267.818453 969.443903,288.20023 971.812736,315.71075" id="Combined-Shape" fill="#DBCA28"></path>
                <polygon id="Fill-31" fill="#DBCA28" points="809.828815 369 809.878495 373.932356 814 376.686584 809.290277 378.259019 807.923066 383 804.964088 379.038331 800 379.215896 802.879489 375.195039 801.176437 370.56257 805.915969 372.040304"></polygon>
                <polygon id="Fill-33" fill="#DBCA28" points="979.183211 401 982.050505 405.033589 987 404.959276 984.04737 408.930734 985.648032 413.612426 980.955765 412.033589 976.994949 415 977.04737 410.053951 973 407.205708 977.723964 405.726766"></polygon>
                <polygon id="Fill-35" fill="#DBCA28" points="841.630477 303 841.896084 306.840249 845 308.784232 841.67119 310.238589 840.903451 314 838.580845 311.060166 835 311.439834 836.896084 308.16805 835.449787 304.643154 838.943389 305.560166"></polygon>
                <path d="M748,293.499122 C748,294.327677 747.327677,295 746.499122,295 C745.670568,295 745,294.327677 745,293.499122 C745,292.670568 745.670568,292 746.499122,292 C747.327677,292 748,292.670568 748,293.499122" id="Fill-37" fill="#DBCA28"></path>
                <path d="M798,421 C798,422.104984 797.103339,423 796.00106,423 C794.894542,423 794,422.104984 794,421 C794,419.895016 794.894542,419 796.00106,419 C797.103339,419 798,419.895016 798,421" id="Fill-39" fill="#DBCA28"></path>
                <path d="M896,401 C896,401.552536 895.552536,402 895,402 C894.449275,402 894,401.552536 894,401 C894,400.447464 894.449275,400 895,400 C895.552536,400 896,400.447464 896,401" id="Fill-41" fill="#DBCA28"></path>
                <path d="M944,454 C944,455.104478 943.104895,456 942.000932,456 C940.895105,456 940,455.104478 940,454 C940,452.895522 940.895105,452 942.000932,452 C943.104895,452 944,452.895522 944,454" id="Fill-43" fill="#DBCA28"></path>
                <path d="M927,215.5 C927,216.327465 926.32707,217 925.499119,217 C924.671169,217 924,216.327465 924,215.5 C924,214.672535 924.671169,214 925.499119,214 C926.32707,214 927,214.672535 927,215.5" id="Fill-45" fill="#DBCA28"></path>
                <path d="M1086.00102,329 C1084.89659,329 1084,328.10387 1084,327 C1084,325.89613 1084.89659,325 1086.00102,325 C1087.10545,325 1088,325.89613 1088,327 C1088,328.10387 1087.10545,329 1086.00102,329 Z" id="Fill-47" fill="#DBCA28"></path>
                <path d="M720,452 C720,453.105562 719.1038,454 718.001134,454 C716.8962,454 716,453.105562 716,452 C716,450.894438 716.8962,450 718.001134,450 C719.1038,450 720,450.894438 720,452" id="Fill-49" fill="#DBCA28"></path>
                <path d="M681,250.499022 C681,251.32681 680.328767,252 679.500978,252 C678.67319,252 678,251.32681 678,250.499022 C678,249.671233 678.67319,249 679.500978,249 C680.328767,249 681,249.671233 681,250.499022" id="Fill-51" fill="#DBCA28"></path>
                <path d="M870,490 C870,491.105209 869.105209,492 868,492 C866.894791,492 866,491.105209 866,490 C866,488.894791 866.894791,488 868,488 C869.105209,488 870,488.894791 870,490" id="Fill-53" fill="#DBCA28"></path>
                <path d="M1025,456 C1025,457.105769 1024.10385,458 1023,458 C1021.89615,458 1021,457.105769 1021,456 C1021,454.896154 1021.89615,454 1023,454 C1024.10385,454 1025,454.896154 1025,456" id="Fill-55" fill="#DBCA28"></path>
                <path d="M987,268.5 C987,269.879884 985.879884,271 984.5,271 C983.120116,271 982,269.879884 982,268.5 C982,267.118038 983.120116,266 984.5,266 C985.879884,266 987,267.118038 987,268.5" id="Fill-57" fill="#DBCA28"></path>
                <path d="M1020.704,242.852 C1020.704,243.322 1020.324,243.704 1019.852,243.704 C1019.382,243.704 1019,243.322 1019,242.852 C1019,242.382 1019.382,242 1019.852,242 C1020.324,242 1020.704,242.382 1020.704,242.852" id="Fill-59" fill="#DBCA28"></path>
                <path d="M738,362.001118 C738,363.105646 737.105145,364 736,364 C734.894855,364 734,363.105646 734,362.001118 C734,360.89659 734.894855,360 736,360 C737.105145,360 738,360.89659 738,362.001118" id="Fill-61" fill="#DBCA28"></path>
                <path d="M834.792,229.896 C834.792,230.39 834.392,230.792 833.896,230.792 C833.402,230.792 833,230.39 833,229.896 C833,229.4 833.402,229 833.896,229 C834.392,229 834.792,229.4 834.792,229.896" id="Fill-63" fill="#DBCA28"></path>
                <g id="Group-42">
                    <polygon id="Fill-1" fill="#8B572A" points="537.438 182.707596 537.438 554.762039 261.953 554.762039 261.953 869.3569 557.438 869.3569 557.438 182.707596"></polygon>
                    <polygon id="Fill-2" fill="#8B572A" points="276.337 851.271 538.337 851.271 538.337 575.943941 276.337 575.943941"></polygon>
                    <polygon id="Stroke-3" stroke="#F5A623" points="276.337 851.271 538.337 851.271 538.337 575.943941 276.337 575.943941"></polygon>
                    <polygon id="Fill-4" fill="#784C26" points="287.67 838.3045 527.003 838.3045 527.003 587.360904 287.67 587.360904"></polygon>
                    <polygon id="Fill-5" fill="#784C26" points="245.6667 869.3528 -0.0003 1090.1928 311.7597 1090.1928 557.4277 869.3528"></polygon>
                    <polygon id="Stroke-6" stroke="#F5A623" points="287.67 838.3045 527.003 838.3045 527.003 587.360904 287.67 587.360904"></polygon>
                    <polygon id="Fill-7" fill="#8B572A" points="248 466.491 537.2 466.491 537.2 463 248 463"></polygon>
                    <polygon id="Fill-8" fill="#F59A55" points="248 463.667 537.2 463.667 537.2 459 248 459"></polygon>
                    <polygon id="Fill-9" fill="#F59A55" points="557.41 869.328392 568.077 869.328392 568.077 182.679088 557.41 182.679088"></polygon>
                    <polygon id="Fill-10" fill="#F59A55" points="258 555.667 537.333 555.667 537.333 551 258 551"></polygon>
                    <polygon id="Fill-25" fill="#8B572A" points="443 551.084611 446.491 551.084611 446.491 0 443 0"></polygon>
                    <polygon id="Fill-26" fill="#F59A55" points="446 551.084611 450.667 551.084611 450.667 0 446 0"></polygon>
                    <polygon id="Fill-27" fill="#8B572A" points="467 551.084611 470.491 551.084611 470.491 0 467 0"></polygon>
                    <polygon id="Fill-28" fill="#F59A55" points="470 551.084611 474.667 551.084611 474.667 0 470 0"></polygon>
                    <polygon id="Fill-29" fill="#8B572A" points="491 551.084611 494.491 551.084611 494.491 0 491 0"></polygon>
                    <polygon id="Fill-30" fill="#F59A55" points="494 551.084611 498.667 551.084611 498.667 0 494 0"></polygon>
                    <polygon id="Fill-31" fill="#8B572A" points="515 551.084611 518.491 551.084611 518.491 0 515 0"></polygon>
                    <polygon id="Fill-32" fill="#F59A55" points="518 551.084611 522.667 551.084611 522.667 0 518 0"></polygon>
                    <polygon id="Fill-33" fill="#F59A55" points="337.9541 1026.2405 357.9541 1026.2405 461.3371 933.3045 441.3371 933.3045"></polygon>
                    <polygon id="Fill-34" fill="#F59A55" points="310.9541 1026.2405 330.9541 1026.2405 434.3371 933.3045 414.3371 933.3045"></polygon>
                </g>
                <g id="Group-42-Copy" transform="translate(1319.500000, 545.500000) scale(-1, 1) translate(-1319.500000, -545.500000) translate(1035.000000, 0.000000)">
                    <polygon id="Fill-1" fill="#8B572A" points="537.438 182.707596 537.438 554.762039 261.953 554.762039 261.953 869.3569 557.438 869.3569 557.438 182.707596"></polygon>
                    <polygon id="Fill-2" fill="#8B572A" points="276.337 851.271 538.337 851.271 538.337 575.943941 276.337 575.943941"></polygon>
                    <polygon id="Stroke-3" stroke="#F5A623" points="276.337 851.271 538.337 851.271 538.337 575.943941 276.337 575.943941"></polygon>
                    <polygon id="Fill-4" fill="#784C26" points="287.67 838.3045 527.003 838.3045 527.003 587.360904 287.67 587.360904"></polygon>
                    <polygon id="Fill-5" fill="#784C26" points="245.6667 869.3528 -0.0003 1090.1928 311.7597 1090.1928 557.4277 869.3528"></polygon>
                    <polygon id="Stroke-6" stroke="#F5A623" points="287.67 838.3045 527.003 838.3045 527.003 587.360904 287.67 587.360904"></polygon>
                    <polygon id="Fill-7" fill="#8B572A" points="248 466.491 537.2 466.491 537.2 463 248 463"></polygon>
                    <polygon id="Fill-8" fill="#F59A55" points="248 463.667 537.2 463.667 537.2 459 248 459"></polygon>
                    <polygon id="Fill-9" fill="#F59A55" points="557.41 869.328392 568.077 869.328392 568.077 182.679088 557.41 182.679088"></polygon>
                    <polygon id="Fill-10" fill="#F59A55" points="258 555.667 537.333 555.667 537.333 551 258 551"></polygon>
                    <polygon id="Fill-24" fill="#F59A55" points="421.87 734.564348 426.537 734.564348 426.537 183.479737 421.87 183.479737"></polygon>
                    <polygon id="Fill-25" fill="#8B572A" points="443 551.084611 446.491 551.084611 446.491 0 443 0"></polygon>
                    <polygon id="Fill-26" fill="#F59A55" points="446 551.084611 450.667 551.084611 450.667 0 446 0"></polygon>
                    <polygon id="Fill-27" fill="#8B572A" points="467 551.084611 470.491 551.084611 470.491 0 467 0"></polygon>
                    <polygon id="Fill-28" fill="#F59A55" points="470 551.084611 474.667 551.084611 474.667 0 470 0"></polygon>
                    <polygon id="Fill-29" fill="#8B572A" points="491 551.084611 494.491 551.084611 494.491 0 491 0"></polygon>
                    <polygon id="Fill-30" fill="#F59A55" points="494 551.084611 498.667 551.084611 498.667 0 494 0"></polygon>
                    <polygon id="Fill-31" fill="#8B572A" points="515 551.084611 518.491 551.084611 518.491 0 515 0"></polygon>
                    <polygon id="Fill-32" fill="#F59A55" points="518 551.084611 522.667 551.084611 522.667 0 518 0"></polygon>
                    <polygon id="Fill-33" fill="#F59A55" points="337.9541 1026.2405 357.9541 1026.2405 461.3371 933.3045 441.3371 933.3045"></polygon>
                    <polygon id="Fill-34" fill="#F59A55" points="310.9541 1026.2405 330.9541 1026.2405 434.3371 933.3045 414.3371 933.3045"></polygon>
                </g>
                <g id="Group-4" transform="translate(530.000000, 799.000000)">
                    <path d="M31,75 L173,73 C173,107.846559 163.666667,136.179892 145,158 C117,190.730161 7.15800378,195.272128 1,158 C-3.10533585,133.151915 6.89466415,105.485248 31,75 Z" id="Path-6" fill="url(#linearGradient-7)" fill-rule="nonzero"></path>
                    <path d="M195,71 L245,79 C253.560883,110.797791 250.560883,129.464458 236,135 C214.158675,143.303313 205.333958,139.131056 195,123 C188.110695,112.245963 188.110695,94.9126293 195,71 Z" id="Path-6-Copy" fill="url(#linearGradient-8)" fill-rule="nonzero" opacity="0.546205357"></path>
                    <g id="Group-51" transform="translate(30.000000, 0.000000)">
                        <path d="M143.148718,67.8431509 C143.148718,67.8431509 154.138495,55.4139057 155.537194,40.1780566 C156.935893,24.9422075 152.539982,13.5153208 143.148718,4.69456604 C133.757454,-4.12618868 92.1961162,0.0837169811 59.2267853,12.3124906 C26.2574545,24.5412642 17.4656329,70.0483396 17.4656329,70.0483396 C20.762566,77.6662642 33.0215623,73.1885283 38.7458374,73.4563585 C88.0871385,75.7669953 92.524211,74.5549434 112.577157,73.6568302 C134.956339,72.6544717 143.148718,67.8431509 143.148718,67.8431509" id="Fill-1" stroke="#F59A55" fill="#F4D798"></path>
                        <path d="M145.746302,7.50116981 C145.746302,7.50116981 166.393895,4.29362264 173.054099,21.8016179 C179.714704,39.3092123 166.660047,66.7072783 184.243691,70.449283 C201.827334,74.1912877 214.748914,75.9289764 214.88199,79.537467 C215.015066,83.1459575 207.022501,86.8879623 194.767501,83.6804151 C182.512101,80.4728679 167.992408,83.1459575 165.19501,64.0341887 C162.397612,44.9224198 167.858932,33.028033 161.864508,27.2809104 C155.870085,21.5341887 152.007278,19.6629858 152.007278,19.6629858" id="Fill-3" fill="#F4D798"></path>
                        <path d="M51.2342203,25.944566 C51.2342203,25.944566 63.6226961,18.9280566 66.619908,20.1308868 C69.6171199,21.333717 68.8178634,36.1686226 68.8178634,36.1686226 L51.2342203,25.944566 Z" id="Fill-5" fill="#F59A55"></path>
                        <path d="M56.6292017,27.8155684 C56.6292017,27.8155684 61.2916645,23.5387052 63.2898058,24.340592 C65.287947,25.1424788 64.7548429,33.1613467 64.7548429,33.1613467 L56.6292017,27.8155684 Z" id="Fill-7" fill="#8B572A"></path>
                        <path d="M20.2630307,73.0554151 C20.2630307,73.0554151 8.87362546,72.0530566 9.07343959,61.0271132 C9.27325372,50.0011698 16.6663764,26.1450377 37.8466738,25.5436226 C59.0269712,24.9422075 69.6171199,34.1639057 74.2128448,45.1898491 C78.8085697,56.2157925 74.8122872,61.6285283 74.8122872,61.6285283" id="Fill-9" fill="#F4D798"></path>
                        <path d="M32.0520641,26.3455094 C32.0520641,26.3455094 15.435921,22.3485047 13.6691645,23.0377264 C10.0725102,24.4410283 13.8689786,42.6506745 13.8689786,42.6506745" id="Fill-11" fill="#F4D798"></path>
                        <path d="M16.8255883,39.5560731 C16.8255883,39.5560731 22.4991106,47.7429363 26.9042128,47.9971344 C31.3097147,48.2509316 36.0485065,44.125625 35.9150307,41.2063561 C35.7815548,38.2866863 34.9806998,32.2572995 32.711211,30.6707665 C30.4417221,29.0842335 28.90675,28.259092 27.1048262,28.7666863 C25.3025028,29.2742807 21.0972147,31.1150118 18.7613875,34.669375 C16.4251608,38.2233373 16.8255883,39.5560731 16.8255883,39.5560731" id="Fill-13" fill="#F59A55"></path>
                        <path d="M139.751878,64.6356038 C139.751878,64.6356038 145.546488,70.2488113 140.151507,74.2582453 C134.756525,78.2676792 126.041432,80.2154623 118.838133,80.3393538 C111.045382,80.4728679 91.996302,80.7402972 91.996302,80.7402972 C91.996302,80.7402972 90.397789,78.0672075 94.5938857,76.8643774 C98.7899823,75.6615472 108.780689,74.458717 108.780689,74.458717 L116.973068,72.6544717 C116.973068,72.6544717 100.388495,71.4516415 96.3922128,55.8148491" id="Fill-15" fill="#F4D798"></path>
                        <path d="M22.8034617,42.4797238 C22.8034617,42.4797238 23.6616593,44.2017676 25.3780546,44.0787645 C27.0944499,43.9557614 27.5848486,42.4797238 27.5848486,42.4797238" id="Stroke-17" stroke="#8B572A" stroke-width="1.5"></path>
                        <path d="M52.1047815,42.4797238 C52.1047815,42.4797238 52.9629792,44.2017676 54.6793745,44.0787645 C56.3957698,43.9557614 56.8861684,42.4797238 56.8861684,42.4797238" id="Stroke-19" stroke="#8B572A" stroke-width="1.5"></path>
                        <path d="M43.8450277,43.7712567 C43.8450277,44.5578473 42.4472792,45.1948642 40.7233643,45.1948642 C38.9994493,45.1948642 37.6017008,44.5578473 37.6017008,43.7712567 C37.6017008,42.9846661 38.9994493,42.3476491 40.7233643,42.3476491 C42.4472792,42.3476491 43.8450277,42.9846661 43.8450277,43.7712567" id="Fill-21" fill="#8B572A"></path>
                        <path d="M34.8182288,47.1538428 C34.8182288,47.1538428 37.164296,48.3272926 38.2510194,48.0148647 C41.1728146,47.1745073 40.6211161,44.6937802 40.6211161,44.6937802" id="Stroke-23" stroke="#8B572A" stroke-width="1.5"></path>
                        <path d="M46.5678864,47.1538428 C46.5678864,47.1538428 44.2218192,48.3272926 43.1350958,48.0148647 C40.2133006,47.1745073 40.7649991,44.6937802 40.7649991,44.6937802" id="Stroke-25" stroke="#8B572A" stroke-width="1.5"></path>
                        <path d="M71.415447,68.6450377 C71.415447,68.6450377 24.8587556,73.6568302 22.2611719,75.6615472 C19.6635883,77.6662642 19.6635883,80.2723962 19.6635883,80.2723962 C19.6635883,80.2723962 67.8187928,82.2771132 74.2128448,80.4728679 C80.6068968,78.6686226 89.1989043,74.8596604 92.3959303,71.4516415" id="Fill-27" fill="#F4D798"></path>
                        <path d="M11.4712091,68.7117948 C11.4712091,68.7117948 2.4128355,68.9792241 1.34742658,71.919342 L0.28161803,74.8594599 L28.755131,75.6613467 L22.9273522,71.3848844 L11.4712091,68.7117948 Z" id="Fill-29" fill="#F4D798"></path>
                        <path d="M11.4712091,68.7117948 C11.4712091,68.7117948 2.4128355,68.9792241 1.34742658,71.919342 L0.28161803,74.8594599 L22.2611719,75.6613467" id="Stroke-31" stroke="#F59A55" stroke-width="0.5"></path>
                        <path d="M17.3323569,36.8367948 C17.3323569,36.8367948 15.4672918,26.7462524 17.0658048,26.6127382 C18.6643178,26.4792241 25.9243643,29.0183986 25.9243643,29.0183986 C25.9243643,29.0183986 21.5284535,31.5575731 20.0630167,33.0278325 C18.5979796,34.498092 17.3323569,36.8367948 17.3323569,36.8367948" id="Fill-33" fill="#8B572A"></path>
                        <path d="M20.2630307,73.0554151 C20.2630307,73.0554151 8.87362546,72.0530566 9.07343959,61.0271132 C9.27325372,50.0011698 16.6663764,26.1450377 37.8466738,25.5436226 C59.0269712,24.9422075 69.6171199,34.1639057 74.2128448,45.1898491 C78.8085697,56.2157925 74.8122872,61.6285283 74.8122872,61.6285283" id="Stroke-35" stroke="#F59A55" stroke-width="1.5"></path>
                        <path d="M139.751878,64.6356038 C139.751878,64.6356038 145.546488,70.2488113 140.151507,74.2582453 C134.756525,78.2676792 126.041432,80.2154623 118.838133,80.3393538 C111.045382,80.4728679 91.996302,80.7402972 91.996302,80.7402972 C91.996302,80.7402972 90.397789,78.0672075 94.5938857,76.8643774 C98.7899823,75.6615472 108.780689,74.458717 108.780689,74.458717 L116.973068,72.6544717 C116.973068,72.6544717 100.388495,71.4516415 96.3922128,55.8148491" id="Stroke-37" stroke="#F59A55" stroke-width="1.5"></path>
                        <path d="M71.415447,68.6450377 C71.415447,68.6450377 24.8587556,73.6568302 22.2611719,75.6615472 C19.6635883,77.6662642 19.6635883,80.2723962 19.6635883,80.2723962 C19.6635883,80.2723962 67.8187928,82.2771132 74.2128448,80.4728679 C80.6068968,78.6686226 89.1989043,74.8596604 92.3959303,71.4516415" id="Stroke-39" stroke="#F59A55" stroke-width="1.5"></path>
                        <path d="M145.746302,7.50116981 C145.746302,7.50116981 166.393895,4.29362264 173.054099,21.8016179 C179.714704,39.3092123 166.660047,66.7072783 184.243691,70.449283 C201.827334,74.1912877 214.748914,75.9289764 214.88199,79.537467 C215.015066,83.1459575 207.022501,86.8879623 194.767501,83.6804151 C182.512101,80.4728679 167.992408,83.1459575 165.19501,64.0341887 C162.397612,44.9224198 167.858932,33.028033 161.864508,27.2809104 C155.870085,21.5341887 152.007278,19.6629858 152.007278,19.6629858" id="Stroke-41" stroke="#F59A55" stroke-width="1.5"></path>
                        <path d="M92.7955586,80.5731038 C92.7955586,80.5731038 92.3959303,79.8381745 93.2283559,79.2367594 C94.0611812,78.6353443 94.5607165,78.4011934 94.5607165,78.4011934" id="Stroke-43" stroke="#F59A55" stroke-width="0.5"></path>
                        <path d="M93.9610743,80.4393892 C93.9610743,80.4393892 93.8611673,79.9714882 94.1277193,79.7710165 C94.3938717,79.5705448 95.2598662,79.0693656 95.2598662,79.0693656" id="Stroke-45" stroke="#F59A55" stroke-width="0.5"></path>
                        <path d="M21.5618225,80.2055991 C21.5618225,80.2055991 21.4950846,78.2341604 22.9605214,77.5325094 C24.4259582,76.8308585 25.1253076,76.8645377 25.1253076,76.8645377" id="Stroke-47" stroke="#F59A55" stroke-width="0.5"></path>
                        <path d="M23.6265019,80.1721604 C23.6265019,80.1721604 23.7595781,79.0362877 24.3925892,78.7355802 C25.0252007,78.4348726 26.5905446,78.2007217 26.5905446,78.2007217" id="Stroke-49" stroke="#F59A55" stroke-width="0.5"></path>
                    </g>
                </g>
                <g id="Group-3" opacity="0.479296875" transform="translate(800.000000, 353.000000)" fill="#FFFFFF">
                    <path d="M114,25 C114,27.7614229 111.659821,30 108.773065,30 L5.22773655,30 C2.34058019,30 0,27.7614229 0,25 C0,22.2385771 2.34058019,20 5.22773655,20 L108.773065,20 C111.659821,20 114,22.2385771 114,25" id="Fill-3"></path>
                    <path d="M117.746305,10 L45.2528893,10 C42.3517996,10 40,7.76150868 40,4.99980835 C40,2.23849132 42.3517996,0 45.2528893,0 L117.746305,0 C120.647798,0 123,2.23849132 123,4.99980835 C123,7.76150868 120.647798,10 117.746305,10 Z" id="Fill-1"></path>
                    <path d="M92.7824565,15 C92.7824565,12.2385771 95.1182522,10 98,10 L66,10 C68.8813479,10 71.2175435,12.2385771 71.2175435,15 C71.2175435,17.7618062 68.8813479,20 66,20 L98,20 C95.1182522,20 92.7824565,17.7618062 92.7824565,15" id="Fill-6"></path>
                </g>
                <polyline id="Path-7" stroke="#979797" fill-rule="nonzero" points="628 775 637 775 628 782 637 782"></polyline>
                <polyline id="Path-7-Copy" stroke="#979797" fill-rule="nonzero" points="644 764.222222 655 764.222222 644 772.777778 655 772.777778"></polyline>
                <polyline id="Path-7-Copy-2" stroke="#979797" fill-rule="nonzero" points="664 753 676 753 664 762.333333 676 762.333333"></polyline>
            </g>
        </g>
    </g>
</svg>