<?xml version="1.0" encoding="UTF-8"?>
<svg width="750px" height="1334px" viewBox="0 0 750 1334" version="1.1" xmlns="http://www.w3.org/2000/svg" xmlns:xlink="http://www.w3.org/1999/xlink">
    <!-- Generator: Sketch 51.2 (57519) - http://www.bohemiancoding.com/sketch -->
    <title>bg</title>
    <desc>Created with Sketch.</desc>
    <defs>
        <polygon id="path-1" points="0.2634 0.078 315.585 0.078 315.585 22 0.2634 22"></polygon>
    </defs>
    <g id="Page-1" stroke="none" stroke-width="1" fill="none" fill-rule="evenodd">
        <g id="封面">
            <g id="Group">
                <rect id="Rectangle" fill="#FFF8E8" x="0" y="0" width="750" height="1334"></rect>
                <g id="Group-17" opacity="0.149720982" transform="translate(44.000000, 475.000000)">
                    <g id="Group-8">
                        <path d="M307.2836,13.4194 C307.2836,20.6244 301.4426,26.4644 294.2376,26.4644 L114.2216,26.4644 C107.0176,26.4644 101.1776,20.6244 101.1776,13.4194 C101.1776,6.2154 107.0176,0.3754 114.2216,0.3754 L294.2376,0.3754 C301.4426,0.3754 307.2836,6.2154 307.2836,13.4194" id="Fill-1" fill="#FFAE6D"></path>
                        <polygon id="Clip-4" points="0 52.2826 284.4907 52.2826 284.4907 78.3706 0 78.3706"></polygon>
                        <path d="M284.4907,65.3266 C284.4907,72.5306 278.6507,78.3706 271.4467,78.3706 L13.0457,78.3706 C5.8407,78.3706 -0.0003,72.5306 -0.0003,65.3266 C-0.0003,58.1226 5.8407,52.2826 13.0457,52.2826 L271.4467,52.2826 C278.6507,52.2826 284.4907,58.1226 284.4907,65.3266" id="Fill-3" fill="#FFAE6D"></path>
                        <path d="M231.8408,39.4003 C231.8408,32.1963 237.6808,26.3563 244.8858,26.3563 L164.8788,26.3563 C172.0828,26.3563 177.9238,32.1963 177.9238,39.4003 C177.9238,46.6053 172.0828,52.4443 164.8788,52.4443 L244.8858,52.4443 C237.6808,52.4443 231.8408,46.6053 231.8408,39.4003" id="Fill-6" fill="#FFAE6D"></path>
                    </g>
                    <g id="Group-16" transform="translate(330.000000, 459.000000)">
                        <path d="M179.8618,11.4228 C179.8618,17.4768 174.9548,22.3838 168.8998,22.3838 L11.4258,22.3838 C5.3728,22.3838 0.4648,17.4768 0.4648,11.4228 C0.4648,5.3688 5.3728,0.4618 11.4258,0.4618 L168.8998,0.4618 C174.9548,0.4618 179.8618,5.3688 179.8618,11.4228" id="Fill-9" fill="#FFAE6D"></path>
                        <g id="Group-13" transform="translate(36.000000, 44.000000)">
                            <mask id="mask-2" fill="white">
                                <use xlink:href="#path-1"></use>
                            </mask>
                            <g id="Clip-12"></g>
                            <path d="M315.5854,11.039 C315.5854,17.092 310.6784,22 304.6244,22 L11.2254,22 C5.1714,22 0.2634,17.092 0.2634,11.039 C0.2634,4.985 5.1714,0.078 11.2254,0.078 L304.6244,0.078 C310.6784,0.078 315.5854,4.985 315.5854,11.039" id="Fill-11" fill="#FFAE6D" mask="url(#mask-2)"></path>
                        </g>
                        <path d="M144.2416,33.2539 C144.2416,27.1999 149.1496,22.2929 155.2036,22.2929 L53.9916,22.2929 C60.0456,22.2929 64.9526,27.1999 64.9526,33.2539 C64.9526,39.3069 60.0456,44.2149 53.9916,44.2149 L155.2036,44.2149 C149.1496,44.2149 144.2416,39.3069 144.2416,33.2539" id="Fill-14" fill="#FFAE6D"></path>
                    </g>
                </g>
            </g>
        </g>
    </g>
</svg>