<?xml version="1.0" encoding="UTF-8"?>
<svg width="502px" height="502px" viewBox="0 0 502 502" version="1.1" xmlns="http://www.w3.org/2000/svg" xmlns:xlink="http://www.w3.org/1999/xlink">
    <!-- Generator: Sketch 51.2 (57519) - http://www.bohemiancoding.com/sketch -->
    <title>mooncake_bg</title>
    <desc>Created with Sketch.</desc>
    <defs></defs>
    <g id="Page-1" stroke="none" stroke-width="1" fill="none" fill-rule="evenodd">
        <g id="题目" transform="translate(-124.000000, -493.000000)">
            <g id="mooncake_bg" transform="translate(124.000000, 493.000000)">
                <circle id="Oval-3" fill="#FFAE6D" fill-rule="nonzero" opacity="0.588616071" cx="251" cy="251" r="251"></circle>
                <path d="M251.581502,484.818199 L239.404848,490.118193 C216.054709,500.281542 188.847911,494.869774 171.164541,476.544352 L161.942999,466.987992 L148.665017,467.224744 C123.202957,467.678743 100.138147,452.26733 90.8136784,428.569715 L85.9511451,416.211859 L73.5932888,411.349326 C49.8956742,402.024857 34.4842608,378.960047 34.9382599,353.497987 L35.1750118,340.220005 L25.6186522,330.998463 C7.29323063,313.315094 1.88146196,286.108295 12.0448112,262.758156 L17.3448049,250.581502 L12.0448112,238.404848 C1.88146196,215.054709 7.29323063,187.847911 25.6186522,170.164541 L35.1750118,160.942999 L34.9382599,147.665017 C34.4842608,122.202957 49.8956742,99.1381467 73.5932888,89.8136784 L85.9511451,84.9511451 L90.8136784,72.5932888 C100.138147,48.8956742 123.202957,33.4842608 148.665017,33.9382599 L161.942999,34.1750118 L171.164541,24.6186522 C188.847911,6.29323063 216.054709,0.881461955 239.404848,11.0448112 L251.581502,16.3448049 L263.758156,11.0448112 C287.108295,0.881461955 314.315094,6.29323063 331.998463,24.6186522 L341.220005,34.1750118 L354.497987,33.9382599 C379.960047,33.4842608 403.024857,48.8956742 412.349326,72.5932888 L417.211859,84.9511451 L429.569715,89.8136784 C453.26733,99.1381467 468.678743,122.202957 468.224744,147.665017 L467.987992,160.942999 L477.544352,170.164541 C495.869774,187.847911 501.281542,215.054709 491.118193,238.404848 L485.818199,250.581502 L491.118193,262.758156 C501.281542,286.108295 495.869774,313.315094 477.544352,330.998463 L467.987992,340.220005 L468.224744,353.497987 C468.678743,378.960047 453.26733,402.024857 429.569715,411.349326 L417.211859,416.211859 L412.349326,428.569715 C403.024857,452.26733 379.960047,467.678743 354.497987,467.224744 L341.220005,466.987992 L331.998463,476.544352 C314.315094,494.869774 287.108295,500.281542 263.758156,490.118193 L251.581502,484.818199 Z" id="Star" fill="#F59A55" fill-rule="nonzero"></path>
                <circle id="Oval-3" stroke="#E6713B" stroke-width="10" fill-rule="nonzero" cx="251" cy="251" r="227"></circle>
                <g id="Group" transform="translate(39.000000, 38.000000)" fill="#E6713B">
                    <path d="M414.796942,228.841539 L365.918288,225.115783 C359.983706,224.739391 355.206158,228.241394 354.264547,232.858695 C350.996705,256.526268 341.978432,279.430649 327.404307,298.513876 C324.610744,302.305544 326.012737,308.501262 330.39592,312.25824 L367.926596,343.760654 C372.563423,347.677208 379.731481,346.256633 384.02085,340.504954 C390.966535,331.723062 396.505016,321.961164 401.916674,312.197531 C405.050745,305.750308 403.15015,298.609275 397.707221,296.210429 L390.365433,292.954729 C384.922504,290.583635 378.404192,293.079614 375.75135,298.513876 C374.771518,300.760084 373.473763,302.810291 372.207278,304.896922 C371.884142,305.434625 371.401176,305.779795 370.822658,305.939371 C370.238929,306.067726 369.660411,306.000079 369.146173,305.719086 L363.053497,302.118216 C362.53231,301.800798 362.200488,301.360229 362.049344,300.789571 C361.908623,300.251869 361.971166,299.682945 362.271717,299.207686 C364.816847,295.417752 366.495069,291.156028 368.545071,287.10765 C369.540538,285.053974 368.598927,282.587482 366.432526,281.642167 C364.273075,280.695117 361.748792,281.517281 360.807181,283.442602 C358.861416,287.296713 357.287432,291.341622 354.850014,294.942492 C352.049502,299.558059 353.781581,305.939371 358.703323,309.29047 L364.611846,313.142847 C369.549224,316.459256 376.251689,314.693511 379.622032,309.162115 C380.951059,306.980085 382.30267,304.836214 383.34157,302.494607 C383.626485,301.894462 384.074706,301.514602 384.637588,301.292583 C385.207419,301.072298 385.785937,301.072298 386.312336,301.360229 L393.482131,304.990587 C394.003318,305.242093 394.369886,305.719086 394.543615,306.350453 C394.684336,306.948864 394.637429,307.613186 394.321242,308.246287 C389.131957,317.597103 383.822799,326.984344 377.144656,335.419331 C376.734656,335.955299 376.178723,336.300469 375.568934,336.428824 C374.952196,336.555444 374.375416,336.460045 373.892449,336.080184 L334.905925,306.444117 C334.421221,306.067726 334.129356,305.590732 334.002534,305.054764 C333.893085,304.517062 333.971263,304.008846 334.271814,303.602968 C349.707636,283.380159 359.28879,259.114177 362.73731,234.024295 C362.817226,233.523018 363.126463,233.11367 363.592057,232.82574 C364.050702,232.510056 364.604897,232.385171 365.205999,232.445879 L413.846644,238.480286 C414.447747,238.577419 414.922027,238.893102 415.271222,239.430805 C415.603045,239.933817 415.745502,240.566918 415.651689,241.260727 C414.416476,251.941922 411.775795,262.336921 408.926639,272.698964 C408.737275,273.363287 408.372444,273.902723 407.833884,274.216672 C407.281426,274.532355 406.695959,274.629489 406.124391,274.471647 L398.466416,272.038111 C397.896585,271.878534 397.469212,271.469187 397.23294,270.931485 C396.979296,270.360826 396.883745,269.762416 397.041838,269.132784 L398.956332,261.736776 C400.58591,255.449129 397.104381,249.541342 391.124629,248.405229 L384.178943,247.047097 C378.48237,246.034135 372.683296,249.350544 371.298675,254.564522 C370.261513,258.576474 369.368546,262.654339 367.754604,266.475494 C367.009306,268.497948 368.206299,270.836086 370.412658,271.659985 C372.627702,272.47868 375.06512,271.40501 375.855587,269.25767 C377.540758,265.212761 378.491056,260.947568 379.580337,256.711862 C379.731481,256.146407 380.080676,255.73359 380.586228,255.417907 C381.08483,255.133445 381.656398,255.039781 382.233179,255.194154 L389.098949,256.871438 C389.700051,257.027545 390.144797,257.376184 390.443611,257.884399 C390.744162,258.385677 390.824078,258.989291 390.68162,259.589436 L388.845304,266.666292 C387.057633,272.449193 389.653144,278.672663 395.269803,280.820003 L402.802692,283.600444 C408.276893,285.687075 414.972408,282.022027 417.105801,275.196678 C420.097414,264.392331 422.835383,253.522073 424.133138,242.398574 C425.366614,235.321719 420.714152,229.254356 414.796942,228.841539" id="Fill-1"></path>
                    <path d="M322.445568,321.175129 C318.264981,317.188064 312.035596,316.428871 308.52584,319.559456 C290.975329,335.921192 269.102459,347.187476 245.984749,352.758944 C241.511971,354.148771 238.488048,359.146935 239.43378,365.069335 L247.858924,413.360605 C248.827133,419.185717 255.346981,423.297867 262.245467,421.336474 C273.163748,418.932074 283.667083,415.165643 294.077055,411.143832 C300.652229,408.33117 303.636386,401.303858 301.037783,396.05205 L297.543588,388.833636 C294.85508,383.456744 288.414763,381.491876 282.857937,383.831997 L276.030338,386.366694 C275.447683,386.55432 274.865029,386.523049 274.322141,386.302414 C273.786168,386.052245 273.385053,385.640509 273.187954,385.067206 L270.841777,378.3943 C270.646406,377.819259 270.686172,377.252904 270.919579,376.714347 C271.156445,376.208797 271.559288,375.797061 272.093532,375.607697 C276.355379,374.056303 280.644889,372.570925 284.645665,370.416694 C286.706567,369.435129 287.527815,366.903906 286.486991,364.78442 C285.44098,362.663197 283.022187,361.712903 281.08577,362.631926 C277.282093,364.68887 273.212159,366.080434 269.157785,367.569286 C264.133474,369.469874 261.370622,375.543417 262.952605,381.114886 L264.977199,387.883342 C266.669835,393.741462 272.914781,396.651412 278.967813,394.372096 L286.108352,391.745324 C286.715211,391.524689 287.337631,391.559434 287.911641,391.745324 C288.47009,391.938162 288.91097,392.318627 289.146107,392.884982 L292.289327,400.258013 C292.524463,400.798308 292.486426,401.399408 292.225356,401.998771 C291.952183,402.570337 291.471536,402.980336 290.824911,403.23398 C280.835073,407.095961 270.748414,410.702562 260.267555,413.013149 C259.607099,413.20425 258.960474,413.105225 258.410669,412.823785 C257.866052,412.53887 257.497787,412.094126 257.3612,411.493026 L246.646935,363.677771 C246.512077,363.104467 246.589879,362.538113 246.83539,362.032563 C247.086086,361.556548 247.464725,361.210828 247.952287,361.082269 C272.480816,355.163344 295.652123,343.229944 314.241728,325.891854 C314.620367,325.572194 315.101014,325.415838 315.642173,325.478381 C316.18679,325.572194 316.689913,325.827575 317.097944,326.237573 L350.279837,362.190656 C350.687868,362.631926 350.84693,363.201755 350.784688,363.802855 C350.705157,364.433489 350.42161,365.005055 349.909843,365.479334 C342.207397,372.947916 333.407072,379.120484 324.63614,385.227036 C324.051757,385.572755 323.406861,385.703052 322.782712,385.607501 C322.155105,385.51195 321.650253,385.194027 321.326941,384.691952 L317.035702,377.914809 C316.714118,377.40926 316.650147,376.839431 316.798837,376.273076 C316.964815,375.668502 317.319249,375.194223 317.870782,374.848504 C320.092475,373.582024 322.075574,372.03063 324.115728,370.480973 C329.271438,366.618992 330.391794,359.75151 326.643444,355.163344 L322.217347,349.654418 C318.437876,345.099261 311.918028,343.990874 307.604313,347.220484 C304.407495,349.87679 300.730031,351.80865 297.227191,354.023686 C295.385865,355.13381 294.832603,357.725837 295.997912,359.782781 C297.156304,361.841462 299.675375,362.538113 301.627353,361.335913 C305.320378,359.025326 309.177652,356.966645 312.547363,354.183516 C313.014178,353.834322 313.555338,353.738772 314.125889,353.834322 C314.682609,353.93161 315.178816,354.214787 315.524605,354.689066 L319.689631,360.41689 C320.03542,360.887694 320.154717,361.460997 320.059625,362.062097 C319.964533,362.631926 319.665426,363.137476 319.169219,363.517941 C317.224157,364.973784 315.327505,366.493907 313.202633,367.69437 C308.060754,370.861438 306.215971,377.56909 309.084289,382.791364 L313.052215,389.754397 C315.94128,394.941925 323.209761,396.145863 329.304288,392.379432 C338.438299,386.052245 347.601703,379.563491 355.632647,371.841266 C360.938776,367.030728 361.649372,359.720239 357.294163,355.47953 L322.445568,321.175129 Z" id="Fill-3"></path>
                    <path d="M227.831981,365.899918 C227.17811,360.05154 222.86638,355.432582 218.166143,355.681228 C194.113417,356.874387 170.150879,351.431787 148.776074,340.80214 C144.441797,338.980457 138.872623,340.929917 135.823539,346.025448 L111.321602,388.17452 C108.321081,393.237243 110.723232,400.536061 117.253266,403.490467 C127.182734,408.679241 137.701899,412.486643 148.264425,416.16627 C155.143074,418.150263 161.90205,414.814253 163.294777,409.121279 L165.244248,401.38215 C166.619631,395.594207 162.963506,389.871879 157.156718,388.17452 L150.300616,385.686326 C149.724794,385.467033 149.29813,385.059529 149.027563,384.553602 C148.784746,384.020048 148.744855,383.422605 148.951249,382.890777 L151.429714,376.284372 C151.64478,375.714556 152.047162,375.308779 152.560546,375.056679 C153.080867,374.837386 153.642814,374.773498 154.187417,374.961709 C158.429772,376.596907 162.699876,378.107781 167.157297,379.083374 C169.3756,379.646283 171.628592,378.263185 172.187071,375.966657 C172.738611,373.673581 171.500246,371.406407 169.40682,370.874579 C165.173138,369.961148 161.112896,368.514162 157.085608,366.972207 C152.024614,365.147071 145.964604,368.072123 143.609282,373.326512 L140.815156,379.774059 C138.366176,385.34271 141.335477,391.443188 147.40416,393.675828 L154.57419,396.286619 C155.181231,396.538719 155.658193,396.916869 155.97212,397.388262 C156.280844,397.890736 156.376236,398.491632 156.201061,399.05454 L153.878693,406.700427 C153.705253,407.263336 153.294199,407.705374 152.716642,407.957474 C152.133882,408.238929 151.48348,408.30627 150.846954,408.052444 C140.704154,404.498868 130.601246,400.879676 121.084567,395.877388 C120.470587,395.564853 120.02658,395.08828 119.782029,394.525371 C119.553087,393.959009 119.553087,393.361567 119.828857,392.859093 L142.268587,349.549669 C142.544358,349.014388 142.971021,348.632785 143.475733,348.416946 C143.982179,348.228734 144.495563,348.197653 144.95518,348.416946 C167.597835,359.675116 193.02421,365.431979 218.48007,364.173205 C218.993454,364.142124 219.453071,364.361416 219.824234,364.739567 C220.195397,365.147071 220.424338,365.649544 220.446885,366.250441 L222.849036,414.909222 C222.88199,415.506665 222.642642,416.038493 222.193431,416.480531 C221.733814,416.92257 221.142382,417.171217 220.455557,417.202298 C209.768155,418.022486 199.026986,416.951924 188.386412,416.009139 C187.706525,415.914169 187.132437,415.599908 186.721383,415.128515 C186.310329,414.626041 186.110873,414.089033 186.183718,413.489864 L187.226095,405.567703 C187.305878,404.97026 187.630211,404.498868 188.126251,404.150072 C188.617088,403.803002 189.20852,403.678679 189.848515,403.773648 C192.361668,404.245041 194.897368,404.372818 197.431333,404.464333 C203.893725,404.811403 209.136831,400.282234 209.207942,394.366514 L209.341491,387.324977 C209.381382,381.443791 205.078324,376.439776 199.682591,376.158322 C195.513081,376.158322 191.451105,375.184455 187.337097,374.647448 C185.205513,374.331459 183.120759,375.935576 182.701033,378.263185 C182.267432,380.559714 183.75902,382.700839 186.025887,383.075535 C190.354961,383.612543 194.6268,384.650298 199.011376,384.650298 C199.587198,384.681379 200.0763,384.930025 200.45787,385.372064 C200.829032,385.781295 201.016348,386.316576 200.978191,386.914019 L200.511636,393.927929 C200.464807,394.525371 200.195974,395.031298 199.738091,395.438803 C199.287146,395.816953 198.726933,396.036246 198.109485,396.006891 C195.67785,395.911922 193.253152,395.787599 190.859673,395.311026 C184.86557,394.433856 179.138565,398.363855 178.00253,404.181152 L176.578584,412.015251 C175.480705,417.832548 180.291944,423.401198 187.383926,424.470034 C198.458101,425.4439 209.641543,426.514462 220.772953,425.727081 C227.911764,425.354111 233.163541,420.287934 232.54089,414.406749 L227.831981,365.899918 Z" id="Fill-5"></path>
                    <path d="M125.323378,326.066917 C106.207319,311.74733 91.7595561,291.78769 81.9490701,270.195129 C80.0896788,265.914978 74.5252911,263.900179 68.8988663,265.851043 L23.2016122,282.537932 C17.7182174,284.487068 14.9851363,291.568239 17.7871476,298.146575 C22.400299,308.284503 27.3925663,318.230628 33.4825466,327.57888 C37.0376199,333.778792 44.6509568,335.290755 49.3037431,331.859031 L55.7538834,327.167626 C60.5738254,323.580385 61.1287132,317.097088 58.1940114,311.807809 L54.4269777,305.575065 C54.1150687,305.07223 54.035799,304.474356 54.1684896,303.907586 C54.3115197,303.340816 54.638938,302.901915 55.1576375,302.58397 L61.2717433,299.121143 C61.7887196,298.841214 62.3608399,298.773823 62.9277906,298.901692 C63.4930179,299.027833 63.95485,299.344049 64.252973,299.846885 C66.6706986,303.653576 68.7661757,307.714277 71.4406662,311.336077 C72.8072067,313.191903 75.4524019,313.539223 77.3428117,312.122297 C79.2280518,310.738203 79.7140094,308.220569 78.4267386,306.489155 C75.8677061,303.026327 73.9049196,299.185077 71.5905893,295.565006 C68.6007433,291.096507 62.7692512,289.111083 57.4013144,291.758315 L51.1321158,294.906654 C45.9209952,297.488223 43.5980485,304.439797 47.0979778,309.888048 L51.0287205,316.371346 C51.3682016,316.938116 51.4612573,317.535989 51.350969,318.13559 C51.242404,318.733464 50.9356648,319.239755 50.4324746,319.583619 L43.7720972,323.927705 C43.268907,324.275025 42.6967866,324.335503 42.1074337,324.150612 C41.5111877,323.95708 41.0079975,323.580385 40.6478374,323.011887 C34.793943,314.042058 30.0050196,304.474356 25.5710867,294.747682 C25.28158,294.116977 25.2350521,293.488 25.4073775,292.888399 C25.5952122,292.325085 26.0105165,291.851624 26.5533415,291.632174 L71.3872453,272.747323 C71.9438564,272.524416 72.4780652,272.524416 72.9967647,272.681661 C73.5206339,272.840633 73.9376615,273.155121 74.158238,273.597478 C84.5477374,296.479095 99.881253,317.599924 120.11398,332.802496 C120.520668,333.085881 120.732628,333.559342 120.763647,334.093281 C120.796389,334.625492 120.637849,335.162887 120.286306,335.634619 L90.8893127,374.477382 C90.5274293,374.949115 90.0018368,375.203125 89.3745723,375.263603 C88.7524776,375.296434 88.125213,375.108087 87.5841112,374.700289 C79.1798006,368.182432 71.1907943,361.004495 64.0168872,353.137104 C63.5550551,352.630812 63.3206925,352.032939 63.3051832,351.40569 C63.296567,350.778441 63.5016342,350.241046 63.9393408,349.833248 L69.8087445,344.447204 C70.2481743,344.037678 70.8134016,343.88389 71.4113708,343.913265 C72.00934,343.977199 72.5642279,344.227753 72.9967647,344.699486 C74.7389746,346.525937 76.3088592,348.540736 78.1889295,350.208215 C82.9468343,354.554029 89.8846555,354.42616 93.7223426,349.928286 L98.342387,344.639007 C102.157672,340.137677 102.062893,333.590445 98.0925152,329.968645 C95.149197,327.076044 92.5126182,323.896602 89.6968208,320.86922 C88.2510106,319.296778 85.5989224,319.205196 83.7929521,320.713703 C81.9904282,322.196291 81.7612354,324.774404 83.2983781,326.478171 C86.2589288,329.654157 89.0437075,332.992572 92.1283325,336.045873 C92.552253,336.424296 92.7711063,336.923676 92.7866156,337.493902 C92.7866156,338.057216 92.5987809,338.594611 92.1834766,339.033512 L87.3170068,344.10334 C86.8999793,344.543969 86.369217,344.76342 85.7729711,344.76342 C85.1663856,344.76342 84.6114978,344.575073 84.1531122,344.167275 C82.3505883,342.56373 80.8496339,340.640513 79.1866937,338.877996 C75.1232603,334.4406 68.1768228,333.842727 63.5946899,337.55438 L57.4650748,342.655312 C52.9070676,346.398068 53.0397581,353.703874 57.825235,358.993153 C65.2955418,367.173305 73.6223059,374.631171 82.3660976,381.432413 C88.0631759,385.71602 95.3301387,385.147522 98.6267239,380.267769 L126.1402,340.042639 C129.41266,335.131783 129.074902,328.867936 125.323378,326.066917" id="Fill-7"></path>
                    <path d="M64.696882,254.190091 C70.3694977,252.524603 74.0429613,247.555752 72.8489993,243.063247 C67.8761732,219.767119 69.087414,195.117889 75.5790428,172.351611 C76.8144739,167.841848 73.9496561,162.734925 68.3323323,160.610349 L22.5125258,143.94856 C17.0731733,141.92236 10.3068122,145.553642 8.34221762,152.405445 C5.31843523,163.142236 2.78536953,173.972226 1.47909554,185.04039 C0.226385693,192.064782 5.05925389,198.133028 10.8683718,198.495466 L18.8373343,199.063285 C24.8175119,199.423997 29.4603138,194.802051 30.6024396,188.861521 L31.694457,181.688702 C31.7894902,181.091542 32.1056914,180.589307 32.5756736,180.245854 C33.0422,179.898949 33.598576,179.774685 34.182598,179.869609 L41.1061957,181.157126 C41.6884898,181.253776 42.1757507,181.597229 42.5230537,182.035607 C42.8599895,182.508502 43.018954,183.057337 42.9308324,183.640689 C42.3260759,188.107305 41.3895673,192.539403 41.0439922,197.066425 C40.9334081,199.325621 42.7424939,201.306948 45.0872212,201.451923 C47.4336763,201.593447 49.4224612,199.99009 49.5261337,197.822367 C49.8475186,193.543873 50.7546533,189.330964 51.3196687,185.06973 C51.8933234,179.710826 48.6518287,174.458929 42.8599895,173.01608 L36.0072347,171.410998 C30.3259795,170.025105 24.1021714,173.861769 23.3073486,180.245854 L22.1583113,187.7604 C22.0632782,188.3869 21.7505327,188.923653 21.2770947,189.330964 C20.7967453,189.708935 20.2386415,189.897058 19.6494359,189.836651 L11.7167588,188.892587 C11.1258253,188.81147 10.6454759,188.485276 10.3016286,187.979589 C9.96123711,187.442835 9.8195513,186.830143 9.92149597,186.158769 C11.1742058,175.530709 13.6053269,165.121838 16.5081579,154.826875 C16.6809455,154.169309 17.0610782,153.649815 17.5708015,153.30291 C18.0805248,152.985345 18.6559074,152.87834 19.2243785,153.052655 L65.7819879,167.481136 C66.3573705,167.669258 66.8048902,168.016163 67.1193636,168.471799 C67.4269255,168.927436 67.544421,169.429671 67.4182861,169.935358 C60.5188786,194.077175 59.2506179,220.170979 64.5223665,244.818482 C64.6502293,245.32417 64.5379174,245.793613 64.2251719,246.238894 C63.9106985,246.646205 63.4528115,246.960318 62.8705174,247.084582 L15.3280189,257.867973 C14.7457248,258.026755 14.1720701,257.867973 13.6433401,257.52452 C13.1336168,257.146549 12.7621235,256.609796 12.5910638,255.950504 C10.7560599,245.45016 8.69470426,234.884232 8.51327731,224.226831 C8.48217555,223.538199 8.68606488,222.942766 9.06446964,222.437078 C9.45842529,221.967635 9.96987648,221.681136 10.5694493,221.648344 L18.5470512,221.303166 C19.1362568,221.270374 19.6788098,221.522354 20.1107787,221.934843 C20.5444755,222.371494 20.8053847,222.908248 20.8347586,223.569265 L21.2390815,231.145944 C21.9233202,237.528303 27.6114869,241.862025 33.3791358,240.923138 L40.3424747,239.853083 C46.229347,238.848612 50.0859655,233.815903 49.5416846,228.474258 L48.9196494,216.089237 C48.7693242,213.949128 46.8358314,212.188715 44.5360289,212.171456 C42.1273702,212.157649 40.2560809,213.978468 40.4046782,216.273908 L41.0595431,229.288881 C41.0906448,229.854974 40.8625652,230.391728 40.5083507,230.830105 C40.1627756,231.237416 39.6737868,231.523915 39.0759418,231.615387 L32.0797733,232.340263 C31.4905677,232.400669 30.9324639,232.212547 30.4538423,231.834576 C29.9873159,231.456605 29.7505969,230.954369 29.7125837,230.327869 L29.3428183,223.09637 C29.0508073,217.093708 23.9362954,212.157649 18.1928367,212.029933 L10.2065954,212.000592 C4.13138466,211.936734 -0.297160629,217.592492 0.015584864,224.701452 C0.219474191,235.798956 2.34648912,246.801535 4.26270321,257.709191 C6.01131337,264.630029 12.0554224,268.870552 17.7366775,267.26547 L64.696882,254.190091 Z" id="Fill-9"></path>
                    <path d="M28.1932858,129.584584 L72.6737809,149.753626 C78.0976824,152.132246 84.1398256,150.667417 86.1417509,146.45085 C97.3809338,125.461296 113.998992,107.245936 133.848532,93.9968302 C137.871432,91.6061181 138.745976,85.4686902 135.84353,80.3072396 L111.371898,38.1139348 C108.445208,32.9853046 101.159654,31.7882212 95.0551676,35.5332095 C85.9547198,41.9193819 76.8369543,48.400561 68.7998129,56.142737 C63.4382551,60.8637024 62.8771618,68.2275794 67.2481476,72.4113255 L72.9872311,77.9614397 C77.2075529,81.9465356 84.091336,81.7582498 88.6666706,77.7938826 L94.061132,72.9139969 C94.5183191,72.5063322 95.0707535,72.3145915 95.6457009,72.347412 C96.2223801,72.3819599 96.7419109,72.6307045 97.1211684,73.1040102 L101.61511,78.5159329 C101.985708,78.9875112 102.145031,79.5212757 102.120786,80.1206811 C102.080956,80.7183591 101.852362,81.2210305 101.426347,81.6286953 L91.3561083,90.7545132 C89.6832192,92.2970753 89.9118127,95.1006344 91.591629,96.6725621 C93.318203,98.3360417 95.7790472,98.275583 97.356689,96.7986618 L106.933373,88.1098744 C111.006495,84.6015389 111.846403,78.3898332 108.311862,73.542768 L104.093272,67.8941925 C100.638392,63.190501 93.4619398,62.2473443 88.5558373,66.3999974 L82.9085376,71.5148085 C82.4271057,71.9397472 81.8504265,72.1591261 81.2443072,72.1591261 C80.6295291,72.1591261 80.0857536,71.9397472 79.677056,71.4975346 L74.2029332,65.6779471 C73.7925038,65.2357345 73.626254,64.6864234 73.6885977,64.0714715 C73.7682591,63.440973 74.0522692,62.874388 74.5562141,62.4045371 C82.2643194,54.9802014 91.0322675,48.7788601 99.7621166,42.613794 C100.347455,42.2631332 100.991673,42.1387609 101.61511,42.2337675 C102.247206,42.3443206 102.759809,42.6414323 103.081918,43.1475584 L129.550281,84.1161414 C129.874122,84.6188128 129.983223,85.1543047 129.912221,85.6880692 C129.827364,86.223561 129.572794,86.636408 129.139851,86.9024266 C108.100586,100.934041 90.5110049,120.208294 78.6016273,142.486483 C78.3816925,142.928695 77.9885809,143.22408 77.4690501,143.367453 C76.9547146,143.491826 76.3953531,143.431367 75.8671635,143.148074 L32.4049488,120.869885 C31.8681003,120.603867 31.5217464,120.115014 31.3537648,119.517336 C31.2065644,118.886838 31.2602492,118.24252 31.5598453,117.627568 C36.8434735,108.346285 42.1755913,99.0321811 48.8567573,90.661234 C49.2654549,90.1240147 49.8161576,89.7802635 50.4240086,89.6558912 C51.0318596,89.5280641 51.6154659,89.6213433 52.0882389,89.9996424 L58.4299782,94.8778007 C58.9027512,95.2250067 59.1711754,95.7553164 59.2335191,96.3564492 C59.2889358,96.9523998 59.1400036,97.5535326 58.7520873,98.0872971 L54.1958022,104.159084 C50.5435007,109.476 52.1679003,116.480579 57.1900313,119.453423 L63.2252474,123.103404 C68.3980424,126.122888 74.564873,124.706425 77.642227,120.299845 L85.0871034,110.391518 C86.3010737,108.600212 86.1815816,106.204317 84.3459061,104.63239 C82.6020144,103.136467 79.7532539,103.153741 78.4474998,105.040054 L70.6216342,115.489056 C70.2683533,115.927813 69.7713355,116.211106 69.1859974,116.306112 C68.6041229,116.382118 68.0724698,116.306112 67.5615978,115.960634 L61.7099493,112.041179 C61.2302492,111.709519 60.8821635,111.206848 60.8025021,110.640263 C60.7159137,110.073678 60.8509917,109.507093 61.2215903,109.004422 L65.5752584,103.184834 C69.1080678,98.275583 68.5781464,91.3867391 64.219283,87.5933838 L58.1061373,82.4146592 C53.5238757,78.4848398 46.2539081,79.8045682 42.0335862,85.5636969 C35.0857277,94.2783952 29.5094305,103.970798 24.0214535,113.645927 C20.8904145,120.063193 22.7832384,127.192144 28.1932858,129.584584" id="Fill-12"></path>
                    <path d="M146.204781,74.2885479 C148.864136,79.650677 154.241558,82.0038168 158.607045,80.3375115 C180.665874,71.6858065 204.94371,68.0140821 228.722486,70.8061764 C233.340093,71.5412098 237.947338,67.4202027 239.033529,61.6208405 L247.448487,13.7851401 C248.51741,8.00127043 243.697761,2.417082 236.643564,1.38080535 C225.593427,0.537324365 214.472489,-0.560922312 203.392996,0.332478981 C196.276631,0.695692224 191.078802,5.77207067 191.721191,11.6196317 L192.524178,19.5397461 C193.209739,25.373536 198.595796,29.856035 204.620789,29.5720057 L211.87012,29.2122352 C212.48488,29.1657577 213.018478,29.4618367 213.445011,29.8852986 C213.859456,30.3087605 214.096035,30.8441127 214.089127,31.4379922 L214.025234,38.4492128 C214.020053,39.0430922 213.790382,39.5440167 213.388025,39.951986 C212.987395,40.358234 212.476246,40.5166019 211.901204,40.5630794 L198.343675,41.2533567 C196.064228,41.3635256 194.420264,43.3396811 194.679292,45.7203632 C194.931412,47.9805479 196.882757,49.7983355 199.037871,49.7053805 L211.927107,49.0426454 C217.295895,49.2337197 221.944585,44.7632705 222.353849,38.8864458 L222.754479,31.8631755 C223.13266,26.0293855 218.26984,20.9495643 211.847671,20.7309478 L204.258149,21.0907183 C203.62094,21.1371958 203.047625,20.9185793 202.576194,20.5381522 C202.11167,20.1353469 201.828466,19.6344225 201.80429,19.0353789 L201.363942,11.1049362 C201.332859,10.5058925 201.571165,9.9757045 202.016693,9.53502872 C202.472583,9.09779571 203.063167,8.84475142 203.738366,8.81204501 C214.387873,7.93757901 225.066736,9.03410429 235.681706,9.81733664 C236.36036,9.91201308 236.925041,10.2270274 237.349847,10.6986882 C237.760838,11.1823987 237.955973,11.7298007 237.885172,12.3254015 L231.782471,60.5208724 C231.704762,61.1199161 231.4371,61.5898555 231.052011,61.9633971 C230.649655,62.3093964 230.178223,62.4677643 229.682616,62.3696451 C204.511997,59.4209044 178.793964,63.2802603 155.389916,72.5000239 C154.918485,72.6583917 154.407336,72.5981431 153.920364,72.3450988 C153.433391,72.0627909 153.031034,71.6531001 152.803089,71.1211907 L133.866412,26.358171 C133.638467,25.8073263 133.678184,25.2461532 133.961388,24.6815373 C134.2515,24.1496279 134.724658,23.7227232 135.370501,23.4868928 C145.325813,19.5672883 155.452083,16.1847574 165.921997,13.8780951 C166.581655,13.7042348 167.218864,13.8006326 167.76973,14.0794977 C168.311962,14.3652484 168.681509,14.8024814 168.816204,15.3980823 L170.529243,23.1615502 C170.655303,23.7399371 170.522335,24.304553 170.183872,24.8226913 C169.838501,25.3391082 169.341167,25.6833862 168.7195,25.8572466 L161.351015,27.7542181 C155.060087,29.1657577 151.836051,35.6708897 153.787396,41.1913867 L156.059935,47.8221801 C158.056178,53.4029257 163.632189,56.1640349 168.90082,55.0330818 C172.912301,54.0966458 176.859888,52.8383099 180.917995,52.118769 C183.050659,51.805476 184.456318,49.6537388 184.079864,47.3522407 C183.693048,45.0318073 181.546569,43.4309148 179.289572,43.7769141 C175.020789,44.544654 170.859072,45.8615171 166.635188,46.8668088 C166.077414,47.0079627 165.521367,46.9150077 165.024033,46.6326997 C164.528426,46.315964 164.158879,45.878731 163.993101,45.3003441 L162.043484,38.5731528 C161.870798,37.9913231 161.965775,37.4439211 162.257613,36.9395539 C162.556359,36.4386295 163.017429,36.0650879 163.616647,35.9101628 L170.646669,34.1181961 C176.44199,32.3795924 180.5968,27.4082187 179.659118,21.4831951 L178.32426,13.6457075 C177.40212,7.93757901 170.865979,3.67197514 163.993101,5.61714559 C153.086293,8.03225544 142.531763,11.5421692 132.158553,15.6201416 C125.522254,18.2521465 122.572788,25.3064018 125.130259,30.5136059 L146.204781,74.2885479 Z" id="Fill-14"></path>
                    <path d="M256.953454,77.3203544 C279.472105,84.9768453 300.752343,97.471921 316.981799,115.10411 C320.135069,118.562214 326.42253,118.313728 331.020616,114.572625 L368.492151,83.2650493 C373.055547,79.4911602 372.908117,72.1970455 368.089754,66.9322373 C360.418184,58.901291 352.196786,51.2637817 343.255582,44.6650841 C337.521417,40.3890452 330.214086,40.9550423 326.920324,45.8591999 L322.417634,52.4578975 C319.155092,57.3948415 320.419523,64.2644584 325.262169,67.8899458 C327.182229,69.3705113 329.220234,70.7216568 331.036226,72.3247399 C331.495861,72.7337073 331.74736,73.2686436 331.794191,73.8657015 C331.841021,74.4627594 331.667574,75.0287564 331.280787,75.4670591 L326.693108,80.8112449 C326.295914,81.2668035 325.784245,81.5032108 325.222276,81.567058 C324.653369,81.5981188 324.131293,81.4428148 323.704613,81.0476522 C320.183634,78.203862 316.456254,75.5947535 312.845083,72.8614018 C311.003074,71.5102563 308.46901,71.9451077 307.142139,73.9260975 C305.846488,75.8449656 306.170834,78.5161957 307.901837,79.7879636 C311.320482,82.4160536 314.87615,84.8664068 318.223681,87.572149 C322.212967,91.1821059 328.760599,90.6661513 332.883439,86.4228988 L337.733023,81.3133947 C341.83505,77.0373558 341.297363,70.1245989 336.508486,65.7864383 C334.60577,64.1195079 332.482776,62.7062408 330.474257,61.1497489 C329.962588,60.7580375 329.646914,60.2403572 329.535908,59.6571042 C329.43184,59.0565951 329.54458,58.4767932 329.900147,58.0091554 L334.716776,51.6244323 C335.079281,51.1395384 335.601357,50.8876007 336.234439,50.8358327 C336.864052,50.7926927 337.490197,50.9807831 338.041759,51.3897505 C346.627396,57.738236 354.510572,65.061686 361.889016,72.7768474 C362.346917,73.2824484 362.582805,73.8967623 362.608822,74.5231554 C362.61576,75.1529997 362.411092,75.6896616 361.967067,76.0934522 L326.035743,109.162867 C325.602125,109.554578 325.071377,109.763376 324.544097,109.792711 C323.997738,109.792711 323.524228,109.639132 323.186006,109.261226 C305.988715,90.585048 283.452719,77.3203544 259.567303,69.2410912 C259.093793,69.0564519 258.746898,68.6785454 258.540496,68.1763955 C258.335828,67.6414593 258.280325,67.1393094 258.46071,66.5388003 L272.877642,20.0217785 C273.05109,19.4557814 273.47777,19.0140276 274.044942,18.7603643 C274.615583,18.541213 275.255604,18.5084265 275.902562,18.7448339 C286.068303,22.2184683 296.091817,26.0406742 305.619272,31.0190326 C306.23501,31.3054824 306.6773,31.7903762 306.914923,32.3563733 C307.149077,32.9396264 307.149077,33.5056234 306.864623,34.0388341 L303.154587,41.1137975 C302.877072,41.6418314 302.403561,41.9886772 301.810371,42.1646885 C301.218916,42.3406997 300.592772,42.2889317 300.018662,42.019738 L293.138011,38.7203892 C287.379564,35.7506301 280.658484,38.7704316 278.596197,44.1905438 L276.044788,50.7616318 C273.944343,56.3870906 276.495751,61.9814885 281.258612,64.5302009 C284.961709,66.3834962 288.793158,67.988305 292.409533,69.9969044 C294.25848,71.1323498 296.723165,70.3903414 297.925154,68.3662116 C299.123674,66.354161 298.507937,63.7416014 296.549718,62.5474856 C292.744286,60.4422525 288.715107,58.7459869 284.819483,56.7977836 C284.300876,56.5458459 283.936636,56.104092 283.737172,55.5708814 C283.548115,55.0014331 283.556787,54.4388872 283.801348,53.8901462 L286.661492,47.4588318 C286.899115,46.9238956 287.334467,46.545989 287.886029,46.3613497 C288.428919,46.1542776 289.022109,46.1715336 289.582343,46.4545321 L296.155992,49.6003025 C301.723648,52.0195948 308.160274,50.7926927 311.280589,45.6693838 L315.332316,38.7876876 C318.312139,33.7851708 316.029574,26.3685384 309.488879,23.4453705 C299.559027,18.2582144 289.117505,14.2686253 278.525084,10.6517659 C271.692998,8.49821607 264.874788,11.9425153 263.469866,17.5990349 L251.321623,64.7493522 C249.899356,70.5629015 252.49933,75.9088129 256.953454,77.3203544" id="Fill-17"></path>
                    <path d="M333.685753,137.67053 C346.480683,157.811789 354.301161,180.964406 355.403692,204.839679 C355.647537,209.51884 360.702109,213.321843 366.660652,213.416703 L415.797291,213.416703 C421.761059,213.447748 426.329682,207.776874 425.981331,200.679659 C425.744452,189.584547 423.537649,178.575671 421.491087,167.704772 C419.716239,160.774855 413.639257,156.568267 407.912368,158.215373 L400.172011,160.385069 C394.460797,162.082191 391.081793,168.142851 392.574477,173.987921 C393.271179,176.311116 393.556827,178.699851 393.938271,181.092035 C394.030584,181.718108 393.873826,182.283815 393.523733,182.768461 C393.175382,183.258281 392.699883,183.570455 392.11117,183.665314 L385.107575,184.827774 C384.513637,184.919185 383.958017,184.767409 383.48426,184.450061 C383.020953,184.136162 382.705695,183.665314 382.625575,183.099607 C382.148334,178.575671 380.721837,174.270775 379.652399,169.871018 C379.072395,167.672003 376.771537,166.418133 374.488097,167.07525 C372.220332,167.739267 370.806028,169.969327 371.345972,172.040714 C372.361415,176.204184 373.740884,180.303839 374.169356,184.574241 C374.996689,189.886373 380.453607,193.656607 386.377314,193.059854 L393.429679,192.242338 C399.344677,191.599018 403.359422,185.95919 402.377072,179.612227 C401.979952,177.095863 401.678628,174.586398 400.948833,172.164894 C400.788592,171.538821 400.88613,170.942068 401.171778,170.405681 C401.473101,169.888266 401.917249,169.5278 402.502478,169.398446 L410.340374,167.580593 C410.943021,167.452964 411.514317,167.580593 412.036843,167.958306 C412.561111,168.334295 412.942556,168.849985 413.101055,169.5278 C415.05182,179.972693 417.192437,190.529693 417.41364,201.181552 C417.448475,201.855917 417.241206,202.48199 416.844086,202.970085 C416.462642,203.456455 415.955791,203.742759 415.353144,203.772079 L366.253081,206.083201 C365.652176,206.096999 365.112232,205.941774 364.68376,205.595106 C364.255289,205.260511 363.994025,204.839679 363.969641,204.337786 C362.778281,179.060317 354.515397,154.479634 340.950612,133.146594 C340.682381,132.705067 340.649288,132.203174 340.816496,131.668511 C340.983705,131.149371 341.323347,130.694045 341.831939,130.380146 L383.094107,103.928144 C383.59399,103.614245 384.180961,103.550431 384.783609,103.738425 C385.379289,103.910897 385.894848,104.300683 386.260616,104.883638 C392.193033,113.824577 396.85571,123.434706 401.391239,133.129347 C401.70998,133.743347 401.70998,134.402189 401.488777,134.998942 C401.265833,135.595694 400.88613,136.05102 400.314835,136.271784 L392.889735,139.334883 C392.318439,139.557372 391.747144,139.522878 391.2072,139.257271 C390.684673,138.988215 390.256202,138.550136 389.954878,137.984429 L386.640319,131.132124 C383.806484,125.354318 377.351542,123.013875 372.028739,125.982115 L365.815901,129.376361 C360.78223,132.234219 358.441312,138.486322 360.773521,143.325881 C362.630231,147.0323 364.509585,151.585556 365.770615,155.514464 C366.516086,157.541008 368.888356,157.68416 371.11606,156.911486 C373.352473,156.140537 374.568218,154.603813 373.782686,152.465163 C372.432826,148.31894 370.473353,143.575965 368.522587,139.678102 C368.268291,139.179659 368.263066,138.610502 368.459884,138.077564 C368.649735,137.525654 369.029438,137.087575 369.569382,136.821969 L375.94072,133.7261 C376.478923,133.460493 377.057185,133.460493 377.612805,133.648487 C378.175392,133.850279 378.628248,134.24524 378.89822,134.779903 L382.069955,141.328657 C384.330752,146.906396 390.446053,149.955698 396.125915,148.039536 L403.692097,145.347251 C409.291838,143.417291 411.956723,136.411486 409.277904,129.785119 C404.564716,119.698967 399.680836,109.678354 393.523733,100.345904 C389.907851,94.1886604 382.355603,92.5208579 377.572744,95.9771931 L337.637794,124.335009 C332.804425,127.867232 331.431923,133.557077 333.685753,137.67053" id="Fill-19"></path>
                </g>
                <text id="中秋" font-family="NotoSansCJKsc-Medium, Noto Sans CJK SC" font-size="100" font-weight="400" fill="#E6713B">
                    <tspan x="151" y="227">中秋</tspan>
                </text>
                <text id="快乐" font-family="NotoSansCJKsc-Medium, Noto Sans CJK SC" font-size="100" font-weight="400" fill="#E6713B">
                    <tspan x="151" y="343">快乐</tspan>
                </text>
            </g>
        </g>
    </g>
</svg>