<?xml version="1.0" encoding="UTF-8"?>
<svg width="116px" height="34px" viewBox="0 0 116 34" version="1.1" xmlns="http://www.w3.org/2000/svg" xmlns:xlink="http://www.w3.org/1999/xlink">
    <!-- Generator: Sketch 51.2 (57519) - http://www.bohemiancoding.com/sketch -->
    <title>line</title>
    <desc>Created with Sketch.</desc>
    <defs>
        <polygon id="path-1" points="0.0006 0.335062395 115.074 0.335062395 115.074 33.4160528 0.0006 33.4160528"></polygon>
    </defs>
    <g id="Page-1" stroke="none" stroke-width="1" fill="none" fill-rule="evenodd">
        <g id="切图" transform="translate(-872.000000, -444.000000)">
            <g id="line" transform="translate(872.000000, 444.000000)">
                <g id="Group-217">
                    <mask id="mask-2" fill="white">
                        <use xlink:href="#path-1"></use>
                    </mask>
                    <g id="Clip-216"></g>
                    <path d="M57.2336,17.2626 C58.6556,16.7616 60.4706,16.0276 61.9166,15.6536 C62.1716,15.3756 62.6246,15.2346 63.0676,15.0576 L63.1896,15.2866 L63.5456,15.0956 C63.7226,15.1236 63.2676,15.2286 63.5686,15.2396 L63.6676,15.0446 C63.7226,15.1226 64.6606,14.8116 64.0756,15.1776 L65.5516,14.7386 C65.8806,14.6486 65.6826,14.4776 66.0616,14.4296 C66.1566,14.4796 65.9466,14.5176 66.0026,14.5966 C67.1386,14.4546 67.1146,13.7486 68.1586,13.5586 L68.0826,13.6166 C68.2346,13.4986 68.5656,13.4126 68.5596,13.3766 C68.3566,13.1676 68.4166,13.5626 68.0656,13.5086 C68.0316,13.2916 68.4176,13.2826 68.3506,13.1306 C68.6106,13.1386 68.7146,12.9796 68.9196,12.9086 C69.3096,12.9376 69.7896,12.6986 70.1026,12.7846 C70.2556,12.6696 70.3896,12.4096 70.7586,12.2946 C71.0726,12.3816 70.7416,12.4686 71.1216,12.4256 L71.1446,12.2876 C71.4466,12.2206 71.4106,12.2686 71.4166,12.3276 C71.7356,12.2416 71.6316,12.0866 72.0526,12.0496 L71.8646,12.2316 C72.1466,12.1006 72.2726,12.0866 72.6856,11.9796 C72.6966,12.0506 72.5306,12.0936 72.4046,12.1086 C72.6786,12.2236 72.7636,11.9206 72.8896,11.9066 C72.8396,11.8636 72.5486,11.9206 72.6536,11.7616 C72.8636,11.7256 73.0406,11.4736 73.2266,11.5746 L73.0386,11.7546 C73.4356,11.5386 73.2216,11.5376 73.7226,11.4456 C73.6996,11.4616 73.7206,11.4886 73.7166,11.5166 C73.9816,11.2736 74.4246,11.2976 74.8836,11.1786 L74.8066,11.2356 C74.9786,11.1416 75.0486,11.0046 75.1506,10.9846 C74.8716,10.9896 74.9316,10.9336 74.8756,10.8246 C75.2756,10.9246 75.3346,10.4426 75.9296,10.3996 C75.9406,10.4706 75.8296,10.5936 75.6536,10.5646 C75.5196,10.8246 75.5456,11.0046 75.2306,11.1996 C75.4296,11.0906 75.6716,10.9906 75.6436,11.0916 L75.6566,10.8816 C75.7836,10.8396 75.8886,10.8226 75.9856,10.7946 C76.0066,10.6586 75.6696,10.6716 75.9456,10.5066 C76.2646,10.3486 76.1796,10.6516 76.2086,10.5496 C76.6506,10.3416 76.3416,10.2896 76.8056,10.2256 C76.7656,10.2536 76.6886,10.3116 76.6446,10.3046 C76.9866,10.2896 77.4206,10.0446 77.5796,10.2476 C77.5466,10.3126 77.5566,10.3846 77.4296,10.3996 L77.4246,10.3636 C77.1216,10.6306 77.7066,10.2336 77.6546,10.4716 C77.5946,10.3546 78.0526,10.2556 78.2626,10.2246 L78.1586,10.1006 C78.7166,9.4946 78.2006,10.3896 78.8536,10.1516 C79.2516,9.9406 78.6816,10.1566 78.9156,9.9866 C79.2096,9.9316 79.3506,10.0276 79.7536,9.8516 C79.8856,9.8746 80.1446,9.8846 80.2096,10.0366 C80.4456,9.9036 81.0026,9.8956 81.1046,9.7016 C80.6326,9.6896 80.7156,9.9866 80.1506,9.9206 L80.2506,9.7286 C80.6056,9.6396 81.0356,9.4386 81.2946,9.4266 C81.2366,9.4096 81.2046,9.3766 81.2256,9.3356 C81.7126,9.1396 81.8146,8.9466 82.3166,8.8586 C82.4206,8.9816 82.1276,9.0356 81.9216,9.1056 C82.2676,9.1316 82.2546,9.0236 82.7556,8.9356 C82.8156,9.0516 82.4236,9.0186 82.4006,9.1546 L82.9316,8.9666 C82.9316,8.9746 82.9356,8.9826 82.9386,8.9916 C82.9616,8.7646 83.3566,8.8966 83.6706,8.7436 C84.4566,8.5306 84.5006,8.2206 84.8906,7.9356 C85.0226,7.9596 85.0716,8.0026 85.0366,8.0686 C84.8186,8.0296 84.8726,8.0916 84.8196,8.1636 C85.0786,8.0706 85.4546,8.2066 85.3286,8.3306 C85.7336,8.1566 85.1476,8.2636 85.3876,8.1286 L85.9676,7.9846 C85.8716,7.8976 85.6616,7.9306 85.9386,7.7676 C86.1826,7.6696 86.3096,7.6576 86.6396,7.5746 C86.6066,7.6386 86.7876,7.7056 86.5386,7.7676 C86.7086,7.7636 86.9576,7.6996 87.0256,7.5716 C86.6396,7.5746 87.5916,7.3186 87.2796,7.2286 L87.6666,7.2296 C87.5836,7.2486 87.5926,7.3216 87.4656,7.3316 C87.6106,7.4656 87.7486,7.2096 87.8716,7.1616 C88.0056,7.1596 88.3396,7.0876 88.3836,7.1436 C88.4866,7.0696 88.7746,7.0326 88.8486,7.0996 C89.0096,7.0246 88.8356,6.9916 88.8706,6.9266 L89.4516,6.7906 C89.5056,6.8716 89.6196,7.1056 89.5416,7.1606 C89.7376,7.0226 89.5496,6.8796 89.8816,6.8016 C89.7376,7.0226 90.3536,6.8216 90.1326,7.0976 C90.3546,7.1746 90.8926,7.0306 91.1776,6.9076 C91.3266,6.7236 90.8366,6.9126 90.8186,6.7686 C91.6396,6.5016 91.5906,6.1026 92.2206,6.0106 L92.0516,6.0126 C92.4136,5.8346 92.3756,5.8636 92.5676,5.6876 C92.5056,5.8876 93.1226,6.0406 93.7406,5.8406 C93.7706,5.7406 93.3456,5.7656 93.4136,5.6016 L93.8236,5.4666 C93.8576,5.4736 93.8186,5.5136 93.7706,5.5496 C94.1296,5.3916 94.5246,5.5956 94.5806,5.3646 L95.0256,5.5206 L94.8466,5.4496 C94.8776,5.3506 95.2906,5.2156 95.3686,5.1596 C95.7716,4.9526 95.9466,4.9876 96.2096,5.0376 C96.1166,4.9856 95.8886,4.8696 96.2186,4.7556 C96.2876,5.0386 96.9516,4.6766 96.9786,4.8256 C97.1146,4.7896 97.3796,4.8196 97.3656,4.6986 L97.3866,4.8796 C97.3566,4.6266 97.8576,4.5186 98.2276,4.3816 C98.2236,4.7366 98.6396,4.2556 98.8836,4.5176 C98.8996,4.2746 99.5386,4.2646 99.5586,4.0566 C99.8496,3.9746 99.8716,4.1926 99.9636,4.2456 L100.0806,4.1286 C100.2546,4.1996 100.8086,4.0816 101.1536,4.0756 L101.4106,3.8026 L101.5456,3.8666 C101.5816,3.8036 101.8276,3.7126 101.6526,3.6766 L101.8196,3.6486 C101.7806,3.4266 102.0366,3.5326 102.3446,3.3596 C102.4286,3.3756 102.4216,3.4336 102.3566,3.4796 C102.5216,3.4426 102.4786,3.5716 102.5866,3.6216 C102.4556,3.5946 103.0846,3.0876 102.6176,3.0966 C102.5646,3.0146 102.8086,2.8866 102.9796,2.8876 L103.1256,3.0596 L103.2696,2.8056 C103.5166,2.7156 103.6546,2.8156 103.8646,2.7876 C103.6586,2.8506 103.4876,3.2786 104.0286,3.1426 C103.7506,3.2376 103.6356,3.3796 103.4986,3.4566 C103.6126,3.4376 103.6716,3.4426 103.5176,3.5686 C103.9266,3.4056 103.6306,3.4136 104.0436,3.2876 C104.0616,3.4686 104.1926,3.4966 104.5726,3.4686 L104.2676,3.4066 C104.2756,3.3816 104.2916,3.3616 104.3086,3.3456 C104.2016,3.3516 104.1656,3.3316 104.1276,3.2696 C104.2106,3.2506 104.5616,2.9346 104.6566,3.0246 C104.1706,2.8516 105.3416,2.6336 105.0346,2.5336 C105.0706,2.4716 105.3606,2.3906 105.4116,2.4706 C105.0916,2.6886 105.7216,2.6076 105.6936,2.7436 C105.8126,2.6616 105.3876,2.6806 105.5486,2.5716 C105.7546,2.5086 105.9326,2.5796 106.0626,2.6076 L105.9826,2.6616 L106.3246,2.6636 C106.3566,2.5636 105.9766,2.5866 106.2636,2.4726 C106.3506,2.4916 106.6386,2.3816 106.6456,2.4526 C106.5316,2.6056 106.6716,2.7426 106.4246,2.8286 C106.6326,2.7706 107.2986,2.6026 106.9906,2.4966 L107.2436,2.4486 C107.0686,2.4086 106.5946,2.3716 107.0946,2.2366 L107.0986,2.2736 L107.4196,2.0626 L107.5926,2.1196 C107.5786,2.0756 107.6246,2.0236 107.7546,1.9976 C107.8016,2.0426 107.9286,2.0366 107.9346,2.1106 C108.3106,2.0186 108.2596,1.9356 108.2976,1.8726 C108.5056,1.8146 108.5936,1.8336 108.5186,1.9586 C108.8126,1.9196 109.3126,1.7856 109.5316,1.8356 C109.9006,1.6706 109.4426,1.8166 109.6426,1.6466 C110.0466,1.8816 110.9476,1.4856 111.5716,1.3076 C111.3406,1.0756 111.7376,1.2396 111.7996,0.9676 C111.6816,1.0826 112.4446,1.0446 111.9086,1.2416 L112.2396,1.1406 C112.5026,1.2376 111.7056,1.3736 112.0976,1.5006 C112.4736,1.4086 112.6586,1.0586 113.1256,1.0606 C113.0166,1.2836 113.4546,0.9216 113.3876,1.1566 C113.3106,1.2456 113.1816,1.2516 113.0596,1.2946 L113.1456,1.3146 C113.9856,1.1886 113.3376,1.0366 113.7446,0.8106 C114.2446,0.6746 114.1736,0.8726 114.2216,0.9566 C114.3086,0.9766 114.5566,0.8916 114.6786,0.8126 C114.3956,0.9966 114.0846,0.8176 114.2006,0.6656 C114.4686,0.8346 114.9546,0.5186 115.0746,0.4026 C114.3046,0.3306 114.5716,0.5006 113.8406,0.4026 C113.7626,0.4916 113.8196,0.6846 113.3956,0.6936 C113.6306,0.5396 113.3556,0.5876 113.2766,0.5726 C113.3786,0.6676 113.0046,0.6806 112.8896,0.7546 C112.7566,0.6886 113.0786,0.4416 112.6566,0.4866 L112.6346,0.7686 C112.4646,0.7636 112.6626,0.5596 112.3326,0.6986 C112.4876,0.5196 112.2306,0.4956 112.6866,0.3516 C112.0836,0.2476 111.8606,0.6606 111.4506,0.8516 C111.4906,0.8256 111.4886,0.7886 111.5276,0.7616 C111.4506,0.8516 111.2826,0.8836 111.1586,0.9276 C110.8606,0.9296 111.3576,0.7586 111.2676,0.7016 L110.8076,0.8106 C110.7966,0.8036 110.7936,0.7996 110.7926,0.7936 C110.6786,0.8566 110.5686,0.9066 110.5116,0.8496 C110.6296,0.7346 110.6656,0.6346 110.7426,0.5456 L110.2976,0.8356 C110.3326,0.7376 109.8656,0.7736 110.1966,0.6336 L109.4876,0.8276 L109.3866,0.6626 C109.2216,0.7326 109.2246,0.7686 109.4356,0.7446 C109.1806,0.7586 108.4186,1.2956 108.4686,0.9166 C107.9386,1.1866 107.7216,1.1726 107.0616,1.4116 C107.5476,1.1326 106.4126,1.3356 106.9516,1.1386 C106.6076,1.1316 106.5846,1.3396 106.3356,1.4246 C106.0776,1.4026 106.1436,1.2036 106.3886,1.0816 L106.1016,1.2306 L106.0996,1.1946 L105.8576,1.3536 C105.5556,1.3256 105.7576,1.1906 105.4626,1.2356 L105.4366,1.4086 L105.2186,1.3636 C105.3096,1.4176 105.1456,1.4906 104.9386,1.5536 L104.9346,1.5176 L104.6866,1.6086 C104.9176,1.4516 104.4466,1.6306 104.5366,1.4906 C104.3156,1.5346 104.3116,1.5386 103.9236,1.6616 L104.0186,1.7526 C103.5276,1.9706 103.9606,1.5986 103.5416,1.6906 L103.5966,1.8076 C102.9486,1.7436 102.6086,2.1696 102.1336,2.1436 C102.3806,2.0536 102.2826,1.9256 102.2866,1.9616 C101.9156,2.0986 101.2856,2.2156 100.9266,2.4606 C100.7406,2.3166 100.6926,2.2716 100.2666,2.2886 C99.9746,2.3706 99.9356,2.3986 99.8646,2.5256 C99.5626,2.5246 99.0516,2.7566 99.0046,2.6306 C98.9646,2.7496 98.7436,2.6716 98.6076,2.7976 L98.5616,2.7516 L98.6166,2.8696 C98.0416,2.7156 97.7996,3.2316 97.2286,3.1156 L97.3086,3.0606 L97.1056,3.1606 C97.0576,3.1156 97.1366,3.0616 97.1296,2.9886 L96.1266,3.2136 L96.3446,3.2546 C96.1386,3.3226 96.0276,3.4786 95.7696,3.4646 C96.1216,3.1766 95.4366,3.5426 95.3366,3.4176 L95.5386,3.3136 C95.2496,3.4006 95.2496,3.4006 95.3036,3.5186 C94.9366,3.6596 94.9856,3.3506 94.6706,3.5746 L94.9206,3.5156 C95.0106,3.5686 94.8586,3.7156 94.6916,3.7546 C94.6466,3.7456 94.5156,3.7216 94.6386,3.6736 C94.3526,3.7976 93.8886,3.8506 93.7696,3.9336 C93.5986,3.9376 93.6296,3.8356 93.7086,3.7816 C93.0986,4.0546 93.4146,3.8316 92.8026,4.1046 L92.7956,4.0326 L92.5976,4.1726 L92.2466,4.1056 L92.3816,4.1666 C92.1756,4.2336 92.0576,4.3176 91.8026,4.3396 L91.8756,4.2116 C91.2986,4.4216 91.1456,4.2146 90.6226,4.5056 C90.5796,4.4966 90.6586,4.4416 90.6986,4.4126 C90.2196,4.7106 90.2566,4.3306 89.7846,4.6646 C89.8076,4.6216 89.7396,4.5936 89.7526,4.5586 L89.5316,4.6876 L89.5126,4.5426 L89.3726,4.7996 L89.1876,4.6936 L89.1126,4.7846 C88.7876,4.5826 88.4806,4.8776 88.0796,4.7676 L88.1856,4.9286 C87.4016,5.5166 86.1226,5.2516 85.1116,5.7136 L85.0926,5.5696 L84.7006,5.8536 C84.4366,5.8076 84.8086,5.6956 84.7156,5.6436 C84.2696,5.8486 84.5776,5.9036 84.0456,6.0916 C83.7426,6.0746 84.1146,5.9626 84.2316,5.8766 C83.7416,6.0846 83.0106,6.3676 82.6296,6.3896 C82.6266,6.4096 82.6106,6.4406 82.6316,6.4446 C82.3086,6.5996 81.8446,6.6586 81.4726,6.7706 C81.4646,6.7036 81.5546,6.6686 81.6436,6.6296 C81.5066,6.6586 81.3116,6.6646 81.2136,6.7616 L81.3226,6.6026 C81.0286,6.6576 80.5056,6.9186 80.4026,6.7946 C80.4526,6.8386 80.4656,6.9476 80.2166,7.0086 C80.0206,6.8336 79.5666,7.2836 79.1366,7.2786 C79.1706,7.2146 79.4596,7.1236 79.3766,7.1436 C79.1616,7.1426 79.0096,7.2906 78.8526,7.4056 L78.8826,7.3046 L77.9886,7.6776 C77.7916,7.5026 77.1226,7.9496 77.1416,7.7766 C76.8096,7.8636 77.4456,7.7916 77.0356,7.9346 C76.8986,7.8776 76.6706,8.0866 76.6486,7.9426 L76.6886,7.9136 L76.3996,8.0076 L76.5456,7.8196 C76.3016,7.9206 76.1566,8.1096 76.1726,8.2176 C75.9146,8.2096 75.5936,8.3686 75.4506,8.2766 L75.5296,8.2176 C74.8766,8.4636 74.3166,8.1596 73.8566,8.5426 C73.8116,8.5346 73.8066,8.4996 73.8886,8.4776 L73.4736,8.5866 L73.5436,8.4556 L72.9056,8.8106 L72.8936,8.7386 C72.4346,8.8396 71.7396,9.0776 71.1656,9.2666 L71.2426,9.2076 C70.6396,9.4966 70.6116,9.3176 70.1706,9.5276 C70.1816,9.5036 70.1946,9.4916 70.2116,9.4836 L69.7946,9.6066 L69.8676,9.5126 C69.6016,9.7496 68.9276,9.5716 69.1546,9.6426 C68.9996,9.7586 68.7216,9.9246 68.6946,10.0256 C68.2426,10.1626 68.5566,9.9676 68.2586,9.9906 C67.9276,10.0766 67.9046,10.2136 67.4406,10.2796 L67.4296,10.2066 C67.2246,10.2806 67.1106,10.3686 66.8236,10.4646 L66.9006,10.4066 C66.4706,10.6926 66.2516,10.3776 65.9696,10.7906 C65.7546,10.7936 65.3916,10.9496 65.3686,10.8046 C64.8066,11.0706 64.3616,11.2476 63.7946,11.4776 C63.6326,11.2786 63.6726,11.5306 63.2806,11.5046 L63.3426,11.6186 C62.5216,11.8816 61.4836,11.8626 60.5876,12.1826 L60.5246,12.0686 L60.3826,12.2566 C59.3846,12.4926 58.0996,12.8186 57.3206,13.0576 C57.0846,13.2006 56.7406,13.4656 56.3216,13.5456 L56.3596,13.5166 C55.6736,13.8036 54.9436,14.0836 54.1516,14.2506 C54.1836,14.1846 54.0956,14.1716 54.1716,14.1126 C54.0306,14.3036 53.7226,14.2586 53.5556,14.3056 L53.7776,14.3376 C53.5936,14.5206 53.2456,14.5056 53.1066,14.4506 L52.7996,14.6886 C52.7736,14.6826 52.7326,14.6746 52.7216,14.6576 L52.6796,14.7406 L52.4466,14.6356 C52.3716,14.6956 51.9246,14.8766 51.8296,15.0746 C51.7796,15.0316 51.4436,15.0886 51.6846,14.9836 L50.4046,15.3246 L50.6196,15.3206 C50.6816,15.4346 50.3256,15.6286 50.1116,15.6326 C50.3386,15.4556 50.0796,15.4536 49.9416,15.3986 C49.7896,15.5166 50.1246,15.4596 50.0536,15.5546 C49.8626,15.7016 49.4186,15.8846 49.2876,15.8656 L49.4006,15.7766 C49.1216,15.9116 48.9206,15.7416 48.6336,15.8406 C48.4046,16.0196 48.1856,15.9906 48.3036,16.1826 C47.9426,16.3426 48.1156,16.0856 47.9876,16.1036 C47.8426,16.2586 47.2986,16.3606 47.1986,16.2756 C47.0886,16.6466 46.1546,16.4836 46.1586,16.7646 L45.8056,16.7156 C45.8176,16.7876 45.8046,16.9616 45.5646,17.0696 C45.3056,17.0686 45.3246,16.9306 45.2306,16.8826 L45.1526,17.1886 C43.7126,17.3406 41.9826,18.0866 40.4266,18.3286 C39.7806,18.5896 38.9856,18.9786 38.2026,19.1916 L38.2776,19.1306 L37.4886,19.3086 L38.0836,19.2456 C37.9246,19.3296 37.8106,19.4206 37.6466,19.4696 C36.7706,19.6346 35.6056,19.8666 34.6096,20.3306 C34.0336,20.8426 34.0796,20.2146 33.5056,20.6366 C33.5516,20.5916 33.5586,20.5426 33.5986,20.4976 C32.9376,20.8196 32.5786,20.9916 31.9406,21.3876 C31.9256,21.0706 31.4916,21.5386 31.5046,21.3666 L31.4846,21.5026 C31.3076,21.4816 30.9366,21.5746 30.9616,21.4726 L30.7036,21.7206 L30.6376,21.6086 C30.2296,21.7316 29.3926,22.1166 29.0996,21.9416 C28.1566,22.4536 26.5556,22.9196 25.2816,23.2856 C25.1376,23.4436 24.7726,23.5726 24.4896,23.6766 L24.1346,23.6336 C23.8576,23.7736 23.6076,24.0586 23.3056,24.0566 C23.3016,24.0396 23.3086,24.0236 23.3256,24.0086 C23.0396,24.1376 22.7316,24.1556 22.4996,24.3806 C22.1716,24.4826 21.8316,24.5106 21.8856,24.3436 C21.9336,24.5936 21.1866,24.5386 21.1866,24.5386 C21.1866,24.5386 16.9676,25.7786 12.3066,27.3876 C7.6446,28.9926 2.5416,30.9676 0.7476,32.3336 C0.6526,32.4986 0.3026,32.7086 0.4966,32.7976 C0.2216,32.9456 0.0136,32.7836 0.0006,32.9216 C0.4226,32.8606 -0.0134,33.2696 0.4236,33.2796 L0.1866,33.3956 C0.1666,33.4966 0.4896,33.1816 0.4836,33.3546 L0.4746,33.1106 C0.6876,33.0726 0.8136,33.0786 0.9106,33.1286 C1.0686,32.9766 1.0846,32.6356 1.5806,32.6076 L1.4606,32.6646 C1.8246,32.5276 1.7346,32.7276 1.8246,32.7366 L1.7426,32.7636 L2.0906,32.7656 C1.8306,32.7736 1.5066,33.0886 1.7056,33.0036 C2.1636,32.9116 1.5726,32.9906 1.8906,32.8486 C2.0906,32.7656 2.0746,32.9036 2.0896,32.9746 L2.4526,32.8376 C2.4756,32.9446 2.2086,32.9166 2.3936,32.9706 L2.8156,32.7006 C2.9926,32.9286 3.2736,32.3996 3.5696,32.5706 C3.2586,32.7466 3.6296,32.6476 3.6066,32.7486 L4.4136,32.4516 C4.5026,32.4606 4.2276,32.6066 4.3456,32.5496 C4.5236,32.5686 4.5756,32.3996 4.6586,32.3726 C4.7536,32.4186 5.2626,32.1586 5.3006,32.3386 C5.8916,32.2616 5.4566,32.0396 6.0046,31.9586 C6.1076,32.0396 5.6046,32.1256 5.8706,32.1546 L6.3886,31.9306 C6.3586,31.9976 6.3436,32.1356 6.1366,32.1826 C7.6236,31.8176 8.5916,32.1056 9.8586,31.5106 C10.0876,31.5716 9.7546,31.6396 9.6506,31.7676 C10.5466,31.2746 11.0856,31.5786 11.8916,31.2846 L11.8716,31.1766 C13.1126,31.1096 14.4116,30.4566 15.7376,30.1556 L15.5596,30.1346 C15.7026,29.9766 15.9836,29.8686 16.1776,29.7516 C16.2276,29.7926 16.1006,30.0226 16.4576,29.8546 C16.3686,29.8436 16.1986,29.8586 16.2276,29.7926 C17.4176,29.6826 19.7196,28.8386 21.5746,28.3646 C23.9946,27.4616 26.7196,26.7856 29.1076,25.9346 C28.7436,26.0636 28.8166,25.7576 29.1126,25.7256 C30.0096,25.9076 30.4006,25.2216 31.2706,25.2616 C32.6276,24.6586 34.0046,24.6326 35.2056,23.8796 L35.2696,23.9926 C35.4826,23.9866 35.5076,23.8846 35.7096,23.8056 L35.7146,23.8416 C36.2146,23.7316 36.7606,23.4186 37.0576,23.3876 L37.0316,23.2436 C37.3156,23.1396 37.2146,23.3026 37.4846,23.1286 L37.4986,23.1996 L37.7996,22.9586 C37.8446,23.2106 38.6186,22.7166 38.8836,22.7506 C39.2426,22.5876 39.9166,22.2556 40.4966,22.1226 C40.6406,22.2106 41.3346,21.9916 41.7956,21.9136 C42.6476,21.6116 43.8666,21.1836 44.9766,20.8816 L44.9076,20.7316 L45.1906,20.6306 C45.1976,20.6656 45.2416,20.6716 45.2036,20.7016 C45.4806,20.8106 45.8466,20.4396 46.1116,20.4776 C45.9216,20.3806 45.9046,20.5186 45.7396,20.5656 C45.4816,20.5656 45.6586,20.3436 46.0006,20.3216 L46.0046,20.3576 L46.1946,20.2066 C46.2566,20.3216 46.4716,20.3166 46.5356,20.4296 C47.4686,20.1036 48.0446,19.6916 49.0356,19.4426 C48.9766,19.6106 49.7226,19.1876 49.6016,19.4856 C50.1586,19.2146 49.4456,19.3236 49.6606,19.0736 C49.8256,19.0276 49.9766,18.9086 50.0336,18.9876 C49.9736,19.0686 50.2116,19.0906 50.0846,19.1536 L50.4696,19.0146 C50.5126,19.0216 50.4376,19.0806 50.3986,19.1106 C51.1526,18.7286 51.8596,18.8306 52.5306,18.4736 C52.5576,18.3706 52.2396,18.5356 52.2646,18.4346 C52.9306,18.0396 52.9476,18.3936 53.5816,18.0646 L53.4786,18.2246 C53.6706,18.0766 53.7336,17.9466 54.1186,17.9316 C54.2236,18.0536 53.8506,18.1396 53.6996,18.2566 C53.9456,18.1876 54.5536,17.9606 54.3266,17.8926 C54.6056,17.7566 54.7506,17.8486 54.9206,17.8376 C54.9146,17.8016 54.6176,17.8286 54.7696,17.7116 C55.1926,17.6676 55.8076,17.4756 56.2986,17.3376 C56.3046,17.3726 56.3546,17.4146 56.3176,17.4456 C56.6546,17.1436 56.7086,17.4666 57.2336,17.2626" id="Fill-215" fill="#DD6343" mask="url(#mask-2)"></path>
                </g>
            </g>
        </g>
    </g>
</svg>