<?xml version="1.0" encoding="UTF-8"?>
<svg width="40px" height="70px" viewBox="0 0 40 70" version="1.1" xmlns="http://www.w3.org/2000/svg" xmlns:xlink="http://www.w3.org/1999/xlink">
    <!-- Generator: Sketch 51.2 (57519) - http://www.bohemiancoding.com/sketch -->
    <title>number_4</title>
    <desc>Created with Sketch.</desc>
    <defs>
        <polygon id="path-1" points="0 0.4417 36.4399 0.4417 36.4399 31.821701 0 31.821701"></polygon>
    </defs>
    <g id="Page-1" stroke="none" stroke-width="1" fill="none" fill-rule="evenodd">
        <g id="切图" transform="translate(-872.000000, -310.000000)">
            <g id="4" transform="translate(872.000000, 310.000000)">
                <path d="M28.4125,26.1342 C28.4115,26.1092 28.4075,26.0782 28.3975,26.0362 C28.3985,26.0772 28.4035,26.1092 28.4125,26.1342" id="Fill-1" fill="#DD6343"></path>
                <path d="M23.3246,26.8627 L23.3696,26.8017 C23.3336,26.8187 23.3246,26.8397 23.3246,26.8627" id="Fill-3" fill="#DD6343"></path>
                <path d="M31.4335,25.5892 L31.4335,25.6132 C31.4795,25.6052 31.5425,25.5932 31.6455,25.5732 L31.4335,25.5892 Z" id="Fill-5" fill="#DD6343"></path>
                <path d="M12.6532,29.0277 L12.7182,29.0067 C12.6882,29.0137 12.6662,29.0087 12.6532,29.0277" id="Fill-7" fill="#DD6343"></path>
                <path d="M18.9896,27.7972 C18.9806,27.8422 18.9516,27.8652 18.9236,27.8862 C18.9656,27.8822 18.9956,27.8652 18.9896,27.7972" id="Fill-9" fill="#DD6343"></path>
                <path d="M33.5692,27.2045 L33.4462,27.0895 C33.4642,27.1475 33.5112,27.2025 33.5692,27.2045" id="Fill-11" fill="#DD6343"></path>
                <path d="M36.4086,25.8334 C36.4036,25.8244 36.3986,25.8164 36.3916,25.8044 C36.3906,25.8184 36.3986,25.8264 36.4086,25.8334" id="Fill-13" fill="#DD6343"></path>
                <path d="M35.08,25.6 C35.059,25.619 35.036,25.651 35.013,25.683 C35.048,25.668 35.093,25.657 35.08,25.6" id="Fill-15" fill="#DD6343"></path>
                <path d="M34.9833,25.7279 L35.0133,25.6829 C34.9923,25.6929 34.9753,25.7039 34.9833,25.7279" id="Fill-17" fill="#DD6343"></path>
                <path d="M17.453,5.0521 C17.459,4.9501 17.35,4.8651 17.261,4.7771 L17.453,5.0521 Z" id="Fill-19" fill="#DD6343"></path>
                <path d="M6.6498,30.1146 L6.7108,30.0816 C6.6868,30.0936 6.6688,30.1036 6.6498,30.1146" id="Fill-21" fill="#DD6343"></path>
                <path d="M16.2103,4.931 L16.2393,4.865 C16.2163,4.889 16.2093,4.91 16.2103,4.931" id="Fill-23" fill="#DD6343"></path>
                <path d="M32.0844,28.0033 C32.0354,28.1603 31.8134,28.0483 31.8514,28.1793 C31.9364,28.1333 32.0954,28.1983 32.0844,28.0033" id="Fill-25" fill="#DD6343"></path>
                <path d="M1.1898,29.5863 L1.1998,29.4813 C1.1898,29.5303 1.1878,29.5633 1.1898,29.5863" id="Fill-27" fill="#DD6343"></path>
                <path d="M16.2103,4.931 L16.1763,5.007 C16.2033,4.998 16.2243,4.992 16.2473,4.984 C16.2263,4.967 16.2133,4.95 16.2103,4.931" id="Fill-29" fill="#DD6343"></path>
                <path d="M9.891,23.8832 L9.889,23.8852 C9.893,23.8972 9.895,23.9042 9.899,23.9162 L9.891,23.8832 Z" id="Fill-31" fill="#DD6343"></path>
                <path d="M10.371,23.5678 C10.363,23.6068 10.355,23.6448 10.346,23.6868 C10.391,23.6458 10.389,23.6068 10.371,23.5678" id="Fill-33" fill="#DD6343"></path>
                <path d="M17.2606,4.7767 L17.1506,4.6227 C17.1666,4.6777 17.2106,4.7277 17.2606,4.7767" id="Fill-35" fill="#DD6343"></path>
                <path d="M13.4994,18.5482 C13.4924,18.5672 13.4864,18.5862 13.4834,18.6062 C13.4984,18.5862 13.5034,18.5672 13.4994,18.5482" id="Fill-37" fill="#DD6343"></path>
                <path d="M19.4095,27.7679 C19.4255,27.7779 19.4455,27.7799 19.4635,27.7859 C19.4595,27.7519 19.4515,27.7309 19.4095,27.7679" id="Fill-39" fill="#DD6343"></path>
                <polygon id="Fill-41" fill="#DD6343" points="16.4535 32.434 16.4525 32.434 16.4535 32.437"></polygon>
                <path d="M16.6185,32.2084 C16.5445,32.1954 16.4765,32.3184 16.4535,32.4344 C16.5195,32.4154 16.5745,32.3704 16.6185,32.2084" id="Fill-43" fill="#DD6343"></path>
                <path d="M15.9857,32.4867 L16.0147,32.4967 C16.0037,32.4897 15.9947,32.4857 15.9857,32.4867" id="Fill-45" fill="#DD6343"></path>
                <polygon id="Fill-47" fill="#DD6343" points="20.2709 31.6097 20.2669 31.5947 20.2679 31.6087"></polygon>
                <path d="M19.4423,31.8588 C19.4203,31.8368 19.3943,31.8218 19.3683,31.8138 C19.3903,31.8368 19.4153,31.8538 19.4423,31.8588" id="Fill-49" fill="#DD6343"></path>
                <polygon id="Fill-51" fill="#DD6343" points="14.0087 33.433 14.0077 33.427 14.0037 33.43"></polygon>
                <g id="Group-55" transform="translate(1.000000, 4.074100)">
                    <mask id="mask-2" fill="white">
                        <use xlink:href="#path-1"></use>
                    </mask>
                    <g id="Clip-54"></g>
                    <path d="M3.0199,31.5317 C3.7509,31.7837 4.6749,31.8637 5.5779,31.8017 C6.0259,31.7687 6.4839,31.7197 6.8929,31.6527 C7.2149,31.5957 7.4719,31.5527 7.7339,31.5247 C7.8989,31.1987 8.2029,31.1257 8.4899,30.9867 L8.6159,31.3497 C8.6889,31.2907 8.7379,31.2327 8.8009,31.1747 C8.9149,31.2627 8.6589,31.2867 8.8439,31.3857 L8.8639,31.1347 C8.9139,31.2627 9.4209,31.0767 9.1409,31.4387 L9.9499,31.2197 C10.1319,31.1827 9.9749,30.8827 10.1959,30.9207 C10.2649,31.0177 10.1449,31.0137 10.1949,31.1417 C10.8599,31.2567 10.6959,30.2377 11.2919,30.2557 L11.2579,30.3177 C11.3269,30.1927 11.5099,30.1577 11.4979,30.1037 C11.3299,29.7487 11.4519,30.3337 11.2249,30.1587 C11.1579,29.8407 11.3919,29.9317 11.3189,29.6957 C11.4779,29.7737 11.5069,29.5747 11.6159,29.5247 C11.8589,29.6707 12.0989,29.4547 12.3089,29.6627 C12.3769,29.5377 12.4019,29.1997 12.6009,29.1327 C12.8109,29.3387 12.6279,29.3767 12.8499,29.4147 L12.8339,29.2227 C13.0029,29.2077 12.9909,29.2647 13.0079,29.3527 C13.1839,29.3137 13.0869,29.0627 13.3349,29.1217 L13.2599,29.3317 C13.4019,29.2187 13.4759,29.2317 13.7039,29.1867 C13.7269,29.2937 13.6349,29.3107 13.5619,29.2987 C13.7539,29.5357 13.7389,29.1247 13.8119,29.1357 C13.7729,29.0617 13.6079,29.0677 13.6369,28.8677 C13.7569,28.8707 13.8089,28.5557 13.9439,28.7497 L13.8689,28.9587 C14.0639,28.7537 13.9339,28.6967 14.2179,28.6957 C14.2069,28.7137 14.2259,28.7567 14.2299,28.7967 C14.3369,28.5167 14.6129,28.6697 14.8659,28.6197 L14.8319,28.6807 C14.9159,28.5927 14.9279,28.4137 14.9859,28.4127 C14.8159,28.3447 14.8409,28.2817 14.7819,28.1097 C15.0489,28.3597 14.9759,27.6827 15.3289,27.7787 C15.3519,27.8837 15.3119,28.0307 15.1979,27.9427 C15.1749,28.2797 15.2309,28.5457 15.0829,28.7407 C15.1799,28.6377 15.3049,28.5577 15.3109,28.6957 L15.2709,28.3987 C15.3389,28.3717 15.3989,28.3747 15.4519,28.3597 C15.4349,28.1707 15.2309,28.1007 15.3629,27.9377 C15.5219,27.7947 15.5389,28.2057 15.5329,28.0687 C15.7549,27.8857 15.5559,27.7317 15.8239,27.7607 C15.8059,27.7917 15.7719,27.8537 15.7439,27.8327 C15.9489,27.9007 16.1579,27.6647 16.3009,27.9967 C16.2959,28.0817 16.3189,28.1857 16.2449,28.1747 L16.2329,28.1217 C16.1079,28.4247 16.3749,28.0107 16.3979,28.3377 C16.3349,28.1557 16.5919,28.1317 16.7109,28.1357 L16.6199,27.9327 C16.8199,27.2007 16.7109,28.3577 17.0539,28.1777 C17.2469,27.9717 16.9509,28.1417 17.0529,27.9557 C17.2179,27.9497 17.3269,28.1227 17.5309,27.9687 C17.6169,28.0357 17.7759,28.1137 17.8509,28.3477 C17.9639,28.2147 18.2999,28.3407 18.3169,28.0877 C18.0269,27.9527 18.1469,28.3997 17.7879,28.1667 L17.8039,27.9147 C17.9989,27.8757 18.2139,27.6917 18.3689,27.7397 C18.3299,27.7017 18.3019,27.6457 18.3059,27.5917 C18.5559,27.4297 18.5729,27.1777 18.8569,27.1767 C18.9489,27.3787 18.7839,27.3847 18.6749,27.4327 C18.8919,27.5557 18.8579,27.3977 19.1429,27.3947 C19.2059,27.5757 18.9599,27.4317 18.9779,27.6217 L19.2569,27.4827 L19.2669,27.5207 C19.2269,27.1997 19.4989,27.4867 19.6539,27.3457 C20.0819,27.2327 20.0349,26.7997 20.2049,26.4877 C20.2909,26.5537 20.3309,26.6287 20.3249,26.7137 C20.1829,26.6037 20.2309,26.7067 20.2159,26.7977 C20.3519,26.7267 20.6129,27.0157 20.5659,27.1627 C20.7709,27.0107 20.4399,27.0217 20.5539,26.8867 L20.8729,26.8227 C20.7929,26.6747 20.6729,26.6707 20.8029,26.5057 C20.9279,26.4247 21.0019,26.4377 21.1839,26.4007 C21.1789,26.4847 21.3059,26.6257 21.1679,26.6517 C21.2709,26.6877 21.4079,26.6597 21.4179,26.4917 C21.1839,26.4007 21.7029,26.2687 21.4899,26.0617 L21.7249,26.1537 C21.6789,26.1627 21.7029,26.2687 21.6289,26.2557 C21.7489,26.4807 21.7699,26.1437 21.8319,26.1027 C21.9139,26.1307 22.0979,26.1037 22.1379,26.1927 C22.1819,26.1087 22.3479,26.1207 22.4089,26.2357 C22.4879,26.1637 22.3739,26.0767 22.3789,25.9927 L22.6979,25.9277 C22.7509,26.0567 22.8769,26.4187 22.8439,26.4807 C22.9289,26.3257 22.7789,26.0777 22.9609,26.0417 C22.9289,26.3257 23.2519,26.1767 23.1869,26.5227 C23.3409,26.6837 23.6309,26.5977 23.7729,26.4857 C23.8179,26.2557 23.5679,26.4177 23.5209,26.2057 C23.9529,26.0087 23.8229,25.4237 24.1819,25.4347 L24.0799,25.3987 C24.2549,25.2247 24.2379,25.2577 24.3109,25.0487 C24.3239,25.3227 24.7369,25.6817 25.0619,25.5347 C25.0549,25.3957 24.8039,25.3377 24.8019,25.1167 L25.0179,25.0167 C25.0399,25.0327 25.0269,25.0827 25.0069,25.1247 C25.1839,24.9767 25.4769,25.3597 25.4509,25.0407 L25.7609,25.3647 L25.6349,25.2237 C25.6279,25.0887 25.8449,24.9887 25.8779,24.9257 C26.0699,24.7197 26.1849,24.8087 26.3569,24.9397 C26.2879,24.8437 26.1199,24.6277 26.2909,24.5387 C26.4049,24.9597 26.7169,24.5917 26.7709,24.8097 C26.8439,24.7847 27.0109,24.8807 26.9709,24.7037 L27.0309,24.9697 C26.9469,24.5987 27.2199,24.5437 27.4079,24.4237 C27.4989,24.9307 27.6229,24.3237 27.8389,24.7507 C27.7849,24.4027 28.1669,24.5187 28.1239,24.2217 C28.2779,24.1637 28.3499,24.4807 28.4189,24.5777 L28.4579,24.4317 C28.5819,24.5677 28.8859,24.5117 29.0929,24.5727 L29.1749,24.2307 L29.2729,24.3497 C29.2779,24.2667 29.4029,24.1857 29.2869,24.0977 L29.3809,24.0927 C29.2969,23.7647 29.4799,23.9697 29.6199,23.7827 C29.6759,23.8237 29.6869,23.9037 29.6599,23.9577 C29.7499,23.9367 29.7579,24.1137 29.8369,24.2097 C29.7509,24.1427 29.9939,23.5407 29.7129,23.4597 C29.6599,23.3317 29.7719,23.1967 29.8759,23.2317 L30.0109,23.5087 L30.0289,23.1737 C30.1539,23.0937 30.2639,23.2637 30.3839,23.2677 C30.2759,23.3157 30.2899,23.8957 30.5799,23.8097 C30.4369,23.8887 30.4069,24.0717 30.3449,24.1547 C30.4079,24.1497 30.4459,24.1697 30.3869,24.3187 C30.5899,24.1667 30.4129,24.1197 30.6289,24.0207 C30.6889,24.2857 30.7759,24.3517 30.9989,24.3877 L30.7969,24.2367 C30.7949,24.2027 30.7989,24.1777 30.8059,24.1587 C30.7419,24.1447 30.7139,24.1087 30.6739,24.0117 C30.7199,24.0027 30.8459,23.6177 30.9279,23.7657 C30.5859,23.4217 31.2359,23.3437 31.0219,23.1377 C31.0259,23.0547 31.1799,22.9977 31.2329,23.1237 C31.0999,23.3727 31.4589,23.3827 31.4789,23.5727 C31.5289,23.4787 31.2759,23.4197 31.3439,23.2957 C31.4509,23.2467 31.5799,23.3857 31.6659,23.4507 L31.6319,23.5117 L31.8389,23.5827 C31.8309,23.4447 31.6079,23.4067 31.7489,23.2967 C31.8069,23.3397 31.9489,23.2277 31.9729,23.3337 C31.9469,23.5337 32.0699,23.7567 31.9459,23.8377 C32.0539,23.7887 32.4059,23.6607 32.1909,23.4567 L32.3289,23.4277 C32.2129,23.3417 31.9189,23.2077 32.1809,23.0977 L32.1929,23.1507 L32.3259,22.9027 L32.4459,23.0147 C32.4249,22.9497 32.4369,22.8817 32.5089,22.8667 C32.5489,22.9397 32.6239,22.9537 32.6479,23.0587 C32.8469,22.9917 32.7929,22.8637 32.7979,22.7797 C32.9059,22.7307 32.9639,22.7737 32.9549,22.9417 C33.1199,22.9347 33.3819,22.8277 33.5269,22.9367 C33.7019,22.7627 33.4689,22.8937 33.5399,22.6837 C33.8489,23.0927 34.2769,22.6747 34.5999,22.5257 C34.3939,22.1527 34.6789,22.4557 34.6379,22.0767 C34.6009,22.2207 35.0479,22.2977 34.7829,22.4897 L34.9519,22.3987 C35.1389,22.5847 34.6999,22.6437 34.9719,22.8927 C35.1719,22.8257 35.1809,22.3537 35.4609,22.4357 C35.4619,22.7387 35.6189,22.2927 35.6479,22.6187 C35.6269,22.7337 35.5519,22.7197 35.4909,22.7607 L35.5489,22.8047 C36.0169,22.7657 35.5819,22.4377 35.7599,22.1807 C36.0209,22.0717 36.0379,22.3447 36.0919,22.4737 C36.1489,22.5167 36.2729,22.4357 36.3239,22.3437 C36.2079,22.5597 35.9669,22.2497 35.9919,22.0517 C36.2039,22.3407 36.4019,21.9687 36.4399,21.8217 C35.9549,21.5877 36.1659,21.8787 35.6979,21.6117 C35.6769,21.7267 35.7689,22.0127 35.5159,21.9537 C35.6119,21.7737 35.4609,21.7957 35.4089,21.7597 C35.4979,21.9137 35.2769,21.8687 35.2299,21.9557 C35.1309,21.8377 35.2509,21.5377 35.0109,21.5307 L35.0809,21.9317 C34.9779,21.8957 35.0359,21.6357 34.8779,21.7787 C34.9199,21.5487 34.7579,21.4707 34.9899,21.3417 C34.5979,21.0887 34.5849,21.6437 34.3939,21.8477 C34.4109,21.8177 34.3979,21.7647 34.4149,21.7327 C34.3939,21.8477 34.3029,21.8667 34.2409,21.9087 C34.0629,21.8607 34.3119,21.6997 34.2409,21.6027 L33.9969,21.6797 C33.9889,21.6687 33.9849,21.6617 33.9829,21.6537 C33.9339,21.7237 33.8809,21.7767 33.8319,21.6857 C33.8689,21.5407 33.8609,21.4027 33.8809,21.2877 L33.6989,21.6297 C33.6909,21.4927 33.4219,21.4647 33.5799,21.3207 L33.2119,21.4787 L33.1039,21.2237 C33.0259,21.2967 33.0379,21.3477 33.1569,21.3507 C33.0089,21.3257 32.7059,21.9687 32.6279,21.4307 C32.3879,21.7287 32.2549,21.6727 31.9279,21.9037 C32.1399,21.5857 31.5199,21.6817 31.7849,21.4897 C31.5789,21.4227 31.6229,21.7177 31.4989,21.7977 C31.3379,21.7197 31.3229,21.4457 31.4349,21.3117 L31.3049,21.4757 L31.2929,21.4237 L31.1929,21.6097 C31.0039,21.5107 31.0869,21.3547 30.9219,21.3607 L30.9539,21.6017 L30.8109,21.4947 C30.8799,21.5917 30.8009,21.6627 30.6939,21.7117 L30.6819,21.6587 L30.5569,21.7397 C30.6529,21.5617 30.4179,21.7227 30.4329,21.5397 C30.3129,21.5597 30.3109,21.5637 30.1119,21.6627 L30.1929,21.8117 C29.9569,22.0247 30.1159,21.5787 29.8879,21.6257 L29.9539,21.8047 C29.5459,21.5837 29.4569,22.1267 29.1639,21.9927 C29.2879,21.9127 29.1939,21.7097 29.2059,21.7617 C29.0199,21.8847 28.6719,21.9257 28.5219,22.2047 C28.3709,21.9597 28.3309,21.8847 28.0789,21.8237 C27.9259,21.8827 27.9099,21.9147 27.8999,22.0827 C27.7189,22.0197 27.4739,22.2517 27.4129,22.0597 C27.4189,22.2227 27.2659,22.0667 27.2179,22.2187 L27.1779,22.1447 L27.2419,22.3247 C26.8559,21.9877 26.8479,22.6797 26.4739,22.3967 L26.5079,22.3357 L26.4119,22.4377 C26.3719,22.3627 26.4049,22.3007 26.3809,22.1937 L25.8349,22.3047 L25.9789,22.4147 C25.8719,22.4637 25.8449,22.6627 25.6849,22.5847 C25.8229,22.2517 25.5029,22.6217 25.4099,22.4187 L25.5049,22.3157 C25.3529,22.3747 25.3529,22.3747 25.4159,22.5557 C25.2299,22.6757 25.1799,22.2437 25.0459,22.4917 L25.1829,22.4647 C25.2519,22.5607 25.1969,22.7377 25.1059,22.7577 C25.0769,22.7337 24.9909,22.6697 25.0529,22.6287 C24.9119,22.7417 24.6449,22.7127 24.5939,22.8037 C24.4919,22.7707 24.4839,22.6327 24.5179,22.5707 C24.2189,22.8247 24.3529,22.5767 24.0529,22.8307 L24.0299,22.7237 L23.9459,22.8817 L23.7169,22.7057 L23.8139,22.8237 C23.7069,22.8737 23.6559,22.9657 23.5079,22.9407 L23.5189,22.7727 C23.2239,22.9437 23.0799,22.6117 22.8369,22.9107 C22.8089,22.8877 22.8419,22.8267 22.8589,22.7957 C22.6449,23.1147 22.5719,22.5757 22.3709,22.9487 C22.3739,22.8917 22.3259,22.8367 22.3249,22.7887 L22.2239,22.9237 L22.1769,22.7127 L22.1559,23.0487 L22.0189,22.8537 L21.9959,22.9687 C21.7499,22.6037 21.6379,22.9587 21.3689,22.7087 L21.4729,22.9647 C21.1479,23.6387 20.3079,22.9497 19.8059,23.3567 L19.7589,23.1447 L19.5899,23.4557 C19.4189,23.3237 19.6179,23.2557 19.5489,23.1587 C19.3279,23.3427 19.5269,23.4967 19.2499,23.6357 C19.0619,23.5347 19.2609,23.4677 19.3119,23.3737 C19.0639,23.5517 18.6889,23.7757 18.4629,23.7117 C18.4669,23.7407 18.4639,23.7807 18.4779,23.7907 C18.3189,23.9337 18.0519,23.9047 17.8539,23.9717 C17.8329,23.8747 17.8789,23.8457 17.9239,23.8117 C17.8479,23.8197 17.7309,23.7797 17.6949,23.8937 L17.7229,23.6937 C17.5579,23.6987 17.3039,23.9447 17.2119,23.7417 C17.2519,23.8167 17.2869,23.9757 17.1499,24.0027 C16.9909,23.7027 16.8209,24.2357 16.5609,24.1217 C16.5659,24.0387 16.7189,23.9797 16.6739,23.9877 C16.5429,23.9327 16.4869,24.1087 16.4179,24.2337 L16.4129,24.0957 L15.9589,24.4097 C15.7999,24.1097 15.4989,24.5857 15.4719,24.3427 C15.2899,24.3797 15.6589,24.4427 15.4429,24.5417 C15.3469,24.4237 15.2559,24.6617 15.2099,24.4497 L15.2279,24.4197 L15.0739,24.4777 L15.1189,24.2467 C14.9949,24.3277 14.9489,24.5587 14.9839,24.7177 C14.8249,24.6377 14.6659,24.7817 14.5579,24.6107 L14.5929,24.5477 C14.2519,24.7267 13.8439,24.1437 13.6519,24.5717 C13.6229,24.5487 13.6119,24.4957 13.6569,24.4867 L13.4299,24.5337 L13.4419,24.3647 L13.1349,24.7027 L13.1119,24.5967 C12.8569,24.6207 12.4889,24.7787 12.1829,24.8947 L12.2169,24.8327 C11.9159,25.0877 11.8589,24.8217 11.6389,25.0057 C11.6399,24.9747 11.6459,24.9627 11.6529,24.9537 L11.4289,25.0187 L11.4519,24.9037 C11.3439,25.1757 10.8969,24.7387 11.0499,24.9017 C10.9809,25.0267 10.8499,25.1917 10.8549,25.3287 C10.6119,25.4067 10.7599,25.2107 10.5839,25.1627 C10.4039,25.1997 10.4189,25.3887 10.1529,25.3607 L10.1309,25.2547 C10.0229,25.3027 9.9719,25.3967 9.8189,25.4557 L9.8529,25.3927 C9.6529,25.6827 9.4529,25.1707 9.3699,25.6837 C9.2409,25.6287 9.0529,25.7497 9.0089,25.5357 C8.7249,25.7597 8.4919,25.8887 8.1969,26.0597 C8.0569,25.7277 8.1339,26.0997 7.8909,25.9557 L7.9529,26.1357 C7.7419,26.2047 7.4379,26.1767 7.2139,26.1217 C6.9929,26.0677 6.7779,26.0137 6.6009,26.0817 L6.5579,25.8937 L6.5189,26.1147 C6.4319,26.1057 6.2719,26.1027 6.2419,26.0897 L6.1879,26.0407 C6.1569,26.0107 6.1359,25.9907 6.1169,25.9877 C6.0799,26.0887 5.9469,26.3117 5.9349,26.2347 L5.9519,26.2097 C5.8379,26.3067 5.6709,26.3367 5.6969,26.1887 C5.7679,26.1237 5.8069,26.0877 5.8599,26.0387 C5.6699,26.1987 5.8209,26.0207 5.8229,26.0107 L5.7039,26.1317 C5.5229,26.2517 5.6589,26.0877 5.7919,25.9907 C5.7209,26.0297 5.6479,26.0647 5.5739,26.0957 C5.5929,26.0817 5.6219,26.0607 5.6499,26.0407 L5.5449,26.0957 L5.7929,25.9317 C5.7379,25.9567 5.6589,25.9607 5.3979,26.0487 C5.4849,26.0047 5.5489,25.9427 5.6029,25.9487 C5.6209,25.8957 5.6469,25.8477 5.6759,25.8057 L5.5779,25.8447 C5.3699,25.9007 5.2409,25.8657 5.3399,25.8207 C5.5019,25.8317 5.6339,25.7767 5.7859,25.7547 C5.6769,25.7527 5.6019,25.7897 5.4899,25.7977 C5.3529,25.7917 5.2989,25.7197 5.3929,25.7047 L5.4709,25.7197 C5.4049,25.6797 5.7559,25.6767 5.7449,25.6587 C5.5949,25.6197 5.7449,25.6187 5.4129,25.5707 C5.3639,25.5077 5.6419,25.5947 5.6779,25.5897 C5.5289,25.5377 5.6509,25.5007 5.8089,25.5577 C5.5769,25.4867 5.6569,25.4097 5.7579,25.3057 C5.8529,25.2167 5.9539,25.1387 5.7749,25.0417 L6.0449,24.9887 C5.9479,24.9407 5.7359,24.8147 5.7509,24.6787 C5.9089,24.6177 6.0689,24.7207 6.1859,24.7347 L5.8529,24.4937 C6.5259,24.0447 6.6959,23.0947 7.3969,22.5877 C7.4889,22.2447 7.5609,21.7677 7.8209,21.4427 L7.8409,21.5087 L8.1519,21.2157 L7.8359,21.3737 C7.8439,21.2717 7.8149,21.1717 7.8659,21.0997 C8.2479,20.8007 8.7449,20.3997 8.8889,19.8107 C8.7059,19.2467 9.3639,19.8337 9.2809,19.3507 C9.2999,19.3997 9.3479,19.4457 9.3709,19.4937 C9.4569,19.0897 9.5039,18.8727 9.4989,18.3977 C9.8539,18.6917 9.6319,18.1817 9.8129,18.3467 L9.6759,18.2157 C9.8189,18.2077 9.9669,18.0617 10.0619,18.1617 L9.9659,17.8867 L10.1329,17.9827 C10.2749,17.8017 10.4219,17.3057 10.8119,17.4237 C10.8969,16.7867 11.4809,16.0857 11.9519,15.5097 C11.8789,15.3377 11.9869,15.1517 12.0659,15.0007 L12.3559,14.9737 C12.3919,14.7907 12.2499,14.4827 12.4599,14.4267 C12.4819,14.4417 12.4949,14.4577 12.4989,14.4737 C12.5549,14.2997 12.7479,14.2207 12.6589,13.9697 C12.7719,13.8107 12.9769,13.7167 13.1249,13.8787 C12.8129,13.6627 13.3889,13.5517 13.3889,13.5517 C13.3889,13.5517 13.7719,13.0487 14.3119,12.2007 C14.8509,11.3557 15.5419,10.1497 16.1049,8.7517 C16.6699,7.3587 17.0959,5.7657 17.1649,4.3227 C17.2439,2.8807 16.9729,1.6307 16.4529,0.9777 C16.2669,0.8877 16.1449,0.6507 15.9219,0.7447 C15.8519,0.5657 16.1829,0.4727 15.9949,0.4417 C15.8709,0.6907 15.5109,0.3827 15.2779,0.6227 L15.2319,0.4747 C15.0989,0.4487 15.3839,0.6737 15.1419,0.6417 L15.4919,0.6777 C15.4389,0.8017 15.3659,0.8677 15.2469,0.9097 C15.3829,1.0207 15.8589,1.1027 15.6489,1.3767 L15.6289,1.2997 C15.6359,1.5247 15.3979,1.4287 15.3389,1.4727 L15.3449,1.4247 L15.1579,1.6017 C15.2849,1.4667 15.0109,1.2277 15.0269,1.3487 C14.9139,1.6027 15.1159,1.2857 15.1469,1.4797 C15.1579,1.6017 14.9729,1.5587 14.8649,1.5497 L14.8659,1.7617 C14.7039,1.7457 14.8829,1.6227 14.7099,1.6987 L14.8659,1.9767 C14.4549,1.9937 15.0449,2.2867 14.6409,2.3717 C14.5659,2.1727 14.5009,2.3747 14.3719,2.3307 L14.3419,2.7897 C14.2799,2.8257 14.2299,2.6537 14.2429,2.7257 C14.1209,2.7967 14.3259,2.8797 14.3169,2.9257 C14.2039,2.9497 14.2649,3.2647 13.9989,3.2087 C13.7679,3.4787 14.3179,3.3947 14.1169,3.6527 C13.9469,3.6597 14.1159,3.4207 13.9259,3.5147 C13.9289,3.6157 13.9369,3.7187 13.9319,3.8187 C13.8579,3.7757 13.6849,3.7107 13.7359,3.6087 C13.3589,4.3547 12.4159,4.5197 12.4259,5.2407 C12.2079,5.2747 12.3219,5.1337 12.2189,5.0297 C12.3149,5.5877 11.5979,5.5617 11.4729,5.9567 L11.6229,6.0197 C10.9539,6.3897 10.9539,7.1487 10.4779,7.6717 L10.6159,7.6477 C10.7169,7.7987 10.6659,7.9407 10.6829,8.0737 C10.6019,8.0527 10.4049,7.8497 10.3799,8.0547 C10.4499,8.0447 10.5409,7.9967 10.6019,8.0527 C9.9759,8.3907 9.4929,9.5197 8.8119,10.2507 C8.2449,11.4407 7.1669,12.4847 6.4839,13.6647 C6.5899,13.4857 6.8729,13.7837 6.7079,13.8617 C5.9029,13.8337 6.3829,14.5397 5.7489,14.6447 C5.4779,15.4297 4.5779,15.7067 4.5879,16.6357 L4.4189,16.5417 C4.2829,16.5897 4.3769,16.6887 4.3269,16.8007 L4.2829,16.7677 C4.0649,16.9667 4.0399,17.3647 3.8739,17.4557 L4.0499,17.5807 C3.9729,17.7347 3.8609,17.5647 3.8709,17.7797 L3.7819,17.7177 L3.8449,17.9987 C3.5339,17.7777 3.5619,18.3957 3.3439,18.4227 C3.2819,18.6457 3.2049,19.0977 2.9649,19.3527 C2.7629,19.3057 2.5539,19.6757 2.3349,19.8637 C2.1149,20.3457 1.8139,21.0477 1.4499,21.6337 L1.6769,21.7307 L1.6119,21.8967 C1.5639,21.8717 1.5279,21.8807 1.5169,21.8437 C1.2029,21.8477 1.4189,22.2577 1.2009,22.3137 C1.4409,22.3247 1.2849,22.2147 1.3339,22.1237 C1.5009,22.0397 1.6569,22.2677 1.4639,22.3957 L1.4169,22.3697 L1.4779,22.5467 C1.2969,22.4797 1.1639,22.5547 0.9839,22.4917 C0.8769,22.7697 0.8719,23.0457 0.8429,23.3057 C0.8329,23.5207 0.6839,24.0357 0.5009,24.4767 C0.3129,24.3337 0.3549,25.1857 0.0409,24.9397 C0.0459,25.5607 0.3619,24.8757 0.5669,25.1737 C0.5249,25.3307 0.5959,25.4977 0.4539,25.5207 C0.3759,25.4417 0.2019,25.6467 0.1899,25.5117 C0.1769,25.6447 0.1669,25.7757 0.1639,25.9067 C0.1309,25.9457 0.0869,25.8597 0.0679,25.8157 C0.1889,26.5917 -0.2191,27.3057 0.1789,27.9467 C0.3189,27.9507 0.1439,27.6627 0.2869,27.6687 C0.7219,28.2297 0.2149,28.3687 0.6849,28.8737 C0.5989,28.8707 0.5339,28.8537 0.4559,28.8437 C0.6749,28.9737 0.8539,28.9627 0.9049,29.3457 C0.7549,29.5247 0.6039,29.1847 0.4289,29.0847 C0.5339,29.3187 0.9329,29.8077 0.9899,29.5277 C1.2259,29.7107 1.1339,29.9187 1.2079,30.0697 C1.2489,30.0377 1.1289,29.7777 1.3239,29.8367 C1.4969,30.2017 1.9599,30.6197 2.3749,30.8747 C2.3389,30.9167 2.3189,31.0027 2.2669,30.9997 C2.7789,30.9607 2.4589,31.3517 3.0199,31.5317" id="Fill-53" fill="#DD6343" mask="url(#mask-2)"></path>
                </g>
                <path d="M20.3876,31.6127 L20.2706,31.6097 C20.2836,31.6567 20.2926,31.7117 20.2566,31.7767 L20.3876,31.6127 Z" id="Fill-56" fill="#DD6343"></path>
                <path d="M15.2303,32.8705 C15.2213,32.8915 15.2113,32.9105 15.2063,32.9375 C15.2303,32.9225 15.2323,32.8955 15.2303,32.8705" id="Fill-58" fill="#DD6343"></path>
                <path d="M14.0829,33.5804 C14.1599,33.5104 14.0659,33.4764 14.0089,33.4334 C14.0179,33.4764 14.0329,33.5264 14.0829,33.5804" id="Fill-60" fill="#DD6343"></path>
                <path d="M23.1381,30.267 C23.1251,30.291 23.1211,30.323 23.1361,30.366 C23.1511,30.321 23.1491,30.291 23.1381,30.267" id="Fill-62" fill="#DD6343"></path>
                <path d="M31.1962,28.2406 C31.1832,28.2336 31.1742,28.2276 31.1552,28.2176 C31.1662,28.2316 31.1802,28.2386 31.1962,28.2406" id="Fill-64" fill="#DD6343"></path>
                <path d="M30.66,28.0316 C30.638,28.0366 30.612,28.0516 30.578,28.0866 C30.62,28.0876 30.644,28.0626 30.66,28.0316" id="Fill-66" fill="#DD6343"></path>
                <path d="M21.2157,30.8715 C21.1877,30.8865 21.1627,30.9105 21.1497,30.9615 C21.1947,30.9435 21.2097,30.9075 21.2157,30.8715" id="Fill-68" fill="#DD6343"></path>
                <path d="M30.4989,28.1586 L30.3809,28.1666 C30.3839,28.1796 30.3859,28.1906 30.3899,28.2076 L30.4989,28.1586 Z" id="Fill-70" fill="#DD6343"></path>
                <path d="M31.3446,28.2289 C31.2986,28.2339 31.2396,28.2499 31.1966,28.2409 C31.2676,28.2829 31.3126,28.2719 31.3446,28.2289" id="Fill-72" fill="#DD6343"></path>
                <path d="M26.0067,29.1986 C26.0067,29.1986 25.9997,29.2026 25.9957,29.2066 C25.9337,29.3206 25.9777,29.2666 26.0067,29.1986" id="Fill-74" fill="#DD6343"></path>
                <polygon id="Fill-76" fill="#DD6343" points="30.1102 28.6508 30.0922 28.6468 30.0762 28.7128"></polygon>
                <path d="M31.851,28.1791 C31.831,28.1901 31.814,28.2031 31.806,28.2331 C31.826,28.2351 31.848,28.2371 31.876,28.2401 C31.862,28.2131 31.855,28.1961 31.851,28.1791" id="Fill-78" fill="#DD6343"></path>
                <path d="M27.7743,29.0678 C27.7843,28.9808 27.7813,28.9238 27.7713,28.8838 C27.7353,28.8968 27.7213,28.9388 27.7743,29.0678" id="Fill-80" fill="#DD6343"></path>
                <path d="M16.6298,59.3012 C16.6528,59.3112 16.6828,59.3202 16.7238,59.3292 C16.6868,59.3122 16.6558,59.3032 16.6298,59.3012" id="Fill-82" fill="#DD6343"></path>
                <path d="M18.1864,54.2142 L18.2224,54.2822 C18.2224,54.2422 18.2074,54.2242 18.1864,54.2142" id="Fill-84" fill="#DD6343"></path>
                <path d="M15.806,62.3685 C15.799,62.3625 15.793,62.3615 15.785,62.3565 C15.772,62.4045 15.755,62.4695 15.728,62.5725 L15.806,62.3685 Z" id="Fill-86" fill="#DD6343"></path>
                <path d="M20.8788,43.2611 L20.8698,43.3311 C20.8758,43.3001 20.8898,43.2821 20.8788,43.2611" id="Fill-88" fill="#DD6343"></path>
                <path d="M19.2303,49.7426 C19.1933,49.7156 19.1853,49.6786 19.1783,49.6416 C19.1643,49.6826 19.1663,49.7196 19.2303,49.7426" id="Fill-90" fill="#DD6343"></path>
                <path d="M13.4213,63.6586 L13.5783,63.5946 C13.5173,63.5856 13.4483,63.6056 13.4213,63.6586" id="Fill-92" fill="#DD6343"></path>
                <path d="M13.4232,66.9144 C13.4332,66.9134 13.4432,66.9124 13.4562,66.9114 C13.4442,66.9044 13.4332,66.9084 13.4232,66.9144" id="Fill-94" fill="#DD6343"></path>
                <path d="M14.2113,65.7758 C14.2033,65.7468 14.1843,65.7128 14.1653,65.6758 C14.1633,65.7148 14.1543,65.7628 14.2113,65.7758" id="Fill-96" fill="#DD6343"></path>
                <path d="M14.1381,65.6283 L14.1651,65.6763 C14.1651,65.6523 14.1631,65.6323 14.1381,65.6283" id="Fill-98" fill="#DD6343"></path>
                <path d="M27.4237,2.9047 C27.4457,2.8147 27.3537,2.7177 27.2797,2.6187 L27.4237,2.9047 Z" id="Fill-100" fill="#DD6343"></path>
                <path d="M22.765,33.2484 L22.819,33.2784 C22.804,33.2574 22.784,33.2504 22.765,33.2484" id="Fill-102" fill="#DD6343"></path>
                <path d="M26.224,2.557 L26.265,2.498 C26.237,2.518 26.226,2.537 26.224,2.557" id="Fill-104" fill="#DD6343"></path>
                <path d="M13.3466,61.9222 C13.2256,61.8072 13.4236,61.6482 13.2896,61.6262 C13.2936,61.7272 13.1656,61.8462 13.3466,61.9222" id="Fill-106" fill="#DD6343"></path>
                <path d="M17.9467,30.1859 L17.9497,30.1239 C17.9437,30.1529 17.9427,30.1709 17.9467,30.1859" id="Fill-108" fill="#DD6343"></path>
                <path d="M26.224,2.557 L26.178,2.625 C26.205,2.622 26.226,2.619 26.25,2.617 C26.233,2.596 26.224,2.576 26.224,2.557" id="Fill-110" fill="#DD6343"></path>
                <path d="M24.7025,22.8187 L24.7015,22.8227 C24.7095,22.8317 24.7145,22.8377 24.7225,22.8477 L24.7025,22.8187 Z" id="Fill-112" fill="#DD6343"></path>
                <path d="M25.0253,22.306 C25.0333,22.348 25.0413,22.388 25.0493,22.433 C25.0743,22.372 25.0573,22.335 25.0253,22.306" id="Fill-114" fill="#DD6343"></path>
                <path d="M27.2802,2.6185 L27.1982,2.4545 C27.2042,2.5095 27.2392,2.5635 27.2802,2.6185" id="Fill-116" fill="#DD6343"></path>
                <path d="M25.8978,16.2992 C25.8988,16.3192 25.8998,16.3382 25.9048,16.3572 C25.9108,16.3332 25.9088,16.3152 25.8978,16.2992" id="Fill-118" fill="#DD6343"></path>
                <path d="M19.0736,50.1488 C19.0576,50.1608 19.0476,50.1778 19.0346,50.1918 C19.0656,50.2038 19.0896,50.2038 19.0736,50.1488" id="Fill-120" fill="#DD6343"></path>
                <polygon id="Fill-122" fill="#DD6343" points="16.1459 45.3773 16.1459 45.3753 16.1439 45.3753"></polygon>
                <path d="M16.2772,45.6273 C16.3202,45.5643 16.2392,45.4473 16.1462,45.3773 C16.1332,45.4463 16.1512,45.5173 16.2772,45.6273" id="Fill-124" fill="#DD6343"></path>
                <path d="M16.3021,44.9164 L16.2801,44.9384 C16.2911,44.9314 16.2991,44.9244 16.3021,44.9164" id="Fill-126" fill="#DD6343"></path>
                <polygon id="Fill-128" fill="#DD6343" points="15.2294 49.307 15.2444 49.309 15.2314 49.304"></polygon>
                <path d="M15.3646,48.4232 C15.3946,48.4122 15.4186,48.3952 15.4376,48.3732 C15.4076,48.3842 15.3806,48.4002 15.3646,48.4232" id="Fill-130" fill="#DD6343"></path>
                <polygon id="Fill-132" fill="#DD6343" points="16.3065 42.6586 16.3125 42.6616 16.3105 42.6556"></polygon>
                <path d="M16.7792,34.1898 C16.7102,35.0378 16.7962,36.1648 16.5672,36.9748 C16.8192,37.2058 16.7812,37.4688 16.7982,37.7428 L16.4152,37.7038 L16.4972,37.9438 C16.3662,38.0128 16.4562,37.7628 16.2852,37.8948 L16.5052,38.0198 C16.3662,38.0128 16.3152,38.5668 16.1102,38.1508 L15.9552,39.0018 C15.9092,39.1888 16.2492,39.1688 16.1192,39.3608 C16.0012,39.3828 16.0562,39.2718 15.9182,39.2648 C15.5262,39.8398 16.5192,40.1178 16.2432,40.6698 L16.2012,40.6118 C16.2842,40.7288 16.2372,40.9148 16.2902,40.9268 C16.6842,40.9188 16.1032,40.7858 16.3602,40.6478 C16.6772,40.7198 16.4922,40.8998 16.7372,40.9318 C16.5972,41.0468 16.7652,41.1598 16.7622,41.2828 C16.5252,41.4498 16.6162,41.7658 16.3372,41.8738 C16.4202,41.9908 16.7152,42.1578 16.6892,42.3738 C16.4112,42.4818 16.4562,42.2948 16.3252,42.4868 L16.5052,42.5528 C16.4462,42.7188 16.3992,42.6828 16.3122,42.6618 C16.2712,42.8418 16.5402,42.8578 16.3792,43.0658 L16.2212,42.9068 C16.2622,43.0878 16.2172,43.1518 16.1592,43.3838 C16.0532,43.3608 16.0772,43.2668 16.1212,43.2038 C15.8222,43.2828 16.2002,43.4438 16.1582,43.5068 C16.2422,43.5028 16.3092,43.3448 16.4772,43.4578 C16.4232,43.5688 16.6842,43.7518 16.4502,43.7958 L16.2942,43.6368 C16.3942,43.9068 16.5032,43.8078 16.3802,44.0758 C16.3682,44.0578 16.3212,44.0568 16.2832,44.0438 C16.4892,44.2628 16.2322,44.4578 16.1672,44.7158 L16.1262,44.6578 C16.1702,44.7738 16.3252,44.8618 16.3022,44.9168 C16.4362,44.7858 16.4832,44.8358 16.6642,44.8538 C16.3212,44.9978 16.9652,45.2178 16.7252,45.5078 C16.6202,45.4848 16.5052,45.3838 16.6332,45.3148 C16.3392,45.1498 16.0742,45.0888 15.9632,44.8668 C16.0132,45.0018 16.0312,45.1528 15.9042,45.0988 L16.1902,45.1888 C16.1842,45.2638 16.1562,45.3198 16.1462,45.3758 C16.3252,45.4398 16.4762,45.2798 16.5662,45.4718 C16.6262,45.6818 16.2482,45.5218 16.3742,45.5758 C16.4432,45.8618 16.6692,45.7418 16.5262,45.9798 C16.5062,45.9508 16.4642,45.8918 16.4962,45.8748 C16.3442,46.0378 16.4672,46.3348 16.1042,46.3268 C16.0302,46.2858 15.9252,46.2618 15.9682,46.1978 L16.0222,46.2098 C15.8022,45.9628 16.0602,46.3898 15.7552,46.2718 C15.9462,46.2908 15.8562,46.5418 15.8002,46.6518 L16.0242,46.6528 C16.5982,47.1528 15.6002,46.5568 15.6142,46.9548 C15.7162,47.2228 15.6912,46.8728 15.8152,47.0478 C15.7482,47.2068 15.5452,47.2338 15.5952,47.4908 C15.4972,47.5428 15.3572,47.6588 15.1132,47.6278 C15.1852,47.7918 14.9252,48.0528 15.1452,48.1768 C15.3932,47.9628 14.9372,47.8838 15.3042,47.6468 L15.5252,47.7698 C15.4762,47.9698 15.5482,48.2498 15.4372,48.3738 C15.4882,48.3538 15.5512,48.3518 15.5982,48.3778 C15.6352,48.6818 15.8562,48.8058 15.7342,49.0738 C15.5112,49.0728 15.5782,48.9148 15.5812,48.7928 C15.3752,48.9428 15.5332,48.9788 15.4122,49.2468 C15.2212,49.2278 15.4582,49.0598 15.2792,48.9958 L15.2822,49.3158 L15.2442,49.3088 C15.5512,49.4098 15.1742,49.5408 15.2332,49.7478 C15.1502,50.1958 15.5612,50.3378 15.7692,50.6308 C15.6722,50.6828 15.5882,50.6888 15.5132,50.6468 C15.6742,50.5608 15.5602,50.5618 15.4852,50.5088 C15.4892,50.6668 15.1142,50.7868 15.0032,50.6798 C15.0502,50.9368 15.1852,50.6228 15.2572,50.7868 L15.1752,51.1128 C15.3452,51.1018 15.4012,50.9918 15.4932,51.1838 C15.5112,51.3358 15.4672,51.3998 15.4222,51.5858 C15.3472,51.5448 15.1662,51.6028 15.2012,51.4628 C15.1242,51.5438 15.0912,51.6848 15.2372,51.7668 C15.4222,51.5858 15.3152,52.1278 15.5942,52.0188 L15.4102,52.1988 C15.4222,52.1528 15.3152,52.1278 15.3592,52.0648 C15.1042,52.0808 15.3982,52.2458 15.4082,52.3218 C15.3482,52.3858 15.2922,52.5708 15.1952,52.5698 C15.2512,52.6468 15.1682,52.7958 15.0382,52.8038 C15.0692,52.9098 15.1962,52.8398 15.2702,52.8818 L15.1902,53.2078 C15.0502,53.2018 14.6692,53.1638 14.6272,53.1048 C14.7302,53.2518 15.0192,53.2188 14.9722,53.4058 C14.7302,53.2518 14.7252,53.6198 14.4412,53.4088 C14.2282,53.4828 14.1792,53.7928 14.2182,53.9728 C14.4072,54.1148 14.3692,53.8108 14.5822,53.8588 C14.5722,54.3478 15.1562,54.4788 14.9892,54.8098 L15.0662,54.7298 C15.1472,54.9688 15.1252,54.9398 15.2822,55.0978 C15.0292,54.9928 14.5252,55.2228 14.5172,55.5898 C14.6452,55.6438 14.8072,55.4338 15.0072,55.5288 L15.0042,55.7738 C14.9792,55.7878 14.9402,55.7528 14.9112,55.7168 C14.9672,55.9458 14.4942,56.0538 14.7942,56.1688 L14.3662,56.3188 L14.5482,56.2618 C14.6742,56.3138 14.6692,56.5598 14.7122,56.6178 C14.8132,56.8868 14.6832,56.9568 14.4902,57.0608 C14.6072,57.0378 14.8752,56.9738 14.8812,57.1728 C14.4512,57.0968 14.6492,57.5478 14.4272,57.5038 C14.4192,57.5838 14.2592,57.6978 14.4362,57.7368 L14.1712,57.6778 C14.5412,57.7598 14.4722,58.0408 14.5002,58.2678 C14.0022,58.1318 14.4962,58.5118 14.0172,58.5298 C14.3542,58.6288 14.0832,58.9368 14.3692,59.0258 C14.3552,59.1948 14.0382,59.1238 13.9202,59.1468 L14.0342,59.2468 C13.8582,59.3028 13.7772,59.6118 13.6322,59.7788 L13.9042,60.0038 L13.7552,60.0438 C13.8272,60.0858 13.8462,60.2368 13.9752,60.1678 L13.9402,60.2578 C14.2712,60.3228 14.0082,60.4048 14.1152,60.6168 C14.0542,60.6508 13.9772,60.6258 13.9402,60.5778 C13.9202,60.6698 13.7572,60.6008 13.6362,60.6328 C13.7332,60.5818 14.1712,61.0718 14.3662,60.8448 C14.5052,60.8508 14.5772,61.0138 14.5012,61.0958 L14.1932,61.1008 L14.4872,61.2648 C14.5052,61.4168 14.3032,61.4448 14.2482,61.5558 C14.2512,61.4338 13.7212,61.1928 13.6732,61.5018 C13.6642,61.3338 13.5122,61.2258 13.4652,61.1308 C13.4422,61.1938 13.4072,61.2198 13.2982,61.0988 C13.3472,61.3558 13.4672,61.2108 13.4622,61.4558 C13.1972,61.3968 13.0992,61.4488 12.9702,61.6408 L13.1942,61.5188 C13.2252,61.5318 13.2472,61.5458 13.2602,61.5608 C13.3002,61.5068 13.3452,61.4978 13.4502,61.5018 C13.4392,61.5488 13.7312,61.8348 13.5622,61.8458 C14.0212,61.6778 13.8082,62.3188 14.0872,62.2088 C14.1592,62.2498 14.1452,62.4188 14.0082,62.4128 C13.8422,62.1788 13.6762,62.5098 13.4962,62.4468 C13.5592,62.5338 13.7222,62.3238 13.8052,62.4408 C13.8022,62.5628 13.6212,62.6218 13.5252,62.6728 L13.4842,62.6158 L13.3312,62.7788 C13.4592,62.8318 13.5902,62.6388 13.6282,62.8198 C13.5642,62.8548 13.6032,63.0358 13.4972,63.0118 C13.3282,62.9008 13.0742,62.9188 13.0542,62.7658 C13.0522,62.8888 13.0132,63.2738 13.2922,63.1628 L13.2572,63.3038 C13.3862,63.2338 13.6342,63.0178 13.6192,63.3098 L13.5662,63.2978 L13.7322,63.5318 L13.5782,63.5938 C13.6472,63.6028 13.7032,63.6448 13.6852,63.7178 C13.6022,63.7228 13.5572,63.7878 13.4512,63.7638 C13.4262,63.9798 13.5652,63.9858 13.6372,64.0268 C13.6352,64.1488 13.5712,64.1838 13.4232,64.1018 C13.3582,64.2588 13.3412,64.5508 13.1792,64.6378 C13.2592,64.8768 13.2432,64.6028 13.4022,64.7608 C12.9002,64.8718 13.0902,65.4548 13.0842,65.8218 C13.5092,65.7938 13.1122,65.9268 13.4722,66.0548 C13.3582,65.9568 13.0942,66.3398 13.0372,66.0078 L13.0452,66.2068 C12.7972,66.2988 12.9342,65.8628 12.5912,66.0078 C12.5652,66.2238 12.9872,66.4398 12.7902,66.6668 C12.5172,66.5338 12.8512,66.8768 12.5452,66.7598 C12.4492,66.6898 12.4942,66.6258 12.4842,66.5498 L12.4202,66.5858 C12.2512,67.0408 12.7362,66.7778 12.8902,67.0568 C12.8752,67.3488 12.6212,67.2448 12.4822,67.2378 C12.4182,67.2728 12.4372,67.4238 12.4992,67.5118 C12.3542,67.3078 12.7382,67.2198 12.9062,67.3318 C12.5542,67.4018 12.8022,67.7508 12.9182,67.8498 C13.3402,67.5008 12.9862,67.5708 13.4302,67.2508 C13.3352,67.1798 13.0382,67.1388 13.2012,66.9298 C13.3212,67.0978 13.3682,66.9478 13.4232,66.9148 C13.2452,66.9298 13.3812,66.7438 13.3232,66.6618 C13.4732,66.6208 13.6912,66.8658 13.8022,66.6438 L13.4102,66.5328 C13.4872,66.4518 13.6962,66.6208 13.6352,66.4108 C13.8252,66.5498 13.9662,66.4338 13.9822,66.7078 C14.3802,66.4518 13.8842,66.1948 13.7832,65.9268 C13.8042,65.9568 13.8572,65.9678 13.8792,65.9968 C13.7832,65.9268 13.8072,65.8338 13.7962,65.7578 C13.9162,65.6128 13.9542,65.9158 14.0712,65.8918 L14.1082,65.6298 C14.1222,65.6268 14.1302,65.6268 14.1382,65.6278 C14.0952,65.5508 14.0712,65.4798 14.1752,65.4718 C14.2892,65.5718 14.4172,65.6248 14.5122,65.6938 L14.2832,65.3738 C14.4102,65.4258 14.5522,65.1868 14.6132,65.3978 L14.6312,64.9838 L14.9072,64.9958 C14.8772,64.8898 14.8242,64.8778 14.7702,64.9888 C14.8572,64.8608 14.4092,64.2958 14.9272,64.4598 C14.7642,64.1038 14.8732,64.0038 14.8062,63.5968 C15.0012,63.9348 15.1832,63.3118 15.2412,63.6448 C15.3922,63.4808 15.1072,63.3928 15.0892,63.2418 C15.2282,63.1258 15.4822,63.2308 15.5542,63.3938 L15.4622,63.2008 L15.5152,63.2128 L15.3902,63.0378 C15.5632,62.9048 15.6672,63.0498 15.7332,62.8928 L15.5012,62.8168 L15.6612,62.7298 C15.5442,62.7518 15.5132,62.6478 15.5162,62.5258 L15.5692,62.5378 L15.5502,62.3848 C15.6692,62.5528 15.6262,62.2618 15.7842,62.3568 C15.8192,62.2358 15.8162,62.2328 15.8132,62.0018 L15.6432,62.0128 C15.5542,61.6988 15.8872,62.0428 15.9442,61.8088 L15.7542,61.7928 C16.1322,61.5068 15.6802,61.1858 15.9282,60.9708 C15.9462,61.1218 16.1712,61.1228 16.1172,61.1108 C16.0892,60.8828 16.2022,60.5398 16.0162,60.2778 C16.3032,60.2428 16.3882,60.2378 16.5522,60.0288 C16.5662,59.8588 16.5452,59.8308 16.3972,59.7488 C16.5322,59.6048 16.4302,59.2748 16.6302,59.3008 C16.4792,59.2368 16.6872,59.1608 16.5712,59.0488 L16.6552,59.0438 L16.4652,59.0258 C16.9372,58.8108 16.3152,58.5018 16.7342,58.2748 L16.7752,58.3338 L16.7242,58.1988 C16.8092,58.1938 16.8512,58.2518 16.9572,58.2758 L17.0942,57.7158 L16.9332,57.8028 C16.9362,57.6808 16.7682,57.5698 16.9082,57.4538 C17.1482,57.7278 16.9532,57.2668 17.1772,57.2678 L17.2292,57.4018 C17.2422,57.2338 17.2422,57.2338 17.0502,57.2138 C17.0242,56.9888 17.4362,57.1288 17.2692,56.8958 L17.2352,57.0358 C17.1182,57.0578 16.9822,56.9298 17.0042,56.8358 C17.0372,56.8188 17.1332,56.7668 17.1432,56.8428 C17.1032,56.6618 17.2452,56.4228 17.1842,56.3358 C17.2592,56.2538 17.3872,56.3068 17.4282,56.3658 C17.3292,55.9748 17.4942,56.2088 17.3962,55.8168 L17.5022,55.8408 L17.3972,55.6948 L17.6552,55.5558 L17.5062,55.5958 C17.5082,55.4738 17.4462,55.3868 17.5342,55.2578 L17.6812,55.3408 C17.6552,54.9908 18.0172,54.9998 17.8532,54.6418 C17.8862,54.6258 17.9272,54.6828 17.9472,54.7128 C17.7532,54.3748 18.2702,54.5388 18.0212,54.1888 C18.0712,54.2158 18.1432,54.1948 18.1862,54.2138 L18.1082,54.0608 L18.3202,54.1088 L18.0252,53.9438 L18.2602,53.8988 L18.1672,53.8288 C18.6032,53.7538 18.3322,53.4968 18.6752,53.3518 L18.3982,53.3388 C17.9302,52.7428 18.9192,52.2518 18.7702,51.6048 L18.9812,51.6528 L18.7752,51.3598 C18.9682,51.2558 18.9432,51.4718 19.0602,51.4498 C18.9912,51.1628 18.7652,51.2838 18.7602,50.9628 C18.9332,50.8308 18.9072,51.0458 18.9702,51.1338 C18.9182,50.8258 18.8782,50.3768 19.0352,50.1918 C19.0072,50.1828 18.9712,50.1638 18.9572,50.1718 C18.8972,49.9608 19.0392,49.7228 19.0642,49.5078 C19.1612,49.5298 19.1682,49.5858 19.1782,49.6418 C19.2052,49.5678 19.2922,49.4748 19.2042,49.3918 L19.3732,49.5038 C19.4402,49.3468 19.3292,49.0028 19.5522,49.0038 C19.4672,49.0088 19.3082,48.9728 19.3432,48.8338 C19.6842,48.8128 19.2762,48.4248 19.4922,48.2288 C19.5652,48.2698 19.5512,48.4388 19.5642,48.3928 C19.6712,48.2938 19.5362,48.1658 19.4532,48.0468 L19.5792,48.1008 L19.4942,47.5408 C19.8342,47.5198 19.5362,47.0338 19.7682,47.1118 C19.8132,46.9248 19.5952,47.2448 19.6012,46.9998 C19.7492,46.9598 19.5732,46.7718 19.7842,46.8198 L19.8052,46.8488 L19.8192,46.6798 L20.0082,46.8218 C19.9882,46.6688 19.7992,46.5278 19.6412,46.4928 C19.7822,46.3778 19.7222,46.1668 19.9242,46.1378 L19.9652,46.1978 C19.9512,45.8008 20.6552,45.6668 20.3532,45.3028 C20.3872,45.2858 20.4392,45.2968 20.4282,45.3438 L20.4852,45.1108 L20.6322,45.1948 L20.4602,44.7608 L20.5662,44.7858 C20.6552,44.5348 20.6732,44.1218 20.7012,43.7838 L20.7422,43.8418 C20.6432,43.4518 20.9082,43.5108 20.8392,43.2248 C20.8652,43.2398 20.8742,43.2508 20.8792,43.2608 L20.9172,43.0218 L21.0112,43.0928 C20.8142,42.8758 21.4022,42.6408 21.1882,42.7148 C21.1052,42.5978 21.0132,42.4038 20.8872,42.3508 C20.9232,42.0888 21.0362,42.3118 21.1562,42.1668 C21.2012,41.9808 21.0232,41.9148 21.1652,41.6768 L21.2712,41.7018 C21.2732,41.5788 21.2102,41.4908 21.2242,41.3228 L21.2662,41.3798 C21.0912,41.0698 21.6422,41.0988 21.2142,40.8028 C21.3212,40.7048 21.2932,40.4768 21.5052,40.5258 C21.4272,40.1638 21.4112,39.8898 21.3852,39.5398 C21.7462,39.5478 21.3762,39.4628 21.6132,39.2958 L21.4232,39.2778 C21.4832,38.7988 22.0462,38.3378 22.0652,37.8018 L22.2562,37.8218 L22.0682,37.6798 C22.2582,37.1328 22.4632,36.4188 22.5462,35.9708 C22.4742,35.8058 22.2882,35.5428 22.3982,35.3218 L22.4202,35.3498 C22.3842,34.9238 22.3832,34.4808 22.5712,34.0568 C22.6452,34.0988 22.7092,34.0648 22.7512,34.1248 C22.5622,33.9808 22.7872,33.8628 22.8102,33.7678 L22.6492,33.8538 C22.4922,33.6958 22.6972,33.5458 22.8462,33.5068 L22.6802,33.2708 C22.7012,33.2608 22.7342,33.2468 22.7652,33.2488 L22.6722,33.1958 L22.9392,33.1338 C22.8972,33.0758 22.8812,32.8008 22.6592,32.6758 C22.7452,32.6708 22.8432,32.4978 22.8622,32.6488 L23.0672,31.9348 L22.9592,32.0318 C22.7682,32.0118 22.6882,31.7718 22.7952,31.6738 C22.9202,31.8498 23.0602,31.7348 23.2092,31.6968 C23.1262,31.5798 23.0282,31.7518 22.9342,31.6818 C22.8302,31.5348 22.8142,31.2598 22.9102,31.2098 L22.9722,31.2968 C22.9332,31.1158 23.2742,31.0968 23.2882,30.9278 C23.1642,30.7508 23.3232,30.6658 22.9952,30.6378 C22.9672,30.4098 23.2292,30.5938 23.2742,30.5308 C23.1372,30.4008 23.2912,30.1168 23.4622,30.1078 C23.0092,29.9038 23.7372,29.5568 23.3472,29.4408 L23.6042,29.3038 C23.4992,29.2788 23.2662,29.2008 23.2482,29.0478 C23.3882,28.9338 23.5682,29.0008 23.6852,28.9788 L23.3052,28.8158 C23.8702,28.1118 23.7732,27.0298 24.2782,26.2388 C24.2632,25.8408 24.1662,25.3268 24.3022,24.8898 L24.3442,24.9498 L24.5322,24.5258 L24.2932,24.8138 C24.2642,24.7098 24.2012,24.6198 24.2242,24.5268 C24.4772,24.0708 24.7952,23.4598 24.7012,22.8228 C24.3152,22.3498 25.1522,22.6388 24.8872,22.2068 C24.9232,22.2458 24.9862,22.2698 25.0252,22.3058 C24.9462,21.8778 24.9062,21.6468 24.7112,21.1958 C25.1542,21.3258 24.7482,20.9328 24.9792,21.0128 L24.8012,20.9458 C24.9292,20.8768 25.0082,20.6748 25.1332,20.7298 L24.9362,20.5098 L25.1272,20.5308 C25.1842,20.2988 25.1202,19.7658 25.5242,19.7138 C25.3452,19.0808 25.5952,18.1798 25.8002,17.4658 C25.6642,17.3348 25.6892,17.1198 25.7032,16.9498 L25.9602,16.8148 C25.9212,16.6328 25.6712,16.4008 25.8432,16.2698 C25.8692,16.2758 25.8872,16.2858 25.8982,16.2988 C25.8832,16.1188 26.0312,15.9778 25.8532,15.7788 C25.8992,15.5918 26.0502,15.4318 26.2492,15.5288 C25.8802,15.4398 26.3742,15.1398 26.3742,15.1398 C26.3742,15.1398 29.0212,5.6508 27.4242,2.9048 C27.2552,2.7908 27.1752,2.5478 26.9422,2.5898 C26.9032,2.4078 27.2412,2.3918 27.0642,2.3238 C26.9002,2.5308 26.6002,2.1608 26.3312,2.3418 L26.3122,2.1888 C26.1872,2.1338 26.4252,2.4148 26.1952,2.3338 L26.5302,2.4398 C26.4582,2.5468 26.3752,2.5968 26.2502,2.6168 C26.3652,2.7528 26.8182,2.9118 26.5672,3.1348 L26.5602,3.0588 C26.5342,3.2758 26.3142,3.1478 26.2502,3.1808 L26.2612,3.1338 L26.0562,3.2818 C26.1962,3.1678 25.9572,2.8878 25.9562,3.0098 C25.8142,3.2478 26.0522,2.9608 26.0592,3.1598 C26.0562,3.2818 25.8782,3.2128 25.7732,3.1878 L25.7472,3.4038 C25.5892,3.3658 25.7812,3.2638 25.6002,3.3188 L25.7212,3.6198 C25.3082,3.5928 25.8632,3.9498 25.4602,3.9998 C25.4002,3.7888 25.3212,3.9908 25.1962,3.9348 L25.1332,4.4138 C25.0702,4.4478 25.0312,4.2648 25.0392,4.3408 C24.9112,4.4088 25.1112,4.5058 25.0992,4.5538 C24.9812,4.5738 25.0402,4.9088 24.7752,4.8438 C24.5382,5.1308 25.0912,5.0438 24.8842,5.3148 C24.7142,5.3238 24.8882,5.0698 24.6962,5.1698 L24.7002,5.4928 C24.6262,5.4498 24.4472,5.3818 24.5032,5.2718 C24.1372,6.0718 23.1992,6.3618 23.2792,7.1708 C23.0662,7.2428 23.1632,7.0688 23.0492,6.9668 C23.2072,7.5728 22.4842,7.6688 22.4222,8.1478 L22.5802,8.1868 C21.9652,8.7528 22.1182,9.6048 21.7772,10.3128 L21.9042,10.2448 C22.0402,10.3768 22.0262,10.5448 22.0762,10.6808 C21.9922,10.6848 21.7512,10.5278 21.7782,10.7568 C21.8422,10.7228 21.9192,10.6428 21.9922,10.6848 C21.4612,11.2478 21.3192,12.6208 20.9282,13.6368 C20.7942,15.0858 20.2032,16.5738 20.0492,17.9928 C20.0742,17.7768 20.4532,17.9408 20.3332,18.0848 C19.5852,18.3998 20.3082,18.8688 19.7702,19.2328 C19.8392,20.0878 19.1272,20.7098 19.5042,21.5628 L19.3122,21.5428 C19.2052,21.6398 19.3312,21.6948 19.3282,21.8178 L19.2762,21.8048 C19.1542,22.0728 19.2842,22.4488 19.1652,22.5928 L19.3762,22.6428 C19.3632,22.8128 19.1962,22.6988 19.2862,22.8928 L19.1802,22.8678 L19.3462,23.1048 C18.9772,23.0168 19.2322,23.5708 19.0392,23.6728 C19.0672,23.9018 19.1542,24.3408 19.0202,24.6558 C18.8172,24.6808 18.7462,25.0838 18.6042,25.3218 C18.5622,25.8298 18.4952,26.5538 18.3132,27.1768 L18.5572,27.2098 L18.5432,27.3778 C18.4912,27.3658 18.4592,27.3828 18.4372,27.3538 C18.1392,27.4318 18.4532,27.7518 18.2582,27.8538 C18.4922,27.8098 18.3142,27.7438 18.3372,27.6508 C18.4762,27.5358 18.6862,27.7088 18.5332,27.8698 L18.4812,27.8558 L18.5862,28.0048 C18.3942,27.9848 18.2862,28.0828 18.0962,28.0628 C18.0422,28.6168 18.3002,29.0468 18.1092,29.5938 C17.9092,29.4988 18.0902,30.0088 17.7442,29.8298 C17.8212,30.1928 18.0502,29.8278 18.2812,30.0288 C18.2582,30.1228 18.3412,30.2398 18.2022,30.2318 C18.1222,30.1708 17.9662,30.2678 17.9462,30.1858 L17.9342,30.4168 C17.9022,30.4328 17.8602,30.3748 17.8402,30.3448 C17.9692,30.8428 17.4542,31.1178 17.5932,31.5698 C17.7192,31.6238 17.6602,31.4128 17.7872,31.4658 C17.9812,31.9298 17.4832,31.7908 17.6032,32.2118 L17.4352,32.0988 C17.5382,32.2478 17.6852,32.3308 17.5012,32.5088 C17.2782,32.5058 17.3572,32.3028 17.2742,32.1848 C17.2392,32.3248 17.2312,32.6928 17.4462,32.6198 C17.4862,32.8008 17.2832,32.8288 17.2082,32.9088 C17.2602,32.9208 17.3802,32.7768 17.4622,32.8938 C17.2992,33.1028 17.2392,33.4598 17.1702,33.7378 C17.1172,33.7258 17.0332,33.7308 17.0112,33.7018 C17.2502,33.9788 16.7752,33.8688 16.7792,34.1898" id="Fill-134" fill="#DD6343"></path>
                <path d="M15.1757,49.4144 L15.2297,49.3074 C15.1817,49.2984 15.1277,49.2834 15.0847,49.2224 L15.1757,49.4144 Z" id="Fill-136" fill="#DD6343"></path>
                <path d="M16.2836,44.0443 C16.2686,44.0263 16.2556,44.0103 16.2326,43.9923 C16.2366,44.0223 16.2596,44.0353 16.2836,44.0443" id="Fill-138" fill="#DD6343"></path>
                <path d="M16.141,42.6664 C16.171,42.7684 16.243,42.6944 16.307,42.6584 C16.264,42.6484 16.211,42.6424 16.141,42.6664" id="Fill-140" fill="#DD6343"></path>
                <path d="M15.1947,52.5697 C15.1777,52.5467 15.1517,52.5287 15.1057,52.5247 C15.1397,52.5577 15.1677,52.5687 15.1947,52.5697" id="Fill-142" fill="#DD6343"></path>
                <path d="M13.5184,60.9877 C13.5304,60.9787 13.5394,60.9717 13.5574,60.9597 C13.5404,60.9637 13.5274,60.9727 13.5184,60.9877" id="Fill-144" fill="#DD6343"></path>
                <path d="M13.9398,60.5775 C13.9448,60.5555 13.9428,60.5235 13.9268,60.4765 C13.9078,60.5165 13.9188,60.5495 13.9398,60.5775" id="Fill-146" fill="#DD6343"></path>
                <path d="M15.4847,50.5092 C15.4837,50.4762 15.4727,50.4432 15.4327,50.4082 C15.4287,50.4572 15.4547,50.4872 15.4847,50.5092" id="Fill-148" fill="#DD6343"></path>
                <path d="M13.8964,60.3715 L13.9404,60.2585 C13.9264,60.2545 13.9164,60.2525 13.8984,60.2485 L13.8964,60.3715 Z" id="Fill-150" fill="#DD6343"></path>
                <path d="M13.4652,61.1312 C13.4802,61.0862 13.4912,61.0242 13.5182,60.9872 C13.4492,61.0362 13.4402,61.0822 13.4652,61.1312" id="Fill-152" fill="#DD6343"></path>
                <path d="M14.9115,55.7172 C14.9115,55.7172 14.9105,55.7082 14.9085,55.7032 C14.8325,55.5952 14.8615,55.6592 14.9115,55.7172" id="Fill-154" fill="#DD6343"></path>
                <polygon id="Fill-156" fill="#DD6343" points="13.621 59.7933 13.632 59.7783 13.579 59.7343"></polygon>
                <path d="M13.2894,61.6263 C13.2884,61.6033 13.2834,61.5813 13.2604,61.5613 C13.2504,61.5783 13.2384,61.5993 13.2244,61.6233 C13.2534,61.6213 13.2724,61.6233 13.2894,61.6263" id="Fill-158" fill="#DD6343"></path>
                <path d="M14.2606,57.4271 C14.3346,57.4751 14.3866,57.4961 14.4276,57.5041 C14.4316,57.4651 14.3996,57.4341 14.2606,57.4271" id="Fill-160" fill="#DD6343"></path>
            </g>
        </g>
    </g>
</svg>