<?xml version="1.0" encoding="UTF-8"?>
<svg width="40px" height="70px" viewBox="0 0 40 70" version="1.1" xmlns="http://www.w3.org/2000/svg" xmlns:xlink="http://www.w3.org/1999/xlink">
    <!-- Generator: Sketch 51.2 (57519) - http://www.bohemiancoding.com/sketch -->
    <title>number_8</title>
    <desc>Created with Sketch.</desc>
    <defs>
        <polygon id="path-1" points="0 0.6301 38.5233435 0.6301 38.5233435 63 0 63"></polygon>
    </defs>
    <g id="Page-1" stroke="none" stroke-width="1" fill="none" fill-rule="evenodd">
        <g id="切图" transform="translate(-750.000000, -426.000000)">
            <g id="8" transform="translate(750.000000, 426.000000)">
                <path d="M14.2957,39.4395 L14.3677,39.3075 C14.3047,39.3765 14.2897,39.4135 14.2957,39.4395" id="Fill-1" fill="#DD6343"></path>
                <path d="M29.3934,27.3399 C29.3914,27.3529 29.3954,27.3579 29.3964,27.3679 C29.4824,27.2979 29.5994,27.2029 29.7894,27.0479 L29.3934,27.3399 Z" id="Fill-3" fill="#DD6343"></path>
                <path d="M6.5623,47.1318 C6.6333,47.0558 6.6793,46.9858 6.6463,46.9208 C6.6463,46.9858 6.6043,47.0608 6.5623,47.1318" id="Fill-5" fill="#DD6343"></path>
                <path d="M33.657,26.3984 L33.408,26.4294 C33.452,26.4724 33.55,26.4724 33.657,26.3984" id="Fill-7" fill="#DD6343"></path>
                <path d="M36.0594,22.6875 C36.1194,22.6225 36.1934,22.5385 36.1564,22.4935 C36.1224,22.5475 36.0934,22.6195 36.0594,22.6875" id="Fill-9" fill="#DD6343"></path>
                <path d="M36.0164,22.7832 L36.0594,22.6872 C36.0244,22.7302 35.9974,22.7662 36.0164,22.7832" id="Fill-11" fill="#DD6343"></path>
                <path d="M29.7488,5.6299 C29.9448,5.6289 30.1078,5.5139 30.2828,5.4179 L29.7488,5.6299 Z" id="Fill-13" fill="#DD6343"></path>
                <path d="M30.9901,29.2647 C30.9221,29.5097 30.4841,29.6697 30.5761,29.7697 C30.7301,29.6057 31.0401,29.4757 30.9901,29.2647" id="Fill-15" fill="#DD6343"></path>
                <path d="M29.7664,4.3525 C29.7824,4.3775 29.8024,4.3985 29.8214,4.4205 C29.8574,4.3985 29.8964,4.3835 29.9374,4.3795 L29.7664,4.3525 Z" id="Fill-17" fill="#DD6343"></path>
                <path d="M21.9324,29.1875 L21.9394,29.1945 C21.9604,29.2035 21.9754,29.2085 21.9974,29.2165 L21.9324,29.1875 Z" id="Fill-19" fill="#DD6343"></path>
                <path d="M20.9168,27.999 C21.0128,28.056 21.1038,28.11 21.2078,28.171 C21.0778,28.049 20.9898,28.01 20.9168,27.999" id="Fill-21" fill="#DD6343"></path>
                <path d="M7.3777,46.1973 C7.4087,46.1813 7.4447,46.1533 7.4787,46.1313 C7.4627,46.0993 7.4397,46.0913 7.3777,46.1973" id="Fill-23" fill="#DD6343"></path>
                <polygon id="Fill-25" fill="#DD6343" points="5.701 56.1045 5.7 56.1075 5.703 56.1085"></polygon>
                <path d="M5.6561,55.627 C5.5751,55.751 5.6311,55.977 5.7011,56.105 C5.7401,55.971 5.7341,55.836 5.6561,55.627" id="Fill-27" fill="#DD6343"></path>
                <polygon id="Fill-29" fill="#DD6343" points="10.0867 49.0772 10.0747 49.0672 10.0807 49.0802"></polygon>
                <polygon id="Fill-31" fill="#DD6343" points="6.1697 60.5244 6.1637 60.5264 6.1687 60.5304"></polygon>
                <g id="Group-35" transform="translate(1.000000, 3.370200)">
                    <mask id="mask-2" fill="white">
                        <use xlink:href="#path-1"></use>
                    </mask>
                    <g id="Clip-34"></g>
                    <path d="M21.4324,40.9111 C21.4924,41.9971 21.7784,42.7771 21.5404,43.9041 C21.3514,43.7591 21.4744,44.7231 21.1394,44.4341 C21.1534,45.1241 21.4554,44.3771 21.6584,44.7291 C21.6164,44.9181 21.6794,45.1391 21.5384,45.1451 C21.4674,45.0391 21.2874,45.2521 21.2844,45.0931 L21.2094,45.5431 C21.1714,45.5781 21.1444,45.4691 21.1314,45.4151 C21.1364,46.3771 20.4784,46.9211 20.3964,47.7521 C20.4994,47.8571 20.5514,47.4621 20.6564,47.5641 C20.6064,48.4431 20.1694,48.1601 20.0294,48.9371 L19.9254,48.7141 C19.9454,48.9931 20.0364,49.1631 19.7154,49.4591 C19.4874,49.4201 19.7154,49.0721 19.7064,48.8531 C19.5774,49.0961 19.3084,49.7421 19.5804,49.6471 C19.4844,49.9761 19.2464,49.9811 19.1094,50.1051 C19.1524,50.1391 19.3904,49.9111 19.3804,50.1311 C19.0554,50.4671 18.6764,51.0531 18.3284,51.4851 C18.2884,51.4491 18.2004,51.4321 18.2064,51.3781 C18.1784,51.9101 17.8064,51.5691 17.4834,52.0751 C16.5384,53.3591 15.0954,54.9891 13.6364,55.7161 C13.4854,56.1501 13.0264,56.4031 12.5854,56.6871 L12.3724,56.3631 L12.0354,56.6501 C11.8314,56.6161 12.3034,56.4501 11.9674,56.4431 L11.9154,56.7281 C11.8284,56.6181 10.8704,57.0371 11.4284,56.5251 C10.9284,56.7241 10.4174,56.8931 9.9014,57.0201 C9.5624,57.0931 9.7634,57.3971 9.3824,57.3791 C9.2874,57.2851 9.4954,57.2761 9.4374,57.1481 C8.8824,57.1211 8.6284,57.3311 8.3514,57.5571 C8.0854,57.7731 7.7824,58.0011 7.3424,57.8741 L7.4214,57.8301 C7.2584,57.9241 6.9924,57.8631 6.9774,57.9191 C7.0304,58.3101 7.1514,57.7451 7.3964,57.9901 C7.3394,58.3171 7.0304,58.1271 7.0144,58.3691 C6.8204,58.2191 6.6614,58.3761 6.4814,58.3401 C6.2494,58.0681 5.8464,58.0221 5.8424,57.7061 C5.7024,57.7281 5.3784,57.9021 5.1704,57.6961 C5.2354,57.3831 5.3774,57.5661 5.2944,57.3161 L5.1184,57.3951 C5.0204,57.1921 5.0824,57.1981 5.1634,57.1561 C5.0614,56.9541 4.8314,57.1111 4.8174,56.7561 C4.8934,56.7941 4.9744,56.8231 5.0544,56.8481 C4.8974,56.6701 4.8884,56.5631 4.8194,56.2161 C4.9264,56.1991 4.9494,56.3381 4.9514,56.4391 C5.1654,56.1951 4.7524,56.1591 4.7604,56.0391 C4.6794,56.0871 4.7064,56.3461 4.4954,56.2641 C4.4854,56.0761 4.1644,55.8851 4.3704,55.7081 C4.4404,55.7751 4.5054,55.8421 4.5774,55.9021 C4.3824,55.5111 4.3064,55.7081 4.3564,55.2021 C4.3704,55.2291 4.4174,55.2151 4.4564,55.2241 C4.2044,54.9091 4.4394,54.4721 4.5284,53.9981 L4.5644,54.0961 C4.5294,53.8941 4.3784,53.7571 4.4174,53.6441 C4.2504,53.9201 4.2214,53.8281 4.0334,53.8271 C4.4204,53.4961 3.7754,53.1411 4.1434,52.5211 C4.2444,52.5621 4.3284,52.7511 4.1694,52.9001 C4.4214,53.1971 4.6924,53.2841 4.7594,53.6871 C4.7344,53.4411 4.7454,53.1521 4.8654,53.2411 L4.5904,53.0991 C4.6224,52.9551 4.6704,52.8461 4.7004,52.7371 C4.5364,52.6241 4.3224,52.9561 4.2954,52.5811 C4.3074,52.1641 4.6434,52.4611 4.5314,52.3621 C4.5904,51.8051 4.3004,52.0461 4.5634,51.5671 C4.5694,51.6281 4.5844,51.7441 4.5434,51.7781 C4.7794,51.4571 4.8354,50.8691 5.2114,50.9101 C5.2624,50.9941 5.3514,51.0451 5.2724,51.1651 L5.2244,51.1391 C5.3084,51.6211 5.2904,50.7921 5.5414,51.0411 C5.3564,50.9911 5.6104,50.5231 5.7534,50.3271 L5.5224,50.2971 C5.3194,49.2751 5.8864,50.5301 6.1824,49.7941 C6.3084,49.2831 6.0324,49.9311 6.0544,49.5861 C6.2644,49.3051 6.4844,49.2931 6.6794,48.8171 C6.8284,48.7441 7.0794,48.5671 7.3004,48.6861 C7.3874,48.3771 7.9174,47.9891 7.8354,47.7081 C7.3504,48.0151 7.7354,48.2801 7.1244,48.6031 L7.0244,48.3281 C7.2714,47.9791 7.5094,47.4611 7.7564,47.2711 C7.6834,47.2921 7.6184,47.2761 7.6004,47.2151 C7.9124,46.6661 7.8374,46.3691 8.2914,45.9371 C8.5124,46.0151 8.2534,46.2691 8.1004,46.4841 C8.4934,46.2901 8.3694,46.1701 8.8284,45.7461 C8.9944,45.8451 8.5464,46.0541 8.6484,46.2301 L9.0454,45.6721 C9.0524,45.6821 9.0644,45.6871 9.0754,45.6971 C8.8954,45.4111 9.4394,45.3201 9.6514,44.9441 C10.3284,44.2051 10.1274,43.8001 10.3324,43.2111 C10.4994,43.1601 10.5914,43.1851 10.6044,43.2871 C10.3284,43.3701 10.4394,43.4161 10.4404,43.5371 C10.6514,43.2641 11.1954,43.2121 11.1504,43.4391 C11.4684,42.9821 10.8904,43.4641 11.0534,43.1541 L11.5964,42.6311 C11.4164,42.5791 11.2044,42.7441 11.3894,42.3771 C11.5884,42.1101 11.7214,42.0171 12.0344,41.7201 C12.0464,41.8201 12.3054,41.7991 12.0704,42.0201 C12.2604,41.9171 12.4984,41.6951 12.4754,41.4931 C12.0344,41.7201 12.9274,40.8491 12.4974,40.9161 L12.9384,40.6891 C12.8594,40.7641 12.9274,40.8491 12.7914,40.9381 C13.0614,41.0211 13.0164,40.6161 13.1184,40.4831 C13.2684,40.3991 13.5964,40.1151 13.6894,40.1601 C13.7484,40.0081 14.0514,39.7941 14.1884,39.8381 C14.3154,39.6481 14.0884,39.7081 14.0794,39.6051 L14.6404,39.0981 C14.7644,39.1701 15.0734,39.4031 15.0274,39.5191 C15.1464,39.2301 14.8194,39.1521 15.1444,38.8671 C15.1454,39.2291 15.7034,38.6271 15.6584,39.1021 C15.9724,39.0771 16.4824,38.5921 16.7174,38.2751 C16.7494,37.9561 16.3284,38.4731 16.1994,38.2981 C16.9424,37.4951 16.5964,37.0151 17.2594,36.5481 L17.0644,36.6431 C17.3534,36.2141 17.3294,36.2721 17.4224,35.9381 C17.4984,36.2301 18.3304,36.0921 18.9084,35.5011 C18.8694,35.3531 18.3914,35.6161 18.3494,35.3681 L18.7324,34.9721 C18.7764,34.9611 18.7604,35.0351 18.7314,35.1071 C19.0344,34.7081 19.6454,34.7591 19.5434,34.4311 L20.1804,34.3941 L19.9204,34.3991 C19.8934,34.2951 20.0844,34.0631 20.2144,33.8981 C20.2384,33.9611 20.2724,34.0211 20.2894,34.0851 C20.1684,34.2681 20.4604,35.0111 20.5264,35.5231 C20.8944,36.4361 21.2814,37.8341 21.3614,39.1131 L21.6024,39.0611 C21.6204,39.1731 21.6464,39.2831 21.6584,39.3951 C21.6044,39.3951 21.5784,39.4431 21.5484,39.3951 C21.2874,39.6801 21.7074,40.1611 21.5364,40.4431 C21.7494,40.2631 21.5674,40.2051 21.5544,40.0151 C21.6424,39.7311 21.9174,39.9771 21.8064,40.3621 L21.7524,40.3571 L21.8914,40.6081 C21.7014,40.6441 21.6204,40.8791 21.4324,40.9111 M38.4274,14.9601 C38.6504,15.5591 38.2034,16.0101 38.0544,15.7301 C38.2334,15.5551 38.2644,15.2061 38.1754,14.8921 C38.1044,14.5771 37.9124,14.3181 37.8324,14.2221 C37.7984,14.8581 37.7714,15.0461 37.7844,15.2451 C37.7644,15.4321 37.7724,15.6431 37.4904,16.1191 C37.5554,16.2691 37.8764,16.3401 37.5504,16.9091 C37.5454,16.4901 37.3834,16.8801 37.3014,16.9601 C37.5104,16.9181 37.2034,17.3781 37.1784,17.5691 C36.9774,17.6421 36.9894,17.0881 36.6514,17.5561 L36.9484,17.8551 C36.7744,18.0211 36.7464,17.6211 36.5694,18.0801 C36.5254,17.7461 36.2664,17.9681 36.5244,17.3961 C35.8674,17.8481 36.0654,18.4421 35.7914,19.0021 C35.8114,18.9401 35.7744,18.9001 35.7914,18.8381 C35.7914,19.0011 35.6404,19.1741 35.5394,19.3131 C35.2114,19.5331 35.6104,18.9681 35.4564,18.9671 C35.3224,19.1191 35.1894,19.2751 35.0474,19.4221 C35.0304,19.4221 35.0224,19.4191 35.0164,19.4131 C34.9454,19.5661 34.8634,19.7031 34.7504,19.6691 C34.7884,19.4511 34.7394,19.3031 34.7474,19.1441 L34.4984,19.7901 C34.4574,19.6491 33.9614,19.9791 34.2204,19.6031 L33.5734,20.2771 L33.3294,20.1281 C33.1974,20.3151 33.2284,20.3591 33.4494,20.2031 C33.1704,20.3721 32.7214,21.5141 32.4844,21.0011 C32.0894,21.6601 31.8294,21.7681 31.2584,22.4661 C31.6014,21.8221 30.4604,22.7501 30.9234,22.1801 C30.5284,22.3741 30.6584,22.6521 30.4374,22.9081 C30.1234,23.0281 30.0514,22.7341 30.2394,22.4351 L30.0234,22.7921 L29.9934,22.7471 L29.8344,23.0911 C29.4634,23.2241 29.5954,22.9361 29.2864,23.1581 L29.3844,23.3941 L29.0984,23.4581 C29.2444,23.4771 29.1094,23.6631 28.9134,23.8571 L28.8824,23.8131 L28.6604,24.0671 C28.8134,23.7391 28.3954,24.2281 28.3964,23.9981 C28.1724,24.1771 28.1704,24.1831 27.8094,24.5561 L27.9874,24.6211 C27.5734,25.1721 27.8044,24.4541 27.3834,24.8021 L27.5344,24.9231 C26.7314,25.1951 26.6434,25.9321 26.0704,26.1551 C26.2924,25.9041 26.0844,25.7921 26.1154,25.8381 C25.7834,26.2181 25.1304,26.7111 24.8884,27.2231 C24.5644,27.1381 24.4774,27.1041 23.9924,27.3581 C23.7094,27.6231 23.6834,27.6811 23.6924,27.8851 C23.4894,27.9781 23.2634,28.2061 23.0784,28.3591 C22.5554,27.4491 21.8564,26.5061 20.9394,25.8241 C19.8384,25.4491 20.6994,25.0161 19.6614,24.6241 C19.7574,24.6451 19.8254,24.6141 19.9164,24.6291 C18.9374,24.0571 18.3434,23.7731 17.3084,23.5071 C17.6314,23.1571 16.7184,23.1971 16.9144,23.0301 L16.7534,23.1561 C16.6104,22.9521 16.1744,22.6831 16.3014,22.5991 L15.8234,22.6181 L15.8774,22.4321 C15.3844,22.1721 14.3504,21.8111 14.3504,21.3531 C13.1594,21.0371 12.1164,20.0781 11.5724,18.9471 C11.3474,18.8841 11.1544,18.5641 11.0204,18.3041 C11.0424,18.1791 11.0714,18.0541 11.1034,17.9281 C10.9244,17.6921 10.5444,17.4771 10.6024,17.1581 C10.6284,17.1521 10.6504,17.1581 10.6684,17.1731 C10.5304,16.8901 10.5784,16.5781 10.3134,16.3341 C10.2544,15.9901 10.3284,15.6401 10.5534,15.7151 C10.3644,15.7261 10.3554,15.5421 10.3934,15.3611 C10.4394,15.1791 10.5334,15.0021 10.5334,15.0021 C10.5334,15.0021 10.5194,14.7191 10.5454,14.2811 C10.5714,13.8481 10.6614,13.2741 10.8684,12.8701 C11.0564,12.4621 11.5914,11.7671 12.5484,10.8681 C13.4324,9.9911 14.4664,9.1081 15.6014,8.2951 C17.8564,6.6421 20.5094,5.2791 22.9284,4.3531 C25.3404,3.3901 27.5024,2.8481 28.7484,2.2601 C28.9094,2.0681 29.3854,1.9281 29.1944,1.7131 C29.5674,1.6281 29.7444,1.9521 29.8134,1.7621 C29.3004,1.6571 29.9674,1.2701 29.4554,1.0571 L29.7834,0.9991 C29.8474,0.8631 29.3404,1.1681 29.4144,0.9231 L29.3324,1.2761 C29.0684,1.2331 28.9204,1.1661 28.8214,1.0511 C28.5764,1.1931 28.4534,1.6721 27.8544,1.5231 L28.0134,1.4881 C27.5384,1.5441 27.7014,1.2891 27.5954,1.2411 L27.7024,1.2341 L27.2774,1.0961 C27.5974,1.1851 28.0834,0.8561 27.8174,0.9001 C27.2274,0.8551 27.9754,0.9721 27.5444,1.0541 C27.2774,1.0961 27.3324,0.9031 27.3334,0.7941 C27.1714,0.8121 27.0084,0.8311 26.8474,0.8611 C26.8444,0.6971 27.1714,0.8241 26.9534,0.6851 L26.3624,0.9431 C26.1874,0.5571 25.7254,1.2211 25.3854,0.9031 C25.8094,0.7231 25.3234,0.7741 25.3694,0.6301 L24.2864,0.8621 C24.1714,0.8261 24.5464,0.6831 24.3854,0.7351 C24.1554,0.6611 24.0724,0.9081 23.9624,0.9301 C23.8434,0.8431 23.1614,1.1311 23.1224,0.8601 C22.3394,0.8691 22.9064,1.2761 22.1904,1.3191 C22.0544,1.1861 22.7144,1.1221 22.3684,1.0471 L21.6834,1.3141 C21.7224,1.2191 21.7404,1.0171 22.0154,0.9731 C20.0684,1.3521 18.6944,0.9591 17.0844,1.9751 C16.7594,1.9161 17.1984,1.7741 17.3154,1.5791 C16.2074,2.4111 15.3944,2.0731 14.3814,2.7051 L14.4484,2.8541 C12.7714,3.2871 11.3134,4.7171 9.7884,5.8171 L10.0314,5.7521 C9.9434,6.0421 9.6464,6.3311 9.4694,6.5901 C9.3804,6.5641 9.3894,6.1801 9.0484,6.6141 C9.1684,6.5751 9.3734,6.4581 9.3794,6.5631 C8.6614,7.0041 7.7174,7.7041 6.6934,9.0301 C6.1944,9.6821 5.6914,10.5541 5.3924,11.4811 C5.0884,12.3931 4.9584,13.2771 4.8874,14.0571 C4.9154,16.1201 5.2254,18.1551 6.0194,20.1621 C6.7884,22.1351 8.1664,24.0601 9.9244,25.2641 C9.4124,24.8941 9.8764,24.7421 10.1894,25.0921 C10.8464,26.3951 12.0364,26.1251 12.7814,27.0311 C13.7104,27.3811 14.4274,27.8341 15.0364,28.2521 C15.6444,28.6651 16.1274,29.0391 16.8364,29.3051 L16.7304,29.4681 C16.8234,29.6731 16.9624,29.5981 17.1294,29.7441 L17.0884,29.7791 C17.4104,30.1821 17.9744,30.5301 18.0934,30.8311 L18.2744,30.7101 C18.4924,30.9461 18.2484,30.9381 18.5424,31.1281 L18.4504,31.1851 L18.8444,31.3731 C18.7034,31.4511 18.7744,31.6051 18.8964,31.7801 C18.6674,31.8971 18.5244,31.6851 18.3514,32.0611 L18.6044,31.8501 C18.7494,31.8701 18.6764,32.1441 18.5074,32.2851 C18.4494,32.2981 18.2764,32.3371 18.3864,32.2081 C18.1384,32.5231 17.6284,32.8411 17.5504,33.0151 C17.3514,33.1131 17.3134,32.9651 17.3664,32.8491 C16.8474,33.5391 17.0574,33.0771 16.5364,33.7651 L16.4744,33.6761 L16.3444,33.9661 L15.8824,34.0731 L16.0864,34.0771 C15.8934,34.2781 15.8174,34.4521 15.5354,34.6241 L15.5244,34.4181 C15.0044,35.0121 14.6694,34.8301 14.2734,35.5011 C14.2154,35.5151 14.2664,35.3971 14.2924,35.3381 C13.9574,35.9961 13.7154,35.4851 13.4144,36.1861 C13.4094,36.1181 13.3074,36.1211 13.2954,36.0691 L13.1354,36.3611 L13.0044,36.1861 L13.0344,36.5971 L12.7384,36.5671 L12.7194,36.7271 C12.1884,36.6601 12.0574,37.2211 11.5054,37.3161 L11.7524,37.4591 C11.3014,38.6761 9.6044,39.1011 8.7954,40.3091 L8.6594,40.1401 L8.4304,40.7381 C8.0864,40.8441 8.4304,40.4741 8.2814,40.4671 C7.9274,41.0001 8.3274,40.8731 7.8654,41.4491 C7.4984,41.6211 7.8394,41.2441 7.9064,41.0611 C7.5034,41.6311 6.8984,42.4691 6.4784,42.7611 C6.4934,42.7881 6.5004,42.8371 6.5274,42.8261 C6.2904,43.2401 5.8134,43.6431 5.4944,44.0571 C5.4244,43.9851 5.4944,43.8751 5.5624,43.7621 C5.4324,43.8981 5.2144,44.0531 5.1924,44.2411 L5.1714,43.9711 C4.8874,44.2621 4.5414,44.9801 4.3154,44.9271 C4.4114,44.9371 4.5294,45.0521 4.3124,45.3291 C3.9244,45.2891 3.8634,46.1891 3.4084,46.5701 C3.3754,46.4681 3.5954,46.1061 3.5274,46.2051 C3.2924,46.3951 3.2864,46.7051 3.2374,46.9711 L3.1654,46.8341 C2.9754,47.2431 2.8074,47.6701 2.6424,48.0931 C2.2464,48.1111 2.1024,49.2611 1.9344,49.0771 C1.7174,49.5191 2.2404,48.7651 2.0144,49.3441 C1.8134,49.4341 1.8524,49.8851 1.6644,49.7781 L1.6654,49.7061 L1.5184,50.1211 L1.4244,49.7841 C1.3244,50.1591 1.4194,50.4901 1.5704,50.5641 C1.3474,50.8661 1.2674,51.3751 1.0474,51.4841 L1.0344,51.3391 C0.8414,52.3411 0.0414,52.8681 0.2934,53.8101 C0.2574,53.8721 0.2044,53.8581 0.2224,53.7231 C0.1894,53.9491 0.1664,54.1801 0.1484,54.4101 L-0.0006,54.2341 C0.0504,54.6251 0.1294,55.0171 0.2224,55.4041 L0.1144,55.3921 C0.0814,56.1681 0.3144,57.4411 0.7864,58.4801 L0.6784,58.3421 C0.9794,58.8861 1.1144,59.1611 1.2184,59.4111 C1.3304,59.6541 1.4134,59.8801 1.7664,60.2231 C1.7224,60.2151 1.6934,60.1961 1.6664,60.1721 C1.8444,60.4051 2.0444,60.6231 2.2544,60.8321 L2.0424,60.7641 C2.6264,61.0901 3.3384,62.2001 3.1204,61.8091 C3.4914,61.9431 4.1014,62.1171 4.2484,62.0291 C5.0784,62.3691 4.3944,62.2461 4.8864,62.5361 C5.5014,62.7361 5.6544,62.5981 6.4394,62.8231 L6.4074,62.9281 C6.7894,62.9621 7.0324,62.9121 7.5364,62.9131 L7.3824,62.9591 C8.1994,62.7581 8.4234,63.2831 9.0054,62.7601 C9.3434,62.8231 9.9354,62.6591 9.9414,62.8771 C10.8744,62.5651 11.5094,62.3331 12.3334,61.9741 C12.5784,62.2651 12.5104,61.9041 13.0834,61.9101 L12.9814,61.7461 C14.1384,61.3071 15.6574,61.1031 16.8144,60.2931 L16.9494,60.4361 L17.0734,60.1071 C18.3944,59.3901 19.9434,58.1921 20.7814,57.3341 C20.9954,56.9881 21.2264,56.4011 21.6824,55.9841 L21.6594,56.0501 C22.2754,55.1601 22.8884,54.2221 23.5964,53.2851 C23.6254,53.3891 23.7374,53.3201 23.7084,53.4591 C23.6844,53.1151 24.0514,52.8581 24.1874,52.6411 L23.9144,52.8261 C23.9274,52.4491 24.3114,52.1211 24.5074,52.0291 L24.5644,51.4671 C24.5974,51.4451 24.6484,51.4101 24.6784,51.4181 L24.6294,51.2911 L24.9734,51.1441 C24.9774,51.0021 25.2164,50.3421 25.0624,50.0491 C25.1584,50.0351 25.3974,49.6031 25.3024,49.9731 C25.5664,49.3901 25.7924,48.7951 26.0074,48.1931 L25.8334,48.4511 C25.6474,48.4291 25.6904,47.8511 25.8524,47.5941 C25.8954,48.0061 26.1044,47.7001 26.2864,47.5741 C26.2564,47.2981 26.0614,47.7481 25.9974,47.5881 C25.9734,47.2431 26.0524,46.5661 26.1774,46.4201 L26.2084,46.6241 C26.2444,46.1841 26.6024,46.0521 26.6664,45.6181 C26.5904,45.2071 26.7694,44.9461 26.4334,44.9741 C26.4444,44.4131 26.6834,44.7941 26.7404,44.6181 C26.6314,44.3361 26.8094,43.5711 26.9814,43.4831 C26.5444,43.1421 27.2484,41.9751 26.8434,41.8441 L27.0754,41.3861 C26.9654,41.3711 26.7234,41.2791 26.6804,40.9101 C26.7854,40.5591 26.9764,40.6371 27.0834,40.5251 L26.6714,40.3051 C27.0414,38.2521 26.2974,35.6441 25.8754,33.4111 C25.4724,32.4961 24.8284,31.4271 24.3154,30.3811 C24.3214,30.3731 24.3264,30.3661 24.3314,30.3581 L24.3904,30.4081 C24.3794,30.3811 24.3664,30.3551 24.3544,30.3291 C24.4294,30.2291 24.4784,30.1341 24.4384,30.0451 C24.7204,29.7801 24.9034,30.0521 25.0504,30.0721 L25.1024,29.8561 C25.3564,29.8531 25.9214,29.3991 26.3234,29.2021 L26.4254,28.7071 L26.6294,28.7161 C26.6274,28.6141 26.8504,28.3621 26.6194,28.4101 L26.7944,28.2821 C26.5874,28.0151 26.9654,28.0141 27.2014,27.6201 C27.3124,27.5951 27.3454,27.6741 27.3034,27.7691 C27.4694,27.6301 27.5114,27.8211 27.6754,27.8291 C27.5024,27.8641 27.8704,26.8611 27.3284,27.1291 C27.2084,27.0521 27.4014,26.7521 27.6024,26.6591 L27.8984,26.8031 L27.8824,26.3941 C28.1064,26.1421 28.3414,26.1961 28.5674,26.0441 C28.3714,26.2401 28.4844,26.8881 29.0194,26.4131 C28.7614,26.6891 28.7324,26.9371 28.6264,27.1121 C28.7454,27.0241 28.8214,26.9981 28.7314,27.2461 C29.0924,26.8091 28.7504,26.9841 29.1434,26.5921 C29.2974,26.8161 29.4714,26.7801 29.8984,26.5331 L29.4944,26.6201 C29.4854,26.5841 29.4884,26.5501 29.4984,26.5191 C29.3754,26.5881 29.3194,26.5811 29.2284,26.5221 C29.3124,26.4521 29.4924,25.8481 29.6694,25.9101 C28.9724,25.9581 30.1874,25.0261 29.7504,25.0681 C29.7464,24.9681 30.0284,24.7021 30.1474,24.7771 C29.9344,25.2371 30.6124,24.7791 30.6804,24.9711 C30.7584,24.7991 30.2744,25.0601 30.3814,24.8291 C30.5774,24.6341 30.8384,24.6251 31.0104,24.5881 L30.9574,24.7021 L31.3584,24.5111 C31.3224,24.3631 30.8974,24.6121 31.1454,24.3001 C31.2604,24.2731 31.5084,23.9611 31.5714,24.0501 C31.5544,24.3131 31.8204,24.4081 31.5994,24.6651 C31.7954,24.4671 32.4384,23.8561 32.0014,23.9041 L32.2554,23.6891 C32.0244,23.7441 31.4524,23.9761 31.9244,23.5061 L31.9554,23.5511 L32.1634,23.0891 L32.4084,23.0591 C32.3574,23.0121 32.3704,22.9161 32.5004,22.8061 C32.5884,22.8371 32.7304,22.7531 32.7934,22.8431 C33.1554,22.5011 33.0334,22.4261 33.0284,22.3231 C33.2224,22.1241 33.3374,22.0961 33.3484,22.3021 C33.6554,22.0711 34.1234,21.5981 34.4124,21.5271 C34.7074,21.0941 34.2964,21.5571 34.3934,21.2201 C35.0234,21.2911 35.8144,20.1821 36.3484,19.4391 C35.8734,19.3561 36.4794,19.2231 36.2844,18.8511 C36.2644,19.0971 37.0684,18.3561 36.6684,19.0691 C36.7604,18.9331 36.8464,18.7871 36.9324,18.6421 C37.3284,18.4951 36.5704,19.4181 37.1354,19.1851 C37.4774,18.6911 37.3104,18.1401 37.7584,17.5741 C37.9224,17.9241 37.9054,17.0201 38.1224,17.3101 C38.1614,17.5011 38.0394,17.6771 37.9684,17.8841 L38.0784,17.7871 C38.7104,16.4731 37.9374,17.2771 37.9724,16.5191 C38.1224,15.6811 38.3234,15.8731 38.4794,15.8431 C38.5494,15.7021 38.5384,15.2061 38.4274,14.9601" id="Fill-33" fill="#DD6343" mask="url(#mask-2)"></path>
                </g>
                <path d="M10.1229,49.2764 L10.2749,48.9094 L10.0869,49.0774 C10.1229,49.1084 10.1569,49.1544 10.1229,49.2764" id="Fill-36" fill="#DD6343"></path>
                <path d="M6.2859,60.4033 C6.1929,60.3283 6.1869,60.4443 6.1699,60.5243 C6.2089,60.5033 6.2499,60.4743 6.2859,60.4033" id="Fill-38" fill="#DD6343"></path>
                <path d="M14.6893,43.5303 C14.6703,43.5773 14.6703,43.6173 14.7083,43.6443 C14.7253,43.5743 14.7133,43.5443 14.6893,43.5303" id="Fill-40" fill="#DD6343"></path>
                <path d="M28.3035,31.1397 C28.2625,31.1737 28.2145,31.2247 28.1565,31.3077 C28.2375,31.2537 28.2785,31.1957 28.3035,31.1397" id="Fill-42" fill="#DD6343"></path>
                <path d="M11.4402,46.9072 C11.3962,46.9632 11.3592,47.0252 11.3512,47.1002 C11.4222,47.0172 11.4382,46.9562 11.4402,46.9072" id="Fill-44" fill="#DD6343"></path>
                <path d="M28.0164,31.4912 L27.7944,31.6522 C27.8034,31.6642 27.8094,31.6732 27.8194,31.6872 L28.0164,31.4912 Z" id="Fill-46" fill="#DD6343"></path>
                <path d="M29.6268,30.4824 C29.5408,30.5464 29.4318,30.6414 29.3488,30.6874 C29.4898,30.6434 29.5728,30.5734 29.6268,30.4824" id="Fill-48" fill="#DD6343"></path>
                <path d="M19.7313,38.4775 L19.7123,38.5005 C19.6173,38.7115 19.6893,38.5945 19.7313,38.4775" id="Fill-50" fill="#DD6343"></path>
                <polygon id="Fill-52" fill="#DD6343" points="27.3563 32.5547 27.3233 32.5727 27.3013 32.6697"></polygon>
                <path d="M30.576,29.7695 C30.54,29.8075 30.511,29.8455 30.499,29.8895 C30.536,29.8675 30.578,29.8395 30.632,29.8065 C30.602,29.7945 30.587,29.7835 30.576,29.7695" id="Fill-54" fill="#DD6343"></path>
            </g>
        </g>
    </g>
</svg>