<?xml version="1.0" encoding="UTF-8"?>
<svg width="40px" height="70px" viewBox="0 0 40 70" version="1.1" xmlns="http://www.w3.org/2000/svg" xmlns:xlink="http://www.w3.org/1999/xlink">
    <!-- Generator: Sketch 51.2 (57519) - http://www.bohemiancoding.com/sketch -->
    <title>number_0</title>
    <desc>Created with Sketch.</desc>
    <defs>
        <polygon id="path-1" points="0.10695 0.1447 0.218 0.1447 0.218 0.6447 0.10695 0.6447"></polygon>
        <polygon id="path-3" points="0.1858 0.0373 0.218 0.0373 0.218 0.5373 0.1858 0.5373"></polygon>
        <polygon id="path-5" points="0.000211764706 0.230988529 23.5562118 0.230988529 23.5562118 45 0.000211764706 45"></polygon>
    </defs>
    <g id="Page-1" stroke="none" stroke-width="1" fill="none" fill-rule="evenodd">
        <g id="切图" transform="translate(-628.000000, -310.000000)">
            <g id="0" transform="translate(628.000000, 310.000000)">
                <path d="M8.099,39.018 C8.073,39.008 8.042,39.001 8,39 C8.04,39.019 8.073,39.023 8.099,39.018" id="Fill-1" fill="#DD6343"></path>
                <path d="M8.068,46.116 L8,46 C8.021,46.081 8.043,46.108 8.068,46.116" id="Fill-3" fill="#DD6343"></path>
                <path d="M8,34.429 C8.008,34.438 8.015,34.438 8.024,34.443 C8.025,34.346 8.026,34.214 8.028,34 L8,34.429 Z" id="Fill-5" fill="#DD6343"></path>
                <path d="M21.132,56 L21,56.11 C21.061,56.062 21.107,56.039 21.132,56" id="Fill-7" fill="#DD6343"></path>
                <path d="M11,53.0017725 C11.06,53.0197725 11.115,53.0757725 11.167,53.1327725 C11.121,53.0487725 11.072,52.9887725 11,53.0017725" id="Fill-9" fill="#DD6343"></path>
                <path d="M9.148,32 L9,32.168 C9.063,32.166 9.127,32.106 9.148,32" id="Fill-11" fill="#DD6343"></path>
                <path d="M10.036,28.0001517 C10.025,28.0011517 10.016,27.9981517 10,28.0021517 C10.008,28.0161517 10.021,28.0111517 10.036,28.0001517" id="Fill-13" fill="#DD6343"></path>
                <path d="M9,30 C9.001,30.055 9.013,30.12 9.024,30.186 C9.036,30.111 9.056,30.019 9,30" id="Fill-15" fill="#DD6343"></path>
                <path d="M9.02041172,30.089 L9.00341172,30 C8.99841172,30.047 8.99541172,30.086 9.02041172,30.089" id="Fill-17" fill="#DD6343"></path>
                <path d="M11.0320092,19 C10.9610092,19.211 11.0250092,19.429 11.0620092,19.64 C11.0510092,19.431 11.0320092,19.214 11.0320092,19" id="Fill-19" fill="#DD6343"></path>
                <path d="M29,44 L29.04,44.061 C29.036,44.017 29.019,44.003 29,44" id="Fill-21" fill="#DD6343"></path>
                <path d="M11.062,20 L11,20.126 C11.035,20.083 11.053,20.042 11.062,20" id="Fill-23" fill="#DD6343"></path>
                <path d="M10,35 C10.144,35.177 9.99,35.554 10.126,35.547 C10.097,35.355 10.194,35.08 10,35" id="Fill-25" fill="#DD6343"></path>
                <path d="M26,39.113 L26.026,39 C26.009,39.052 26.001,39.087 26,39.113" id="Fill-27" fill="#DD6343"></path>
                <path d="M11.008,20.145 L11.079,20 C11.05,20.005 11.026,20.017 11,20.027 C11.011,20.067 11.014,20.107 11.008,20.145" id="Fill-29" fill="#DD6343"></path>
                <g id="Group-33" transform="translate(32.000000, 28.000000)">
                    <mask id="mask-2" fill="white">
                        <use xlink:href="#path-1"></use>
                    </mask>
                    <g id="Clip-32"></g>
                    <path d="M0.10695,0.1447 L0.10695,0.1487 C0.11195,0.1562 0.11545,0.1622 0.12045,0.1707 L0.10695,0.1447 Z" id="Fill-31" fill="#DD6343" mask="url(#mask-2)"></path>
                </g>
                <g id="Group-36" transform="translate(32.000000, 27.000000)">
                    <mask id="mask-4" fill="white">
                        <use xlink:href="#path-3"></use>
                    </mask>
                    <g id="Clip-35"></g>
                    <path d="M0.1858,0.0373 C0.1963,0.0788 0.2068,0.1193 0.2178,0.1643 C0.2203,0.0953 0.2058,0.0608 0.1858,0.0373" id="Fill-34" fill="#DD6343" mask="url(#mask-4)"></path>
                </g>
                <path d="M11,20 L11.025,20.356 C11.039,20.234 11.022,20.117 11,20" id="Fill-37" fill="#DD6343"></path>
                <path d="M29,18 L29.089,18.093 C29.058,18.048 29.029,18.018 29,18" id="Fill-39" fill="#DD6343"></path>
                <path d="M10.0550845,52.108 C10.0520845,52.076 10.0370845,52.036 10.0290845,52 C9.99408455,52.004 9.97808455,52.022 10.0550845,52.108" id="Fill-41" fill="#DD6343"></path>
                <polygon id="Fill-43" fill="#DD6343" points="16 55.003 16.002 55.003 16.002 55"></polygon>
                <path d="M16,55.0796845 C16.082,55.1446845 16.248,55.0966845 16.342,55.0156845 C16.255,54.9886845 16.167,54.9886845 16,55.0796845" id="Fill-45" fill="#DD6343"></path>
                <path d="M16.031,55.019 C16.021,55.013 16.012,55.007 16,55 C16.011,55.01 16.02,55.017 16.031,55.019" id="Fill-47" fill="#DD6343"></path>
                <polygon id="Fill-49" fill="#DD6343" points="13.013 51 13 51.007 13.013 51.004"></polygon>
                <path d="M14.0018909,52 C13.9968909,52.037 14.0018909,52.08 14.0158909,52.12 C14.0218909,52.084 14.0198909,52.042 14.0018909,52" id="Fill-51" fill="#DD6343"></path>
                <polygon id="Fill-53" fill="#DD6343" points="18 54 18.002 54.006 18.007 54"></polygon>
                <g id="Group-57" transform="translate(8.000000, 12.000000)">
                    <mask id="mask-6" fill="white">
                        <use xlink:href="#path-5"></use>
                    </mask>
                    <g id="Clip-56"></g>
                    <path d="M15.8585647,31.7672578 C15.4406824,32.7924141 14.9345647,34.1621016 14.3020941,35.0740547 C14.3493882,35.3834297 14.1771529,35.6928047 14.0225647,36.0134297 L13.7740941,35.8995234 L13.6844471,36.1913203 C13.5503294,36.2461641 13.7670353,35.9754609 13.5644471,36.0956953 L13.6442118,36.2799141 C13.5496235,36.2461641 13.1748,36.8726484 13.2842118,36.3551484 C13.0788,36.6736641 12.8620941,36.9830391 12.6376235,37.2881953 C12.4851529,37.4864766 12.7350353,37.5378047 12.5183294,37.7255391 C12.4216235,37.7248359 12.5331529,37.6123359 12.4413882,37.5743672 C11.7962118,38.1277266 12.2740941,38.6543672 11.6995059,39.2056172 L11.7115059,39.1310859 C11.6860941,39.2822578 11.5279765,39.4538203 11.5548,39.4833516 C11.8265647,39.5803828 11.5244471,39.2906953 11.7948,39.2105391 C11.9599765,39.3750703 11.7100941,39.5093672 11.8533882,39.6092109 C11.6783294,39.6942891 11.7093882,39.8510859 11.6190353,39.9776484 C11.3416235,40.0746797 11.1651529,40.4086641 10.9046824,40.4058516 C10.8708,40.5394453 10.9265647,40.7988984 10.7359765,40.9746797 C10.4818588,40.9542891 10.6569176,40.8206953 10.4282118,40.9184297 L10.4811529,41.0456953 C10.3138588,41.1560859 10.3145647,41.0984297 10.2835059,41.0478047 C10.1169176,41.1553828 10.2517412,41.3037422 9.99338824,41.3621016 L10.0385647,41.1821016 C9.91574118,41.3192109 9.83950588,41.3424141 9.62632941,41.4415547 C9.59738824,41.3698359 9.68068235,41.3304609 9.75197647,41.3178047 C9.54797647,41.2046016 9.60232941,41.4963984 9.52891765,41.5020234 C9.56844706,41.5505391 9.72938824,41.5013203 9.71456471,41.6546016 C9.5988,41.6749922 9.54938824,41.9330391 9.41315294,41.8071797 C9.43785882,41.7544453 9.46115294,41.7024141 9.48303529,41.6433516 C9.30232941,41.8191328 9.4188,41.8542891 9.14915294,41.8753828 C9.16044706,41.8620234 9.14491765,41.8317891 9.14350588,41.8036641 C9.0228,42.0195234 8.77856471,41.8894453 8.5668,41.8824141 C8.58091765,41.8725703 8.59503529,41.8578047 8.60844706,41.8451484 C8.52232941,41.8922578 8.46303529,41.9991328 8.41150588,41.9885859 C8.53997647,42.0736641 8.50468235,42.1116328 8.51103529,42.2396016 C8.34303529,42.0068672 8.17785882,42.4807734 7.85597647,42.2508516 C7.88632941,42.1826484 7.98727059,42.1158516 8.05503529,42.2156953 C8.21456471,42.0188203 8.25974118,41.8416328 8.42632941,41.7481172 C8.32468235,41.7987422 8.20256471,41.8001484 8.24562353,41.7136641 L8.1708,41.9112422 C8.10585882,41.9021016 8.05715294,41.8760859 8.00844706,41.8606172 C7.93715294,41.9780391 8.09103529,42.1116328 7.89832941,42.1446797 C7.68232941,42.1446797 7.86938824,41.9070234 7.80727059,41.9864766 C7.51997647,41.9611641 7.61032941,42.1545234 7.38303529,41.9688984 C7.41691765,41.9667891 7.48256471,41.9597578 7.49597647,41.9871797 C7.35268235,41.8310859 7.02444706,41.7678047 7.11268235,41.5210078 C7.16985882,41.4914766 7.21574118,41.4303047 7.26797647,41.4907734 L7.24468235,41.5210078 C7.52774118,41.4823359 7.06327059,41.4647578 7.24609412,41.3107734 C7.18397647,41.4338203 6.96374118,41.2446797 6.87550588,41.1385078 L6.81409412,41.2861641 C6.16185882,41.3501484 7.02162353,41.0731172 6.64538824,40.8228047 C6.36303529,40.6962422 6.69691765,40.9317891 6.49362353,40.8867891 C6.36656471,40.7264766 6.40750588,40.5809297 6.15197647,40.4255391 C6.14209412,40.3221797 6.09409412,40.1435859 6.21409412,40.0184297 C6.04185882,39.9403828 5.93103529,39.5817891 5.74468235,39.6014766 C5.81103529,39.9340547 6.06515294,39.7174922 6.12444706,40.1217891 L5.93315294,40.1604609 C5.77009412,39.9804609 5.51527059,39.7751484 5.46021176,39.6021797 C5.45456471,39.6492891 5.42915294,39.6879609 5.3868,39.6921797 C5.11291765,39.4524141 4.92938824,39.4418672 4.77197647,39.1191328 C4.87785882,38.9988984 4.96891765,39.1852266 5.06209412,39.3033516 C5.04585882,39.0438984 4.93221176,39.1064766 4.79809412,38.7738984 C4.90327059,38.6909297 4.90821176,38.9855391 5.04727059,38.9461641 C4.96185882,38.8491328 4.89056471,38.7401484 4.81432941,38.6353828 C4.82138824,38.6325703 4.82915294,38.6269453 4.83762353,38.6213203 C4.61597647,38.6810859 4.70350588,38.3576484 4.53903529,38.1748359 C4.28985882,37.6650703 3.97715294,37.7086641 3.68562353,37.4696016 C3.70821176,37.3641328 3.75197647,37.3191328 3.81832941,37.3317891 C3.78162353,37.5040547 3.84444706,37.4506172 3.91856471,37.4738203 C3.81974118,37.2973359 3.95809412,36.9928828 4.08515294,37.0603828 C3.90585882,36.7974141 4.01668235,37.2080391 3.87832941,37.0575703 L3.74562353,36.6455391 C3.65315294,36.7327266 3.68209412,36.8867109 3.52256471,36.7031953 C3.42868235,36.5323359 3.41456471,36.4402266 3.35032941,36.1962422 C3.41527059,36.2131172 3.49503529,36.0675703 3.54303529,36.2489766 C3.54938824,36.1196016 3.49927059,35.9403047 3.37009412,35.9023359 C3.35032941,36.1962422 3.14209412,35.4987422 3.02915294,35.7441328 L3.05950588,35.4460078 C3.07362353,35.5085859 3.14915294,35.4952266 3.15127059,35.5908516 C3.30021176,35.4692109 3.04538824,35.3855391 3.00374118,35.2948359 C3.01221176,35.1907734 2.95997647,34.9425703 3.02350588,34.9053047 C2.95715294,34.8300703 2.94656471,34.6106953 3.02491765,34.5523359 C2.96209412,34.4321016 2.91056471,34.5663984 2.84703529,34.5417891 C2.82021176,34.3948359 2.78703529,34.2506953 2.76585882,34.1016328 C2.85691765,34.0587422 3.11385882,33.9687422 3.16256471,34.0271016 C3.04185882,33.8801484 2.86962353,34.0249922 2.82938824,33.7718672 C3.04185882,33.8794453 2.90774118,33.4146797 3.16821176,33.5806172 C3.27268235,33.4146797 3.20138824,33.0082734 3.11456471,32.7910078 C2.94374118,32.6742891 3.07221176,33.0483516 2.91832941,33.0596016 C2.75527059,32.4331172 2.34162353,32.4492891 2.34232941,31.9620234 L2.31762353,32.0921016 C2.18844706,31.8059297 2.21527059,31.8354609 2.06421176,31.6765547 C2.26468235,31.7342109 2.52303529,31.2743672 2.43127059,30.7856953 C2.33103529,30.7547578 2.28091765,31.0824141 2.12209412,31.0198359 L2.05715294,30.6928828 C2.06985882,30.6675703 2.10515294,30.6999141 2.13409412,30.7399922 C2.03385882,30.4524141 2.32044706,30.1648359 2.09103529,30.1008516 L2.33738824,29.7717891 L2.2308,29.9032734 C2.13268235,29.8709297 2.07268235,29.5404609 2.02962353,29.4743672 C1.89268235,29.1438984 1.96397647,29.0117109 2.06632941,28.8148359 C1.99362353,28.8809297 1.82985882,29.0447578 1.77621176,28.7789766 C2.08327059,28.7550703 1.84115294,28.2066328 2.00068235,28.2010078 C1.98797647,28.0927266 2.06774118,27.8930391 1.93927059,27.8902266 L2.13197647,27.8930391 C1.86303529,27.8895234 1.84327059,27.4943672 1.77338824,27.1948359 C2.13974118,27.2363203 1.72044706,26.8636641 2.04091765,26.7061641 C1.78962353,26.6667891 1.90609412,26.1767109 1.69362353,26.1366328 C1.66609412,25.9038984 1.89762353,25.9130391 1.97174118,25.8483516 L1.87362353,25.7463984 C1.98021176,25.6212422 1.97244706,25.1838984 2.03668235,24.9195234 L1.80656471,24.6896016 L1.90044706,24.5946797 C1.84327059,24.5588203 1.80021176,24.3591328 1.72609412,24.4878047 L1.73174118,24.3570234 C1.49315294,24.3577266 1.65762353,24.1763203 1.54397647,23.9182734 C1.57927059,23.8556953 1.63644706,23.8690547 1.67103529,23.9246016 C1.6668,23.7938203 1.79103529,23.8437422 1.86797647,23.7692109 C1.8108,23.8648359 1.42115294,23.3163984 1.32938824,23.6749922 C1.23338824,23.7038203 1.15362353,23.4999141 1.19103529,23.3691328 L1.40068235,23.2819453 L1.16985882,23.1363984 C1.13032941,22.9346016 1.26303529,22.8438984 1.28209412,22.6793672 C1.30115294,22.8460078 1.70632941,23.0351484 1.68515294,22.6048359 C1.72044706,22.8298359 1.84468235,22.9367109 1.89338824,23.0513203 C1.89903529,22.9627266 1.91738824,22.9170234 2.01338824,23.0520234 C1.93432941,22.7194453 1.87785882,22.9451484 1.83903529,22.6132734 C2.03032941,22.6252266 2.08821176,22.5296016 2.14397647,22.2378047 L2.01127059,22.4599922 C1.98797647,22.4501484 1.97032941,22.4360859 1.95832941,22.4199141 C1.94068235,22.5028828 1.91103529,22.5267891 1.83832941,22.5478828 C1.83832941,22.4817891 1.58844706,22.1696016 1.7028,22.1105391 C1.4148,22.4550703 1.45574118,21.5311641 1.28209412,21.7512422 C1.22491765,21.7139766 1.20797647,21.4812422 1.30327059,21.4552266 C1.45432941,21.7294453 1.51644706,21.2414766 1.65127059,21.2843672 C1.59409412,21.1824141 1.51432941,21.5044453 1.4388,21.3673359 C1.42115294,21.2021016 1.53762353,21.0790547 1.59691765,20.9869453 L1.63432941,21.0551484 L1.71691765,20.8013203 C1.62091765,20.7605391 1.55738824,21.0481172 1.50515294,20.8153828 C1.54327059,20.7535078 1.49315294,20.5207734 1.57009412,20.5285078 C1.70209412,20.6381953 1.87432941,20.5566328 1.90962353,20.7535078 C1.89338824,20.5903828 1.87503529,20.0749922 1.69432941,20.2824141 L1.7028,20.0883516 C1.6188,20.2078828 1.4748,20.5524141 1.44868235,20.1586641 L1.48750588,20.1621797 L1.34774118,19.8872578 L1.44938824,19.7712422 C1.40138824,19.7733516 1.35621176,19.7290547 1.36397647,19.6285078 C1.42256471,19.6038984 1.44868235,19.5103828 1.52562353,19.5209297 C1.52774118,19.2312422 1.43032941,19.2495234 1.37597647,19.2087422 C1.37315294,19.0456172 1.41762353,18.9879609 1.52421176,19.0695234 C1.56162353,18.8508516 1.57291765,18.4669453 1.68938824,18.3305391 C1.63785882,18.0317109 1.63997647,18.3853828 1.53268235,18.2011641 C1.89268235,17.9895234 1.79315294,17.2786641 1.87150588,16.8153047 C1.55597647,16.8666328 1.87221176,16.6859297 1.63785882,16.5326484 C1.69785882,16.6507734 1.97456471,16.1670234 1.94350588,16.5811641 C1.95338824,16.4981953 1.96891765,16.4180391 1.98515294,16.3378828 C2.18421176,16.2267891 1.98374118,16.7548359 2.26538824,16.5769453 C2.33597647,16.3280391 2.08397647,16.0510078 2.30491765,15.7950703 C2.45668235,15.9694453 2.33174118,15.5447578 2.51315294,15.7057734 C2.55268235,15.7915547 2.50538824,15.8646797 2.48844706,15.9504609 L2.54491765,15.9153047 C2.82162353,15.4224141 2.38538824,15.6706172 2.38185882,15.3317109 C2.52021176,14.9970234 2.65785882,15.1594453 2.75103529,15.1861641 C2.81315294,15.1587422 2.86185882,14.9899922 2.86962353,14.8887422 C2.86609412,15.1256953 2.56538824,15.1671797 2.4948,15.0167109 C2.76727059,14.9885859 2.78491765,14.5793672 2.76303529,14.4366328 C2.27032941,14.7438984 2.55550588,14.7235078 2.07974118,15.0392109 C2.11221176,15.1348359 2.31127059,15.2178047 2.10585882,15.4505391 C2.08962353,15.2367891 1.99291765,15.4139766 1.93856471,15.4498359 C2.07127059,15.4435078 1.90256471,15.6642891 1.91809412,15.7704609 C1.79456471,15.8154609 1.72468235,15.4934297 1.56303529,15.7739766 L1.81009412,15.9258516 C1.72891765,16.0256953 1.62797647,15.8063203 1.61103529,16.0784297 C1.51644706,15.8956172 1.36962353,16.0453828 1.45432941,15.6867891 C1.07032941,16.0200703 1.36397647,16.3702266 1.38303529,16.7098359 C1.37456471,16.6725703 1.33856471,16.6606172 1.32938824,16.6226484 C1.38162353,16.7105391 1.34562353,16.8335859 1.34350588,16.9341328 C1.23268235,17.1359297 1.25456471,16.7351484 1.16562353,16.7724141 L1.09574118,17.1288984 C1.08515294,17.1338203 1.07950588,17.1345234 1.07385882,17.1338203 C1.09009412,17.2343672 1.10421176,17.3292891 1.02727059,17.3489766 C0.954564706,17.2259297 0.868447059,17.1647578 0.811976471,17.0775703 C0.847270588,17.2181953 0.895976471,17.3581172 0.938329412,17.4952266 C0.852917647,17.4368672 0.723035294,17.7856172 0.701858824,17.5008516 C0.678564706,17.6928047 0.674329412,17.8868672 0.659505882,18.0788203 L0.461152941,18.1048359 C0.480917647,18.2475703 0.517623529,18.2553047 0.559976471,18.0928828 C0.488682353,18.2897578 0.8148,18.9921797 0.447035294,18.8613984 C0.574094118,19.3247578 0.504917647,19.4829609 0.591035294,20.0313984 C0.420917647,19.6067109 0.356682353,20.5116328 0.282564706,20.0630391 C0.193623529,20.3260078 0.404682353,20.3815547 0.435741176,20.5868672 C0.353858824,20.7795234 0.163976471,20.6965547 0.0940941176,20.4849141 L0.182329412,20.7317109 L0.143505882,20.7274922 L0.255035294,20.9405391 C0.1548,21.1676484 0.0616235294,20.9911641 0.0390352941,21.2260078 L0.211270588,21.2731172 L0.114564706,21.4334297 C0.191505882,21.3722578 0.228917647,21.5093672 0.246564706,21.6781172 L0.208447059,21.6753047 L0.246564706,21.8792109 C0.137152941,21.6795234 0.2148,22.0676484 0.0905647059,21.9776484 C0.0870352941,22.1534297 0.0884470588,22.1576484 0.1308,22.4726484 L0.245152941,22.4135859 C0.360917647,22.8221016 0.0729176471,22.4360859 0.0743294118,22.7714766 L0.207741176,22.7454609 C-0.000494117647,23.2355391 0.367270588,23.5561641 0.238094118,23.9175703 C0.197152941,23.7150703 0.0439764706,23.7741328 0.0828,23.7762422 C0.144917647,24.0799922 0.134329412,24.5820234 0.313623529,24.8899922 C0.125152941,25.0158516 0.0686823529,25.0460859 0.000211764706,25.3779609 C0.0249176471,25.6149141 0.0468,25.6486641 0.163976471,25.7189766 C0.102564706,25.9524141 0.243035294,26.3763984 0.102564706,26.3967891 C0.218329412,26.4424922 0.0940941176,26.6049141 0.197858824,26.7244453 L0.142094118,26.7553828 L0.2748,26.7258516 C0.00374117647,27.1540547 0.494329412,27.3994453 0.265623529,27.8290547 L0.223976471,27.7615547 L0.290329412,27.9303047 C0.233858824,27.9619453 0.192211765,27.8951484 0.114564706,27.8930391 L0.157623529,28.6981172 L0.244447059,28.5307734 C0.272682353,28.6988203 0.411741176,28.8007734 0.347505882,29.0011641 C0.117388235,28.6988203 0.363741176,29.2683516 0.214094118,29.3344453 L0.145623529,29.1671016 C0.179505882,29.4012422 0.179505882,29.4012422 0.312211765,29.3696016 C0.387741176,29.6698359 0.0771529412,29.6030391 0.247976471,29.8702266 L0.235270588,29.6698359 C0.307270588,29.6030391 0.431505882,29.7359297 0.440682353,29.8702266 C0.423035294,29.9039766 0.372211765,30.0045234 0.345388235,29.9046797 C0.420211765,30.1395234 0.387741176,30.5058516 0.452682353,30.6071016 C0.425858824,30.7421016 0.325623529,30.7090547 0.282564706,30.6415547 C0.456917647,31.1456953 0.281858824,30.8785078 0.456917647,31.3833516 L0.379270588,31.3833516 L0.492211765,31.5506953 L0.363741176,31.8256172 L0.449858824,31.7222578 C0.485858824,31.8903047 0.5508,31.9894453 0.533858824,32.1940547 L0.411035294,32.1293672 C0.542329412,32.6018672 0.299505882,32.7150703 0.529623529,33.1503047 C0.5148,33.1847578 0.4668,33.1193672 0.443505882,33.0849141 C0.690564706,33.4821797 0.298094118,33.4413984 0.583976471,33.8344453 C0.541623529,33.8147578 0.504211765,33.8696016 0.468917647,33.8590547 L0.579741176,34.0418672 L0.426564706,34.0545234 L0.679270588,34.1726484 L0.547976471,34.3238203 L0.6348,34.3856953 C0.384917647,34.6528828 0.669388235,34.9060078 0.520447059,35.2421016 L0.698329412,35.1492891 C1.24962353,35.7708516 0.895976471,36.8656172 1.40138824,37.6847578 L1.25244706,37.7213203 C1.35409412,37.8211641 1.44727059,37.9203047 1.55385882,38.0166328 C1.52068235,38.2514766 1.38515294,37.9491328 1.33644706,38.0370234 C1.57362353,38.3892891 1.61174118,38.1136641 1.83550588,38.5355391 C1.8348,38.8020234 1.69927059,38.5024922 1.60468235,38.4167109 C1.83762353,38.8062422 2.21174118,39.3638203 2.2908,39.6858516 C2.31268235,39.6823359 2.34585882,39.6865547 2.34585882,39.6675703 C2.55338824,39.8988984 2.68397647,40.2821016 2.88656471,40.5563203 C2.82303529,40.5872578 2.76727059,40.5232734 2.70868235,40.4599922 C2.76727059,40.5668672 2.8188,40.7342109 2.93527059,40.7813203 L2.75527059,40.7468672 C2.86891765,40.9880391 3.27409412,41.3227266 3.18868235,41.4619453 C3.21621176,41.4000703 3.31574118,41.3424141 3.44844706,41.5266328 C3.33409412,41.7811641 3.92421176,41.9393672 4.07385882,42.2930391 C4.00468235,42.2986641 3.81409412,42.1038984 3.8628,42.1629609 C3.94327059,42.3415547 4.12891765,42.3971016 4.30185882,42.4547578 L4.19809412,42.4863984 L4.91456471,42.9821016 C4.85315294,43.2506953 5.59362353,43.4785078 5.4468,43.5741328 C5.71291765,43.7696016 5.27950588,43.3329609 5.63668235,43.5481172 C5.67197647,43.6929609 5.97903529,43.7147578 5.88444706,43.8335859 L5.83574118,43.8251484 L6.10327059,43.9692891 L5.86044706,44.0002266 C6.10750588,44.1113203 6.35597647,44.0656172 6.41738824,43.9692891 C6.60162353,44.1598359 6.97150588,44.2315547 7.04209412,44.3974922 L6.93621176,44.3974922 C7.63574118,44.5901484 8.16797647,45.1188984 8.82232941,44.8446797 C8.87103529,44.8629609 8.86750588,44.9009297 8.76656471,44.9037422 C8.93597647,44.9009297 9.1068,44.8967109 9.27197647,44.8721016 L9.16538824,45.0000703 C9.44209412,44.9086641 9.70397647,44.8031953 9.94468235,44.6752266 L9.95456471,44.7511641 C10.4889176,44.6499141 11.2110353,44.2828828 11.6988,43.9320234 L11.6409176,44.0107734 C12.1279765,43.5558516 12.2112706,43.7161641 12.5260941,43.3638984 C12.5260941,43.3892109 12.5190353,43.4053828 12.5084471,43.4187422 C12.6185647,43.3322578 12.7195059,43.2422578 12.8197412,43.1522578 L12.8013882,43.2675703 C12.9242118,42.9518672 13.5743294,42.8421797 13.3484471,42.8681953 C13.4211529,42.7001484 13.5496235,42.4364766 13.5164471,42.3380391 C13.7945647,42.0272578 13.6576235,42.3303047 13.8820941,42.1826484 C14.0889176,41.9625703 14.0260941,41.8381172 14.3331529,41.5751484 L14.3875059,41.6299922 C14.4997412,41.4760078 14.5216235,41.3564766 14.6642118,41.1546797 L14.6479765,41.2355391 C14.7672706,40.8199922 15.1350353,40.9767891 15.0623294,40.5246797 C15.2148,40.4290547 15.3736235,40.1492109 15.4844471,40.2504609 C15.6969176,39.7849922 15.8868,39.4432734 16.1246824,39.0066328 C16.3788,39.0839766 16.1705647,38.9096016 16.4564471,38.7401484 L16.3329176,38.6838984 C16.7105647,38.0974922 17.4277412,37.5975703 17.7785647,36.9000703 L17.9063294,36.9499922 L17.8597412,36.7418672 C18.3369176,36.0542109 18.9086824,35.1310078 19.2058588,34.5333516 C19.2404471,34.3048359 19.2552706,33.9448359 19.4402118,33.6509297 L19.4416235,33.6917109 C19.6244471,33.1116328 19.8524471,32.5210078 20.1708,31.9437422 C20.2068,32.0035078 20.2696235,31.9592109 20.2738588,32.0414766 C20.1976235,31.8396797 20.4171529,31.6835859 20.4764471,31.5549141 L20.3183294,31.6681172 C20.2724471,31.4473359 20.4912706,31.2490547 20.6197412,31.1970234 L20.5900941,30.8679609 C20.6098588,30.8546016 20.6395059,30.8342109 20.6613882,30.8384297 L20.6133882,30.7638984 L20.8357412,30.6816328 C20.8279765,30.6000703 20.9246824,30.2182734 20.8082118,30.0467109 C20.8738588,30.0403828 21.0157412,29.7992109 20.9698588,30.0087422 C21.1188,29.6810859 21.2395059,29.3428828 21.3750353,29.0088984 L21.2613882,29.1474141 C21.1272706,29.1242109 21.1498588,28.7923359 21.2620941,28.6538203 C21.2952706,28.8949922 21.4378588,28.7311641 21.5628,28.6721016 C21.5409176,28.5110859 21.4082118,28.7564766 21.3630353,28.6601484 C21.3404471,28.4590547 21.4110353,28.0751484 21.4943294,27.9999141 L21.5148,28.1201484 C21.5388,27.8670234 21.7957412,27.8248359 21.8557412,27.5850703 C21.8155059,27.3417891 21.9588,27.2131172 21.7230353,27.1934297 C21.7682118,26.8756172 21.9093882,27.1188984 21.9609176,27.0253828 C21.8980941,26.8524141 22.0745647,26.4382734 22.2044471,26.4122578 C21.9192706,26.1584297 22.5397412,25.6064766 22.2792706,25.4756953 L22.4924471,25.2556172 C22.4197412,25.2303047 22.2644471,25.1410078 22.2792706,24.9265547 C22.4028,24.7500703 22.5235059,24.8246016 22.6131529,24.7817109 L22.3639765,24.5904609 C22.9195059,23.5252266 22.9660941,21.9825703 23.3592706,20.7513984 C23.3592706,20.1790547 23.3070353,19.4590547 23.3860941,18.7981172 L23.4185647,18.8740547 L23.5322118,18.2152266 L23.3755059,18.6891328 C23.3508,18.5428828 23.3020941,18.4275703 23.3140941,18.2890547 C23.4672706,17.5725703 23.6282118,16.5860859 23.4453882,15.6776484 C23.0938588,15.1067109 23.7164471,15.2691328 23.4404471,14.7157734 C23.4736235,14.7614766 23.5209176,14.7762422 23.5562118,14.8184297 C23.4009176,14.2130391 23.3091529,13.8832734 23.0345647,13.3010859 C23.3677412,13.3249922 22.9703294,12.9059297 23.1446824,12.9347578 L23.0056235,12.9052266 C23.0620941,12.7568672 23.0352706,12.4313203 23.1369176,12.4608516 L22.9230353,12.2210859 L23.0508,12.1725703 C22.9957412,11.8090547 22.7006824,11.0728828 22.9131529,10.8141328 C22.4832706,9.97460156 22.0526824,8.60069531 21.5373882,7.51717969 C21.3686824,7.41522656 21.1844471,7.12342969 21.0404471,6.89561719 C21.0376235,6.78663281 21.0383294,6.67272656 21.0298588,6.56444531 C20.8336235,6.35772656 20.5131529,6.22342969 20.4489176,5.95905469 C20.4651529,5.94921094 20.4820941,5.94991406 20.5004471,5.95905469 C20.3077412,5.75514844 20.2237412,5.48303906 19.9428,5.37124219 C19.7564471,5.13077344 19.6322118,4.84600781 19.8058588,4.82139844 C19.5912706,4.96624219 19.3950353,4.30389844 19.3950353,4.30389844 C19.3950353,4.30389844 19.2404471,4.10702344 18.9235059,3.78850781 C18.6171529,3.46085156 18.1435059,3.01507031 17.5110353,2.52428906 C16.2538588,1.55960156 14.2209176,0.434601563 11.7355059,0.256710938 C9.20562353,0.0612421875 6.6708,0.997804688 5.00209412,2.45397656 C3.28962353,3.89608594 2.5668,5.82897656 2.63315294,6.89350781 C2.71574118,7.06507031 2.71503529,7.44194531 2.89997647,7.34561719 C2.88162353,7.62194531 2.62327059,7.70069531 2.73974118,7.77944531 C2.91409412,7.43561719 3.04962353,7.95100781 3.29385882,7.64514844 L3.27268235,7.86452344 C3.35385882,7.92780469 3.24021176,7.55303906 3.39338824,7.64233594 L3.16821176,7.52491406 C3.24868235,7.35686719 3.3228,7.27530469 3.41809412,7.23874219 C3.3708,7.05522656 3.10256471,6.83866406 3.38491765,6.49835156 L3.35809412,6.61155469 C3.46962353,6.29163281 3.58044706,6.48358594 3.64468235,6.43647656 C3.63409412,6.45757031 3.62068235,6.47796094 3.61150588,6.50046094 L3.84585882,6.30850781 C3.66656471,6.45405469 3.73715294,6.84991406 3.78656471,6.67905469 C3.99691765,6.36053906 3.68491765,6.74233594 3.77738824,6.47233594 C3.84656471,6.30850781 3.94256471,6.41046094 4.00821176,6.44983594 L4.14021176,6.16999219 C4.23691765,6.23327344 4.04209412,6.34858594 4.20374118,6.29233594 C4.22632941,6.16014844 4.24468235,6.02233594 4.28562353,5.89507031 C4.57221176,5.99139844 4.39715294,5.45702344 4.72821176,5.47178906 C4.62303529,5.73335156 4.81927059,5.50694531 4.87150588,5.59975781 C5.00562353,5.42749219 5.13268235,5.24889844 5.27315294,5.08085156 C5.34303529,5.06116406 5.22585882,5.26788281 5.28021176,5.18350781 C5.42209412,5.14764844 5.36774118,4.99225781 5.41574118,4.94444531 C5.51385882,4.95991406 5.75385882,4.58796094 5.87809412,4.74897656 C6.29385882,4.56546094 5.85832941,4.44522656 6.24444706,4.26311719 C6.35597647,4.31796094 6.01362353,4.49514844 6.2268,4.47053906 C6.32068235,4.36366406 6.43291765,4.27858594 6.53809412,4.18366406 C6.53950588,4.25186719 6.58256471,4.38335156 6.44138824,4.45225781 C6.94044706,4.18155469 7.40421176,4.12389844 7.82844706,4.08592969 C8.25409412,4.04514844 8.63174118,4.00788281 9.05950588,3.79975781 C9.22609412,3.89538281 8.99456471,3.91507031 8.93456471,4.02686719 C9.22750588,3.84827344 9.4788,3.84475781 9.71315294,3.90663281 C9.94750588,3.95092969 10.1613882,4.03811719 10.4268,4.00647656 L10.4253882,3.89116406 C10.8199765,4.02616406 11.2124471,4.07116406 11.6176235,4.11546094 C12.0340941,4.17874219 12.4759765,4.24413281 12.8606824,4.44663281 L12.7865647,4.33764844 C12.9312706,4.26944531 13.1204471,4.31796094 13.2757412,4.31303906 C13.2757412,4.37842969 13.0978588,4.50217969 13.3463294,4.55280469 C13.3138588,4.49514844 13.2291529,4.41428906 13.2771529,4.37350781 C13.5771529,4.65546094 14.0875059,4.91561719 14.6155059,5.29178906 C15.1456235,5.65882031 15.6976235,6.11796094 16.0971529,6.60382031 C16.7388,7.15717969 17.2837412,7.88280469 17.7185647,8.65272656 C18.1505647,9.41983594 18.4731529,10.2467109 18.7851529,11.0553047 C18.6919765,10.8092109 18.9948,10.8211641 18.9983294,11.0349141 C18.7138588,11.6923359 19.3548,11.9285859 19.1656235,12.5606953 C19.5355059,13.5415547 19.2362118,14.5062422 19.6632706,15.4540547 L19.5291529,15.4800703 C19.4733882,15.6298359 19.5686824,15.6649922 19.5891529,15.8182734 L19.5503294,15.8161641 C19.5199765,16.1796797 19.6569176,16.6226484 19.5940941,16.8342891 L19.7465647,16.8476484 C19.7571529,17.0684297 19.6272706,16.9608516 19.7119765,17.1872578 L19.6357412,17.1795234 L19.7762118,17.4453047 C19.5079765,17.4129609 19.7380941,18.0675703 19.6018588,18.2412422 C19.6350353,18.5281172 19.7176235,19.0828828 19.6166824,19.5167109 C19.4712706,19.5856172 19.4162118,20.1206953 19.3124471,20.4518672 C19.2630353,21.1170234 19.1740941,22.0690547 18.9623294,22.8945234 L19.1366824,22.9113984 L19.1077412,23.1328828 C19.0710353,23.1223359 19.0463294,23.1476484 19.0336235,23.1110859 C18.8148,23.2432734 18.9877412,23.6250703 18.8310353,23.7755391 C19.0089176,23.6981953 18.8889176,23.6285859 18.9199765,23.5055391 C19.0406824,23.3445234 19.1670353,23.5484297 19.0293882,23.7720234 L18.9933882,23.7593672 L19.0463294,23.9435859 C18.9093882,23.9330391 18.8148,24.0694453 18.6799765,24.0581953 C18.5642118,24.7788984 18.6432706,25.3146797 18.3926824,26.0318672 C18.2698588,25.9165547 18.2733882,26.5634297 18.0651529,26.3447578 C18.0298588,26.8060078 18.2903294,26.3328047 18.4089176,26.5838203 C18.3679765,26.7047578 18.3990353,26.8538203 18.2995059,26.8474922 C18.2557412,26.7722578 18.1166824,26.9002266 18.1230353,26.7947578 L18.0559765,27.0914766 C18.0284471,27.1125703 18.0122118,27.0373359 18.0058588,27.0007734 C17.9663294,27.6378047 17.4969176,27.9844453 17.4637412,28.5574922 C17.5406824,28.6285078 17.5625647,28.3585078 17.6380941,28.4288203 C17.6282118,29.0201484 17.3042118,28.8317109 17.2484471,29.3660859 L17.1644471,29.2184297 C17.1891529,29.4075703 17.2675059,29.5179609 17.0712706,29.7366328 C16.9096235,29.7246797 17.0366824,29.4715547 17.0169176,29.3217891 C16.9470353,29.4968672 16.8065647,29.9553047 16.9893882,29.8723359 C16.9470353,30.1008516 16.7875059,30.1240547 16.7006824,30.2210859 C16.7345647,30.2393672 16.8792706,30.0649922 16.8933882,30.2147578 C16.6872706,30.4643672 16.5185647,30.9108516 16.3406824,31.2448359 C16.3068,31.2258516 16.2432706,31.2258516 16.2404471,31.1892891 C16.2940941,31.5464766 15.9940941,31.3742109 15.8585647,31.7672578" id="Fill-55" fill="#DD6343" mask="url(#mask-6)"></path>
                </g>
                <path d="M13,51 L13.069,51.193 C13.111,51.169 13.164,51.149 13.255,51.203 L13,51 Z" id="Fill-58" fill="#DD6343"></path>
                <path d="M17.0001325,55.069 C17.0131325,55.048 17.0261325,55.028 17.0351325,55 C17.0031325,55.016 16.9991325,55.043 17.0001325,55.069" id="Fill-60" fill="#DD6343"></path>
                <path d="M18.0287111,54 C17.9397111,54.121 18.0777111,54.095 18.1697111,54.098 C18.1467111,54.061 18.1117111,54.021 18.0287111,54" id="Fill-62" fill="#DD6343"></path>
                <path d="M11,48.0073333 C11.029,48.0393333 11.062,48.0553333 11.104,48.0373333 C11.055,47.9973333 11.024,47.9933333 11,48.0073333" id="Fill-64" fill="#DD6343"></path>
                <path d="M10.03,36 C10.02,36.022 10.012,36.04 10,36.068 C10.015,36.056 10.025,36.031 10.03,36" id="Fill-66" fill="#DD6343"></path>
                <path d="M10,37 C10.001,37.046 10.011,37.104 10.04,37.188 C10.048,37.105 10.028,37.047 10,37" id="Fill-68" fill="#DD6343"></path>
                <path d="M12,50 C12.029,50.052 12.066,50.098 12.126,50.125 C12.087,50.045 12.042,50.016 12,50" id="Fill-70" fill="#DD6343"></path>
                <path d="M10.012,37 L10,37.235 C10.014,37.235 10.025,37.236 10.043,37.237 L10.012,37 Z" id="Fill-72" fill="#DD6343"></path>
                <path d="M10.015,36 C10.012,36.092 10.016,36.216 10,36.296 C10.055,36.177 10.052,36.085 10.015,36" id="Fill-74" fill="#DD6343"></path>
                <path d="M10,43 L10.008,43.024 C10.121,43.194 10.069,43.086 10,43" id="Fill-76" fill="#DD6343"></path>
                <polygon id="Fill-78" fill="#DD6343" points="10.007 38 10 38.032 10.064 38.097"></polygon>
                <path d="M10,35.019 C10.007,35.063 10.018,35.103 10.044,35.134 C10.049,35.097 10.056,35.055 10.064,35 C10.036,35.014 10.018,35.018 10,35.019" id="Fill-80" fill="#DD6343"></path>
                <path d="M10.185,41.0780355 C10.099,41.0190355 10.041,40.9990355 10,41.0000355 C10.009,41.0770355 10.05,41.1240355 10.185,41.0780355" id="Fill-82" fill="#DD6343"></path>
            </g>
        </g>
    </g>
</svg>