<?xml version="1.0" encoding="UTF-8"?>
<svg width="40px" height="70px" viewBox="0 0 40 70" version="1.1" xmlns="http://www.w3.org/2000/svg" xmlns:xlink="http://www.w3.org/1999/xlink">
    <!-- Generator: Sketch 51.2 (57519) - http://www.bohemiancoding.com/sketch -->
    <title>number_3</title>
    <desc>Created with Sketch.</desc>
    <defs>
        <polygon id="path-1" points="0.0003 0.833056892 34.214 0.833056892 34.214 65.7698338 0.0003 65.7698338"></polygon>
    </defs>
    <g id="Page-1" stroke="none" stroke-width="1" fill="none" fill-rule="evenodd">
        <g id="切图" transform="translate(-811.000000, -310.000000)">
            <g id="3" transform="translate(811.000000, 310.000000)">
                <path d="M16.8844,61.4866 C16.8894,61.5126 16.8994,61.5436 16.9194,61.5806 C16.9144,61.5376 16.9014,61.5076 16.8844,61.4866" id="Fill-1" fill="#DD6343"></path>
                <path d="M24.7047,56.2444 L24.6567,56.3544 C24.7047,56.3004 24.7127,56.2674 24.7047,56.2444" id="Fill-3" fill="#DD6343"></path>
                <path d="M11.9786,64.1077 C11.9806,64.0967 11.9786,64.0917 11.9786,64.0817 C11.9016,64.1197 11.7986,64.1707 11.6296,64.2547 L11.9786,64.1077 Z" id="Fill-5" fill="#DD6343"></path>
                <path d="M34.1461,37.8254 L34.3281,37.9454 C34.2481,37.8884 34.2021,37.8464 34.1461,37.8254" id="Fill-7" fill="#DD6343"></path>
                <path d="M30.4034,50.4602 C30.3974,50.4062 30.4264,50.3512 30.4564,50.2982 C30.4014,50.3492 30.3674,50.3992 30.4034,50.4602" id="Fill-9" fill="#DD6343"></path>
                <path d="M8.4313,63.5979 L8.6343,63.6569 C8.6033,63.6029 8.5253,63.5709 8.4313,63.5979" id="Fill-11" fill="#DD6343"></path>
                <path d="M3.7169,66.5295 C3.7249,66.5365 3.7299,66.5445 3.7439,66.5515 C3.7459,66.5375 3.7339,66.5315 3.7169,66.5295" id="Fill-13" fill="#DD6343"></path>
                <path d="M5.9235,66.1262 C5.9605,66.0942 5.9985,66.0482 6.0365,66.0022 C5.9795,66.0342 5.9035,66.0712 5.9235,66.1262" id="Fill-15" fill="#DD6343"></path>
                <path d="M6.088,65.9377 L6.037,66.0017 C6.072,65.9797 6.1,65.9587 6.088,65.9377" id="Fill-17" fill="#DD6343"></path>
                <path d="M18.5504,2.0803 C18.4254,1.9973 18.2614,2.0233 18.0984,2.0293 L18.5504,2.0803 Z" id="Fill-19" fill="#DD6343"></path>
                <path d="M15.2252,33.4123 L15.2592,33.3513 C15.2252,33.3733 15.2202,33.3933 15.2252,33.4123" id="Fill-21" fill="#DD6343"></path>
                <path d="M17.7535,3.05 L17.6745,2.967 C17.6965,3.008 17.7235,3.032 17.7535,3.05" id="Fill-23" fill="#DD6343"></path>
                <path d="M10.8121,61.8967 C10.8821,61.6977 11.2461,61.6867 11.1781,61.5697 C11.0421,61.6697 10.7851,61.6917 10.8121,61.8967" id="Fill-25" fill="#DD6343"></path>
                <path d="M11.9713,39.0119 L11.8703,39.0309 C11.9193,39.0269 11.9493,39.0199 11.9713,39.0119" id="Fill-27" fill="#DD6343"></path>
                <path d="M17.7535,3.05 L17.8465,3.145 C17.8505,3.116 17.8485,3.091 17.8495,3.065 C17.8145,3.068 17.7815,3.064 17.7535,3.05" id="Fill-29" fill="#DD6343"></path>
                <path d="M24.337,31.2043 L24.332,31.2083 C24.324,31.2233 24.319,31.2323 24.312,31.2493 L24.337,31.2043 Z" id="Fill-31" fill="#DD6343"></path>
                <path d="M25.3209,30.8655 C25.2679,30.9165 25.2169,30.9655 25.1599,31.0185 C25.2659,30.9705 25.3039,30.9185 25.3209,30.8655" id="Fill-33" fill="#DD6343"></path>
                <path d="M18.0988,2.0295 L17.8378,2.0005 C17.9198,2.0315 18.0088,2.0335 18.0988,2.0295" id="Fill-35" fill="#DD6343"></path>
                <path d="M32.651,21.1243 L32.638,21.2363 C32.653,21.1903 32.658,21.1533 32.651,21.1243" id="Fill-37" fill="#DD6343"></path>
                <path d="M29.8468,50.9592 C29.8218,50.9682 29.7938,50.9872 29.7678,51.0012 C29.7858,51.0292 29.8068,51.0412 29.8468,50.9592" id="Fill-39" fill="#DD6343"></path>
                <polygon id="Fill-41" fill="#DD6343" points="31.2325 43.0901 31.2335 43.0881 31.2315 43.0871"></polygon>
                <path d="M31.2296,43.467 C31.3066,43.389 31.2886,43.208 31.2326,43.09 C31.1836,43.183 31.1646,43.281 31.2296,43.467" id="Fill-43" fill="#DD6343"></path>
                <path d="M31.5719,42.5481 L31.5469,42.5611 C31.5589,42.5571 31.5679,42.5541 31.5719,42.5481" id="Fill-45" fill="#DD6343"></path>
                <polygon id="Fill-47" fill="#DD6343" points="27.1134 48.1155 27.1244 48.1265 27.1174 48.1135"></polygon>
                <path d="M28.1095,46.9621 C28.1485,46.9601 28.1885,46.9461 28.2245,46.9251 C28.1875,46.9261 28.1485,46.9371 28.1095,46.9621" id="Fill-49" fill="#DD6343"></path>
                <polygon id="Fill-51" fill="#DD6343" points="31.0543 41.3235 31.0593 41.3195 31.0553 41.3195"></polygon>
                <g id="Group-55" transform="translate(2.000000, 1.181200)">
                    <mask id="mask-2" fill="white">
                        <use xlink:href="#path-1"></use>
                    </mask>
                    <g id="Clip-54"></g>
                    <path d="M20.9623,38.1838 C21.3033,37.9558 21.7233,38.0598 22.1543,38.0948 L22.1023,38.4768 L22.4813,38.4538 C22.5923,38.6038 22.1953,38.4498 22.4073,38.6578 L22.6003,38.4648 C22.5923,38.6038 23.4683,38.7968 22.8113,38.9008 L24.1703,39.3078 C24.4713,39.4148 24.4443,39.0598 24.7533,39.2568 C24.7883,39.3848 24.6093,39.2908 24.5953,39.4308 C25.5213,40.0238 26.0023,39.1038 26.9153,39.5898 C27.0143,39.5688 27.3243,39.6858 27.3453,39.6358 C27.3423,39.2268 27.1053,39.7758 26.8813,39.4618 C27.0103,39.1608 27.3053,39.4178 27.3643,39.1768 C27.4803,39.2978 27.6373,39.2918 27.7243,39.2678 C27.8993,39.4958 28.4173,39.6008 28.4923,39.9358 C28.5793,39.9268 28.7193,39.8828 28.8363,39.8428 C28.9123,39.7778 29.0173,39.7418 29.0913,39.7788 C29.0183,40.0328 28.9213,39.9598 28.9623,40.0988 L29.1163,39.9708 C29.1923,40.0538 29.1323,40.0798 29.0593,40.1388 C29.1363,40.2008 29.3613,40.0238 29.3733,40.1898 C29.2923,40.2078 29.2143,40.2268 29.1393,40.2508 C29.2803,40.2678 29.2953,40.3068 29.3593,40.4178 C29.2393,40.4598 29.2183,40.4218 29.2233,40.3808 C28.9693,40.5558 29.4343,40.4098 29.4023,40.4738 C29.5103,40.4318 29.4943,40.3198 29.7263,40.2878 C29.7363,40.3708 30.0023,40.3998 29.7593,40.5248 C29.6963,40.5078 29.6333,40.4928 29.5693,40.4838 C29.6783,40.5778 29.7663,40.5538 29.7523,40.6368 C29.6873,40.7308 29.6353,40.7408 29.5943,40.7398 C29.8273,40.8548 29.5403,41.0428 29.4613,41.1938 C29.4653,41.2308 29.6043,41.3268 29.5723,41.3668 C29.7253,41.2918 29.7653,41.3348 29.9453,41.3788 C29.7523,41.4298 29.8253,41.4828 29.8623,41.6608 C29.9063,41.8318 29.9463,42.0398 29.7383,42.2228 C29.6473,42.1648 29.5873,41.9988 29.7553,41.9278 C29.6513,41.7798 29.5323,41.6748 29.4433,41.5658 C29.3483,41.4668 29.3013,41.3138 29.2493,41.2498 C29.2153,41.5068 29.1793,41.5328 29.1263,41.4848 L29.3723,41.6628 C29.3343,41.7648 29.2713,41.8338 29.2333,41.9068 C29.3773,42.0378 29.6163,41.8448 29.6003,42.1368 C29.5423,42.4488 29.2573,42.1318 29.3523,42.2368 C29.2633,42.6568 29.5453,42.5468 29.2523,42.8478 C29.0453,42.8778 28.9553,43.3348 28.6033,43.2048 C28.5613,43.1238 28.4763,43.0578 28.5643,42.9828 C28.5703,42.6098 28.5143,43.2768 28.3043,43.0158 C28.4723,43.1028 28.2183,43.4188 28.0703,43.5478 L28.2843,43.6278 C28.4363,44.5228 27.9523,43.3458 27.6553,43.8908 C27.5303,44.2938 27.7973,43.8098 27.7693,44.0948 C27.5703,44.2848 27.3573,44.2418 27.1843,44.6098 C27.0453,44.6418 26.8093,44.7408 26.6093,44.5988 C26.5353,44.8478 26.0493,45.0908 26.1383,45.3518 C26.5693,45.1678 26.2203,44.8688 26.7713,44.7038 L26.8683,44.9608 C26.6473,45.2118 26.4423,45.6218 26.2243,45.7438 C26.2913,45.7388 26.3513,45.7638 26.3703,45.8198 C26.1113,46.2508 26.1973,46.5168 25.8163,46.8328 C25.6093,46.7338 25.8313,46.5458 25.9523,46.3788 C25.6153,46.4948 25.7233,46.6148 25.3443,46.9318 C25.1833,46.8228 25.5733,46.6938 25.4703,46.5268 L25.1533,46.9708 C25.3103,47.2178 24.8233,47.2388 24.6703,47.5538 C24.1313,48.1568 24.3713,48.5388 24.2733,49.0498 C24.1283,49.0858 24.0423,49.0608 24.0143,48.9698 C24.2533,48.9088 24.1443,48.8638 24.1273,48.7558 C23.9673,48.9958 23.5013,48.9978 23.4983,48.8068 C23.3023,49.1698 23.7233,48.8058 23.6363,49.0558 L23.2523,49.4588 C23.4203,49.5178 23.5773,49.3928 23.4803,49.6928 C23.3523,49.9058 23.2503,49.9738 23.0303,50.2068 C23.0013,50.1178 22.7803,50.1148 22.9453,49.9418 C22.7973,50.0168 22.6353,50.1908 22.6893,50.3678 C23.0393,50.2138 22.3953,50.8778 22.7613,50.8618 L22.4083,51.0138 C22.4663,50.9578 22.3933,50.8768 22.4983,50.8128 C22.2493,50.7148 22.3513,51.0678 22.2823,51.1738 C22.1613,51.2288 21.9233,51.4448 21.8363,51.3958 C21.8083,51.5238 21.5813,51.6818 21.4573,51.6278 C21.3733,51.7758 21.5623,51.7528 21.5843,51.8428 L21.1613,52.2148 C21.0443,52.1358 20.7453,51.8928 20.7703,51.7978 C20.7063,52.0348 20.9973,52.1428 20.7563,52.3528 C20.7063,52.0348 20.3103,52.4938 20.2843,52.0808 C20.0183,52.0608 19.6573,52.4258 19.4833,52.6598 C19.4923,52.9338 19.7963,52.5458 19.9283,52.7188 C19.3753,53.3058 19.7303,53.7898 19.2103,54.1048 L19.3673,54.0488 C19.1643,54.3878 19.1823,54.3438 19.1303,54.6218 C19.0373,54.3518 18.3353,54.3348 17.8993,54.7618 C17.9433,54.8998 18.3273,54.7468 18.3843,54.9758 L18.0913,55.2648 C17.8543,55.4498 17.3363,55.2968 17.4423,55.6048 L16.9053,55.5168 L17.1243,55.5618 C17.1653,55.6978 16.8613,55.9768 16.8243,56.0688 C16.5763,56.4408 16.3843,56.4398 16.1003,56.4398 C16.2233,56.4858 16.5193,56.5798 16.2783,56.8118 C16.0243,56.4568 15.6133,57.0798 15.4903,56.8908 C15.3843,56.9718 15.1123,56.9958 15.2033,57.1528 L15.0663,56.9178 C15.2573,57.2448 14.8513,57.5158 14.5783,57.7788 C14.3613,57.3068 14.2563,58.0378 13.8583,57.7388 C13.9933,58.0688 13.3813,58.2168 13.4883,58.5028 C13.2563,58.6758 13.1043,58.3858 12.9833,58.3318 L12.9413,58.5138 C12.7293,58.4518 12.2583,58.7138 11.9273,58.7858 L11.8343,59.2048 L11.6673,59.1428 C11.6673,59.2358 11.4803,59.4048 11.6703,59.4228 L11.5233,59.4918 C11.6873,59.7898 11.3753,59.6868 11.1673,59.9748 C11.0753,59.9668 11.0513,59.8868 11.0893,59.8118 C10.9483,59.8918 10.9203,59.7078 10.7863,59.6548 C10.9313,59.6708 10.5883,60.4698 11.0433,60.3808 C11.1393,60.4828 10.9683,60.6998 10.7993,60.7278 L10.5633,60.5158 L10.5563,60.8888 C10.3613,61.0538 10.1743,60.9408 9.9783,61.0088 C10.1513,60.8908 10.0933,60.2778 9.6303,60.5438 C9.8573,60.3758 9.8913,60.1578 9.9843,60.0298 C9.8843,60.0758 9.8223,60.0778 9.9053,59.8798 C9.5943,60.1688 9.8803,60.1138 9.5393,60.3468 C9.4263,60.1008 9.2833,60.0798 8.9253,60.1718 L9.2563,60.2158 C9.3503,60.2808 9.3963,60.3038 9.4673,60.3838 C9.3953,60.4208 9.2133,60.9078 9.0723,60.7978 C9.6413,60.9658 8.5963,61.4348 8.9513,61.5288 C8.9473,61.6218 8.7003,61.7758 8.6093,61.6718 C8.8143,61.3228 8.2343,61.5268 8.1933,61.3318 C8.1183,61.4618 8.5273,61.3788 8.4243,61.5528 C8.2513,61.6668 8.0363,61.5888 7.8953,61.5668 L7.6093,61.5228 C7.6253,61.6668 7.9893,61.5818 7.7633,61.7808 C7.6683,61.7668 7.4413,61.9658 7.3983,61.8658 C7.4353,61.6368 7.2293,61.4658 7.4283,61.3088 C7.2553,61.4218 6.6883,61.7558 7.0403,61.8558 L6.8183,61.9638 C7.0083,61.9928 7.4883,61.9728 7.0653,62.2368 L6.8333,62.5298 L6.6343,62.4758 C6.6703,62.5338 6.6503,62.6148 6.5333,62.6688 C6.4663,62.6108 6.3433,62.6378 6.3023,62.5358 C5.9763,62.7158 6.0653,62.8248 6.0583,62.9168 C5.8803,63.0278 5.7853,63.0128 5.8003,62.8258 C5.5293,62.9218 5.1013,63.1788 4.8633,63.1358 C4.5733,63.4118 4.9593,63.1518 4.8393,63.4148 C4.3323,63.1318 3.6263,63.8038 3.0873,64.1238 C3.4173,64.4248 2.9523,64.2378 3.0103,64.6278 C3.0763,64.4528 2.3363,64.5898 2.7823,64.2528 L2.4983,64.4328 C2.1953,64.3228 2.9243,64.0448 2.4793,63.9088 C2.1483,64.0788 2.1183,64.5938 1.6563,64.6418 C1.6673,64.3138 1.3893,64.8718 1.3533,64.5328 C1.3923,64.3998 1.5163,64.3778 1.6193,64.3038 C0.7473,64.5488 1.4553,64.6968 1.1483,65.0588 C0.7093,65.2998 0.6943,65.0118 0.6103,64.8978 C0.5163,64.8778 0.3063,65.0238 0.2183,65.1478 C0.4213,64.8588 0.8073,65.0818 0.7563,65.3088 C0.4173,65.0958 0.0703,65.5908 0.0003,65.7678 C0.7963,65.7928 0.4573,65.5778 1.2263,65.6438 C1.2663,65.5098 1.1273,65.2438 1.5463,65.1888 C1.3773,65.4288 1.6313,65.3338 1.7173,65.3488 C1.5743,65.2248 1.9413,65.1668 2.0213,65.0488 C2.1823,65.1278 1.9703,65.5128 2.3703,65.4018 L2.2683,65.0018 C2.4393,64.9888 2.3333,65.2998 2.6003,65.0668 C2.5233,65.3368 2.7893,65.3418 2.3983,65.5968 C3.0443,65.6758 3.0863,65.0668 3.4093,64.7538 C3.4093,64.7528 3.5623,64.6888 3.6653,64.6128 C3.9593,64.5728 3.5433,64.8758 3.6573,64.9428 L4.0653,64.7348 C4.1723,64.6538 4.2593,64.5708 4.3413,64.6428 C4.2753,64.8198 4.2853,64.9648 4.2483,65.1008 L4.5593,64.6368 C4.5703,64.7798 5.0173,64.6708 4.7523,64.9078 L5.3693,64.5458 L5.5443,64.7658 C5.6773,64.6468 5.6573,64.5968 5.4583,64.6558 C5.7083,64.6078 6.2113,63.7418 6.3393,64.2838 C6.7383,63.8288 6.9613,63.8228 7.4993,63.3878 C7.1533,63.8538 8.1773,63.3918 7.7403,63.7528 C8.0833,63.7078 8.0063,63.4138 8.2103,63.2548 C8.4763,63.2458 8.5083,63.5328 8.3253,63.7428 L8.5363,63.4898 L8.7193,63.2808 C9.0363,63.2788 8.9013,63.4948 9.1763,63.3928 L9.1173,63.1498 L9.3573,63.1808 C9.2403,63.1188 9.3673,62.9928 9.5423,62.8738 L9.7663,62.7598 C9.6163,63.0118 9.9973,62.6918 9.9783,62.8998 C10.1763,62.8048 10.1793,62.7998 10.5053,62.5688 L10.3633,62.4578 C10.7443,62.0828 10.5023,62.6618 10.8763,62.4718 L10.7593,62.3188 C11.4433,62.2988 11.5543,61.6478 12.0423,61.6028 C11.8443,61.7698 12.0113,61.9288 11.9883,61.8788 C12.2873,61.6278 12.8543,61.3518 13.0703,60.9418 C13.3383,61.1008 13.4103,61.1528 13.8263,61.0428 C14.0723,60.8718 14.0953,60.8258 14.0933,60.6398 C14.3983,60.5828 14.7623,60.1428 14.8843,60.3058 C14.8533,60.1358 15.1193,60.1888 15.1793,59.9888 C15.7923,59.9658 15.7183,59.2248 16.3483,59.2288 L16.4403,59.1358 C16.5163,59.1848 16.4733,59.2768 16.5263,59.3728 L17.3813,58.8158 L17.1343,58.8148 C17.2973,58.6748 17.3083,58.4458 17.5743,58.3958 C17.4153,58.8698 17.8513,58.2028 18.0343,58.3398 L17.9033,58.5318 C18.1333,58.3378 18.1323,58.3378 17.9993,58.1978 C18.2683,57.9128 18.4303,58.3298 18.5933,57.9498 L18.3833,58.0968 C18.2573,58.0528 18.3083,57.8168 18.4473,57.7208 C18.4973,57.7198 18.6453,57.7148 18.5563,57.8108 C18.7553,57.5698 19.1833,57.3748 19.2373,57.2258 C19.4033,57.1688 19.4453,57.3098 19.4063,57.4048 C19.8113,56.8618 19.6603,57.2468 20.0663,56.7048 L20.2193,56.5538 L20.6163,56.5278 L20.4363,56.4928 C20.5923,56.3438 20.6473,56.1998 20.8753,56.0808 L20.9023,56.2688 C21.3043,55.8018 21.6123,56.0068 21.9003,55.4558 C22.1333,55.0548 22.4013,55.5468 22.5883,54.9438 C22.6003,55.0068 22.6893,55.0148 22.7043,55.0628 L22.8133,54.8158 L22.9483,54.9868 L22.8753,54.6148 L23.1403,54.6728 C23.6173,54.6448 23.6773,54.1688 24.1523,54.1288 L23.9143,53.9798 C24.1463,52.9298 25.6093,52.6938 26.1423,51.6628 L26.2923,51.8188 L26.4023,51.3078 C26.6963,51.2318 26.4463,51.5378 26.5823,51.5528 C26.8153,51.1048 26.4663,51.1978 26.7653,50.7558 C27.0483,50.6488 26.8263,50.9308 26.8043,51.0748 C27.0293,50.6408 27.4373,50.0078 27.7673,49.8198 C27.8673,49.4428 28.2443,49.1698 28.4863,48.8788 C28.5543,48.9528 28.5043,49.0328 28.4563,49.1168 C28.5563,49.0248 28.7333,48.9298 28.7363,48.7738 L28.7793,49.0068 C29.0033,48.8098 29.2523,48.2728 29.4623,48.3638 C29.3753,48.3358 29.2633,48.2178 29.4383,48.0288 C29.7853,48.1398 29.7923,47.4028 30.1963,47.1918 C30.2253,47.2798 30.0403,47.5288 30.0993,47.4648 C30.3023,47.3558 30.3053,47.1158 30.3413,46.9008 C30.5663,46.7268 30.7283,46.4398 30.8783,46.1288 C31.2363,46.2088 31.4043,45.3288 31.5573,45.5188 C31.7753,45.2208 31.2633,45.6918 31.4943,45.2848 C31.6793,45.2598 31.6733,44.8998 31.8433,45.0348 C31.8943,44.9978 31.9483,44.9008 32.0013,44.8018 L32.0683,45.0958 C32.1843,44.8238 32.1133,44.5298 31.9823,44.4348 C32.2283,44.2698 32.3343,43.8798 32.5613,43.8548 C32.7083,43.6048 32.9913,43.3828 33.2193,43.1258 C33.4993,42.8098 33.7323,42.3708 33.6753,41.9008 C33.7079667,41.8614667 33.8019667,41.6614667 33.9573,41.3008 L34.0673,41.4848 C34.1083,41.0798 34.0483,40.6868 34.0413,40.3138 L34.1493,40.3188 C34.1673,40.2288 34.1863,40.1338 34.2143,39.9928 C34.2003,39.8218 34.1843,39.6328 34.1683,39.4308 C34.1573,39.3298 34.1463,39.2268 34.1353,39.1218 L34.1133,38.9228 L34.0223,38.8228 C33.9673,38.3618 33.6253,38.0338 33.3373,37.7258 L33.4793,37.8038 C32.5993,37.1528 32.8043,37.0218 32.0423,36.6298 C32.0863,36.6238 32.1163,36.6318 32.1463,36.6438 C31.9423,36.5018 31.7233,36.3758 31.5103,36.2428 L31.7153,36.2458 C31.5593,36.2178 31.4123,36.1368 31.2683,36.0368 C31.2013,35.9878 31.1123,35.9228 31.0693,35.8788 L30.9693,35.7578 C30.8513,35.5998 30.7953,35.4718 30.8433,35.6108 C30.6193,35.6028 30.2533,35.5518 30.1363,35.6428 C29.6433,35.4078 30.0813,35.4588 29.8043,35.2208 C29.5923,35.1148 29.3783,35.0788 29.1863,35.0448 C29.0143,35.0218 28.9253,35.0168 28.7143,34.8938 C28.5503,34.7458 28.4013,34.7778 28.1173,34.7008 C27.6913,34.7438 27.7433,34.1868 27.2353,34.5188 C27.0693,34.3718 26.6823,34.3158 26.7653,34.1158 C26.1373,34.0658 25.6713,33.9808 25.0533,33.8918 C25.0603,33.5208 24.9213,33.8748 24.6203,33.5728 L24.5943,33.7638 C23.7493,33.5508 22.8813,32.8238 21.8703,32.6958 L21.6423,32.6668 C20.9483,32.4614667 19.3423,32.4711333 16.8243,32.6958 L14.4763,33.3014453 C14.5327825,33.2462763 15.3783595,32.6562045 16.4403,32.2788944 C16.6681398,32.1979424 17.0048734,32.3602383 17.2353799,32.2788944 C17.4319311,32.2095331 17.9031888,31.7810108 18.0913,31.7148 C19.0027228,31.3940001 19.482472,31.4886843 19.5403,31.4588 C19.7962322,31.3723734 20.1447275,30.9341566 20.4363,30.8188 C21.1028424,30.5550918 21.7538847,30.5409083 22.3313,30.0268 C22.6943,29.2648 22.9483,30.1298 23.3513,29.4828 C23.3253,29.5508 23.3413,29.6178 23.3213,29.6848 C23.8633,29.1718 24.1643,28.8708 24.6373,28.2308 C24.8233,28.6598 25.0383,27.9518 25.1203,28.1838 L25.0663,27.9908 C25.2723,27.9828 25.6313,27.7728 25.6623,27.9158 L25.8053,27.5238 L25.9443,27.6588 C26.1273,27.5468 26.4313,27.2368 26.7233,27.0068 C26.8783,26.8778 27.0053,26.8098 27.1793,26.6878 C27.3523,26.5648 27.5143,26.4818 27.6533,26.4738 C27.7803,26.2788 27.9123,26.0758 28.0503,25.8648 C28.1263,25.7068 28.2113,25.5438 28.3023,25.3778 C28.4863,25.0498 28.6813,24.7008 28.8803,24.3438 C29.2843,23.6348 29.6743,22.8868 29.9983,22.2078 C29.9383,21.9548 30.0693,21.5418 30.1723,21.2188 C30.2863,21.1308 30.4013,21.0418 30.5073,20.9478 C30.5423,20.5888 30.3783,20.1608 30.6033,19.8908 C30.6893,19.5888 30.8873,19.2868 30.7573,18.9218 C30.8423,18.5458 31.0243,18.1918 31.2143,18.3468 C31.0313,18.2938 31.0803,18.0938 31.1753,17.9018 C31.2663,17.7098 31.3933,17.5208 31.3933,17.5208 C31.3933,17.5208 31.4513,17.2058 31.5203,16.6318 C31.5763,16.0548 31.6453,15.2158 31.5703,14.1548 C31.5173,13.1018 31.2793,11.8068 30.7253,10.4348 C30.1653,9.0358 29.2033,7.6858 28.1403,6.6428 C25.9833,4.5278 23.5033,3.2608 21.4433,2.3608 C19.3633,1.4768 17.6513,0.9618 16.5503,0.8988 C16.3463,0.9918 15.9693,0.9048 15.9733,1.1688 C15.6923,1.0798 15.7573,0.7318 15.6103,0.8618 C15.8763,1.1698 15.2473,1.2088 15.4533,1.6058 L15.2163,1.5168 C15.1023,1.6018 15.5863,1.5628 15.4063,1.7368 L15.6493,1.4758 C15.7923,1.6248 15.8493,1.7448 15.8493,1.8838 C16.0803,1.8658 16.4263,1.5118 16.7133,1.9158 L16.5943,1.8728 C16.9203,2.0438 16.6803,2.1818 16.7183,2.2688 L16.8363,2.5328 C16.6843,2.3168 16.2063,2.3668 16.3943,2.4518 C16.7333,2.7578 16.3363,2.3198 16.6463,2.4488 C16.8363,2.5338 16.6953,2.6678 16.6343,2.7588 L16.9693,2.9278 C16.8793,3.0628 16.7553,2.8008 16.8073,3.0198 L17.3053,3.0958 C17.1863,3.5018 17.8513,3.1638 17.8593,3.6078 C17.5133,3.5328 17.8213,3.7438 17.7103,3.8368 L18.4593,4.2068 C18.5023,4.2948 18.2063,4.2168 18.3273,4.2578 C18.4133,4.4318 18.6023,4.2898 18.6763,4.3318 C18.6883,4.4648 19.2283,4.6188 19.0803,4.8498 C19.4923,5.2758 19.4533,4.6548 19.8433,5.0408 C19.8263,5.2188 19.4563,4.8778 19.5813,5.1388 L20.0893,5.3448 C20.0073,5.3918 19.8683,5.5298 19.7063,5.4008 C20.8983,6.2988 21.1323,7.4308 22.3123,7.9318 C22.3553,8.1928 22.1313,7.9728 21.9533,8.0138 C22.8723,8.2948 22.7683,9.0818 23.3513,9.5038 L23.4643,9.3848 C23.9273,10.3998 24.9553,10.9858 25.2533,11.9108 C25.4923,11.7818 25.6033,11.9598 25.7473,12.0598 C25.6853,12.1178 25.3863,12.1268 25.5753,12.3248 C25.6023,12.2508 25.5983,12.1268 25.6863,12.1188 C25.6823,12.5758 25.8483,13.1628 25.9223,13.8898 C26.0073,14.6018 26.0383,15.4338 25.8743,16.1688 C25.8743,18.2038 24.8063,20.3918 23.8293,22.0988 C23.9733,21.8288 24.2573,22.1528 24.0493,22.3018 C23.8163,22.3428 23.6723,22.4198 23.5713,22.5198 C23.5546333,22.5371333 23.5226333,22.5781333 23.4753,22.6428 C24.9093,23.6668 23.8693,22.9278 24.1893,23.1548 L24.0343,23.0588 L23.8563,22.9438 L23.5083,22.7068 C23.4073,22.7618 23.4813,22.7818 23.3583,22.8768 C23.2563,22.9578 23.1253,23.0178 22.9423,23.0198 C22.1713,23.9068 20.7903,24.0988 19.9903,25.1998 L19.8693,25.0498 C19.6613,25.0748 19.6893,25.2168 19.5243,25.3368 C19.0523,25.4708 18.6533,25.9348 18.3693,25.9958 L18.4633,26.1908 C18.2243,26.3508 18.2503,26.1208 18.0563,26.3748 L17.8143,26.6248 C17.6543,26.2788 17.0973,27.0028 16.8103,26.9658 C16.5163,27.2058 15.9783,27.6958 15.4433,27.9028 C15.2573,27.7828 14.6463,28.1178 14.2093,28.2438 C13.4723,28.6978 12.4083,29.3368 11.3973,29.7868 L11.5293,29.9958 L11.2803,30.1428 C10.9103,29.8978 10.6863,30.4258 10.4013,30.3788 C10.6333,30.5098 10.5973,30.3168 10.7453,30.2468 C11.0093,30.2408 10.9183,30.5568 10.5783,30.5958 L10.4243,30.7598 C10.3143,30.6008 10.0973,30.6108 9.9883,30.4528 C9.2793,30.8618 8.8573,31.3588 8.1683,31.7148 L6.6913,32.4768 L6.7123,34.0658 C6.7133,34.1788 6.7093,34.3068 6.6963,34.4408 C6.4823,34.3398 6.7503,35.1528 6.3793,34.9538 C6.4123,35.0958 6.4473,35.1648 6.4833,35.1868 C6.6873,35.0421333 6.84063333,35.0224667 6.9433,35.1278 L6.3393,36.6438 L9.6363,37.5628 C9.7753,37.5338 9.9003,37.4538 9.9403,37.5718 C9.8763,37.6688 10.0973,37.7818 9.9713,37.8308 L10.3483,37.7588 C11.0243,37.5648 11.6633,37.9668 12.3283,37.6918 C12.3693,37.5548 12.0533,37.6798 12.0913,37.5398 C12.7653,37.2048 12.7223,37.7288 13.3493,37.4978 L13.2273,37.6898 C13.4263,37.5508 13.5093,37.3858 13.8563,37.5148 C13.9263,37.7308 13.5773,37.7108 13.4203,37.8228 C13.6533,37.8148 14.2353,37.7278 14.0493,37.5398 C14.3233,37.4618 14.4303,37.6528 14.5793,37.7088 C14.5833,37.6548 14.3183,37.5698 14.4763,37.4638 C14.8593,37.5708 15.4353,37.5588 15.8853,37.5878 C16.2393,37.4698 16.1943,37.9498 16.6813,37.9138 C17.9863,37.8738 19.6883,37.8098 20.9623,38.1838 Z" id="Fill-53" fill="#DD6343" mask="url(#mask-2)"></path>
                </g>
                <path d="M26.9532,48.2434 L27.1132,48.1154 C27.0772,48.0834 27.0412,48.0394 27.0632,47.9354 L26.9532,48.2434 Z" id="Fill-56" fill="#DD6343"></path>
                <path d="M31.5939,41.9211 C31.5769,41.9131 31.5619,41.9051 31.5359,41.9001 C31.5419,41.9171 31.5669,41.9211 31.5939,41.9211" id="Fill-58" fill="#DD6343"></path>
                <path d="M30.9415,41.4446 C31.0185,41.4386 31.0335,41.3786 31.0545,41.3236 C31.0185,41.3526 30.9785,41.3906 30.9415,41.4446" id="Fill-60" fill="#DD6343"></path>
                <path d="M23.8365,52.5774 C23.8445,52.5384 23.8385,52.5034 23.8015,52.4754 C23.7985,52.5354 23.8135,52.5634 23.8365,52.5774" id="Fill-62" fill="#DD6343"></path>
                <path d="M12.2189,61.1057 L12.2849,61.1057 C12.2679,61.0967 12.2449,61.0977 12.2189,61.1057" id="Fill-64" fill="#DD6343"></path>
                <path d="M13.0895,60.9934 C13.1245,60.9744 13.1655,60.9414 13.2165,60.8844 C13.1485,60.9104 13.1125,60.9504 13.0895,60.9934" id="Fill-66" fill="#DD6343"></path>
                <path d="M26.1271,49.9368 C26.1591,49.8888 26.1831,49.8348 26.1801,49.7688 C26.1261,49.8388 26.1211,49.8928 26.1271,49.9368" id="Fill-68" fill="#DD6343"></path>
                <path d="M13.3365,60.7571 L13.5235,60.6731 C13.5175,60.6601 13.5125,60.6511 13.5045,60.6351 L13.3365,60.7571 Z" id="Fill-70" fill="#DD6343"></path>
                <path d="M11.9845,61.2112 C12.0565,61.1782 12.1495,61.1232 12.2185,61.1062 C12.1015,61.1062 12.0325,61.1452 11.9845,61.2112" id="Fill-72" fill="#DD6343"></path>
                <path d="M20.0812,56.3244 L20.0952,56.3064 C20.1592,56.1344 20.1062,56.2264 20.0812,56.3244" id="Fill-74" fill="#DD6343"></path>
                <polygon id="Fill-76" fill="#DD6343" points="13.8995 59.9739 13.9265 59.9669 13.9455 59.8849"></polygon>
                <path d="M11.1779,61.5696 C11.2089,61.5466 11.2349,61.5216 11.2469,61.4856 C11.2159,61.4956 11.1799,61.5066 11.1349,61.5196 C11.1579,61.5396 11.1699,61.5536 11.1779,61.5696" id="Fill-78" fill="#DD6343"></path>
                <path d="M17.4537,57.8801 C17.4537,57.9791 17.4687,58.0361 17.4907,58.0711 C17.5437,58.0301 17.5577,57.9761 17.4537,57.8801" id="Fill-80" fill="#DD6343"></path>
            </g>
        </g>
    </g>
</svg>