<?xml version="1.0" encoding="UTF-8"?>
<svg width="671px" height="165px" viewBox="0 0 671 165" version="1.1" xmlns="http://www.w3.org/2000/svg" xmlns:xlink="http://www.w3.org/1999/xlink">
    <!-- Generator: Sketch 51.2 (57519) - http://www.bohemiancoding.com/sketch -->
    <title>title</title>
    <desc>Created with Sketch.</desc>
    <defs></defs>
    <g id="Page-1" stroke="none" stroke-width="1" fill="none" fill-rule="evenodd">
        <g id="封面" transform="translate(-39.000000, -263.000000)">
            <g id="title" transform="translate(39.000000, 263.000000)">
                <g id="Group-101" transform="translate(54.000000, 7.000000)" stroke="#8B572A" stroke-linecap="round">
                    <path d="M6.1026,70.574 C8.769,76.9544 8.7918,84.1328 6.1662,90.53 L0.6006,104.0876" id="Stroke-1" stroke-width="5.6"></path>
                    <path d="M23.38068,129.03248 L7.18548,90.28088" id="Stroke-3" stroke-width="5.6"></path>
                    <path d="M14.14344,68.73656 L14.87184,82.29296" id="Stroke-5" stroke-width="5.6"></path>
                    <path d="M48.93,67.63208 C47.6532,64.57448 44.1384,63.13208 41.0808,64.40888 L15.2004,75.22568" id="Stroke-7" stroke-width="5.6"></path>
                    <path d="M35.40648,79.86584 L45.58968,104.23304 C48.00048,110.00024 45.10968,116.69984 39.13488,119.19704" id="Stroke-9" stroke-width="5.6"></path>
                    <path d="M32.38956,97.80488 L28.29036,108.10568" id="Stroke-11" stroke-width="5.6"></path>
                    <path d="M49.2006,90.72152 L59.313,95.19872" id="Stroke-13" stroke-width="5.6"></path>
                    <polyline id="Stroke-15" stroke-width="5.6" points="72.21624 73.66016 83.40744 98.88896 128.38104 78.94016"></polyline>
                    <path d="M96.98508,53.88008 C94.76388,53.75168 92.48028,54.13448 90.30708,55.09928 C83.02068,58.33088 79.73508,66.85688 82.96548,74.14328 C86.19828,81.42848 94.72428,84.71528 102.00948,81.48248 C109.29588,78.25208 112.58268,69.72608 109.34988,62.43968 C108.13788,59.70728 106.18188,57.53768 103.82508,56.06288 L105.33588,52.14368" id="Stroke-17" stroke-width="5.6"></path>
                    <path d="M91.16496,70.50608 L101.03736,66.12728" id="Stroke-19" stroke-width="5.6"></path>
                    <path d="M115.7304,50.42012 L130.3272,83.32772" id="Stroke-21" stroke-width="5.6"></path>
                    <path d="M93.91116,63.38048 L98.28996,73.25288" id="Stroke-23" stroke-width="5.6"></path>
                    <path d="M64.73616,55.31744 L109.71096,35.36864" id="Stroke-25" stroke-width="5.6"></path>
                    <path d="M161.0526,74.7014 L143.2182,77.1326 L138.435,42.0566 C137.7642,37.1318 141.2118,32.5958 146.1378,31.9238 C151.0626,31.2518 155.5998,34.7006 156.2706,39.6254 L161.0526,74.7014 Z" id="Stroke-27" stroke-width="5.6"></path>
                    <path d="M138.7512,36.96764 L145.9668,23.26724" id="Stroke-29" stroke-width="5.6"></path>
                    <path d="M141.16476,53.19044 L148.29876,52.21724" id="Stroke-31" stroke-width="5.6"></path>
                    <path d="M167.86416,18.06176 C168.59016,23.39096 167.17056,28.78976 163.91496,33.07256 L161.29656,36.51776" id="Stroke-33" stroke-width="5.6"></path>
                    <path d="M167.80968,26.54672 L179.25288,24.98672 C184.09608,24.32672 188.55888,27.71792 189.21888,32.56112 L192.07488,53.51672 C193.32888,62.70992 186.89208,71.17832 177.69888,72.43112" id="Stroke-35" stroke-width="5.6"></path>
                    <path d="M170.23836,45.97868 L178.83756,52.51388" id="Stroke-37" stroke-width="5.6"></path>
                    <path d="M237.10608,82.00368 C237.10608,82.00368 260.02008,70.54728 258.58848,43.33608 C257.15568,16.12608 232.81008,8.96448 232.81008,8.96448 L217.05648,8.96448 C217.05648,8.96448 226.56288,33.42168 224.21688,49.06488 C219.92088,77.70768 195.57408,84.86808 181.25328,86.30088" id="Stroke-39" stroke-width="5.6"></path>
                    <path d="M224.93328,32.59512 L234.95808,32.59512" id="Stroke-41" stroke-width="5.6"></path>
                    <path d="M225.64932,49.06464 L235.67412,49.06464" id="Stroke-43" stroke-width="5.6"></path>
                    <path d="M274.2528,25.1004 C274.2528,25.1004 274.2528,13.9008 281.2524,11.1 C288.2532,8.3004 295.2528,13.9008 295.2528,23.7" id="Stroke-45" stroke-width="5.6"></path>
                    <polyline id="Stroke-47" stroke-width="5.6" points="284.7528 28.6002 284.7528 63.6006 295.2528 53.1006"></polyline>
                    <path d="M308.5524,2.0004 L314.1528,11.8008" id="Stroke-49" stroke-width="5.6"></path>
                    <path d="M332.3532,0.6006 L325.3524,17.4006" id="Stroke-51" stroke-width="5.6"></path>
                    <path d="M302.9532,17.4006 L336.5532,17.4006" id="Stroke-53" stroke-width="5.6"></path>
                    <path d="M298.0524,38.4006 L341.4528,38.4006" id="Stroke-55" stroke-width="5.6"></path>
                    <path d="M312.7524,18.8004 C312.7524,18.8004 318.3528,48.2976 308.5524,63.8232 C298.7532,79.3476 274.9524,80.9004 274.9524,80.9004" id="Stroke-57" stroke-width="5.6"></path>
                    <path d="M328.1532,18.8004 L328.1532,83.3004" id="Stroke-59" stroke-width="5.6"></path>
                    <path d="M359.154,19.18496 L410.292,26.06816" id="Stroke-61" stroke-width="5.6"></path>
                    <path d="M380.652,12.39224 L353.574,42.65024" id="Stroke-63" stroke-width="5.6"></path>
                    <path d="M363.6036,70.76744 L366.966,45.79304 C368.1588,36.92504 376.3152,30.70544 385.1808,31.89824 C394.0488,33.09224 400.2696,41.24744 399.0756,50.11544 L395.904,73.67504 L389.958,72.87464" id="Stroke-65" stroke-width="5.6"></path>
                    <path d="M368.14344,50.91284 L380.03664,52.51364" id="Stroke-67" stroke-width="5.6"></path>
                    <path d="M366.7032,61.61624 L378.5952,63.21704" id="Stroke-69" stroke-width="5.6"></path>
                    <polyline id="Stroke-71" stroke-width="5.6" points="462.55908 29.75876 454.65108 32.34116 437.43708 37.96316"></polyline>
                    <path d="M452.96256,32.8736 L465.39576,37.8572 C468.65496,39.1628 468.22656,43.9052 464.78736,44.606 L428.73816,51.9536" id="Stroke-73" stroke-width="5.6"></path>
                    <path d="M449.8266,40.88168 L451.8654,45.54608" id="Stroke-75" stroke-width="5.6"></path>
                    <path d="M461.56068,56.15876 L426.83868,63.03596" id="Stroke-77" stroke-width="5.6"></path>
                    <path d="M447.73248,59.39264 L459.45888,64.09304 C465.28848,66.42944 464.52288,74.91344 458.36928,76.16744 L415.28568,84.94784" id="Stroke-79" stroke-width="5.6"></path>
                    <path d="M443.53248,70.11812 L446.26368,76.36652" id="Stroke-81" stroke-width="5.6"></path>
                    <path d="M522.24852,119.477 L474.77892,96.3566 L495.00972,54.821 C501.39492,41.7134 517.19652,36.263 530.30532,42.647 C543.41292,49.0322 548.86332,64.8338 542.47812,77.9426 L522.24852,119.477 Z" id="Stroke-83" stroke-width="5.6"></path>
                    <path d="M526.28208,68.71832 C524.54088,72.29312 520.23168,73.77992 516.65688,72.03872 C513.08088,70.29752 511.59528,65.98832 513.33648,62.41232 C515.07768,58.83752 519.38688,57.35072 522.96168,59.09312 C526.53648,60.83432 528.02328,65.14352 526.28208,68.71832 Z" id="Stroke-85" stroke-width="5.6"></path>
                    <polyline id="Stroke-87" stroke-width="5.6" points="496.39572 84.86156 502.70172 71.91476 524.27772 82.42436 518.49732 94.29116"></polyline>
                    <path d="M508.22112,86.61704 C508.22112,86.61704 505.06752,93.08984 498.62352,92.61944 C492.17832,92.15024 487.30872,88.44344 487.30872,88.44344" id="Stroke-89" stroke-width="5.6"></path>
                    <path d="M510,100 L517.2312,105.5872" id="Stroke-91" stroke-width="5.6"></path>
                    <path d="M570.33636,81.78248 C575.19156,74.42288 585.21276,72.51728 592.44996,77.69648 C598.98396,82.37408 600.87036,91.58048 596.70396,98.45168 C594.49596,102.09008 591.06516,104.49008 587.28156,105.47168 C576.91596,108.16208 567.69636,114.11048 561.79836,123.04928 L561.54876,123.42728" id="Stroke-93" stroke-width="5.6"></path>
                    <path d="M555.39504,132.75368 L552.95784,136.44848" id="Stroke-95" stroke-width="5.6"></path>
                    <path d="M28.8528,144.7004 C28.8528,144.7004 70.6,116.6 169,89" id="Stroke-97" stroke-width="2.2"></path>
                    <path d="M339.6528,82.3004 C339.6528,82.3004 465.6528,93.1004 542.4528,151.9004" id="Stroke-99" stroke-width="2.2"></path>
                </g>
                <g id="Group-15" transform="translate(501.000000, 121.000000) scale(-1, 1) translate(-501.000000, -121.000000) translate(475.000000, 96.000000)">
                    <path d="M23.1803194,8.06148112 C23.1803194,8.06148112 16.8076137,5.02184825 14.8633984,6.32454805 C12.9191831,7.62724785 12.0550874,9.79841419 12.7031592,13.0551637 C13.3512309,16.3119132 12.9191831,17.9402879 11.7310515,18.5916378 C10.5429199,19.2429877 3.09009459,20.002896 1.46991517,21.8483874 C-0.150264257,23.6938787 -0.474300141,25.3222535 0.713831436,26.4078367 C1.90196301,27.4934198 12.1630994,29.4474695 19.7239367,34.5497104 C27.284774,39.6519513 33.0094079,44.8627505 34.4135634,47.2510335 C35.8177189,49.6393165 37.6176303,50.6163413 38.9137738,49.6028409 C39.9403195,48.8003778 41.4343409,43.7771673 43.4865682,43.4514924 C45.5387955,43.1258174 49.751262,46.4911253 51.1554175,45.4055421 C52.559573,44.3199589 52.0195132,41.7145593 50.9393936,38.2406932 C49.9910485,35.1915072 48.0230706,32.4871024 48.0230706,32.4871024 C48.0230706,32.4871024 40.7862692,24.8880202 34.6295874,18.3745212 C30.3294152,13.8250593 23.1803194,8.06148112 23.1803194,8.06148112" id="Fill-1" fill="#FCFBF5"></path>
                    <path d="M23.1803194,8.06148112 C23.1803194,8.06148112 16.8076137,5.02184825 14.8633984,6.32454805 C12.9191831,7.62724785 12.0550874,9.79841419 12.7031592,13.0551637 C13.3512309,16.3119132 12.9191831,17.9402879 11.7310515,18.5916378 C10.5429199,19.2429877 3.09009459,20.002896 1.46991517,21.8483874 C-0.150264257,23.6938787 -0.474300141,25.3222535 0.713831436,26.4078367 C1.90196301,27.4934198 12.1630994,29.4474695 19.7239367,34.5497104 C27.284774,39.6519513 33.0094079,44.8627505 34.4135634,47.2510335 C35.8177189,49.6393165 37.6176303,50.6163413 38.9137738,49.6028409 C39.9403195,48.8003778 41.4343409,43.7771673 43.4865682,43.4514924 C45.5387955,43.1258174 49.751262,46.4911253 51.1554175,45.4055421 C52.559573,44.3199589 52.0195132,41.7145593 50.9393936,38.2406932 C49.9910485,35.1915072 48.0230706,32.4871024 48.0230706,32.4871024 C48.0230706,32.4871024 40.7862692,24.8880202 34.6295874,18.3745212 C30.3294152,13.8250593 23.1803194,8.06148112 23.1803194,8.06148112 Z" id="Stroke-3" stroke="#8B572A" stroke-width="2"></path>
                    <path d="M20,18.5002116 C20,19.8808939 18.8805654,21 17.5,21 C16.1190113,21 15,19.8808939 15,18.5002116 C15,17.1191061 16.1190113,16 17.5,16 C18.8805654,16 20,17.1191061 20,18.5002116" id="Fill-5" fill="#F2A7BE"></path>
                    <path d="M31.8961208,21.3153263 C31.8961208,21.3153263 24.5419404,26.5691445 27.236089,33.9918138 C29.8006237,41.0578371 36.5561526,40.276795 40.3492017,39.5311193 C44.1422509,38.7854435 49.7776381,34.5244393 48.9106555,28.132933 C48.0436728,21.7414267 41.2161844,19.9304999 41.2161844,19.9304999 C41.2161844,19.9304999 46.8515717,15.882546 47.7185543,9.38451455 C48.585537,2.88648314 47.0683173,-0.202744902 44.1422509,0.0103053082 C41.2161844,0.223355518 38.8319821,2.67343293 37.7482538,7.78663797 C36.6645254,12.899843 36.6645254,17.4804225 36.6645254,17.4804225 C36.6645254,17.4804225 33.9552046,8.63883881 30.2705283,5.12351035 C26.5858521,1.60818188 24.4183954,1.39513167 22.9011758,3.63215888 C21.3839561,5.86918608 21.6007018,10.3432405 24.9602596,15.1368702 C28.3198174,19.9304999 31.8961208,21.3153263 31.8961208,21.3153263" id="Fill-7" fill="#FCFBF5"></path>
                    <path d="M31.8961208,21.3153263 C31.8961208,21.3153263 24.5419404,26.5691445 27.236089,33.9918138 C29.8006237,41.0578371 36.5561526,40.276795 40.3492017,39.5311193 C44.1422509,38.7854435 49.7776381,34.5244393 48.9106555,28.132933 C48.0436728,21.7414267 41.2161844,19.9304999 41.2161844,19.9304999 C41.2161844,19.9304999 46.8515717,15.882546 47.7185543,9.38451455 C48.585537,2.88648314 47.0683173,-0.202744902 44.1422509,0.0103053082 C41.2161844,0.223355518 38.8319821,2.67343293 37.7482538,7.78663797 C36.6645254,12.899843 36.6645254,17.4804225 36.6645254,17.4804225 C36.6645254,17.4804225 33.9552046,8.63883881 30.2705283,5.12351035 C26.5858521,1.60818188 24.4183954,1.39513167 22.9011758,3.63215888 C21.3839561,5.86918608 21.6007018,10.3432405 24.9602596,15.1368702 C28.3198174,19.9304999 31.8961208,21.3153263 31.8961208,21.3153263 Z" id="Stroke-9" stroke="#8B572A" stroke-width="2"></path>
                    <path d="M36,31.5002424 C36,32.3284306 35.3284306,33 34.4997576,33 C33.6715694,33 33,32.3284306 33,31.5002424 C33,30.6715694 33.6715694,30 34.4997576,30 C35.3284306,30 36,30.6715694 36,31.5002424" id="Fill-11" fill="#8B572A"></path>
                    <path d="M46,29.5002424 C46,30.3284306 45.3284306,31 44.4997576,31 C43.6710845,31 43,30.3284306 43,29.5002424 C43,28.6715694 43.6710845,28 44.4997576,28 C45.3284306,28 46,28.6715694 46,29.5002424" id="Fill-13" fill="#8B572A"></path>
                </g>
            </g>
        </g>
    </g>
</svg>